<svg xmlns="http://www.w3.org/2000/svg" width="136.961" height="136.939" viewBox="0 0 136.961 136.939">
  <g id="layer1" transform="translate(-2.209 -2.231)">
    <path id="rect4530" d="M14.023,12.435h22.09V47.78H14.023Z" transform="translate(103.056 91.39)" fill="#d9fcff"/>
    <path id="path4532" d="M31.7,12.435c2.209,26.508-7.64,31.909-17.672,32.506V47.78h22.09V12.435Z" transform="translate(103.056 91.39)" fill="#365b7a"/>
    <path id="rect4538" d="M14.023,12.435V47.78h4.418V12.435Z" transform="translate(103.056 91.39)" fill="#f5f9fb"/>
    <path id="rect4534" d="M12.965,12.7h6.627V43.627H12.965Z" transform="translate(95.279 93.334)" fill="#d0e5f8"/>
    <path id="rect4518" d="M.265,2.91H28.982V40.464H.265Z" transform="translate(1.944 21.389)" fill="#d9fcff"/>
    <path id="path4520" d="M24.564,2.91C26.623,29.419,10.3,37.029.265,37.625v2.839H28.982V2.91Z" transform="translate(1.944 21.389)" fill="#79dae1"/>
    <path id="rect4527" d="M.265,2.91V40.464H4.683V2.91Z" transform="translate(1.944 21.389)" fill="#f5f9fb"/>
    <path id="rect4506" d="M3.7,3.175H12.54V36.311H3.7Z" transform="translate(27.222 23.334)" fill="#d0e5f8"/>
    <path id="path4504" d="M21.016,5.786c-2.9-2.24-4.536-4.485-7.774-5.353C11.017-.163,6.615.7,6.615,5.462c-.033,5.531,4.251,10.246,4.418,14.664Z" transform="translate(48.611 1.964)" fill="#ffa465"/>
    <path id="path4484" d="M31.2.283a4.981,4.981,0,0,0-.936.151c-4.418.964-6.627,6.145-13.254,8.34-6.242,1.672-9.224.483-10.29-1.42H6.667l3.978,17.051,22.362-.742c0-5.747,4.146-13.25,4.146-18.2C37.154,1.3,33.583.114,31.2.283Z" transform="translate(48.999 1.965)" fill="#ffbd8d"/>
    <path id="path4502" d="M24.592.282a4.981,4.981,0,0,0-.936.151C19.237,1.4,17.028,6.578,10.4,8.773a25.124,25.124,0,0,1-2.835.583,15.647,15.647,0,0,0,7.253-.583C21.056,6.708,23.4,2.039,27.336.688A6.675,6.675,0,0,0,24.592.282Z" transform="translate(55.607 1.966)" fill="#f5f9fb"/>
    <path id="path4489" d="M28.834.284C28.744,12.809,7.226,17.175,7.226,17.175s1.149,3.485,2.382,7.007l19.29-.639c0-5.747,4.146-13.25,4.146-18.2A4.862,4.862,0,0,0,28.834.284Z" transform="translate(53.108 2.085)" fill="#ffa465"/>
    <path id="path4497" d="M6.667,1.116l3.978,17.051,4.414-.147c.011-6.332-1.98-10.147-3.374-14.708-2.721-.033-4.267-.95-4.966-2.2Z" transform="translate(48.999 8.203)" fill="#f5f9fb"/>
    <path id="path4467" d="M26.54,2.381c-6.327.14-17.375,8.836-19.584,8.836H4.76l.018,28.718H9.192c2.568,0,5.134,2.241,9,4.116.082.05.16.067.242.112,4.512-6.777,8.431-13.562,8.431-21.9,2.238,0,5.221,0,8.2-5.156,2.74.033,7.235,2.947,11.654,2.947,6.566,0,8.733-5.592,4.418-8.836,0,0-11.156-8.836-15.463-8.836Z" transform="translate(34.985 17.5)" fill="#ffd1b5"/>
    <path id="rect4508" d="M9.2,3.331a6.833,6.833,0,0,1-2.239.91H4.76l.018,28.718H9.2Z" transform="translate(34.985 24.477)" fill="#ffb98d"/>
    <path id="rect4459" d="M4.418,0A4.408,4.408,0,0,1,8.836,4.418V8.847A4.418,4.418,0,1,1,0,8.847V4.418A4.408,4.408,0,0,1,4.418,0Z" transform="translate(92.785 37.554) rotate(90)" fill="#ffd1b5"/>
    <path id="path4429" d="M26.853,10.6c0,19.881-22.09,30.927-22.09,54.116,0,5.424,1.473,9.928,4.33,13.422l26.6,14.2,26.6-14.2c2.857-3.494,4.33-8,4.33-13.422,0-23.19-22.09-34.235-22.09-54.116L35.689,3.969Z" transform="translate(35 29.167)" fill="#ef9f14"/>
    <path id="path4479" d="M8.858,14.945c2.238,0,5.221,0,8.2-5.156,2,.025,4.931,1.562,8.081,2.4-.032-.527-.056-1.057-.056-1.6L16.245,3.969,7.408,10.6Z" transform="translate(54.445 29.167)" fill="#ffa465"/>
    <path id="path4461" d="M19.574,4.537c-.6,4.307-5.868,5.692-9.988,6.127a4.394,4.394,0,0,0,3.9,2.386h4.427a4.417,4.417,0,0,0,1.657-8.513Z" transform="translate(70.449 33.341)" fill="#ffb98d"/>
    <path id="rect4448" d="M4.418,0A4.408,4.408,0,0,1,8.836,4.418V8.847A4.418,4.418,0,1,1,0,8.847V4.418A4.408,4.408,0,0,1,4.418,0Z" transform="translate(92.785 55.226) rotate(90)" fill="#ffd1b5"/>
    <path id="path4450" d="M19.574,6.653c-.6,4.307-5.868,5.692-9.988,6.127a4.394,4.394,0,0,0,3.9,2.386h4.427a4.417,4.417,0,0,0,1.657-8.513Z" transform="translate(70.449 48.896)" fill="#ffb98d"/>
    <path id="path4438" d="M52.01,7.812c7.538,38.313-24.058,41.849-46.8,41.325.185.252.363.513.561.755L32.37,64.086,58.965,49.892c2.857-3.494,4.332-8,4.332-13.422,0-11.766-5.684-20.4-11.287-28.657Z" transform="translate(38.32 57.411)" fill="#fff0d6"/>
    <path id="path4435" d="M35.689,3.969,26.853,10.6c0,19.881-22.09,30.927-22.09,54.117,0,5.424,1.475,9.928,4.332,13.423L35.689,92.33,37.9,91.153,13.512,78.136c-2.857-3.494-4.332-8-4.332-13.423,0-23.19,22.09-34.236,22.09-54.117L37.9,5.626Z" transform="translate(35 29.167)" fill="#f5f9fb"/>
    <path id="ellipse6890" d="M35.055,15.278A11.045,11.045,0,1,1,24.01,4.233,11.045,11.045,0,0,1,35.055,15.278Z" transform="translate(95.279 31.112)" fill="#ef9f14"/>
    <path id="path6892" d="M24.01,4.233A11.045,11.045,0,0,0,18.75,24.991,11.036,11.036,0,0,1,33.687,9.985,11.045,11.045,0,0,0,24.01,4.233Z" transform="translate(95.279 31.111)" fill="#ecb200"/>
    <path id="ellipse6883" d="M22.355,21.364A11.045,11.045,0,1,1,11.31,10.319,11.045,11.045,0,0,1,22.355,21.364Z" transform="translate(1.944 75.834)" fill="#ffca28"/>
    <path id="ellipse6887" d="M11.31,10.319A11.045,11.045,0,0,0,6.05,31.076,11.036,11.036,0,0,1,20.987,16.07a11.045,11.045,0,0,0-9.677-5.751Z" transform="translate(1.944 75.834)" fill="#ecb200"/>
    <path id="path6877" d="M40.027,28.428a4.41,4.41,0,0,0,4.418-4.418V17.383a4.408,4.408,0,0,0-4.418-4.418H4.683A4.408,4.408,0,0,0,.265,17.383V24.01a4.41,4.41,0,0,0,4.418,4.418H40.027Z" transform="translate(1.944 95.278)" fill="#ef9f14"/>
    <path id="path6879" d="M40.735,12.973C35.037,23.456,11.13,24.382.269,24.264a4.393,4.393,0,0,0,4.384,4.1H40a4.41,4.41,0,0,0,4.418-4.418V17.318A4.4,4.4,0,0,0,40.735,12.973Z" transform="translate(1.975 95.343)" fill="#ecb200"/>
    <path id="path4544" d="M36.3,19.484,12.555,12.778c-2.944-.832-6.311-.245-7.225,2.674s.292,5.372,2.609,7.369c0,0,25.349,24.98,30.251,24.98,6.626,0,26.4-4.422,28.717-4.422h4.419q0-12.432,0-24.864c-4.418,0-10.325-3.866-15.463-3.866-5.527,0-18.814,4.575-18.814,4.575a4.422,4.422,0,0,0,2.287,8.543l12.8-3.433" transform="translate(36.917 91.369)" fill="#d9fcff"/>
    <path id="path4546" d="M43.336,13.068C41.135,31.495,21.4,37.718,8.281,39.827c2.675,1.981,4.862,3.3,5.971,3.3,6.626,0,26.4-4.422,28.718-4.422h4.418q0-12.432,0-24.865A14.307,14.307,0,0,1,43.336,13.068Z" transform="translate(60.855 96.042)" fill="#79dae1"/>
    <path id="path6881" d="M4.683,12.965A4.408,4.408,0,0,0,.265,17.383V24.01a4.41,4.41,0,0,0,4.418,4.418H9.1A4.41,4.41,0,0,1,4.683,24.01V17.383A4.408,4.408,0,0,1,9.1,12.965Z" transform="translate(1.944 95.278)" fill="#f5f9fb"/>
    <path id="path6864" d="M40.027,30.28a4.41,4.41,0,0,0,4.418-4.418V19.235a4.408,4.408,0,0,0-4.418-4.418H4.683A4.408,4.408,0,0,0,.265,19.235v6.627A4.41,4.41,0,0,0,4.683,30.28Z" transform="translate(1.944 108.89)" fill="#ef9f14"/>
    <path id="path6867" d="M40.735,14.825C35.037,25.308,11.13,26.235.269,26.117a4.393,4.393,0,0,0,4.384,4.1H40A4.41,4.41,0,0,0,44.415,25.8V19.17a4.4,4.4,0,0,0-3.68-4.345Z" transform="translate(1.975 108.954)" fill="#fff0d6"/>
    <path id="path4474" d="M13.771,4.646c0,7.952-3.56,14.489-7.8,20.956,1.016.591,2.093,1.206,3.335,1.808.082.05.16.067.242.112,4.512-6.777,8.431-13.562,8.431-21.9Z" transform="translate(43.876 34.142)" fill="#ffb98d"/>
    <path id="path4515" d="M4.76,3.44l.018,28.718H9.192c2.568,0,5.134,2.241,9,4.116.082.05.16.067.242.112,4.512-6.777,8.431-13.562,8.431-21.9,2.238,0,5.221,0,8.2-5.156,2.74.033,7.235,2.947,11.654,2.947,5.5,0,7.9-3.921,6-7.1-.982,1.545-3.038,2.684-6,2.684-4.418,0-8.914-2.912-11.654-2.947-2.976,5.155-5.96,5.156-8.2,5.156-5.955,0-3.919,15.123-8.431,21.9-.081-.042-.16-.067-.242-.112-3.87-1.875-6.436-4.116-9-4.116H4.778L4.765,3.44Z" transform="translate(34.985 25.278)" fill="#ffb98d"/>
    <path id="rect4455" d="M4.418,0A4.408,4.408,0,0,1,8.836,4.418V8.847A4.418,4.418,0,1,1,0,8.847V4.418A4.408,4.408,0,0,1,4.418,0Z" transform="translate(92.785 46.39) rotate(90)" fill="#ffd1b5"/>
    <path id="path4457" d="M19.574,5.6c-.6,4.307-5.868,5.692-9.988,6.127a4.394,4.394,0,0,0,3.9,2.386h4.427A4.417,4.417,0,0,0,19.574,5.6Z" transform="translate(70.449 41.118)" fill="#ffb98d"/>
    <g id="Grupo_146436" data-name="Grupo 146436" transform="translate(2.209 103.801)">
      <path id="path4555" d="M30.559,12.7c-5.527,0-18.816,4.578-18.816,4.578a4.422,4.422,0,0,0-1.005,8.133.154.154,0,0,1-.008-.033,4.411,4.411,0,0,1,3.124-5.415S27.141,15.39,32.669,15.39c3.011,0,6.257,1.291,9.341,2.39l4.013-1.217C41.6,16.563,35.7,12.7,30.559,12.7Z" transform="translate(60.012 -10.485)" fill="#f5f9fb"/>
      <path id="path4560" d="M10.313,12.435c-2.232-.05-4.3.827-4.983,3.016-.914,2.919.293,5.373,2.61,7.369,0,0,25.348,24.981,30.249,24.981a34.386,34.386,0,0,0,3.434-.241c-6.588-2.4-29.265-24.74-29.265-24.74-2.318-2-3.524-4.45-2.61-7.369a4.057,4.057,0,0,1,2.727-2.688,9.008,9.008,0,0,0-2.162-.328Z" transform="translate(34.709 -12.433)" fill="#f5f9fb"/>
      <path id="path6874" d="M4.683,14.817A4.408,4.408,0,0,0,.265,19.235v6.627A4.41,4.41,0,0,0,4.683,30.28H9.1a4.41,4.41,0,0,1-4.418-4.418V19.235A4.408,4.408,0,0,1,9.1,14.817Z" transform="translate(-0.265 5.088)" fill="#f5f9fb"/>
    </g>
    <path id="rect906" d="M57,.005a7.525,7.525,0,0,0-3.875.882A6.573,6.573,0,0,0,49.7,7.039a19.679,19.679,0,0,0,2.188,8.021c.4.883.765,1.714,1.076,2.488a47.7,47.7,0,0,0-6.949,3.475c-1.827,1.046-3.494,2.074-4.8,2.811-.649.37-1.457.754-1.869.938a2.074,2.074,0,0,0-2.079-2.01h-6.2A2.069,2.069,0,0,0,29,20.7H2.063A2.069,2.069,0,0,0,0,22.762V57.976a2.07,2.07,0,0,0,2.063,2.079H29a2.07,2.07,0,0,0,2.063-2.079h6.2a2.074,2.074,0,0,0,2.083-2.063h2.063c1.989-.007,4.269,1.676,5.679,2.67-.389.575-.773,1.148-1.169,1.731-5.2,7.664-10.719,16.162-10.719,27.691a22.8,22.8,0,0,0,2.6,11.026c-.049.117-.1.238-.138.36-5.953-.03-10.677,0-15.981,0A12.422,12.422,0,1,0,0,91.124a12.363,12.363,0,0,0,3.689,8.81A6.265,6.265,0,0,0,0,105.616v6.2a6.207,6.207,0,0,0,1.6,4.15A6.181,6.181,0,0,0,0,120.113v6.2a6.252,6.252,0,0,0,6.2,6.225H39.353a6.252,6.252,0,0,0,6.2-6.225v-6.2a6.182,6.182,0,0,0-1.6-4.142,6.253,6.253,0,0,0,1.456-2.819c2.167,2.057,4.857,4.576,7.714,7.143,3.28,2.948,6.71,5.906,9.663,8.162,3.291,2.417,5.711,4.064,7.625,4.085,3.566,0,9.643-1.071,15.346-2.111,2.852-.52,5.564-1.034,7.689-1.42,1.295-.264,2.683-.451,3.883-.615l2.063.008a2.076,2.076,0,0,0,2.083,2.071h6.2a2.075,2.075,0,0,0,2.079,2.067h20.7a2.078,2.078,0,0,0,2.083-2.083V97.328a2.075,2.075,0,0,0-2.083-2.079h-20.7a2.071,2.071,0,0,0-2.079,2.079h-6.2a2.074,2.074,0,0,0-2.083,2.063v1.226c-1.745-.477-3.211-1-4.688-1.533A22.769,22.769,0,0,0,97.332,88c0-11.367-5.35-19.772-10.492-27.363a6.176,6.176,0,0,0,.611-8.878,6.168,6.168,0,0,0,0-8.284,6.175,6.175,0,0,0,1.6-4.138,6.264,6.264,0,0,0-4.789-6.055c1.687-3.456-.184-6.487-2.273-8.029-.027-.021-1.238-.978-2.989-2.241a37.777,37.777,0,0,1,1.8-7.18c.968-3,2.047-5.984,2.047-8.882a6.532,6.532,0,0,0-3.576-6.1A8.169,8.169,0,0,0,73.835.228c-2.734.609-4.553,2.378-6.33,3.932-.445.389-.886.771-1.347,1.141-2.294-1.868-4.1-4.126-7.637-5.072A7.111,7.111,0,0,0,57,.005ZM75.469,4.147a4.035,4.035,0,0,1,1.913.409,2.386,2.386,0,0,1,1.315,2.4c0,1.741-.873,4.592-1.849,7.616a53.854,53.854,0,0,0-1.658,5.845,45.03,45.03,0,0,0-4.045-2.346,10.918,10.918,0,0,0-4.9-1.513c-3.012.006-6.21-.028-9.166.028C56.521,15.2,55.95,14,55.4,12.779a18.143,18.143,0,0,0,7.07-.748,21.828,21.828,0,0,0,7.754-4.769c1.839-1.607,3.14-2.711,4.526-3.013a3.288,3.288,0,0,1,.716-.1Zm-19.1.012a3.344,3.344,0,0,1,1.08.077c1.881.5,3.072,1.726,5,3.369-.372.162-.762.315-1.173.453-3.49.917-5.58.7-6.464.3a1.442,1.442,0,0,1-.967-1.416,2.406,2.406,0,0,1,1.242-2.419,3.184,3.184,0,0,1,1.286-.368ZM111.8,16.573a2.049,2.049,0,0,0-2.039,2.063V20.7a2.071,2.071,0,1,0,4.142,0V18.636A2.074,2.074,0,0,0,111.8,16.573ZM57.725,20.7h8.519c2.763.161,9.622,5.11,13.227,7.843,1.261.947,1.506,1.987,1.141,2.787s-1.531,1.788-4.021,1.788a16.747,16.747,0,0,1-5.339-1.238c-1.847-.67-3.554-1.491-5.558-1.517a2.076,2.076,0,0,0-1.82,1.044c-1.242,2.152-2.214,2.895-3.317,3.317a13.949,13.949,0,0,1-4.664.473,2.071,2.071,0,0,0-.069,4.142c-.523,5.7-3.145,10.687-6.431,15.787-2.525-1.666-4.663-3.311-7.977-3.357H39.353V28.987a4.155,4.155,0,0,0,1.97-.538c.6-.27,1.222-.609,1.925-1.007,1.406-.8,3.072-1.819,4.834-2.827,3.524-2.017,7.6-3.87,9.643-3.915Zm60.325,4.13v2.063a2.071,2.071,0,0,0,4.142,0V24.829a2.071,2.071,0,1,0-4.142,0Zm-14.533-2.051a2.081,2.081,0,0,0-2.039,2.067v2.079a2.071,2.071,0,0,0,4.142,0V24.845a2.078,2.078,0,0,0-2.1-2.067ZM4.142,24.845H26.923V55.913H4.142Zm26.923,2.063h4.142V53.83H31.065Zm80.76,4.13a12.43,12.43,0,1,0,12.43,12.43A12.464,12.464,0,0,0,111.825,31.037Zm-38.8,5.752a6.171,6.171,0,0,0,1.048,6.69,6.173,6.173,0,0,0,0,8.284,6.2,6.2,0,0,0,4.611,10.355h4.158C88.114,69.891,93.19,77.559,93.19,88.005A17.927,17.927,0,0,1,90.662,97.8a15.48,15.48,0,0,0-3.677-.485c-3.162,0-7.524,1.131-11.346,2.221-2.369.665-4.767,1.451-7.087,2.213l-21.6-6.112a9.32,9.32,0,0,0-5.275-.049,6.292,6.292,0,0,0-.8.311,19.182,19.182,0,0,1-1.521-7.892c0-10.214,4.836-17.755,9.995-25.365C54.183,55.507,59.371,48.309,60,39.127a10.341,10.341,0,0,0,2.022-.538A9.766,9.766,0,0,0,66.7,34.706c2.266.74,4.108,1.412,6.33,2.083Zm38.8-1.61a8.286,8.286,0,1,1-8.284,8.288A8.259,8.259,0,0,1,111.825,35.179ZM78.681,37.258h4.158a2.073,2.073,0,0,1,0,4.146H78.681a2.073,2.073,0,0,1,0-4.146Zm0,8.288h4.158a2.071,2.071,0,0,1,0,4.142H78.681a2.071,2.071,0,0,1,0-4.142Zm0,8.284h4.158a2.073,2.073,0,0,1,0,4.146H78.681a2.073,2.073,0,0,1,0-4.146ZM66.219,60.071a2.083,2.083,0,0,0-2.026,2.079v2.063H62.129a6.245,6.245,0,0,0-6.2,6.221V74.58a6.235,6.235,0,0,0,6.2,6.209h2.063v8.284H62.129a2.009,2.009,0,0,1-2.063-2.063,2.071,2.071,0,1,0-4.142,0,6.235,6.235,0,0,0,6.2,6.209h2.063v2.063a2.069,2.069,0,1,0,4.138,0V93.219h2.083a6.235,6.235,0,0,0,6.2-6.209V82.868a6.245,6.245,0,0,0-6.2-6.221H68.33V68.355h2.083a2.023,2.023,0,0,1,2.063,2.079,2.071,2.071,0,0,0,4.142,0,6.245,6.245,0,0,0-6.2-6.221H68.33V62.15a2.078,2.078,0,0,0-2.111-2.079ZM12.373,64.213a2.079,2.079,0,0,0-2.022,2.079v2.063a2.071,2.071,0,1,0,4.142,0V66.292A2.084,2.084,0,0,0,12.373,64.213Zm49.756,4.142h2.063v8.292H62.129a2.013,2.013,0,0,1-2.063-2.067V70.434a2.023,2.023,0,0,1,2.063-2.079ZM20.661,70.406a2.086,2.086,0,0,0-2.026,2.067v2.079a2.071,2.071,0,0,0,4.142,0V72.473A2.084,2.084,0,0,0,20.661,70.406Zm-18.6,2.1V74.58a2.071,2.071,0,0,0,4.142,0V72.5a2.071,2.071,0,0,0-4.142,0ZM68.33,80.789h2.083a2.023,2.023,0,0,1,2.063,2.079V87.01a2.009,2.009,0,0,1-2.063,2.063H68.33Zm-55.9,2.047a8.276,8.276,0,1,1-8.288,8.288A8.256,8.256,0,0,1,12.43,82.836Zm31.8,16.552a6.374,6.374,0,0,1,1.586.235l19.011,5.367a6.174,6.174,0,0,0-.421,4.3,6.247,6.247,0,0,0,7.608,4.4l12-3.224a2.072,2.072,0,1,0-1.068-4l-12,3.224a2.027,2.027,0,0,1-2.54-1.468,2.05,2.05,0,0,1,1.537-2.56s3.143-1.076,6.844-2.132,8.178-2.063,10.2-2.063a22.279,22.279,0,0,1,6.787,1.679,34.734,34.734,0,0,0,5.622,1.747v19.371H97.332a38.322,38.322,0,0,0-4.615.671c-2.156.391-4.875.924-7.705,1.44-5.661,1.033-11.953,2.031-14.6,2.031a26.515,26.515,0,0,1-5.121-3.24c-2.795-2.135-6.165-5.029-9.4-7.936-4.256-3.805-8.391-7.785-12.491-11.742-1.806-1.556-2.3-2.922-1.82-4.724.336-1.1,1.527-1.383,2.649-1.367Zm67.594,0H128.4V128.4H111.825Zm-8.284,2.083h4.142v24.86h-4.142ZM6.2,103.537h4.146v4.11a2.071,2.071,0,1,0,4.142,0v-4.11h6.221v4.11a2.073,2.073,0,1,0,4.146,0v-4.11h6.2v4.11a2.071,2.071,0,1,0,4.142,0v-4.11h2.209c.59,2.144,1.235,3.216,4,5.78v2.5a2.025,2.025,0,0,1-2.063,2.083H6.213a2.037,2.037,0,0,1-2.071-2.083v-6.2A2.023,2.023,0,0,1,6.2,103.537Zm0,14.513h4.146v4.142a2.071,2.071,0,0,0,4.142,0V118.05h6.221v4.142a2.073,2.073,0,0,0,4.146,0V118.05h6.2v4.142a2.071,2.071,0,0,0,4.142,0V118.05h4.146a2.009,2.009,0,0,1,2.063,2.063v6.2a2.022,2.022,0,0,1-2.063,2.079H6.213a2.034,2.034,0,0,1-2.071-2.079v-6.2A2.009,2.009,0,0,1,6.2,118.05Z" transform="translate(4.418 4.418)" fill="#104469"/>
  </g>
</svg>
