<svg xmlns="http://www.w3.org/2000/svg" width="252" height="209" viewBox="0 0 252 209">
  <g id="Grupo_146478" data-name="Grupo 146478" transform="translate(-216 -441)">
    <g id="Right" transform="translate(215.5 441)">
      <rect id="BG" width="252" height="209" transform="translate(0.5)" fill="#fff" opacity="0.949"/>
    </g>
    <g id="layer1" transform="translate(265 476.809)">
      <path id="rect6568" d="M24,440H60.863v18.431H24Z" transform="translate(-17.088 -313.284)" fill="#d9fcff"/>
      <path id="path6570" d="M56.233,440C48.21,451.442,33.534,454.886,24,455.889v2.542H60.863V440Z" transform="translate(-17.088 -313.284)" fill="#d9fcff"/>
      <path id="path6572" d="M17.216,234.69C10.419,236.511,8,241.6,8,245.435v18.826c0,6.533,6.86,20.357,6.86,24.965v4.591H46.873c0-4.173,4.02-5.612,4.779-13.617l.123-45.511Z" transform="translate(-5.696 -167.101)" fill="#d9fcff"/>
      <path id="path6599" d="M68.613,388.469c-3.414.191-5.1,1.8-7.267,1.98-7.225,9.353-21.263,11.393-29.533,11.74v1.12H63.83c0-4.173,4.02-5.612,4.779-13.617Z" transform="translate(-22.651 -276.593)" fill="#79dae1"/>
      <path id="path6596" d="M17.216,234.687C10.419,236.508,8,241.6,8,245.433V264.26c0,6.533,6.858,20.357,6.858,24.965v4.59h4.608v-4.59c0-4.608-6.858-18.432-6.858-24.965V245.433c0-3.833,2.419-8.925,9.216-10.746H17.216Z" transform="translate(-5.696 -167.099)" fill="#f5f9fb"/>
      <path id="path6586" d="M47.16,264.016c3.3,0,7.747,3.6,7.965,10.8V284.7c0,4.608,9.37,8.34,9.4,19.835-1.329-.306-3.736-.715-4.167-2.322-.729-8.112-9.837-12.095-9.837-17.514v-9.882c-.165-5.464-2.766-8.83-5.454-10.147a3.575,3.575,0,0,1,2.1-.652Z" transform="translate(-32.085 -187.982)" fill="#79dae1"/>
      <path id="path6574" d="M28.608,440v18.431H24V440Z" transform="translate(-17.088 -313.284)" fill="#f5f9fb"/>
      <path id="rect6556" d="M396.863,440H360v18.431h36.863Z" transform="translate(-256.323 -313.284)" fill="#d9fcff"/>
      <path id="path6558" d="M392.233,440c-8.022,11.442-22.7,14.886-32.233,15.889v2.542h36.863V440Z" transform="translate(-256.323 -313.284)" fill="#d9fcff"/>
      <path id="path6543" d="M386.559,234.69c6.8,1.821,9.216,6.912,9.216,10.745v18.826c0,6.533-6.86,20.357-6.86,24.965v4.591H356.9c0-4.173-4.02-5.612-4.779-13.617L352,234.69Z" transform="translate(-250.627 -167.101)" fill="#d9fcff"/>
      <path id="rect6565" d="M360,440v18.431h4.608V440Z" transform="translate(-256.323 -313.284)" fill="#f5f9fb"/>
      <path id="path6545" d="M401.914,244.515c5.511,41.7-23.506,50.458-36.008,53.076a6.825,6.825,0,0,1,.9,3.222h32.017v-4.59c0-4.608,6.858-18.432,6.858-24.965V252.43A10.637,10.637,0,0,0,401.914,244.515Z" transform="translate(-260.528 -174.097)" fill="#79dae1"/>
      <path id="path6444" d="M83.172,119.281c-15.27-6.154-12.025,6.869-23.77-4.642s1.371-8.5-5.062-23.614S40.825,88.716,40.825,70.207s7.083-5.7,13.515-20.819-6.684-12.1,5.062-23.614,8.5,1.512,23.77-4.642C98.219,15.068,87.36,8.07,102.794,8c15.434.07,4.575,7.067,19.621,13.131,15.27,6.154,12.024-6.869,23.77,4.642s-1.371,8.5,5.062,23.614,13.515,2.309,13.515,20.819-7.083,5.7-13.515,20.818,6.684,12.1-5.062,23.614-8.5-1.512-23.77,4.642c-15.046,6.064-4.187,13.061-19.621,13.131-15.434-.069-4.575-7.067-19.621-13.13Z" transform="translate(-29.068 -5.696)" fill="#d0e5f8"/>
      <path id="path6514" d="M188.092,80.022c-2.486-.177-6.214,1.058-6.214,5.418,0,5.143,3.548,9.24,4.581,13.608a4.5,4.5,0,0,0-2.331,3.924v.144a4.483,4.483,0,0,0,1.841,3.609C183,118.152,168.043,125.369,168,139.811c-.055,13.875,11.52,25.438,29.951,25.438S227.9,153.686,227.9,139.811c0-14.61-14.957-21.717-17.874-33.164a4.476,4.476,0,0,0,1.746-3.533v-.144a4.506,4.506,0,0,0-2.578-4.054l3.9-10.633h-.149c-1.5,1.436-4.564,2.1-10.057.621-6.912-2.3-9.216-7.716-13.824-8.725a5.166,5.166,0,0,0-.971-.157Z" transform="translate(-119.617 -56.965)" fill="#b0d2f0"/>
      <path id="path6504" d="M257.679,86.084c3.253-2.421,5.335-5.215,8.513-5.911,2.32-.624,7.186.281,7.186,5.264,0,5.18-3.605,9.3-4.608,13.7v.253Z" transform="translate(-183.47 -56.96)" fill="#ffa465"/>
      <path id="path6468" d="M201.726,140.863A36.863,36.863,0,1,1,164.863,104a36.863,36.863,0,0,1,36.863,36.863Z" transform="translate(-91.137 -74.049)" fill="#79dae1"/>
      <path id="circle6532" d="M193.342,104a36.86,36.86,0,0,0-11.007,1.728c.982,3.721,3.313,6.983,4.122,10.4a4.5,4.5,0,0,0-2.331,3.924v.144a4.483,4.483,0,0,0,1.841,3.609C183,135.237,168.042,142.453,168,156.9a23.467,23.467,0,0,0,5.062,14.719,36.772,36.772,0,0,0,54.646-17.527c-1.742-12.761-14.957-19.668-17.68-30.356a4.476,4.476,0,0,0,1.746-3.532v-.144A4.506,4.506,0,0,0,209.195,116l2.574-7.024a36.858,36.858,0,0,0-4.464-2.209,23.1,23.1,0,0,1-4.419-.778,17.262,17.262,0,0,1-3.046-1.382,36.831,36.831,0,0,0-6.5-.607Z" transform="translate(-119.616 -74.049)" fill="#365b7a"/>
      <path id="circle6472" d="M164.863,104a36.853,36.853,0,0,0-23.534,65.221,36.836,36.836,0,0,1,51.677-52.109A36.863,36.863,0,0,0,164.863,104Z" transform="translate(-91.137 -74.049)" fill="#d9fcff"/>
      <path id="path6494" d="M206.4,80.022c-2.486-.177-6.214,1.058-6.214,5.418,0,5.18,3.605,9.3,4.608,13.7v.207h22.553L231.4,88.284h-.149c-1.5,1.436-4.564,2.1-10.057.621-6.912-2.3-9.216-7.716-13.824-8.725a5.171,5.171,0,0,0-.972-.158Z" transform="translate(-142.536 -56.965)" fill="#fff0d6"/>
      <path id="path6508" d="M241.145,108.75c-.993.952-2.7,1.547-5.314,1.422-5.891,5.387-17.472,7.052-21.752,7.5a14.97,14.97,0,0,1,.607,1.939v.207h22.553l4.054-11.065Z" transform="translate(-152.425 -77.431)" fill="#ffa465"/>
      <path id="path6466" d="M194.856,8c-15.434.07-4.573,7.067-19.619,13.131a24.924,24.924,0,0,1-5.112,1.517c2.161.444,5.082.353,9.72-1.517C194.057,15.4,185.186,8.851,197.16,8.082c-.7-.043-1.448-.078-2.3-.087Z" transform="translate(-121.13 -5.693)" fill="#f5f9fb"/>
      <path id="path6464" d="M67.044,52.529c-1.765.139-3.97,1.343-7.641,4.941-11.746,11.511,1.371,8.5-5.062,23.615S40.828,83.392,40.828,101.9s3.624,5.7,10.057,20.821-3.228,12.1,8.518,23.611c5.733,5.619,7.9,5.389,10.386,4.4a21,21,0,0,1-5.778-4.4c-11.746-11.511,1.371-8.495-5.062-23.611S45.436,120.411,45.436,101.9s7.08-5.7,13.513-20.816-6.683-12.1,5.062-23.615a21.02,21.02,0,0,1,5.773-4.4,5.939,5.939,0,0,0-2.741-.544Z" transform="translate(-29.07 -37.391)" fill="#f5f9fb"/>
      <path id="path6459" d="M172.987,388.363a11.017,11.017,0,0,0-2.862.212,24.958,24.958,0,0,1,5.112,1.517c15.046,6.063,4.186,13.061,19.619,13.13.856,0,1.6-.043,2.3-.087-11.975-.769-3.1-7.318-17.315-13.045a21.548,21.548,0,0,0-6.858-1.728Z" transform="translate(-121.13 -276.505)" fill="#f5f9fb"/>
      <path id="path6455" d="M244.608,8A28.573,28.573,0,0,0,240,8.332c8.533,1.456,1.824,7.483,15.012,12.8,6.287,2.533,9.4,1.812,11.745.9-.785-.239-1.62-.529-2.529-.9C249.181,15.066,260.042,8.069,244.608,8Z" transform="translate(-170.882 -5.695)" fill="#b0d2f0"/>
      <path id="path6453" d="M366.512,52.528c-1.915-.151-3.331.939-5.512,1.584a30.841,30.841,0,0,1,3.937,3.357c11.746,11.511-1.371,8.495,5.062,23.611s13.513,2.312,13.513,20.821-7.08,5.7-13.513,20.816,6.683,12.1-5.062,23.615A30.8,30.8,0,0,1,361,149.689c4.193,1.24,5.5,4.143,13.153-3.357,11.746-11.511,2.373-8.5,8.806-23.615s9.769-2.307,9.769-20.816-7.08-5.7-13.513-20.821,6.683-12.1-5.062-23.611C370.483,53.871,368.277,52.667,366.512,52.528Z" transform="translate(-257.035 -37.39)" fill="#b0d2f0"/>
      <path id="path6448" d="M261.87,388.362a21.563,21.563,0,0,0-6.858,1.728c-13.188,5.315-6.478,11.341-15.012,12.8a28.379,28.379,0,0,0,4.608.333c15.434-.07,4.573-7.067,19.619-13.131.909-.367,1.744-.656,2.529-.9a10.984,10.984,0,0,0-4.887-.833Z" transform="translate(-170.883 -276.505)" fill="#b0d2f0"/>
      <path id="path6475" d="M193.977,172c2.822,11.537,17.925,18.637,17.925,33.312,0,13.875-11.52,25.437-29.951,25.437S151.945,219.191,152,205.316c.043-14.521,15.171-21.735,18.025-33.273" transform="translate(-108.225 -122.468)" fill="#ef9f14"/>
      <path id="path6484" d="M193.979,172l-23.953.043c-2.854,11.538-17.983,18.751-18.027,33.272-.055,13.875,11.52,25.438,29.951,25.438.786,0,1.543-.052,2.3-.09-17.076-.928-27.7-12.065-27.647-25.348.044-14.521,15.172-21.734,18.027-33.272l19.349-.035s0-.006,0-.009Z" transform="translate(-108.225 -122.465)" fill="#f5f9fb"/>
      <path id="path6479" d="M217.888,172l-7.362.017c4.925,9.052,16.069,16.074,16.069,28.691,0,13.875-11.52,25.438-29.951,25.438a37.829,37.829,0,0,1-11.065-1.6c5.084,3.847,11.978,6.205,20.281,6.205,18.431,0,29.951-11.563,29.951-25.438,0-14.675-15.1-21.776-17.923-33.313Z" transform="translate(-132.134 -122.465)" fill="#fff0d6"/>
      <path id="path6501" d="M206.4,80.022c-2.486-.177-6.214,1.058-6.214,5.418,0,5.18,3.605,9.3,4.608,13.7v.207H209.4v-.207c-1-4.4-4.608-8.522-4.608-13.7a4.958,4.958,0,0,1,3.343-4.99,6.864,6.864,0,0,0-.765-.27,5.158,5.158,0,0,0-.972-.158Z" transform="translate(-142.536 -56.965)" fill="#f5f9fb"/>
      <path id="rect6487" d="M212.608,144h18.431a4.562,4.562,0,0,1,4.608,4.536v.144a4.562,4.562,0,0,1-4.608,4.536H212.608A4.562,4.562,0,0,1,208,148.679v-.144A4.562,4.562,0,0,1,212.608,144Z" transform="translate(-148.098 -102.529)" fill="#d0e5f8"/>
      <path id="path6489" d="M234.118,146.3c-7.165,4.218-18.44,5.306-25.118,5.557a4.58,4.58,0,0,0,4.32,3h18.431a4.562,4.562,0,0,0,4.608-4.536v-.144a4.5,4.5,0,0,0-2.241-3.875Z" transform="translate(-148.81 -104.165)" fill="#b0d2f0"/>
      <path id="path6539" d="M400,303.129c.026-11.5,9.216-13.824,9.216-18.431v-9.883c.348-11.52,11.52-13.824,11.52-6.912v16.811Z" transform="translate(-284.803 -187.981)" fill="#d9fcff"/>
      <path id="path6553" d="M416.735,264.016c-3.3,0-7.747,3.6-7.965,10.8V284.7c0,4.608-9.37,8.34-9.4,19.835,1.329-.306,3.736-.714,4.167-2.322.729-8.112,9.837-12.095,9.837-17.514v-9.882c.165-5.464,2.766-8.83,5.454-10.147a3.577,3.577,0,0,0-2.1-.652Z" transform="translate(-284.358 -187.982)" fill="#f5f9fb"/>
      <path id="rect906" d="M73.721,0c-4.051.018-6.61.439-8.568,1.512a8.252,8.252,0,0,0-3.5,4.185,11.811,11.811,0,0,1-2.025,3.6c-1.057,1.192-2.847,2.578-6.376,4C49.669,14.745,47.4,14.988,45.8,14.85a12.616,12.616,0,0,1-4.027-1.242,8.182,8.182,0,0,0-5.6-.446c-2.194.683-4.394,2.281-7.447,5.274s-4.7,5.15-5.427,7.331a8.167,8.167,0,0,0,.355,5.611,12.518,12.518,0,0,1,1.174,4.032c.111,1.592-.175,3.835-1.683,7.38S20.231,47.965,19.03,48.9a13.237,13.237,0,0,1-3.757,1.786,7.851,7.851,0,0,0-4.387,3.91c-1.026,2.2-1.431,5.144-1.431,9.918,0,.456.01.881.018,1.3C2.813,68.216,0,73.844,0,78.334V97.157c0,4.073,1.832,9.092,3.555,13.963.861,2.436,1.725,4.8,2.345,6.772a19.673,19.673,0,0,1,.954,4.234v2.281a2.3,2.3,0,0,0-2.245,2.309v18.418a2.3,2.3,0,0,0,2.3,2.317H43.779a2.3,2.3,0,0,0,2.295-2.317V126.716a2.3,2.3,0,0,0-1.917-2.277c.287-.54.656-1.153,1.116-1.939a21.162,21.162,0,0,0,2.871-8.248,21.548,21.548,0,0,1,5.107,1.462c3.53,1.422,5.319,2.8,6.376,4a11.808,11.808,0,0,1,2.025,3.6,8.252,8.252,0,0,0,3.5,4.185c1.957,1.073,4.521,1.494,8.572,1.512,4.051-.018,6.61-.439,8.568-1.512a8.263,8.263,0,0,0,3.505-4.185,11.791,11.791,0,0,1,2.021-3.6c1.057-1.192,2.851-2.573,6.381-4a21.527,21.527,0,0,1,5.107-1.462,21.171,21.171,0,0,0,2.866,8.248c.527.9.831,1.366,1.129,1.962a2.211,2.211,0,0,0-1.926,2.254v18.418a2.3,2.3,0,0,0,2.295,2.317h36.854a2.3,2.3,0,0,0,2.313-2.317V126.716a2.3,2.3,0,0,0-2.245-2.245v-2.345a19.691,19.691,0,0,1,.954-4.234c.62-1.971,1.47-4.337,2.331-6.772,1.723-4.871,3.573-9.89,3.573-13.963V78.334c0-4.489-2.816-10.117-9.472-12.519.007-.424.014-.848.014-1.3,0-4.774-.4-7.719-1.426-9.918a7.86,7.86,0,0,0-4.392-3.91,13.237,13.237,0,0,1-3.757-1.786c-1.2-.93-2.61-2.576-4.113-6.106s-1.8-5.787-1.687-7.38a12.5,12.5,0,0,1,1.157-4.032,8.161,8.161,0,0,0,.36-5.611c-.725-2.18-2.355-4.338-5.409-7.33s-5.258-4.59-7.452-5.274a8.169,8.169,0,0,0-5.593.446,12.651,12.651,0,0,1-4.032,1.242c-1.6.139-3.865-.1-7.447-1.548-3.53-1.423-5.324-2.808-6.381-4A11.8,11.8,0,0,1,85.8,5.7a8.263,8.263,0,0,0-3.505-4.185C80.336.439,77.773.018,73.721,0ZM73.7,4.608c3.683.017,5.564.488,6.381.936s.971.819,1.481,1.989a16.222,16.222,0,0,0,2.8,4.833,20.978,20.978,0,0,0,8.113,5.2c4.053,1.633,7.1,2.085,9.558,1.872a16.738,16.738,0,0,0,5.373-1.566c1.166-.476,1.506-.611,2.484-.306s2.779,1.386,5.6,4.149,3.945,4.547,4.266,5.512.187,1.3-.27,2.466a16.7,16.7,0,0,0-1.462,5.391c-.172,2.454.317,5.5,2.025,9.508s3.609,6.444,5.544,7.942a16.633,16.633,0,0,0,4.914,2.43c1.109.431,1.387.506,1.89,1.584s.985,3.48.985,7.96c0,4.455-.485,6.856-.985,7.942a2.2,2.2,0,0,1-1.507,1.435,8.628,8.628,0,0,0-1.453.446c-3.821,1.552-7.134,5.937-7.33,12.469v9.913c0,.386-.2.865-.918,1.737s-1.88,1.974-3.114,3.366a20.3,20.3,0,0,0-4.158,6.952c-2.13,1.876-3.5,2.566-4.261,2.741a3.429,3.429,0,0,1-2.448-.459,15.852,15.852,0,0,0-5.373-1.494,21.193,21.193,0,0,0-9.355,1.885,20.984,20.984,0,0,0-8.113,5.206,16.208,16.208,0,0,0-2.8,4.828c-.509,1.17-.663,1.541-1.481,1.989s-2.7.914-6.345.936c-3.683-.016-5.554-.488-6.372-.936s-.971-.819-1.481-1.989a16.38,16.38,0,0,0-2.826-4.828,20.886,20.886,0,0,0-8.1-5.206,21.177,21.177,0,0,0-9.351-1.885,15.883,15.883,0,0,0-5.377,1.494,3.428,3.428,0,0,1-2.448.459c-.759-.175-2.133-.869-4.27-2.754a20.4,20.4,0,0,0-4.167-6.939c-1.234-1.392-2.373-2.494-3.091-3.366s-.922-1.351-.922-1.737V86.834h0V86.77l0,0c-.2-6.5-3.5-10.88-7.326-12.431a8.593,8.593,0,0,0-1.458-.45,2.188,2.188,0,0,1-1.5-1.431c-.5-1.086-.986-3.487-.986-7.942,0-4.48.482-6.882.986-7.96s.776-1.153,1.885-1.584a16.639,16.639,0,0,0,4.918-2.43c1.935-1.5,3.83-3.915,5.544-7.942s2.2-7.054,2.025-9.508a16.7,16.7,0,0,0-1.462-5.391c-.457-1.17-.613-1.5-.293-2.466s1.451-2.749,4.27-5.512,4.616-3.844,5.593-4.149,1.318-.17,2.484.306a16.761,16.761,0,0,0,5.377,1.566c2.454.213,5.519-.239,9.571-1.872a20.888,20.888,0,0,0,8.1-5.2,16.387,16.387,0,0,0,2.826-4.833c.509-1.17.663-1.541,1.481-1.989s2.691-.915,6.336-.936ZM63.948,20.762a8.5,8.5,0,0,0-4.626.922,7.581,7.581,0,0,0-3.978,6.786A15.778,15.778,0,0,0,55.753,32a39.187,39.187,0,0,0-13.126,58.62c3.747,11.831,15.148,19.952,31.094,19.952,15.917,0,27.454-8.258,31.058-19.885A39.187,39.187,0,0,0,91.789,32.062a16.238,16.238,0,0,0,.423-3.487,7.359,7.359,0,0,0-3.982-6.889,8.939,8.939,0,0,0-6.039-.7c-3.741.835-5.913,3.435-8.419,5.539-.467-.38-.919-.772-1.373-1.17-1.975-1.733-4-3.668-7.038-4.351a8.6,8.6,0,0,0-1.413-.243Zm20.276,4.581a4.376,4.376,0,0,1,1.913.459A2.607,2.607,0,0,1,87.6,28.471a1.547,1.547,0,0,1-1.071,1.6c-.982.441-3.314.668-7.2-.355-.515-.174-1-.368-1.458-.576,1.929-1.788,3.723-3.322,5.391-3.685a4.152,4.152,0,0,1,.958-.108Zm-21.208.018a4.228,4.228,0,0,1,1.269.09c1.592.346,3.044,1.58,5.089,3.375A24.233,24.233,0,0,0,78,34.149,21.21,21.21,0,0,0,85.709,35c-.621,1.325-1.349,2.7-1.89,4.2-6.825-.068-14.08-.071-20.042.014-1.47-3.622-3.825-7.294-3.825-10.737A2.7,2.7,0,0,1,61.433,25.8a3.782,3.782,0,0,1,1.584-.441Zm-5.625,11c.812,1.793,1.6,3.444,2.169,4.891A6.819,6.819,0,0,0,57.6,46.083a6.7,6.7,0,0,0,1.53,4.342c-1.593,4.416-5.368,8.556-9.184,13.216-3.666,4.477-7.342,9.579-8.262,16.128a34.564,34.564,0,0,1,15.7-43.406Zm32.849.094a34.564,34.564,0,0,1,15.52,43.3c-.894-6.6-4.555-11.73-8.212-16.2-3.822-4.677-7.588-8.8-9.153-13.23a6.935,6.935,0,0,0-.423-8.982c.561-1.459,1.448-3.073,2.268-4.887ZM64.447,43.779H82.942a2.3,2.3,0,0,1,0,4.608H64.51a2.3,2.3,0,0,1-.063-4.608ZM84.39,52.838c2.1,5.234,6.124,9.386,9.589,13.625,4.051,4.956,7.4,9.828,7.4,16.375,0,12.4-10.189,23.129-27.656,23.129s-27.7-10.682-27.647-23.111c.025-6.462,3.379-11.339,7.447-16.308C57,62.295,61.033,58.107,63.142,52.86a6.9,6.9,0,0,0,1.368.135H82.942a6.839,6.839,0,0,0,1.449-.157ZM73.721,59.9a2.3,2.3,0,0,0-2.309,2.317v2.3H69.118a6.933,6.933,0,0,0-6.9,6.9v4.6a6.952,6.952,0,0,0,6.9,6.925h2.3v9.216h-2.3a2.25,2.25,0,0,1-2.295-2.313,2.3,2.3,0,0,0-4.608,0,6.952,6.952,0,0,0,6.9,6.925h2.3v2.295a2.3,2.3,0,1,0,4.6,0V96.77h2.317a6.952,6.952,0,0,0,6.9-6.925V85.237a6.933,6.933,0,0,0-6.9-6.9H76.016V69.118h2.317a2.236,2.236,0,0,1,2.3,2.3,2.3,2.3,0,1,0,4.608,0,6.933,6.933,0,0,0-6.9-6.9H76.016v-2.3A2.3,2.3,0,0,0,73.721,59.9Zm-4.6,9.22h2.3v9.216h-2.3a2.254,2.254,0,0,1-2.295-2.317v-4.6a2.236,2.236,0,0,1,2.295-2.3ZM9.823,70.643a12.171,12.171,0,0,0,1.417,4.441A6.314,6.314,0,0,0,9.22,79.913v16.82a2.3,2.3,0,0,0,4.608,0V79.913c0-1.107.25-1.265.545-1.426a2.379,2.379,0,0,1,1.9.117c1.852.752,4.3,3.277,4.455,8.3v9.814a7.4,7.4,0,0,0,1.975,4.68c1.005,1.22,2.146,2.28,3.213,3.483a14.039,14.039,0,0,1,4.032,10.273,2.3,2.3,0,0,0,4.608.027,9.389,9.389,0,0,0,2.2.823,8.4,8.4,0,0,0,5.251-.7c.491-.2.943-.4,1.4-.567a15.409,15.409,0,0,1-2.106,5.431A17.987,17.987,0,0,0,39.2,124.4H11.461v-2.277a19.292,19.292,0,0,0-1.17-5.629c-.666-2.12-1.532-4.494-2.385-6.907-1.707-4.826-3.3-9.973-3.3-12.433V78.334A8.661,8.661,0,0,1,9.823,70.643Zm127.805.009a8.616,8.616,0,0,1,5.211,7.681V97.157c0,2.46-1.591,7.607-3.3,12.433-.853,2.413-1.714,4.787-2.381,6.907a19.3,19.3,0,0,0-1.174,5.629V124.4H108.249a17.975,17.975,0,0,0-2.093-4.234,15.428,15.428,0,0,1-2.11-5.431c.453.17.9.362,1.4.567a8.413,8.413,0,0,0,5.256.7,9.4,9.4,0,0,0,2.2-.823,2.3,2.3,0,0,0,4.6-.027,14.036,14.036,0,0,1,4.032-10.273c1.067-1.2,2.208-2.263,3.213-3.483a7.394,7.394,0,0,0,1.971-4.68V86.9c.152-5.021,2.6-7.546,4.455-8.3a2.389,2.389,0,0,1,1.908-.117c.189.131.545.319.545,1.426v16.82a2.3,2.3,0,0,0,4.608,0V79.913a6.284,6.284,0,0,0-2.021-4.828,12.6,12.6,0,0,0,1.417-4.432ZM76.016,82.942h2.317a2.236,2.236,0,0,1,2.3,2.3v4.608a2.25,2.25,0,0,1-2.3,2.313H76.016Zm-66.8,46.07H41.462v13.828H9.22Zm96.747,0h32.264v13.828H105.967Z" transform="translate(0)" fill="#104469"/>
    </g>
  </g>
</svg>
