<svg id="impuestos" xmlns="http://www.w3.org/2000/svg" width="66.883" height="76.202" viewBox="0 0 66.883 76.202">
  <path id="Trazado_195449" data-name="Trazado 195449" d="M70.184,7.574h55.311V81.521H70.184Zm0,0" transform="translate(-59.738 -6.447)" fill="#d9fcff"/>
  <path id="Trazado_195450" data-name="Trazado 195450" d="M121.586,7.574v29.14a1.5,1.5,0,0,1-2.348,1.243,13.52,13.52,0,0,0-21.249,11.1c0,.094,0,.187,0,.28a1.5,1.5,0,0,1-1.5,1.523H70.184V81.521h42.686V63.813a1.5,1.5,0,0,1,1.212-1.473,13.457,13.457,0,0,0,5.134-2.167,1.5,1.5,0,0,1,2.372,1.22V81.521h3.907V7.574Zm0,0" transform="translate(-59.738 -6.447)" fill="#c1e9f4"/>
  <path id="Trazado_195451" data-name="Trazado 195451" d="M151.133,49.988H135.8a3.006,3.006,0,0,0-3.006,3.006V66.221a3.006,3.006,0,0,0,3.006,3.006h30.661a3.006,3.006,0,0,0,3.006-3.006V52.994a3.006,3.006,0,0,0-3.006-3.006Zm0,0" transform="translate(-113.033 -42.548)" fill="#ef9f14"/>
  <path id="Trazado_195452" data-name="Trazado 195452" d="M342.676,49.988H339.82a3.006,3.006,0,0,1,3.006,3.006V66.221a3.006,3.006,0,0,1-3.006,3.006h2.856a3.006,3.006,0,0,0,3.006-3.006V52.994A3.006,3.006,0,0,0,342.676,49.988Zm0,0" transform="translate(-289.244 -42.548)" fill="#ffcd69"/>
  <path id="Trazado_195453" data-name="Trazado 195453" d="M7.574,318.609v27.655h49V318.609Zm0,0" transform="translate(-6.447 -271.19)" fill="#79dae1"/>
  <path id="Trazado_195455" data-name="Trazado 195455" d="M60.437,369.112H44.484a3.585,3.585,0,0,0-3.585-3.585V354.511a3.585,3.585,0,0,0,3.585-3.585H76.391a3.585,3.585,0,0,0,3.585,3.585v11.016a3.585,3.585,0,0,0-3.585,3.585Zm0,0" transform="translate(-34.811 -298.697)" fill="#d9fcff"/>
  <path id="Trazado_195457" data-name="Trazado 195457" d="M298.249,226.127a10.521,10.521,0,1,1-10.521-10.521A10.521,10.521,0,0,1,298.249,226.127Zm0,0" transform="translate(-235.95 -183.517)" fill="#79dae1"/>
  <path id="Trazado_195459" data-name="Trazado 195459" d="M65.756,15.255a1.127,1.127,0,0,0,1.127-1.127v-13A1.127,1.127,0,0,0,65.756,0H10.446A1.127,1.127,0,0,0,9.319,1.127V46.292H1.127A1.127,1.127,0,0,0,0,47.42V57.727a1.127,1.127,0,1,0,2.255,0v-9.18H41.762A11.687,11.687,0,0,0,49,53.92V73.947H2.255V62.963a1.127,1.127,0,0,0-2.255,0V75.074A1.127,1.127,0,0,0,1.127,76.2H65.756a1.127,1.127,0,0,0,1.127-1.127V19.407a1.127,1.127,0,1,0-2.254,0v54.54H51.252v-19.7c.174.008.349.013.526.013A11.657,11.657,0,1,0,40.73,46.292H11.573V2.255H64.629V14.128A1.127,1.127,0,0,0,65.756,15.255ZM51.778,33.216a9.394,9.394,0,1,1-9.394,9.394A9.4,9.4,0,0,1,51.778,33.216Zm0,0" fill="#104469"/>
  <path id="Trazado_195460" data-name="Trazado 195460" d="M160.664,85.893a1.127,1.127,0,0,0,1.127-1.127V75.973h1.878a1.127,1.127,0,1,0,0-2.255h-6.012a1.127,1.127,0,0,0,0,2.255h1.879v8.793A1.127,1.127,0,0,0,160.664,85.893Zm0,0" transform="translate(-133.234 -62.747)" fill="#104469"/>
  <path id="Trazado_195461" data-name="Trazado 195461" d="M235.366,85.893a1.128,1.128,0,0,0,1.127-1.127V76.349a2.634,2.634,0,0,0-2.631-2.631h-3.006a2.634,2.634,0,0,0-2.631,2.631v8.417a1.127,1.127,0,1,0,2.255,0V80.934h3.758v3.832A1.127,1.127,0,0,0,235.366,85.893Zm-4.885-7.214v-2.33a.376.376,0,0,1,.376-.376h3.006a.376.376,0,0,1,.376.376v2.33Zm0,0" transform="translate(-194.259 -62.747)" fill="#104469"/>
  <path id="Trazado_195462" data-name="Trazado 195462" d="M300.472,85.729a1.127,1.127,0,0,0,1.548-.38l2.042-3.369L306.1,85.35a1.127,1.127,0,0,0,1.928-1.169l-2.652-4.376,2.652-4.375a1.127,1.127,0,0,0-1.928-1.169l-2.042,3.37-2.042-3.37a1.127,1.127,0,0,0-1.928,1.169l2.652,4.375-2.652,4.376A1.127,1.127,0,0,0,300.472,85.729Zm0,0" transform="translate(-255.29 -62.747)" fill="#104469"/>
  <path id="Trazado_195463" data-name="Trazado 195463" d="M164.15,59.774V46.547a4.138,4.138,0,0,0-4.133-4.133H138.586a1.127,1.127,0,1,0,0,2.255h21.432a1.881,1.881,0,0,1,1.878,1.878V59.774a1.881,1.881,0,0,1-1.878,1.878H129.356a1.881,1.881,0,0,1-1.879-1.878V46.547a1.881,1.881,0,0,1,1.879-1.878H133.3a1.127,1.127,0,0,0,0-2.255h-3.945a4.138,4.138,0,0,0-4.134,4.133V59.774a4.138,4.138,0,0,0,4.134,4.133h30.661A4.138,4.138,0,0,0,164.15,59.774Zm0,0" transform="translate(-106.586 -36.102)" fill="#104469"/>
  <path id="Trazado_195464" data-name="Trazado 195464" d="M36.91,362.665a1.127,1.127,0,0,0,1.127,1.127H69.944a1.127,1.127,0,0,0,1.127-1.127,2.46,2.46,0,0,1,2.458-2.458,1.127,1.127,0,0,0,1.127-1.127V348.064a1.127,1.127,0,0,0-1.127-1.127,2.461,2.461,0,0,1-2.458-2.458,1.127,1.127,0,0,0-1.127-1.127H38.037a1.127,1.127,0,0,0-1.127,1.127,2.461,2.461,0,0,1-2.458,2.458,1.127,1.127,0,0,0-1.127,1.127V359.08a1.127,1.127,0,0,0,1.127,1.127A2.461,2.461,0,0,1,36.91,362.665Zm-1.331-13.61a4.732,4.732,0,0,0,3.449-3.449H68.954a4.73,4.73,0,0,0,3.449,3.449v9.033a4.73,4.73,0,0,0-3.449,3.449H39.028a4.731,4.731,0,0,0-3.449-3.449Zm0,0" transform="translate(-28.365 -292.25)" fill="#104469"/>
  <path id="Trazado_195465" data-name="Trazado 195465" d="M233.987,406.63h3.784a1.127,1.127,0,1,0,0-2.255h-3.784a1.127,1.127,0,1,0,0,2.255Zm0,0" transform="translate(-198.203 -344.191)" fill="#104469"/>
  <path id="Trazado_195466" data-name="Trazado 195466" d="M123.264,380.842h.8a5.637,5.637,0,0,0,11.045,0h.779a1.127,1.127,0,1,0,0-2.255h-.779a5.637,5.637,0,0,0-11.045,0h-.8a1.127,1.127,0,1,0,0,2.255Zm6.321-4.509a3.382,3.382,0,1,1-3.381,3.382A3.386,3.386,0,0,1,129.585,376.333Zm0,0" transform="translate(-103.959 -318.404)" fill="#104469"/>
  <path id="Trazado_195467" data-name="Trazado 195467" d="M72.057,406.63h3.784a1.127,1.127,0,0,0,0-2.255H72.057a1.127,1.127,0,0,0,0,2.255Zm0,0" transform="translate(-60.373 -344.191)" fill="#104469"/>
  <path id="Trazado_195468" data-name="Trazado 195468" d="M313.412,248.472a2.375,2.375,0,0,0,2.373-2.373v-1.09a2.373,2.373,0,1,0-4.745,0v1.09A2.375,2.375,0,0,0,313.412,248.472Zm0,0" transform="translate(-264.747 -206.525)" fill="#104469"/>
  <path id="Trazado_195469" data-name="Trazado 195469" d="M352.875,293.123v1.09a2.373,2.373,0,1,0,4.745,0v-1.09a2.373,2.373,0,0,0-4.745,0Zm0,0" transform="translate(-300.356 -247.477)" fill="#104469"/>
  <path id="Trazado_195470" data-name="Trazado 195470" d="M322.1,255.5a1.127,1.127,0,0,0,1.521-.478l5.6-10.741a1.127,1.127,0,1,0-2-1.043l-5.6,10.741A1.127,1.127,0,0,0,322.1,255.5Zm0,0" transform="translate(-273.647 -206.523)" fill="#104469"/>
  <path id="Trazado_195471" data-name="Trazado 195471" d="M146.715,213.2a1.127,1.127,0,0,0-1.127-1.127H126.35a1.127,1.127,0,1,0,0,2.255h19.238A1.127,1.127,0,0,0,146.715,213.2Zm0,0" transform="translate(-106.586 -180.508)" fill="#104469"/>
  <path id="Trazado_195473" data-name="Trazado 195473" d="M139.576,245.9H126.35a1.127,1.127,0,0,0,0,2.255h13.226a1.127,1.127,0,0,0,0-2.255Zm0,0" transform="translate(-106.586 -209.304)" fill="#104469"/>
</svg>
