<svg xmlns="http://www.w3.org/2000/svg" width="101" height="101" viewBox="0 0 101 101">
  <g id="Grupo_146355" data-name="Grupo 146355" transform="translate(-433 -2561)">
    <g id="impuestos_1_" data-name="impuestos (1)" transform="translate(439.428 2566.855)">
      <path id="Trazado_194720" data-name="Trazado 194720" d="M104.516,7.515H47.593a6.9,6.9,0,0,1,6.9,6.9V93.072h56.923V14.415A6.9,6.9,0,0,0,104.516,7.515Z" transform="translate(-39.4 -6.221)" fill="#79dae1"/>
      <g id="Grupo_146166" data-name="Grupo 146166" transform="translate(1.294 1.294)">
        <rect id="Rectángulo_44611" data-name="Rectángulo 44611" width="56.923" height="3.45" transform="translate(13.799 82.107)" fill="#d9fcff"/>
        <path id="Trazado_194723" data-name="Trazado 194723" d="M14.415,7.515h0a6.9,6.9,0,0,0-6.9,6.9V29.939h13.8V14.415A6.9,6.9,0,0,0,14.415,7.515Z" transform="translate(-7.515 -7.515)" fill="#d9fcff"/>
      </g>
      <rect id="Rectángulo_44612" data-name="Rectángulo 44612" width="36.224" height="50.023" transform="translate(50.627 12.678)" fill="#ef9f14"/>
      <g id="Grupo_146167" data-name="Grupo 146167" transform="translate(55.802 31.653)">
        <rect id="Rectángulo_44613" data-name="Rectángulo 44613" width="5.175" height="5.175" transform="translate(10.35 20.699)" fill="#fff"/>
        <rect id="Rectángulo_44614" data-name="Rectángulo 44614" width="5.175" height="15.524" transform="translate(20.699 10.35)" fill="#fff"/>
        <rect id="Rectángulo_44615" data-name="Rectángulo 44615" width="5.175" height="5.175" transform="translate(0 20.699)" fill="#fff"/>
        <rect id="Rectángulo_44616" data-name="Rectángulo 44616" width="5.175" height="5.175" transform="translate(10.35 10.35)" fill="#fff"/>
        <rect id="Rectángulo_44617" data-name="Rectángulo 44617" width="5.175" height="5.175" transform="translate(0 10.35)" fill="#fff"/>
        <rect id="Rectángulo_44618" data-name="Rectángulo 44618" width="5.175" height="5.175" transform="translate(20.699)" fill="#fff"/>
        <rect id="Rectángulo_44619" data-name="Rectángulo 44619" width="5.175" height="5.175" transform="translate(10.35)" fill="#fff"/>
        <rect id="Rectángulo_44620" data-name="Rectángulo 44620" width="5.175" height="5.175" fill="#fff"/>
      </g>
      <rect id="Rectángulo_44621" data-name="Rectángulo 44621" width="25.874" height="8.625" transform="translate(55.802 17.853)" fill="#fff"/>
      <path id="Trazado_194724" data-name="Trazado 194724" d="M7.515,357.2a6.037,6.037,0,1,0,12.074,0Z" transform="translate(-6.221 -295.704)" fill="#ef9f14"/>
      <path id="Trazado_194725" data-name="Trazado 194725" d="M157.808,357.2a6.037,6.037,0,1,0,12.074,0Z" transform="translate(-130.64 -295.704)" fill="#d9fcff"/>
      <path id="Trazado_194726" data-name="Trazado 194726" d="M81.6,434.513H62.622v-1.725a3.45,3.45,0,0,1,3.45-3.45H78.146a3.45,3.45,0,0,1,3.45,3.45v1.725Z" transform="translate(-51.841 -355.424)" fill="#ef9f14"/>
      <rect id="Rectángulo_44622" data-name="Rectángulo 44622" width="36.224" height="3.45" transform="translate(50.627 59.252)" fill="#fbc02d"/>
      <path id="Trazado_194731" data-name="Trazado 194731" d="M13.8,44.59h2.587V8.193a8.162,8.162,0,0,0-2.226-5.606H65.117a5.613,5.613,0,0,1,5.606,5.606v.69H73.31v-.69A8.2,8.2,0,0,0,65.117,0H8.193A8.2,8.2,0,0,0,0,8.193V25.012H13.8ZM2.587,22.424V8.193a5.606,5.606,0,0,1,11.212,0V22.424Z" fill="#104469"/>
      <path id="Trazado_194732" data-name="Trazado 194732" d="M137.08,405.315H82.744v-2.5H80.157V407.9h59.51V386.254H137.08Z" transform="translate(-66.357 -319.758)" fill="#104469"/>
      <path id="Trazado_194733" data-name="Trazado 194733" d="M286.56,66.129V118.74h38.811V66.129Zm36.224,50.023H289.147V68.717h33.636Z" transform="translate(-237.227 -54.744)" fill="#104469"/>
      <path id="Trazado_194734" data-name="Trazado 194734" d="M376.736,304.341H384.5v-7.762h-7.762Zm2.587-5.175h2.587v2.587h-2.587Z" transform="translate(-311.878 -245.521)" fill="#104469"/>
      <path id="Trazado_194735" data-name="Trazado 194735" d="M324.38,296.579h-7.762v7.762h7.762Zm-2.587,5.175h-2.587v-2.587h2.587Z" transform="translate(-262.11 -245.521)" fill="#104469"/>
      <path id="Trazado_194736" data-name="Trazado 194736" d="M436.853,254.574h7.762V236.462h-7.762Zm2.588-15.524h2.587v12.937H439.44Z" transform="translate(-361.646 -195.753)" fill="#104469"/>
      <path id="Trazado_194737" data-name="Trazado 194737" d="M376.736,244.224H384.5v-7.762h-7.762Zm2.587-5.175h2.587v2.587h-2.587Z" transform="translate(-311.878 -195.753)" fill="#104469"/>
      <path id="Trazado_194738" data-name="Trazado 194738" d="M324.38,236.462h-7.762v7.762h7.762Zm-2.587,5.175h-2.587V239.05h2.587Z" transform="translate(-262.11 -195.753)" fill="#104469"/>
      <path id="Trazado_194739" data-name="Trazado 194739" d="M436.853,184.106h7.762v-7.762h-7.762Zm2.588-5.175h2.587v2.587H439.44Z" transform="translate(-361.646 -145.985)" fill="#104469"/>
      <path id="Trazado_194740" data-name="Trazado 194740" d="M376.736,184.106H384.5v-7.762h-7.762Zm2.587-5.175h2.587v2.587h-2.587Z" transform="translate(-311.878 -145.985)" fill="#104469"/>
      <path id="Trazado_194741" data-name="Trazado 194741" d="M324.38,176.344h-7.762v7.762h7.762Zm-2.587,5.175h-2.587v-2.587h2.587Z" transform="translate(-262.11 -145.985)" fill="#104469"/>
      <path id="Trazado_194742" data-name="Trazado 194742" d="M345.08,96.188H316.618V107.4H345.08Zm-2.587,8.625H319.206V98.776h23.287Z" transform="translate(-262.11 -79.629)" fill="#104469"/>
      <path id="Trazado_194743" data-name="Trazado 194743" d="M14.231,281.231a4.749,4.749,0,0,0-4.744,4.744v3.019H31.049v-3.019a4.749,4.749,0,0,0-4.744-4.744H21.562V258.289h9.623l-5.311,11.532v.284a7.331,7.331,0,0,0,14.662,0v-.284l-6.5-14.12H21.562v-3.709H18.974V255.7H6.5L0,269.821v.284a7.331,7.331,0,0,0,14.662,0v-.284L9.351,258.289h9.623V281.23H14.231Zm18.974-6.382a4.751,4.751,0,0,1-4.563-3.45h9.126A4.751,4.751,0,0,1,33.205,274.848Zm4.017-6.037H29.188l4.017-8.723ZM7.331,274.848a4.751,4.751,0,0,1-4.563-3.45h9.126A4.751,4.751,0,0,1,7.331,274.848Zm4.017-6.037H3.314l4.017-8.723Zm14.957,15.007a2.158,2.158,0,0,1,2.156,2.156v.431H12.075v-.431a2.158,2.158,0,0,1,2.156-2.156Z" transform="translate(0 -208.611)" fill="#104469"/>
      <path id="Trazado_194744" data-name="Trazado 194744" d="M118.814,43.585v3.069a3.881,3.881,0,0,0,1.294,7.54,1.294,1.294,0,1,1,0,2.588h-3.277v2.587h1.984v2.846H121.4V59.146a3.881,3.881,0,0,0-1.294-7.54,1.294,1.294,0,0,1,0-2.588h3.277V46.431H121.4V43.585Z" transform="translate(-96.218 -36.082)" fill="#104469"/>
      <rect id="Rectángulo_44624" data-name="Rectángulo 44624" width="26.392" height="2.587" transform="translate(20.268 30.531)" fill="#104469"/>
      <rect id="Rectángulo_44625" data-name="Rectángulo 44625" width="2.587" height="2.587" transform="translate(33.723 37.431)" fill="#104469"/>
      <rect id="Rectángulo_44626" data-name="Rectángulo 44626" width="10.867" height="2.587" transform="translate(20.268 37.431)" fill="#104469"/>
      <rect id="Rectángulo_44627" data-name="Rectángulo 44627" width="2.587" height="2.587" transform="translate(38.897 37.431)" fill="#104469"/>
      <g id="Grupo_146168" data-name="Grupo 146168" transform="translate(5.347 5.347)">
        <rect id="Rectángulo_44628" data-name="Rectángulo 44628" width="2.587" height="8.625" transform="translate(0 0.949)" fill="#104469"/>
        <rect id="Rectángulo_44629" data-name="Rectángulo 44629" width="2.587" height="2.587" transform="translate(0 12.161)" fill="#104469"/>
        <rect id="Rectángulo_44630" data-name="Rectángulo 44630" width="6.9" height="2.587" transform="translate(25.443)" fill="#fff"/>
        <rect id="Rectángulo_44631" data-name="Rectángulo 44631" width="12.075" height="2.587" transform="translate(40.105)" fill="#fff"/>
        <rect id="Rectángulo_44632" data-name="Rectángulo 44632" width="2.587" height="2.587" transform="translate(34.93)" fill="#fff"/>
        <rect id="Rectángulo_44633" data-name="Rectángulo 44633" width="6.382" height="2.587" transform="translate(54.767)" fill="#fff"/>
        <rect id="Rectángulo_44636" data-name="Rectángulo 44636" width="2.587" height="2.587" transform="translate(38.811 18.543)" fill="#fff"/>
        <rect id="Rectángulo_44637" data-name="Rectángulo 44637" width="2.587" height="6.9" transform="translate(38.811 9.056)" fill="#fff"/>
      </g>
    </g>
    <rect id="Rectángulo_44805" data-name="Rectángulo 44805" width="101" height="101" transform="translate(433 2561)" fill="none"/>
  </g>
</svg>
