<svg xmlns="http://www.w3.org/2000/svg" width="101" height="101" viewBox="0 0 101 101">
  <g id="Grupo_146356" data-name="Grupo 146356" transform="translate(-848 -2561)">
    <g id="resultados" transform="translate(855.984 2568.855)">
      <path id="Trazado_195474" data-name="Trazado 195474" d="M18.121,250.917H11.54a4.04,4.04,0,0,1-4.04-4.04V205.086a4.04,4.04,0,0,1,4.04-4.04h6.581a4.04,4.04,0,0,1,4.04,4.04v41.791A4.04,4.04,0,0,1,18.121,250.917Z" transform="translate(-6.267 -168.005)" fill="#fff0d6"/>
      <path id="Trazado_195476" data-name="Trazado 195476" d="M154.051,349.4H147.47a4.04,4.04,0,0,1-4.04-4.04V322.94a4.04,4.04,0,0,1,4.04-4.04h6.581a4.04,4.04,0,0,1,4.04,4.04v22.422A4.04,4.04,0,0,1,154.051,349.4Z" transform="translate(-119.858 -266.49)" fill="#79dae1"/>
      <path id="Trazado_195478" data-name="Trazado 195478" d="M289.982,275.335H283.4a4.04,4.04,0,0,1-4.04-4.04V234.306a4.04,4.04,0,0,1,4.04-4.04h6.581a4.04,4.04,0,0,1,4.04,4.04v36.988a4.04,4.04,0,0,1-4.04,4.04Z" transform="translate(-233.449 -192.423)" fill="#d9fcff"/>
      <path id="Trazado_195480" data-name="Trazado 195480" d="M425.912,193.941h-6.581a4.04,4.04,0,0,1-4.04-4.04v-53a4.04,4.04,0,0,1,4.04-4.04h6.581a4.04,4.04,0,0,1,4.04,4.04v53A4.04,4.04,0,0,1,425.912,193.941Z" transform="translate(-347.04 -111.029)" fill="#ef9f14"/>
      <g id="Grupo_146354" data-name="Grupo 146354" transform="translate(4.764 1.233)">
        <ellipse id="Elipse_1348" data-name="Elipse 1348" cx="3.799" cy="3.793" rx="3.799" ry="3.793" transform="translate(0 12.858)" fill="#79dae1"/>
        <ellipse id="Elipse_1349" data-name="Elipse 1349" cx="3.799" cy="3.793" rx="3.799" ry="3.793" transform="translate(22.339 35.892)" fill="#79dae1"/>
        <ellipse id="Elipse_1350" data-name="Elipse 1350" cx="3.799" cy="3.793" rx="3.799" ry="3.793" transform="translate(44.679 18.038)" fill="#79dae1"/>
        <ellipse id="Elipse_1351" data-name="Elipse 1351" cx="3.799" cy="3.793" rx="3.799" ry="3.793" transform="translate(67.018)" fill="#79dae1"/>
      </g>
      <path id="Trazado_195482" data-name="Trazado 195482" d="M11.853,193.546H5.273A5.279,5.279,0,0,0,0,198.819V228.3a1.233,1.233,0,0,0,2.465,0V198.819a2.811,2.811,0,0,1,2.808-2.808h6.581a2.811,2.811,0,0,1,2.808,2.808v41.791a2.811,2.811,0,0,1-2.808,2.808H5.273a2.811,2.811,0,0,1-2.808-2.808v-5.081a1.233,1.233,0,0,0-2.465,0v5.081a5.279,5.279,0,0,0,5.273,5.273h6.581a5.279,5.279,0,0,0,5.273-5.273V198.819A5.279,5.279,0,0,0,11.853,193.546Z" transform="translate(0 -161.738)" fill="#104469"/>
      <path id="Trazado_195483" data-name="Trazado 195483" d="M147.784,311.4H141.2a5.279,5.279,0,0,0-5.273,5.273v22.422a5.279,5.279,0,0,0,5.273,5.273h6.581a5.279,5.279,0,0,0,5.273-5.273V316.673A5.279,5.279,0,0,0,147.784,311.4Zm2.808,27.695a2.811,2.811,0,0,1-2.808,2.808H141.2a2.811,2.811,0,0,1-2.808-2.808V316.673a2.811,2.811,0,0,1,2.808-2.808h6.581a2.811,2.811,0,0,1,2.808,2.808Z" transform="translate(-113.591 -260.223)" fill="#104469"/>
      <path id="Trazado_195484" data-name="Trazado 195484" d="M283.713,222.766h-6.581a5.279,5.279,0,0,0-5.273,5.273v36.988a5.279,5.279,0,0,0,5.273,5.273h6.581a5.279,5.279,0,0,0,5.273-5.273V238.253a1.233,1.233,0,0,0-2.465,0v26.774a2.811,2.811,0,0,1-2.808,2.808h-6.581a2.811,2.811,0,0,1-2.808-2.808V228.039a2.811,2.811,0,0,1,2.808-2.808h6.581a2.811,2.811,0,0,1,2.808,2.808v2.819a1.233,1.233,0,0,0,2.465,0v-2.818a5.279,5.279,0,0,0-5.273-5.273Z" transform="translate(-227.181 -186.156)" fill="#104469"/>
      <path id="Trazado_195485" data-name="Trazado 195485" d="M419.644,125.365h-6.581a5.279,5.279,0,0,0-5.273,5.273v53a5.279,5.279,0,0,0,5.273,5.273h6.581a5.279,5.279,0,0,0,5.273-5.273v-53A5.279,5.279,0,0,0,419.644,125.365Zm2.808,58.269a2.811,2.811,0,0,1-2.808,2.808h-6.581a2.811,2.811,0,0,1-2.808-2.808v-53a2.811,2.811,0,0,1,2.808-2.808h6.581a2.811,2.811,0,0,1,2.808,2.808Z" transform="translate(-340.773 -104.762)" fill="#104469"/>
      <path id="Trazado_195486" data-name="Trazado 195486" d="M26.52,22.909a5,5,0,0,0,2.506-.671L44.58,38.276A5.023,5.023,0,0,0,48,45.869a5.03,5.03,0,0,0,5.816-4.094h0a4.984,4.984,0,0,0-.383-2.952L68.11,27.034a5.037,5.037,0,0,0,8.046-3.113,4.981,4.981,0,0,0-.415-3.018L90.512,9.038a5.027,5.027,0,1,0-1.547-1.92l-14.8,11.887a5.031,5.031,0,0,0-7.575,6.086L51.888,36.9a5.034,5.034,0,0,0-5.535-.34L30.8,20.525a5.031,5.031,0,1,0-4.279,2.384ZM93.538,2.465a2.56,2.56,0,1,1,0,5.12,2.6,2.6,0,0,1-2.567-2.56A2.566,2.566,0,0,1,93.538,2.465ZM68.669,22.627A2.569,2.569,0,0,1,71.2,20.5a2.6,2.6,0,0,1,2.531,3A2.569,2.569,0,0,1,69.1,24.538a2.539,2.539,0,0,1-.43-1.911ZM50.958,39.444a2.65,2.65,0,0,1,.431,1.911,2.567,2.567,0,1,1-.431-1.911ZM26.52,15.324a2.56,2.56,0,1,1-2.567,2.56A2.566,2.566,0,0,1,26.52,15.324Z" transform="translate(-17.956)" fill="#104469"/>
    </g>
    <rect id="Rectángulo_44806" data-name="Rectángulo 44806" width="101" height="101" transform="translate(848 2561)" fill="none"/>
  </g>
</svg>
