<svg xmlns="http://www.w3.org/2000/svg" width="28" height="28" viewBox="0 0 28 28">
  <g id="Grupo_146387" data-name="Grupo 146387" transform="translate(5433 7197)">
    <circle id="Elipse_1353" data-name="Elipse 1353" cx="14" cy="14" r="14" transform="translate(-5433 -7197)" fill="#ef9f14"/>
    <path id="Trazado_195541" data-name="Trazado 195541" d="M9.563,0H.958V-1.468L5.221-6.117A10.615,10.615,0,0,0,6.535-7.835,2.784,2.784,0,0,0,6.926-9.22,2.1,2.1,0,0,0,6.412-10.7a1.783,1.783,0,0,0-1.384-.562,2.056,2.056,0,0,0-1.608.633,2.489,2.489,0,0,0-.571,1.731H.712A4.186,4.186,0,0,1,1.244-11a3.662,3.662,0,0,1,1.521-1.455,4.84,4.84,0,0,1,2.281-.519,4.329,4.329,0,0,1,2.94.936A3.249,3.249,0,0,1,9.062-9.448,4.392,4.392,0,0,1,8.521-7.44,11.42,11.42,0,0,1,6.75-5.054L3.621-1.705H9.563Z" transform="translate(-5424 -7177)" fill="#12263f"/>
  </g>
</svg>
