<svg xmlns="http://www.w3.org/2000/svg" width="28" height="28" viewBox="0 0 28 28">
  <g id="Grupo_146388" data-name="Grupo 146388" transform="translate(5433 7129)">
    <circle id="Elipse_1354" data-name="Elipse 1354" cx="14" cy="14" r="14" transform="translate(-5433 -7129)" fill="#ef9f14"/>
    <path id="Trazado_195542" data-name="Trazado 195542" d="M3.428-7.374h1.3a2.328,2.328,0,0,0,1.56-.51,1.819,1.819,0,0,0,.576-1.45,1.982,1.982,0,0,0-.479-1.419,1.928,1.928,0,0,0-1.463-.505,2.039,2.039,0,0,0-1.415.5,1.659,1.659,0,0,0-.554,1.3H.817a3.233,3.233,0,0,1,.523-1.793A3.513,3.513,0,0,1,2.8-12.52a4.753,4.753,0,0,1,2.1-.453,4.4,4.4,0,0,1,3.01.962A3.377,3.377,0,0,1,9-9.334a2.719,2.719,0,0,1-.549,1.622A3.445,3.445,0,0,1,7.031-6.565a3.14,3.14,0,0,1,1.6,1.134,3.1,3.1,0,0,1,.549,1.846A3.437,3.437,0,0,1,8-.844,4.59,4.59,0,0,1,4.9.176,4.555,4.555,0,0,1,1.872-.809,3.242,3.242,0,0,1,.694-3.428H2.83A1.787,1.787,0,0,0,3.4-2.057a2.15,2.15,0,0,0,1.525.527,2.217,2.217,0,0,0,1.564-.527,1.978,1.978,0,0,0,.571-1.529,2,2,0,0,0-.6-1.556,2.555,2.555,0,0,0-1.775-.545H3.428Z" transform="translate(-5424 -7109)" fill="#12263f"/>
  </g>
</svg>
