<svg xmlns="http://www.w3.org/2000/svg" xmlns:xlink="http://www.w3.org/1999/xlink" width="341.774" height="337.16" viewBox="0 0 341.774 337.16">
  <defs>
    <clipPath id="clip-path">
      <rect id="Rectángulo_44758" data-name="Rectángulo 44758" width="150.341" height="171.12" fill="none"/>
    </clipPath>
    <clipPath id="clip-path-3">
      <rect id="Rectángulo_44755" data-name="Rectángulo 44755" width="106.035" height="155.678" fill="none"/>
    </clipPath>
    <clipPath id="clip-path-4">
      <rect id="Rectángulo_44756" data-name="Rectángulo 44756" width="16.581" height="10.782" fill="none"/>
    </clipPath>
    <clipPath id="clip-path-5">
      <rect id="Rectángulo_44765" data-name="Rectángulo 44765" width="255.65" height="337.16" fill="none"/>
    </clipPath>
    <clipPath id="clip-path-7">
      <rect id="Rectángulo_44759" data-name="Rectángulo 44759" width="2.909" height="3.041" fill="none"/>
    </clipPath>
    <clipPath id="clip-path-8">
      <rect id="Rectángulo_44760" data-name="Rectángulo 44760" width="3.081" height="3.263" fill="none"/>
    </clipPath>
    <clipPath id="clip-path-9">
      <rect id="Rectángulo_44761" data-name="Rectángulo 44761" width="56.879" height="26.154" fill="none"/>
    </clipPath>
    <clipPath id="clip-path-10">
      <rect id="Rectángulo_44763" data-name="Rectángulo 44763" width="13.007" height="12.032" fill="none"/>
    </clipPath>
  </defs>
  <g id="Grupo_146239" data-name="Grupo 146239" transform="translate(-914 -9963.42)">
    <path id="Trazado_194985" data-name="Trazado 194985" d="M35.712,78c9.812-5.507,20.5-9.866,30.145-14.942,16.556-8.712,32.873-17.943,48.6-28.073C135.5,21.438,156.666,10.87,181.576,6.6a165.523,165.523,0,0,1,83.322,7q.363.129.726.262c21.024,7.66,40.329,20.654,53.93,38.576,15.822,20.848,23.057,46.387,22.143,72.382-.233,6.64-.814,13.266-1.575,19.865-8.014,69.449-98.386,76.127-135.782,73.9S92.089,192.948,72.122,195.436C50.494,198.13,26.654,190.5,12.385,173.6c-17.036-20.179-15.283-51.139-2.118-72.87C16.417,90.573,25.6,83.678,35.712,78" transform="translate(914 10031.525)" fill="#c9dae6"/>
    <g id="Grupo_146222" data-name="Grupo 146222" transform="translate(947 10065.939)">
      <g id="Grupo_146221" data-name="Grupo 146221" clip-path="url(#clip-path)">
        <g id="Grupo_146220" data-name="Grupo 146220">
          <g id="Grupo_146219" data-name="Grupo 146219" clip-path="url(#clip-path)">
            <path id="Trazado_195110" data-name="Trazado 195110" d="M139.226,24.538,164.99,23.45a8.355,8.355,0,0,1,8.7,8.156L174.6,71.4a8.355,8.355,0,0,1-7.485,8.5,2.776,2.776,0,0,0-2.485,2.867l3.236,84.051a10.427,10.427,0,0,1-9.957,10.818l-98.423,4.37a2.776,2.776,0,0,1-2.9-2.69L52.24,33.415a2.776,2.776,0,0,1,2.577-2.852Z" transform="translate(-24.266 -10.89)" fill="#1a878e"/>
            <g id="Grupo_146215" data-name="Grupo 146215" transform="translate(32.246 12.749)" opacity="0.3">
              <g id="Grupo_146214" data-name="Grupo 146214">
                <g id="Grupo_146213" data-name="Grupo 146213" clip-path="url(#clip-path-3)">
                  <path id="Trazado_195111" data-name="Trazado 195111" d="M60.219,176.729l.082,2.758,105.952-9.742L164.228,23.809s-25.719,3.9-26.187,3.9S60.219,176.729,60.219,176.729" transform="translate(-60.219 -23.809)"/>
                </g>
              </g>
            </g>
            <path id="Trazado_195112" data-name="Trazado 195112" d="M111.358,9.234l30.748-1.875,3.174,151.259L37.059,169.594,21.121,19.129Z" transform="translate(-9.811 -3.418)" fill="#ebebeb"/>
            <path id="Trazado_195113" data-name="Trazado 195113" d="M111.258,9.175s-.54.07-1.594.19l-4.678.528-17.974,2-65.98,7.281.093-.115c4.28,40.314,9.839,92.683,15.972,150.462l-.152-.124L61.2,166.936l83.964-8.509-.119.134C143.69,92.427,142.576,38.184,141.942,7.3l.067.063L119.128,8.729l-5.879.342c-1.319.075-1.991.1-1.991.1s.67-.052,1.988-.138l5.877-.375L142,7.236l.066,0,0,.067c.662,30.882,1.825,85.124,3.242,151.257l0,.122-.122.013-83.963,8.523-24.257,2.459-.138.014-.014-.138C30.714,111.768,25.179,59.4,20.918,19.081l-.011-.1.1-.011L87,11.777l17.98-1.944,4.681-.5c1.055-.111,1.6-.16,1.6-.16" transform="translate(-9.712 -3.359)" fill="#263238"/>
            <path id="Trazado_195114" data-name="Trazado 195114" d="M11.078,10.794l14.65,152.229L139.07,152.347,122.725.231Z" transform="translate(-5.146 -0.107)" fill="#fff"/>
            <path id="Trazado_195115" data-name="Trazado 195115" d="M11.078,10.687,122.715.011,122.827,0l.012.112c4.6,42.7,10.257,95.3,16.371,152.112l.015.141-.14.013-.8.076L25.74,163.042l-.125.012-.012-.125C17,72.792,11.184,11.8,11.078,10.687c.108,1.108,6.027,62.1,14.776,152.217l-.137-.114,112.537-10.614.8-.076-.125.154C132.837,95.439,127.194,42.84,122.612.136l.124.1L11.078,10.687" transform="translate(-5.146)" fill="#263238"/>
            <path id="Trazado_195116" data-name="Trazado 195116" d="M173.407,221.108a16.706,16.706,0,1,1,16.667,16.745,16.725,16.725,0,0,1-16.667-16.745m33.1.078a16.4,16.4,0,1,0-16.438,16.361,16.417,16.417,0,0,0,16.438-16.361" transform="translate(-80.551 -94.967)" fill="#e0e0e0"/>
            <path id="Trazado_195117" data-name="Trazado 195117" d="M176.964,222.965a14.57,14.57,0,1,1,14.536,14.6,14.587,14.587,0,0,1-14.536-14.6m26.991.063A12.421,12.421,0,1,0,191.5,235.42a12.436,12.436,0,0,0,12.45-12.392" transform="translate(-82.203 -96.82)" fill="#e0e0e0"/>
            <path id="Trazado_195118" data-name="Trazado 195118" d="M183.66,231.781a10.67,10.67,0,0,1,1.154-4.833l1.918.97a8.538,8.538,0,0,0-.923,3.868,8.631,8.631,0,0,0,13.126,7.387l1.122,1.833a10.78,10.78,0,0,1-16.4-9.226" transform="translate(-85.314 -105.422)" fill="#e0e0e0"/>
            <path id="Trazado_195119" data-name="Trazado 195119" d="M194.5,217.106a10.781,10.781,0,0,1,14.1,15.308l-1.818-1.146a8.633,8.633,0,0,0-11.286-12.255Z" transform="translate(-90.349 -100.286)" fill="#e0e0e0"/>
            <path id="Trazado_195128" data-name="Trazado 195128" d="M131.665,73.365c.007.077-21.381,2.159-47.766,4.65s-47.79,4.449-47.8,4.373,21.377-2.159,47.771-4.651,47.785-4.449,47.793-4.372" transform="translate(-16.77 -34.079)" fill="#263238"/>
            <path id="Trazado_195129" data-name="Trazado 195129" d="M79.456,71.128c.007.077-9.863,1.071-22.043,2.221S35.348,75.37,35.341,75.293s9.862-1.071,22.046-2.221,22.062-2.02,22.069-1.944" transform="translate(-16.417 -33.038)" fill="#263238"/>
            <path id="Trazado_195130" data-name="Trazado 195130" d="M132.443,84.948c.007.077-21.381,2.159-47.766,4.65s-47.79,4.449-47.8,4.373S58.256,91.812,84.65,89.32s47.785-4.449,47.793-4.372" transform="translate(-17.131 -39.459)" fill="#263238"/>
            <path id="Trazado_195131" data-name="Trazado 195131" d="M133.221,96.531c.007.077-21.381,2.159-47.766,4.65s-47.79,4.449-47.8,4.373S59.034,103.4,85.428,100.9s47.786-4.449,47.793-4.372" transform="translate(-17.492 -44.84)" fill="#263238"/>
            <path id="Trazado_195132" data-name="Trazado 195132" d="M134,108.114c.008.077-21.381,2.159-47.766,4.65s-47.79,4.449-47.8,4.373,21.377-2.159,47.771-4.651,47.786-4.449,47.793-4.372" transform="translate(-17.854 -50.22)" fill="#263238"/>
            <path id="Trazado_195133" data-name="Trazado 195133" d="M134.777,119.7c.007.077-21.381,2.159-47.766,4.65s-47.79,4.449-47.8,4.373,21.377-2.159,47.771-4.651,47.785-4.449,47.793-4.372" transform="translate(-18.215 -55.601)" fill="#263238"/>
            <path id="Trazado_195134" data-name="Trazado 195134" d="M135.555,131.281c.007.077-21.381,2.159-47.766,4.65S40,140.381,39.991,140.3s21.377-2.159,47.771-4.651,47.785-4.449,47.793-4.372" transform="translate(-18.577 -60.982)" fill="#263238"/>
            <path id="Trazado_195135" data-name="Trazado 195135" d="M137.416,142.864c.007.077-21.1,2.132-47.143,4.591s-47.166,4.39-47.173,4.314,21.1-2.132,47.147-4.592,47.161-4.39,47.169-4.313" transform="translate(-20.021 -66.362)" fill="#263238"/>
            <path id="Trazado_195136" data-name="Trazado 195136" d="M101.066,165.143c.007.077-12.736,1.287-28.459,2.7s-28.479,2.5-28.486,2.425,12.733-1.286,28.461-2.7,28.476-2.5,28.483-2.425" transform="translate(-20.496 -76.71)" fill="#263238"/>
            <path id="Trazado_195137" data-name="Trazado 195137" d="M91.5,260.879c.006.077-7.749.8-17.32,1.611s-17.339,1.409-17.345,1.333,7.747-.8,17.321-1.611S91.491,260.8,91.5,260.879" transform="translate(-26.4 -121.181)"/>
            <path id="Trazado_195138" data-name="Trazado 195138" d="M76.873,271.935c.006.077-4.344.509-9.717.965s-9.734.764-9.741.687,4.343-.509,9.717-.965,9.734-.764,9.74-.687" transform="translate(-26.67 -126.314)"/>
            <path id="Trazado_195139" data-name="Trazado 195139" d="M71.662,190.415c.007.077-5.112.644-11.432,1.267s-11.453,1.066-11.461.989,5.111-.644,11.434-1.267,11.452-1.066,11.46-.989" transform="translate(-22.654 -88.448)" fill="#ef9f14"/>
            <g id="Grupo_146218" data-name="Grupo 146218" transform="translate(17.889 126.377)" opacity="0.3">
              <g id="Grupo_146217" data-name="Grupo 146217">
                <g id="Grupo_146216" data-name="Grupo 146216" clip-path="url(#clip-path-4)">
                  <path id="Trazado_195140" data-name="Trazado 195140" d="M33.766,246.789l10.4-2.011,5.818-8.771-16.581,5.445Z" transform="translate(-33.407 -236.007)"/>
                </g>
              </g>
            </g>
            <path id="Trazado_195141" data-name="Trazado 195141" d="M0,232.927l27.781-2.63,6.689,3.058-5.339,6.005L.911,242.4Z" transform="translate(0 -106.978)" fill="#ef9f14"/>
            <path id="Trazado_195142" data-name="Trazado 195142" d="M20.457,238.47l.357,3.563-.825.083-.146-1.461-1.618.163.146,1.46-.825.083-.357-3.563.825-.082.141,1.405,1.618-.163-.141-1.405Z" transform="translate(-7.985 -110.774)" fill="#fff"/>
            <path id="Trazado_195143" data-name="Trazado 195143" d="M27.682,241.036l-2.071.208a.734.734,0,0,0,.839.471.934.934,0,0,0,.66-.334l.469.416a1.606,1.606,0,0,1-2.789-.7,1.4,1.4,0,0,1,1.319-1.557,1.363,1.363,0,0,1,1.568,1.277c.006.061,0,.149.006.216m-2.128-.255,1.349-.135a.688.688,0,0,0-1.349.135" transform="translate(-11.511 -111.269)" fill="#fff"/>
            <path id="Trazado_195144" data-name="Trazado 195144" d="M32.613,238.866l.074.733c-.067,0-.118,0-.179.008a.676.676,0,0,0-.652.836l.13,1.293-.794.08-.275-2.738.758-.076.036.361a1.11,1.11,0,0,1,.9-.5" transform="translate(-14.362 -110.958)" fill="#fff"/>
            <path id="Trazado_195145" data-name="Trazado 195145" d="M37.692,240.032l-2.071.207a.734.734,0,0,0,.839.472.931.931,0,0,0,.66-.334l.469.416a1.606,1.606,0,0,1-2.789-.7,1.4,1.4,0,0,1,1.319-1.556,1.363,1.363,0,0,1,1.568,1.277c.006.061,0,.149.006.216m-2.128-.255,1.348-.135a.687.687,0,0,0-1.348.135" transform="translate(-16.161 -110.802)" fill="#fff"/>
            <path id="Trazado_195146" data-name="Trazado 195146" d="M118.623,189.141s.033.009.1.032a1.317,1.317,0,0,1,.27.127,3.847,3.847,0,0,1,.894.756,12.781,12.781,0,0,1,2.251,3.882,16.247,16.247,0,0,1,1.167,6.99,10.534,10.534,0,0,1-.379,2.13A14.2,14.2,0,0,1,119.1,209.2a14.83,14.83,0,0,1-4.59,3,12.567,12.567,0,0,1-5.861.922,12.86,12.86,0,0,1-10.293-7.351,10.5,10.5,0,0,1-.932-3.4,8,8,0,0,1,.375-3.59,5.773,5.773,0,0,1,2.139-3,4.141,4.141,0,0,1,1.782-.666,4.266,4.266,0,0,1,1.906.223,5.627,5.627,0,0,1,2.937,2.436,9.026,9.026,0,0,1,1.165,3.711,16.207,16.207,0,0,1-1.143,7.793,15.332,15.332,0,0,1-4.709,6.307,14.137,14.137,0,0,1-7.087,2.851,13.288,13.288,0,0,1-7.275-1.184,12.427,12.427,0,0,1-5.174-4.808,12.052,12.052,0,0,1-1.751-6.492,8.8,8.8,0,0,1,.624-3.2,6.335,6.335,0,0,1,1.83-2.57,3.786,3.786,0,0,1,2.9-.859,4.349,4.349,0,0,1,2.561,1.425,5.455,5.455,0,0,1,1.285,2.513,7.073,7.073,0,0,1,0,2.7,14.029,14.029,0,0,1-1.906,4.608,22.148,22.148,0,0,1-2.675,3.557,24.178,24.178,0,0,1-2.848,2.624,24.556,24.556,0,0,1-2.71,1.8,20.865,20.865,0,0,1-4.112,1.815c-.98.313-1.511.42-1.511.42s.127-.046.38-.122.632-.171,1.114-.351a21.63,21.63,0,0,0,4.076-1.856,24.806,24.806,0,0,0,2.683-1.813,24.3,24.3,0,0,0,2.814-2.624,22.091,22.091,0,0,0,2.638-3.543,13.872,13.872,0,0,0,1.863-4.552,6.877,6.877,0,0,0,0-2.624,5.255,5.255,0,0,0-1.242-2.411,4.134,4.134,0,0,0-2.432-1.349,3.56,3.56,0,0,0-2.729.818,6.109,6.109,0,0,0-1.754,2.48,8.559,8.559,0,0,0-.6,3.112,11.817,11.817,0,0,0,1.726,6.354,12.173,12.173,0,0,0,5.07,4.7,13.021,13.021,0,0,0,7.128,1.153,13.874,13.874,0,0,0,6.947-2.8,15.066,15.066,0,0,0,4.621-6.194,15.942,15.942,0,0,0,1.126-7.657,8.758,8.758,0,0,0-1.125-3.6,5.351,5.351,0,0,0-2.79-2.321,4,4,0,0,0-1.785-.212,3.879,3.879,0,0,0-1.663.621,5.51,5.51,0,0,0-2.037,2.858,7.726,7.726,0,0,0-.366,3.477,10.259,10.259,0,0,0,.9,3.323,12.629,12.629,0,0,0,10.08,7.227,12.365,12.365,0,0,0,5.76-.891,14.657,14.657,0,0,0,4.534-2.946,14.062,14.062,0,0,0,3.8-6.051,10.393,10.393,0,0,0,.384-2.1,16.237,16.237,0,0,0-1.113-6.938,13.015,13.015,0,0,0-2.192-3.883,4.017,4.017,0,0,0-.866-.769c-.221-.142-.357-.17-.351-.184" transform="translate(-34.387 -87.86)"/>
            <path id="Trazado_195147" data-name="Trazado 195147" d="M121.621,36.142s-.015-.091-.036-.263-.05-.432-.088-.761c-.075-.676-.185-1.663-.328-2.943-.279-2.569-.686-6.312-1.2-11.045l.093.075L62.235,27.3h0l.124-.153c.537,5.154,1.061,10.183,1.566,15.021l-.149-.122L105.038,37.8l12.156-1.231,3.277-.325.852-.08c.193-.017.3-.022.3-.022s-.09.016-.277.038l-.834.1-3.244.357-12.117,1.3L63.8,42.319l-.135.014L63.65,42.2c-.506-4.838-1.032-9.867-1.572-15.021l-.014-.139.139-.014h0l57.837-5.986.085-.009.008.084c.477,4.759.854,8.521,1.113,11.1.124,1.274.22,2.255.285,2.929.03.323.053.572.069.748s.018.248.018.248" transform="translate(-28.83 -9.768)" fill="#455a64"/>
          </g>
        </g>
      </g>
    </g>
    <line id="Línea_206" data-name="Línea 206" x1="181.777" transform="translate(1009.664 10280.321)" fill="none" stroke="#104469" stroke-linejoin="round" stroke-width="1"/>
    <g id="Grupo_146238" data-name="Grupo 146238" transform="translate(992 9963.42)">
      <g id="Grupo_146237" data-name="Grupo 146237" clip-path="url(#clip-path-5)">
        <g id="Grupo_146236" data-name="Grupo 146236">
          <g id="Grupo_146235" data-name="Grupo 146235" clip-path="url(#clip-path-5)">
            <path id="Trazado_195148" data-name="Trazado 195148" d="M137.141,30.006a2.32,2.32,0,0,1,.843-1.351,5.747,5.747,0,0,1,3.563-.882,15.132,15.132,0,0,0,1.46-4.73,3.018,3.018,0,0,1-1.68-.479,1.682,1.682,0,0,1-.276-.084c-1.2-.549-1.315-2.337-.56-3.416a6.829,6.829,0,0,1,3.274-2.1,11.407,11.407,0,0,0-2.535.92c-.863.269-2.078-.029-2.18-.926a1.958,1.958,0,0,1,.137-.809q.252-.8.5-1.592a1.777,1.777,0,0,1,.7-1.111,4.168,4.168,0,0,1,.919-.221c1.009-.272,1.531-1.5,2.537-1.779a4.628,4.628,0,0,1,2.253.334c.749.178,1.74.03,1.972-.7A7.179,7.179,0,0,1,145.51,8.9a2.463,2.463,0,0,1,.243-3.1,3.623,3.623,0,0,1,2.536-.519c.986.043,2.212.267,2.473,1.219a2.566,2.566,0,0,1,3.149,2.013l2.54-.257c-.71-.763-1.718-1.228-2.33-2.07s-.5-2.362.521-2.58a7.025,7.025,0,0,0,1.132-.1c.256-.1.466-.333.741-.343a.982.982,0,0,1,.549.215l5.366,3.5Q161.7,5.2,160.978,3.51c-.446-1.037-.793-2.466.136-3.108.9-.62,2.208.275,2.4,1.35a1.744,1.744,0,0,1,2.121,1.605,1.822,1.822,0,0,1,2.063.561,1.821,1.821,0,0,1,.014,2.138,5.019,5.019,0,0,1,2.553.762,1.538,1.538,0,0,1,2.486-1.059,2.676,2.676,0,0,1,.394-1.53.926.926,0,0,1,1.384-.154,1.8,1.8,0,0,1,2.91-1.759l.885-1.071A2.365,2.365,0,0,1,180.6,2.43c.373.829-.251,2.021-1.157,1.939.637-.011.492,1,.121,1.522q-.776,1.079-1.553,2.158a1.988,1.988,0,0,1,2.462-.218,1.539,1.539,0,0,1,2.225.017,1.246,1.246,0,0,1,2.238.377c.158-.415.728-.44,1.17-.393a2.9,2.9,0,0,1,1.774.61c.454.447.45,1.377-.148,1.6.543-.3,1.244.294,1.253.916a2.229,2.229,0,0,1-.892,1.576,5.206,5.206,0,0,0-1.279,1.347,2.626,2.626,0,0,1,1.794-.378,6.81,6.81,0,0,1,3.247.647c.19-.438.8-.459,1.271-.363A7.6,7.6,0,0,1,197,15.892c.494.5.937,1.255.6,1.873a1.888,1.888,0,0,1-.711.632l-3.444,2.131a9.378,9.378,0,0,1,4.708,3.336c.689.4,1.562.442,2.185.939s.577,1.809-.22,1.809a1.461,1.461,0,0,1,.423,1.695A1.4,1.4,0,0,1,200,28.9a1.957,1.957,0,0,1-.377.427,2.707,2.707,0,0,1-.925.485,1.8,1.8,0,0,1-1.54.71,7.327,7.327,0,0,1,1.637,1.939,3.075,3.075,0,0,1,0,3.16,1.71,1.71,0,0,1-.122.134,1.5,1.5,0,0,1-.659.955,1.269,1.269,0,0,1,.122.839,3.36,3.36,0,0,1,.756,5.891c-.793.56-2.261.456-2.335-.51a2.615,2.615,0,0,1-1.987,1.445,2.535,2.535,0,0,1-1.326,3.491,2.7,2.7,0,0,1-.85,4.419,2.068,2.068,0,1,1-3.908,1.357,4.4,4.4,0,0,1-1.549,1.939,1.519,1.519,0,0,1-2.141-.56,2.84,2.84,0,0,1-4.176,1.351,1.837,1.837,0,0,1-3.653.324l-4.745-.046a16.975,16.975,0,0,1-3.137-.226,8.5,8.5,0,0,1-3.615-1.673,2.869,2.869,0,0,0-1.1-.666,2.947,2.947,0,0,0-1.451.223,7.681,7.681,0,0,1-7.293-1.724,3.844,3.844,0,0,0-.961-.768,3.465,3.465,0,0,0-1.4-.194,13.881,13.881,0,0,1-3.449-.5,3.669,3.669,0,0,1-2.434-1.6c-.454-.89.08-2.265,1.08-2.249a2.147,2.147,0,0,0-.53-1.8,1.291,1.291,0,0,0-1.752-.074.93.93,0,0,0,.427,1.515,1.916,1.916,0,0,1-2.767-1.6,2.565,2.565,0,0,1,2.572-2.394,5.9,5.9,0,0,1-.074-2.87,2.11,2.11,0,0,1-2.875.326,3.638,3.638,0,0,1-2.354,1.692,2.18,2.18,0,0,1-2.406-1.314,1.57,1.57,0,0,1,1.491-2.02,1.875,1.875,0,0,1,1.666-2.712,2.917,2.917,0,0,1,1.78-3.1,1.535,1.535,0,0,1-2.183-.843c-.6.952-2.075.719-3.049.148a2.049,2.049,0,0,1-1.271-2.229" transform="translate(-14.168 -0.021)" fill="#104469"/>
            <path id="Trazado_195149" data-name="Trazado 195149" d="M137.14,29.985a1.434,1.434,0,0,0-.055.387,1.677,1.677,0,0,0,.363,1.093,3.706,3.706,0,0,0,1.578,1.083,3.205,3.205,0,0,0,1.23.209,1.533,1.533,0,0,0,1.251-.661l-.1-.015a1.6,1.6,0,0,0,2.275.886l-.061-.122a3,3,0,0,0-1.836,3.173l.088-.094a1.809,1.809,0,0,0-1.631.876,1.846,1.846,0,0,0-.12,1.965l.089-.14a1.58,1.58,0,0,0-1.59,1.2,1.731,1.731,0,0,0,.8,1.967,2.5,2.5,0,0,0,2.286.212,4.051,4.051,0,0,0,1.853-1.579l-.165.026a2.231,2.231,0,0,0,3.039-.341l-.21-.1a6.045,6.045,0,0,0,.071,2.929l.118-.158a2.88,2.88,0,0,0-1.766.656,2.419,2.419,0,0,0-.929,1.709,2.015,2.015,0,0,0,.936,1.76,1.812,1.812,0,0,0,2.033.108l.3-.209-.362-.039a.752.752,0,0,1-.529-.891.824.824,0,0,1,.9-.655,1.273,1.273,0,0,1,1.083.658,2.2,2.2,0,0,1,.239,1.367l.146-.126a1.234,1.234,0,0,0-.944.438,1.832,1.832,0,0,0-.422.938,1.8,1.8,0,0,0,.131,1.032,2.428,2.428,0,0,0,.636.815,4.922,4.922,0,0,0,1.826.889,13.957,13.957,0,0,0,2,.412c1.34.281,2.892-.265,3.769.98a7.732,7.732,0,0,0,3.829,1.97,7.9,7.9,0,0,0,2.221.131,11.278,11.278,0,0,0,2.181-.477,1.341,1.341,0,0,1,.975.108,8.006,8.006,0,0,1,.885.654,8.781,8.781,0,0,0,2.023,1.131,12.148,12.148,0,0,0,4.631.667l4.761.049-.176-.152a2.019,2.019,0,0,0,4.014-.355l-.291.152a3.028,3.028,0,0,0,4.461-1.442l-.353.005a1.38,1.38,0,0,0,1.013.843,1.977,1.977,0,0,0,1.337-.153,4.436,4.436,0,0,0,1.683-2.044l-.346-.026a2.259,2.259,0,1,0,4.268-1.481l-.123.247a2.7,2.7,0,0,0,1.723-2.053,2.731,2.731,0,0,0-.808-2.7l-.061.335a2.734,2.734,0,0,0,1.434-3.772l-.145.292a2.822,2.822,0,0,0,2.139-1.557l-.376-.07a1.027,1.027,0,0,0,.308.657,1.362,1.362,0,0,0,.621.323,2.247,2.247,0,0,0,1.323-.11,3.354,3.354,0,0,0,1.7-1.974,3.443,3.443,0,0,0-.138-2.645A3.638,3.638,0,0,0,198.2,37.34l.126.229a1.484,1.484,0,0,0-.14-.97l-.076.263a1.707,1.707,0,0,0,.752-1.081l-.046.087a2.991,2.991,0,0,0,.385-3,6.545,6.545,0,0,0-1.912-2.519l-.152.352a2,2,0,0,0,1.718-.79l-.1.072a2.54,2.54,0,0,0,1.41-.993l-.059.057a1.519,1.519,0,0,0,.742-1.238,1.666,1.666,0,0,0-.612-1.38l-.126.364a.777.777,0,0,0,.642-.325,1.184,1.184,0,0,0,.205-.646,1.48,1.48,0,0,0-.5-1.2,15.352,15.352,0,0,0-2.206-.953l.061.055a9.611,9.611,0,0,0-4.811-3.41l.048.369,1.577-.976,1.2-.741a10,10,0,0,0,1.2-.8,1.216,1.216,0,0,0,.383-.726,1.514,1.514,0,0,0-.125-.788,3.443,3.443,0,0,0-.894-1.169,7.833,7.833,0,0,0-2.4-1.517,7.688,7.688,0,0,0-1.365-.406,2.1,2.1,0,0,0-.764-.013.9.9,0,0,0-.688.5l.29-.1a5.8,5.8,0,0,0-2.61-.644c-.442-.021-.868-.047-1.323-.033a2.2,2.2,0,0,0-1.34.428l.309.249c.386-.763,1.323-1.166,1.877-2.018a1.517,1.517,0,0,0,.182-1.514,1.317,1.317,0,0,0-.567-.574.905.905,0,0,0-.853,0l.169.366a.915.915,0,0,0,.542-.584,1.341,1.341,0,0,0,.013-.747,1.289,1.289,0,0,0-.38-.641,1.916,1.916,0,0,0-.6-.369,4.967,4.967,0,0,0-1.3-.262,2.25,2.25,0,0,0-.7.031.834.834,0,0,0-.623.5l.387.048a1.444,1.444,0,0,0-2.618-.442l.332-.043a1.733,1.733,0,0,0-2.525-.019l.268-.028a2.185,2.185,0,0,0-2.717.232l.3.261q.662-.919,1.316-1.831a2.586,2.586,0,0,0,.549-1.057,1.348,1.348,0,0,0,0-.65.629.629,0,0,0-.213-.333.62.62,0,0,0-.386-.122l-.014.394a1.341,1.341,0,0,0,1.273-.782,1.662,1.662,0,0,0,.058-1.475,2.575,2.575,0,0,0-2.445-1.257l-.087,0-.056.068-.884,1.07.274-.025A1.991,1.991,0,0,0,174.337,4.1l.339-.16a.93.93,0,0,0-.916-.3,1.276,1.276,0,0,0-.785.48,2.9,2.9,0,0,0-.418,1.616l.325-.125a1.726,1.726,0,0,0-2.808,1.2l.289-.164a5.2,5.2,0,0,0-2.65-.789l.146.3a2,2,0,0,0-.033-2.382,2,2,0,0,0-2.263-.6l.254.171a1.923,1.923,0,0,0-2.356-1.781l.23.143A2.154,2.154,0,0,0,162.97.486,1.838,1.838,0,0,0,161.643,0a1.41,1.41,0,0,0-1.137.844,2.409,2.409,0,0,0-.108,1.364,11.346,11.346,0,0,0,.88,2.421q.5,1.158.99,2.3l.256-.215-3.315-2.158L157.586,3.5a4.188,4.188,0,0,0-.875-.5.778.778,0,0,0-.578.091c-.155.085-.279.179-.4.231a2.549,2.549,0,0,1-.873.072,1.241,1.241,0,0,0-.939.456,2.054,2.054,0,0,0-.189,1.931,3.556,3.556,0,0,0,1.23,1.436,11.57,11.57,0,0,1,1.369,1.129l.1-.267-2.54.26.171.134a2.716,2.716,0,0,0-3.348-2.137l.191.1a1.749,1.749,0,0,0-1.293-1.13,6.294,6.294,0,0,0-1.636-.209,4.631,4.631,0,0,0-1.619.18,2,2,0,0,0-1.217,1.08,2.954,2.954,0,0,0,.527,2.987A8.53,8.53,0,0,0,148,11.167l-.058-.156a1.045,1.045,0,0,1-.884.646,2.586,2.586,0,0,1-1.2-.1,8.668,8.668,0,0,0-1.231-.306,1.9,1.9,0,0,0-1.261.243c-.733.447-1.161,1.174-1.83,1.489a10.582,10.582,0,0,1-1.106.286,1.472,1.472,0,0,0-.751.924l-.665,2.094A1.3,1.3,0,0,0,139.1,17.4a1.482,1.482,0,0,0,.916.6,2.408,2.408,0,0,0,1.052.015,4.762,4.762,0,0,0,.947-.356,5.048,5.048,0,0,1,1.756-.615l-.043-.193a11.942,11.942,0,0,0-2.082,1,3.862,3.862,0,0,0-1.459,1.557,2.845,2.845,0,0,0-.142,1.959,1.757,1.757,0,0,0,1.262,1.256l-.021-.009a3.052,3.052,0,0,0,1.723.484l-.073-.081a15.147,15.147,0,0,1-1.435,4.717l.045-.029a8.956,8.956,0,0,0-2.381.289,3.338,3.338,0,0,0-1.441.845,2.29,2.29,0,0,0-.511.838,1.431,1.431,0,0,0-.073.313,2.377,2.377,0,0,1,.621-1.115,3.319,3.319,0,0,1,1.426-.806,8.96,8.96,0,0,1,2.361-.261h.03l.014-.028a15,15,0,0,0,1.484-4.744l.012-.082H143a2.919,2.919,0,0,1-1.637-.473l-.012-.007-.009,0a1.6,1.6,0,0,1-1.143-1.156,2.677,2.677,0,0,1,.144-1.836,3.691,3.691,0,0,1,1.4-1.473,11.9,11.9,0,0,1,2.053-.971l.587-.231-.63.039a5.209,5.209,0,0,0-1.832.625,4.628,4.628,0,0,1-.9.337,2.188,2.188,0,0,1-.955-.019,1.263,1.263,0,0,1-.78-.5,1.068,1.068,0,0,1-.053-.929l.668-2.075a1.241,1.241,0,0,1,.621-.785,8.969,8.969,0,0,0,1.119-.287c.756-.368,1.19-1.1,1.853-1.492a2.756,2.756,0,0,1,2.293.1,2.849,2.849,0,0,0,1.317.111,1.311,1.311,0,0,0,1.1-.827l.031-.1-.091-.056a8.259,8.259,0,0,1-2.256-1.759,2.677,2.677,0,0,1-.483-2.7,1.705,1.705,0,0,1,1.05-.922,4.387,4.387,0,0,1,1.516-.16,6.056,6.056,0,0,1,1.557.2,1.45,1.45,0,0,1,1.086.924l.04.152.152-.047a2.414,2.414,0,0,1,2.948,1.889l.023.149.148-.014,2.541-.255.321-.031-.22-.236a11.7,11.7,0,0,0-1.4-1.167,3.268,3.268,0,0,1-1.123-1.3,1.739,1.739,0,0,1,.142-1.609.9.9,0,0,1,.695-.33,2.667,2.667,0,0,0,.992-.1c.333-.162.543-.377.76-.3a4.356,4.356,0,0,1,.773.458l1.619,1.058,3.31,2.165.483.316-.228-.531-.986-2.3a11.121,11.121,0,0,1-.851-2.34,2.06,2.06,0,0,1,.084-1.159,1.05,1.05,0,0,1,.842-.631,1.739,1.739,0,0,1,1.656,1.4l.037.2.193-.057a1.565,1.565,0,0,1,1.887,1.429v.275l.254-.1A1.636,1.636,0,0,1,167.534,4a1.633,1.633,0,0,1,.025,1.927l-.22.291.366.008a4.836,4.836,0,0,1,2.456.734l.3.191-.014-.354a1.352,1.352,0,0,1,2.161-.921l.3.306.022-.43a2.554,2.554,0,0,1,.343-1.407c.239-.343.861-.481,1.093-.169l.531.715-.192-.874a1.6,1.6,0,0,1,2.6-1.569l.15.126.125-.152.885-1.069-.143.071a2.195,2.195,0,0,1,2.078,1.037c.35.668-.184,1.766-.943,1.695l-.014.394c.124.007.172.039.214.169a.991.991,0,0,1-.009.457,2.186,2.186,0,0,1-.484.909q-.656.912-1.317,1.831l.3.261a1.792,1.792,0,0,1,2.207-.2l.149.112.12-.14a1.341,1.341,0,0,1,1.922.015l.205.245.127-.288a1.053,1.053,0,0,1,1.859.314l.089,1,.3-.956c.079-.255.525-.31.908-.269a4.66,4.66,0,0,1,1.191.235,1.113,1.113,0,0,1,.743.738c.094.345-.014.754-.3.851l.169.365c.276-.169.7.069.862.409a1.12,1.12,0,0,1-.162,1.11c-.447.733-1.394,1.125-1.9,2.052l-.477.881.787-.63c.591-.474,1.535-.32,2.38-.3a5.415,5.415,0,0,1,2.429.59l.207.12.082-.216c.109-.286.6-.333,1-.251a7.29,7.29,0,0,1,1.288.384,7.421,7.421,0,0,1,2.277,1.438,3.049,3.049,0,0,1,.794,1.028.883.883,0,0,1-.163,1.062,10.5,10.5,0,0,1-1.134.748l-1.2.74-1.577.976-.382.237.43.132a9.208,9.208,0,0,1,4.6,3.263l.026.035.036.02c.759.428,1.6.471,2.157.92a1.085,1.085,0,0,1,.351.868c-.012.33-.178.6-.439.58l-.645-.038.519.4a1.262,1.262,0,0,1,.456,1.039,1.107,1.107,0,0,1-.556.916l-.037.022-.022.036a2.129,2.129,0,0,1-1.193.831l-.063.019-.039.052a1.6,1.6,0,0,1-1.361.631l-.611-.057.457.41a6.156,6.156,0,0,1,1.8,2.355,2.6,2.6,0,0,1-.306,2.594l-.034.037-.012.051a1.309,1.309,0,0,1-.567.829l-.161.1.086.168a1.08,1.08,0,0,1,.1.707l-.037.168.162.061a3.242,3.242,0,0,1,1.746,1.631,3.044,3.044,0,0,1,.123,2.343,2.983,2.983,0,0,1-1.471,1.735,1.856,1.856,0,0,1-1.081.093.724.724,0,0,1-.628-.624l-.046-.775-.33.7a2.432,2.432,0,0,1-1.834,1.336l-.291.035.145.257a2.349,2.349,0,0,1-1.218,3.208l-.342.107.281.229a2.347,2.347,0,0,1,.677,2.316,2.313,2.313,0,0,1-1.462,1.768l-.19.058.067.188a1.878,1.878,0,1,1-3.547,1.232l-.142-.424-.205.4a4.12,4.12,0,0,1-1.519,1.885,1.328,1.328,0,0,1-1.827-.482l-.18-.534-.173.541A2.527,2.527,0,0,1,182.9,56.5a2.5,2.5,0,0,1-2.173-.3l-.3-.223.011.376a1.657,1.657,0,0,1-3.293.291l-.022-.152h-.154l-4.76-.043a11.827,11.827,0,0,1-4.508-.635,8.4,8.4,0,0,1-1.945-1.083,8.029,8.029,0,0,0-.932-.68,1.678,1.678,0,0,0-1.2-.139,11.14,11.14,0,0,1-2.141.475,7.577,7.577,0,0,1-2.128-.122,7.408,7.408,0,0,1-3.674-1.879,4.073,4.073,0,0,0-.842-.686,2.42,2.42,0,0,0-1.072-.248,16.617,16.617,0,0,1-2.034-.122,13.471,13.471,0,0,1-1.954-.4,4.623,4.623,0,0,1-1.716-.824,1.675,1.675,0,0,1-.669-1.574,1.2,1.2,0,0,1,1.071-1.132l.131,0,.015-.131a2.494,2.494,0,0,0-.282-1.546,1.561,1.561,0,0,0-1.323-.8,1.107,1.107,0,0,0-1.18.895,1.022,1.022,0,0,0,.768,1.2l-.059-.248a1.547,1.547,0,0,1-1.73-.1,1.753,1.753,0,0,1-.824-1.525,2.473,2.473,0,0,1,2.436-2.131h.163l-.044-.157a5.792,5.792,0,0,1-.078-2.809l.115-.511-.325.412a2,2,0,0,1-2.71.312l-.1-.081-.07.106a3.834,3.834,0,0,1-1.742,1.5,2.294,2.294,0,0,1-2.1-.183,1.53,1.53,0,0,1-.726-1.74,1.394,1.394,0,0,1,1.382-1.068l.184.022-.1-.163a1.791,1.791,0,0,1,1.58-2.581l.1.011-.016-.1a2.857,2.857,0,0,1,1.724-3.02l-.06-.122a1.478,1.478,0,0,1-2.093-.8l-.033-.129-.07.114a1.425,1.425,0,0,1-1.16.621,3.124,3.124,0,0,1-1.2-.189,3.693,3.693,0,0,1-1.561-1.037,1.677,1.677,0,0,1-.379-1.057c0-.257.037-.386.025-.387" transform="translate(-14.167 0)" fill="#455a64"/>
            <path id="Trazado_195150" data-name="Trazado 195150" d="M181.966,35.956a15.125,15.125,0,0,0-14.838-15.939,15.573,15.573,0,0,0-15.779,14.231c-.621,7.043-1.088,14.143-.889,16.7.6,7.7,5.385,10.409,7.306,11.19a10.3,10.3,0,0,0,2.1.371.052.052,0,0,1,.048.057l-1.172,8.964c-.416,5.85-1.7,25.743,4.251,26.206,5.97.465,15.221-19.222,15.749-25.083Z" transform="translate(-15.544 -2.068)" fill="#fff" stroke="#104469" stroke-width="1"/>
            <path id="Trazado_195151" data-name="Trazado 195151" d="M154.052,42a1.23,1.23,0,0,0,1.1,1.329,1.2,1.2,0,0,0,1.377-1,1.232,1.232,0,0,0-1.1-1.33A1.2,1.2,0,0,0,154.052,42" transform="translate(-15.919 -4.235)" fill="#104469"/>
            <path id="Trazado_195152" data-name="Trazado 195152" d="M153.626,37.963c.142.172,1.143-.441,2.484-.334,1.341.089,2.269.844,2.429.693.077-.065-.056-.366-.46-.706a3.457,3.457,0,0,0-1.927-.753,3.35,3.35,0,0,0-1.994.465c-.438.279-.6.557-.532.634" transform="translate(-15.875 -3.809)" fill="#104469"/>
            <path id="Trazado_195153" data-name="Trazado 195153" d="M168.032,43.11a1.23,1.23,0,0,0,1.1,1.329,1.2,1.2,0,0,0,1.377-1,1.232,1.232,0,0,0-1.1-1.33,1.2,1.2,0,0,0-1.378,1.005" transform="translate(-17.364 -4.35)" fill="#104469"/>
            <path id="Trazado_195154" data-name="Trazado 195154" d="M168.309,39.382c.142.171,1.144-.441,2.485-.334,1.34.089,2.269.844,2.428.693.077-.065-.055-.366-.46-.706a3.457,3.457,0,0,0-1.927-.753,3.354,3.354,0,0,0-1.994.465c-.437.279-.6.557-.532.634" transform="translate(-17.392 -3.955)" fill="#104469"/>
            <path id="Trazado_195155" data-name="Trazado 195155" d="M161.591,48.726a9.033,9.033,0,0,0-2.147-.556c-.34-.061-.658-.153-.7-.387a1.7,1.7,0,0,1,.311-.979l1.226-2.484a43.694,43.694,0,0,0,2.832-6.525,44.248,44.248,0,0,0-3.359,6.287q-.62,1.309-1.184,2.5a1.929,1.929,0,0,0-.288,1.306.852.852,0,0,0,.523.536,2.391,2.391,0,0,0,.575.125,8.925,8.925,0,0,0,2.208.175" transform="translate(-16.354 -3.906)" fill="#104469"/>
            <path id="Trazado_195156" data-name="Trazado 195156" d="M160.979,67.122s5.144.82,11.941-2.5c-.411.2-2.374,7.775-12.256,4.915Z" transform="translate(-16.603 -6.678)" fill="#e5e5e5"/>
            <path id="Trazado_195157" data-name="Trazado 195157" d="M162.3,53.49a2.456,2.456,0,0,1,2.24-.713,2.208,2.208,0,0,1,1.457.921,1.358,1.358,0,0,1-.023,1.579,1.654,1.654,0,0,1-1.8.3,5.077,5.077,0,0,1-1.631-1.139,1.46,1.46,0,0,1-.351-.42.436.436,0,0,1,.042-.49" transform="translate(-16.756 -5.45)" fill="#104469"/>
            <path id="Trazado_195158" data-name="Trazado 195158" d="M165.768,51.345c-.217-.03-.339,1.4-1.67,2.319s-2.868.64-2.9.839c-.028.088.323.3.976.373a3.691,3.691,0,0,0,2.41-.62,3.114,3.114,0,0,0,1.306-1.951c.1-.594-.028-.96-.128-.96" transform="translate(-16.659 -5.306)" fill="#104469"/>
            <path id="Trazado_195159" data-name="Trazado 195159" d="M168.359,34.661c.1.369,1.456.3,3.015.612,1.565.278,2.8.829,3.032.524.106-.146-.088-.5-.572-.888a5.152,5.152,0,0,0-2.2-.955,5.208,5.208,0,0,0-2.406.09c-.6.184-.911.442-.868.617" transform="translate(-17.398 -3.499)" fill="#104469"/>
            <path id="Trazado_195160" data-name="Trazado 195160" d="M154.39,34.1c.212.317,1.161.079,2.273.151,1.116.034,2.035.361,2.278.065.108-.145-.015-.456-.4-.772a3.35,3.35,0,0,0-3.668-.173c-.417.277-.573.575-.481.729" transform="translate(-15.952 -3.4)" fill="#104469"/>
            <path id="Trazado_195161" data-name="Trazado 195161" d="M149.093,24.491a9.587,9.587,0,0,1,.19-1.28,3.875,3.875,0,0,1,1.137-1.6c1.629-1.6,3.348-3.252,5.4-3.782,1.254-.323,2.554-.2,3.809-.514a21.939,21.939,0,0,0,2.278-.827,18.643,18.643,0,0,1,9.67-.522,15.358,15.358,0,0,1,5.2,1.686,18.6,18.6,0,0,1,4.657,4.238,28.387,28.387,0,0,1,5.19,8.355,13.894,13.894,0,0,1,.747,7.89c-.618,2.629-2.477,4.987-4.752,5.351q-.4-.541-.793-1.08l-1.266-1.6c.21.638,0,.592-.534.9a1.09,1.09,0,0,1-1.505-.56c-.457.518-1.353-.125-1.162-.835-.534.242-1.142-.5-.924-1.124-.611.178-.881-.807-1.137-1.472a10.166,10.166,0,0,0-.524-1.023,6.641,6.641,0,0,1-.673-3.633,6.486,6.486,0,0,1-.826-3.571l-.091-2.368c-.131-.193-.261-.386-.392-.58a1.278,1.278,0,0,1-.945,1.146,2.73,2.73,0,0,1-1.419-.14l-1.378-.388-.894.182a3.556,3.556,0,0,1-.447,2.26,2.209,2.209,0,0,1-.915,1.207.664.664,0,0,1-.864-.785.736.736,0,0,1-1.121-.273,2.419,2.419,0,0,1-.2-1.47,6.187,6.187,0,0,1,1.4-3.305l-2.619,2.081a1.144,1.144,0,0,1-.626.317.646.646,0,0,1-.743.654,1.674,1.674,0,0,1-.851-.684c-.542-.672-1.082-1.781-.5-2.439a.529.529,0,0,1-.171-.791l-2.934,1.875c.289-.137.559.317.468.668a1.468,1.468,0,0,1-.642.772,2.165,2.165,0,0,1,.211,1.335c.533-.405,1.212.482.993,1.184a1.567,1.567,0,0,1-1.553,1.02,1.09,1.09,0,0,1-1.165-.906c-.617.079-1.133-.8-.861-1.47-.462.257-.783-.562-.759-1.16a8.611,8.611,0,0,1,.693-3.038.16.16,0,0,1-.229.046.181.181,0,0,1-.049-.121l-1.748,3.428a8.887,8.887,0,0,0-1.112,3.09c-.046.452-.149,1.07-.532,1.08a.572.572,0,0,1-.293-.1,5.7,5.7,0,0,1-2.252-3.1,4.282,4.282,0,0,1-.272-1.366,18.4,18.4,0,0,1,.626-2.852" transform="translate(-15.343 -1.61)" fill="#104469"/>
            <path id="Trazado_195162" data-name="Trazado 195162" d="M183.855,42.8c.134-.048,5.383-1.231,4.884,4.017s-5.664,3.665-5.659,3.513.775-7.53.775-7.53" transform="translate(-18.92 -4.408)" fill="#fff"/>
            <path id="Trazado_195163" data-name="Trazado 195163" d="M185.077,48.7c.025-.014.085.073.233.159a.924.924,0,0,0,.682.079,2.276,2.276,0,0,0,1.239-1.931,3.025,3.025,0,0,0-.132-1.333,1.06,1.06,0,0,0-.62-.767.467.467,0,0,0-.563.2c-.084.14-.061.248-.09.255s-.1-.1-.042-.312a.588.588,0,0,1,.238-.308.693.693,0,0,1,.518-.086,1.289,1.289,0,0,1,.877.9,3.115,3.115,0,0,1,.178,1.493,2.385,2.385,0,0,1-1.549,2.139.983.983,0,0,1-.822-.219c-.151-.144-.167-.265-.148-.273" transform="translate(-19.126 -4.613)" fill="#104469"/>
            <path id="Trazado_195164" data-name="Trazado 195164" d="M162.678,23.69a1.312,1.312,0,0,1-.295-.707.931.931,0,0,1,.3-.77,1,1,0,0,1,1.027-.172l.213.092-.075-.22a1.038,1.038,0,0,1,.376-1.14,1.02,1.02,0,0,1,1.3.158l.187-.147a.459.459,0,0,1-.061-.138.586.586,0,0,1,.127-.487.668.668,0,0,1,.449-.234,1.133,1.133,0,0,1,.524.068,1.406,1.406,0,0,0,.577.181c.256-.023.383-.2.519-.273a1.961,1.961,0,0,1,.428-.217,2.269,2.269,0,0,1,.86-.121,2.315,2.315,0,0,1,1.2.4c.25.175.36.311.377.3a1.026,1.026,0,0,0-.32-.369,2.248,2.248,0,0,0-1.243-.494,2.382,2.382,0,0,0-.935.1,2.131,2.131,0,0,0-.48.229c-.161.1-.286.23-.416.229a1.382,1.382,0,0,1-.483-.174,1.341,1.341,0,0,0-.634-.088.91.91,0,0,0-.606.317.822.822,0,0,0-.174.691.677.677,0,0,0,.1.22l.187-.147a1.21,1.21,0,0,0-2.048,1.207l.135-.126a1.161,1.161,0,0,0-1.219.237,1.087,1.087,0,0,0-.066,1.465c.1.106.164.14.169.134" transform="translate(-16.768 -2.003)" fill="#455a64"/>
            <path id="Trazado_195165" data-name="Trazado 195165" d="M155.978,24.445a1.624,1.624,0,0,1-.391-.7,1.177,1.177,0,0,1,.13-.884,1.233,1.233,0,0,1,.981-.593l.17-.008-.1-.138a1.472,1.472,0,0,1-.291-1.317.789.789,0,0,1,.517-.49.627.627,0,0,1,.689.152l.608.769-.415-.89a1.223,1.223,0,0,1,.021-1.03,1.127,1.127,0,0,1,.872-.626,1.192,1.192,0,0,1,.778.146l.264.157-.089-.294c-.126-.418.325-.852.739-.871a2.011,2.011,0,0,1,1.218.418l.216.142-.05-.251a.871.871,0,0,1,.355-.815,1.621,1.621,0,0,1,.837-.29,4.088,4.088,0,0,1,1.505.166,6.615,6.615,0,0,1,1.228.562,1.15,1.15,0,0,0-.278-.23,3.914,3.914,0,0,0-.91-.455,4.07,4.07,0,0,0-1.56-.221,1.785,1.785,0,0,0-.941.309,1.069,1.069,0,0,0-.447,1.014l.166-.11a2.2,2.2,0,0,0-1.357-.468,1.109,1.109,0,0,0-.724.353.848.848,0,0,0-.223.817l.175-.137a1.423,1.423,0,0,0-.936-.178,1.363,1.363,0,0,0-1.05.759,1.449,1.449,0,0,0-.016,1.232l.193-.121a.849.849,0,0,0-.936-.218,1,1,0,0,0-.646.629,1.648,1.648,0,0,0,.346,1.5l.067-.146a1.376,1.376,0,0,0-1.1.7,1.3,1.3,0,0,0,.212,1.523c.1.1.171.134.175.129" transform="translate(-16.063 -1.741)" fill="#455a64"/>
            <path id="Trazado_195166" data-name="Trazado 195166" d="M141.83,24.511a.891.891,0,0,1,.36-.62,1.135,1.135,0,0,1,.806-.214,3.362,3.362,0,0,1,1.1.362l.126.059-.006-.141a1.022,1.022,0,0,1,.912-.92,2.967,2.967,0,0,1,1.648.412l.711.336-.589-.521a.84.84,0,0,1,.167-1.2,1.9,1.9,0,0,1,1.5-.221l.071.013.46.082-.364-.294a.9.9,0,0,1,.221-1.409,1.362,1.362,0,0,1,1.5.275l.451.424-.278-.553a2.039,2.039,0,0,1,.184-2.066,1.9,1.9,0,0,1,1.469-.769,2.147,2.147,0,0,1,1.1.239c.235.125.343.225.354.213s-.02-.032-.071-.082a1.377,1.377,0,0,0-.248-.191,2.1,2.1,0,0,0-1.136-.31,2.033,2.033,0,0,0-1.613.793,2.222,2.222,0,0,0-.23,2.275l.173-.129a1.579,1.579,0,0,0-1.757-.324,1.144,1.144,0,0,0-.584.817,1.009,1.009,0,0,0,.323.987l.1-.212-.074-.013a2.108,2.108,0,0,0-1.686.273,1.217,1.217,0,0,0-.423.747.876.876,0,0,0,.253.8l.122-.185a3.116,3.116,0,0,0-1.776-.407,1.2,1.2,0,0,0-1.048,1.126l.121-.082a3.414,3.414,0,0,0-1.161-.342,1.223,1.223,0,0,0-.874.276.856.856,0,0,0-.306.491.361.361,0,0,0,0,.2" transform="translate(-14.656 -1.8)" fill="#455a64"/>
            <path id="Trazado_195167" data-name="Trazado 195167" d="M150.376,12.537a.7.7,0,0,0,.3.138,4.057,4.057,0,0,0,.915.127,2.738,2.738,0,0,1,1.3.312.84.84,0,0,1,.412.614.611.611,0,0,1-.3.672l.152.128c.074-.3.467-.459.823-.63a3.938,3.938,0,0,1,1.149-.382,1.435,1.435,0,0,1,1.111.27.953.953,0,0,1,.412.915l-.062.287.238-.175a2.643,2.643,0,0,1,1.6-.5,2.974,2.974,0,0,1,1.306.3,3.8,3.8,0,0,1,.959.735.945.945,0,0,0-.179-.275,2.523,2.523,0,0,0-.716-.581,2.984,2.984,0,0,0-1.366-.371,2.789,2.789,0,0,0-1.736.513l.176.112a1.171,1.171,0,0,0-.486-1.146,1.663,1.663,0,0,0-1.285-.322,4.1,4.1,0,0,0-1.219.406,4.99,4.99,0,0,0-.542.287.865.865,0,0,0-.4.5l-.052.221.2-.091a.822.822,0,0,0,.419-.908,1.038,1.038,0,0,0-.518-.743,2.768,2.768,0,0,0-1.4-.29,5.153,5.153,0,0,1-.9-.061,2.847,2.847,0,0,0-.319-.067" transform="translate(-15.54 -1.295)" fill="#455a64"/>
            <path id="Trazado_195168" data-name="Trazado 195168" d="M163.9,8.589a2.523,2.523,0,0,1,.613.14,1.5,1.5,0,0,1,.56.426,1.3,1.3,0,0,1,.31.829v.129l.125-.031a.784.784,0,0,1,.823.56,2.374,2.374,0,0,1-.066,1.31l-.112.458.321-.356.05-.056a1.011,1.011,0,0,1,.843-.267,1.13,1.13,0,0,1,.745.4,1.8,1.8,0,0,1,.356,1.439,3.311,3.311,0,0,1-.353,1,1.868,1.868,0,0,0-.178.359c.013.009.113-.1.258-.311a2.939,2.939,0,0,0,.438-1.018,1.935,1.935,0,0,0-.353-1.61,1.326,1.326,0,0,0-1.928-.161c-.022.025-.045.049-.065.073l.209.1a2.53,2.53,0,0,0,.048-1.445.986.986,0,0,0-1.086-.676l.125.1a1.448,1.448,0,0,0-.386-.936,1.541,1.541,0,0,0-.642-.427,1.258,1.258,0,0,0-.487-.071c-.113.013-.169.03-.169.039" transform="translate(-16.938 -0.883)" fill="#455a64"/>
            <path id="Trazado_195169" data-name="Trazado 195169" d="M174.746,16.892a.624.624,0,0,0,.317-.044,1.971,1.971,0,0,0,.758-.443,2.113,2.113,0,0,0,.643-1.141,1.083,1.083,0,0,1,.212-.632c.149-.155.447-.235.648-.494a1.192,1.192,0,0,0-.168-1.625l0,.174a3.827,3.827,0,0,0,1.132-1.319,1.519,1.519,0,0,0,.221-.633c-.026-.01-.117.218-.335.568a4.19,4.19,0,0,1-1.144,1.207l-.12.084.116.091a.983.983,0,0,1,.117,1.306c-.138.193-.4.264-.627.476a1.247,1.247,0,0,0-.264.759,2.027,2.027,0,0,1-.543,1.059,3.018,3.018,0,0,1-.958.608" transform="translate(-18.059 -1.109)" fill="#455a64"/>
            <path id="Trazado_195170" data-name="Trazado 195170" d="M177.945,19.861c0,.01.066.028.2.045a2.719,2.719,0,0,0,.567,0,3.175,3.175,0,0,0,1.835-.844l-.153-.016a2.048,2.048,0,0,0,1.33.856,2.137,2.137,0,0,0,.893-.029,1.3,1.3,0,0,0,.805-.526,2.782,2.782,0,0,0,.123-.333.472.472,0,0,1,.167-.208,1.5,1.5,0,0,1,.568-.2,1.9,1.9,0,0,0,.631-.2.677.677,0,0,0,.386-.555l-.159.091a2.1,2.1,0,0,0,1.444.158,2.276,2.276,0,0,0,1-.514,1.867,1.867,0,0,0,.444-.576.623.623,0,0,0,.08-.246,2.969,2.969,0,0,1-.607.722,2.237,2.237,0,0,1-.956.438,1.942,1.942,0,0,1-1.3-.172l-.153-.081-.006.172a.462.462,0,0,1-.28.365,1.715,1.715,0,0,1-.565.165,1.666,1.666,0,0,0-.662.231.714.714,0,0,0-.25.309c-.049.123-.067.232-.111.308a1.1,1.1,0,0,1-.657.413,1.909,1.909,0,0,1-.792.031,1.857,1.857,0,0,1-1.2-.742l-.068-.1-.085.083a3.217,3.217,0,0,1-1.711.872c-.468.079-.744.043-.746.07" transform="translate(-18.389 -1.733)" fill="#455a64"/>
            <path id="Trazado_195171" data-name="Trazado 195171" d="M196.529,29.273c.005,0,.017-.025.035-.079a1.372,1.372,0,0,0,.06-.243,2.525,2.525,0,0,0-.032-.952,5.628,5.628,0,0,0-.524-1.385,5.154,5.154,0,0,0-.462-.8,1.4,1.4,0,0,0-.386-.353.629.629,0,0,0-.581-.049l.141.11a1.583,1.583,0,0,0-2.452-1.593l.183.11a1.09,1.09,0,0,0-.364-.926,1.049,1.049,0,0,0-1-.211,1.077,1.077,0,0,0-.5.313l.207.1a.682.682,0,0,0-.2-.579.93.93,0,0,0-.516-.269,2.148,2.148,0,0,0-1.036.172l.14.057a1.692,1.692,0,0,0-.965-.8,2.369,2.369,0,0,0-1.162-.1,5.988,5.988,0,0,0-1.863.736l.116.117a.419.419,0,0,0-.012-.416.727.727,0,0,0-.274-.248,1.222,1.222,0,0,0-.624-.15,3.409,3.409,0,0,0-.968.2,3.162,3.162,0,0,0-.561.269.646.646,0,0,0-.174.13c.012.021.261-.149.766-.308a3.569,3.569,0,0,1,.942-.159,1.1,1.1,0,0,1,.542.148c.173.1.313.28.212.448l-.152.25.267-.133A6.015,6.015,0,0,1,187.147,22a2.186,2.186,0,0,1,1.057.1,1.479,1.479,0,0,1,.833.7l.046.091.1-.033a1.971,1.971,0,0,1,.923-.158c.282.04.568.308.522.577l-.073.414.28-.317a.852.852,0,0,1,.385-.241.812.812,0,0,1,.776.16.864.864,0,0,1,.289.722l-.031.256.213-.146a1.4,1.4,0,0,1,1.574.018,1.416,1.416,0,0,1,.547,1.345l-.034.195.175-.084c.266-.128.557.1.739.334a5.241,5.241,0,0,1,.461.757,5.844,5.844,0,0,1,.555,1.335,3.184,3.184,0,0,1,.051,1.248" transform="translate(-18.886 -2.249)" fill="#455a64"/>
            <path id="Trazado_195172" data-name="Trazado 195172" d="M194.7,36.63c.006,0,.052-.043.132-.141a3.621,3.621,0,0,0,.319-.452,1.692,1.692,0,0,0,.264-.853,1.231,1.231,0,0,0-.133-.558.89.89,0,0,0-.486-.444l.039.132a1.111,1.111,0,0,0-1.037-1.8l.1.178a.9.9,0,0,0,.056-1.059,1.326,1.326,0,0,0-.971-.558,5.051,5.051,0,0,1-.53-.048.456.456,0,0,1-.3-.312,1.939,1.939,0,0,0-.263-.538,1.02,1.02,0,0,0-.532-.356,5.871,5.871,0,0,0-1.262-.139,1.378,1.378,0,0,1-1-.385c-.108-.132-.177-.31-.286-.482a1.183,1.183,0,0,0-.447-.411,1.255,1.255,0,0,0-1.115-.036l.126.16a.945.945,0,0,0-.035-1.1,1.335,1.335,0,0,0-.85-.516,4.219,4.219,0,0,0-1.567.06,5.15,5.15,0,0,0-.961.291,1.228,1.228,0,0,0-.317.161,12.311,12.311,0,0,1,1.3-.333,4.294,4.294,0,0,1,1.508-.013,1.167,1.167,0,0,1,.73.456.752.752,0,0,1,.03.866l-.283.351.411-.192a1.045,1.045,0,0,1,.92.042.972.972,0,0,1,.361.337,4.785,4.785,0,0,0,.3.5,1.245,1.245,0,0,0,.537.361,2.767,2.767,0,0,0,.621.115,5.905,5.905,0,0,1,1.207.13.794.794,0,0,1,.418.275,1.809,1.809,0,0,1,.232.485.693.693,0,0,0,.461.446,4.387,4.387,0,0,0,.562.05,1.1,1.1,0,0,1,.81.447.682.682,0,0,1-.022.8l-.208.227.3-.049a.939.939,0,0,1,.975.5.961.961,0,0,1-.1.984l-.074.093.112.039a.9.9,0,0,1,.54.846,1.657,1.657,0,0,1-.212.8c-.224.415-.389.625-.37.638" transform="translate(-18.977 -2.776)" fill="#455a64"/>
            <path id="Trazado_195173" data-name="Trazado 195173" d="M196.461,50.825a.546.546,0,0,0,.237-.055,1.647,1.647,0,0,0,.578-.38,1.7,1.7,0,0,0,.485-.97,1.811,1.811,0,0,0-.372-1.366v.127a3.288,3.288,0,0,0,.718-1.127,1.338,1.338,0,0,0,.01-.763.976.976,0,0,0-.511-.636l.005.211a1.381,1.381,0,0,0,.7-1.187,1.544,1.544,0,0,0-.178-.794,1.3,1.3,0,0,0-.572-.542c-.218-.119-.313-.235-.3-.464a1.888,1.888,0,0,0-.1-.708,2.4,2.4,0,0,0-.8-1.022c-.3-.258-.575-.5-.838-.716a3.977,3.977,0,0,0-1.39-.805,1.825,1.825,0,0,0-.433-.074c-.1,0-.153,0-.153.013s.211.022.558.15a4.246,4.246,0,0,1,1.31.846l.816.734a2.244,2.244,0,0,1,.725.946,1.679,1.679,0,0,1,.08.638.682.682,0,0,0,.1.4.918.918,0,0,0,.311.263,1.233,1.233,0,0,1,.062,2.115l-.212.108.218.1a.946.946,0,0,1,.386,1.123,3.179,3.179,0,0,1-.659,1.062l-.052.065.052.063A1.658,1.658,0,0,1,197.6,49.4a1.613,1.613,0,0,1-.409.911,2.362,2.362,0,0,1-.731.514" transform="translate(-20.001 -4.088)" fill="#455a64"/>
            <path id="Trazado_195174" data-name="Trazado 195174" d="M174.6,28.334a1.787,1.787,0,0,0,.726-.221,2.009,2.009,0,0,0,.685-.5,1.315,1.315,0,0,0,.32-1.011,1.038,1.038,0,0,0-.076-.256l-.064.16a1.136,1.136,0,0,0,.651-.733,1.036,1.036,0,0,0-.086-.783c-.227-.4-.53-.465-.53-.441-.022.031.229.148.385.51a.915.915,0,0,1,.028.651.955.955,0,0,1-.536.576l-.109.044.046.116a.771.771,0,0,1,.056.194,1.137,1.137,0,0,1-.255.836,2.073,2.073,0,0,1-.592.488,3.6,3.6,0,0,0-.648.37" transform="translate(-18.044 -2.537)" fill="#455a64"/>
            <path id="Trazado_195175" data-name="Trazado 195175" d="M168.667,25.018a1.4,1.4,0,0,1-.092-.881.985.985,0,0,1,.622-.695,1.066,1.066,0,0,1,1.118.273l.136.152.056-.2a1.952,1.952,0,0,1,.33-.676.9.9,0,0,1,.629-.372c.384-.02.778.369.648.673l.22.065a1.813,1.813,0,0,1,.751-1.126,1.777,1.777,0,0,1,1.05-.3,2.749,2.749,0,0,1,.979.265c.006-.009-.062-.082-.22-.177a1.816,1.816,0,0,0-.751-.233,1.865,1.865,0,0,0-1.167.282,1.988,1.988,0,0,0-.869,1.246l.221.065a.667.667,0,0,0-.177-.708.948.948,0,0,0-.693-.288,1.117,1.117,0,0,0-.806.466,2.129,2.129,0,0,0-.362.762l.192-.045a1.255,1.255,0,0,0-1.352-.3,1.125,1.125,0,0,0-.691.843,1.149,1.149,0,0,0,.077.708c.074.151.143.211.151.2" transform="translate(-17.405 -2.251)" fill="#455a64"/>
            <path id="Trazado_195176" data-name="Trazado 195176" d="M114.034,327.281l-3.018,14.871-9.944.935-4.187-4.932,3.832-17.756Z" transform="translate(-10.012 -33.111)" fill="#ffbe9d"/>
            <path id="Trazado_195177" data-name="Trazado 195177" d="M92.444,338.359l-.036,1.162s-19.032,7.347-19.336,11.08l37.364.926-.213-13.035a20.506,20.506,0,0,1-17.779-.134" transform="translate(-7.552 -34.967)" fill="#ef9f14"/>
            <g id="Grupo_146225" data-name="Grupo 146225" transform="translate(96.939 307.52)" opacity="0.6">
              <g id="Grupo_146224" data-name="Grupo 146224">
                <g id="Grupo_146223" data-name="Grupo 146223" clip-path="url(#clip-path-7)">
                  <path id="Trazado_195178" data-name="Trazado 195178" d="M109.966,343.038a1.609,1.609,0,0,1,1.013,1.85,1.461,1.461,0,0,1-1.741,1.069,1.7,1.7,0,0,1-1.064-1.965,1.5,1.5,0,0,1,1.93-.9" transform="translate(-108.111 -342.963)" fill="#fff"/>
                </g>
              </g>
            </g>
            <path id="Trazado_195179" data-name="Trazado 195179" d="M110.4,352.684l-.051-3.135-35.792.259a3.407,3.407,0,0,0-1.827,3.074Z" transform="translate(-7.515 -36.123)" fill="#263238"/>
            <path id="Trazado_195180" data-name="Trazado 195180" d="M94.487,339.755c0,.191.912.3,1.8.937.9.612,1.343,1.452,1.514,1.381.169-.033-.078-1.183-1.16-1.934s-2.185-.56-2.149-.384" transform="translate(-9.764 -35.094)" fill="#263238"/>
            <path id="Trazado_195181" data-name="Trazado 195181" d="M90.074,341.551c-.046.184.737.529,1.339,1.352.624.805.761,1.683.942,1.679.171.034.323-1.082-.444-2.091s-1.829-1.123-1.837-.941" transform="translate(-9.308 -35.289)" fill="#263238"/>
            <path id="Trazado_195182" data-name="Trazado 195182" d="M87.308,346.592c.165.045.44-.9,0-1.962s-1.288-1.5-1.369-1.338c-.107.154.434.729.787,1.6.371.865.405,1.672.586,1.7" transform="translate(-8.879 -35.474)" fill="#263238"/>
            <path id="Trazado_195183" data-name="Trazado 195183" d="M178.816,324.179c.142.486,0,19.028,0,19.028l-5.578,3.466-7.286-4.574-1.54-17.92Z" transform="translate(-16.991 -33.502)" fill="#ffbe9d"/>
            <path id="Trazado_195184" data-name="Trazado 195184" d="M165.347,342.357s9.923,7.377,14.727.991l1.255,3.094,5.643,22.045a3,3,0,0,1-1.587,3.539,2.634,2.634,0,0,1-2.887-.578c-4.082-4.067-19.026-19.105-18.881-21.145l.058-5.413a2.75,2.75,0,0,1,1.672-2.533" transform="translate(-16.909 -35.38)" fill="#ef9f14"/>
            <path id="Trazado_195185" data-name="Trazado 195185" d="M184.9,372.874l-21.288-23.755.005,1.183a3.15,3.15,0,0,0,1.009,2.609,230.718,230.718,0,0,0,17.884,20.018c.657.661,1.9.082,2.39-.055" transform="translate(-16.907 -36.079)" fill="#263238"/>
            <g id="Grupo_146228" data-name="Grupo 146228" transform="translate(147.42 309.25)" opacity="0.6">
              <g id="Grupo_146227" data-name="Grupo 146227">
                <g id="Grupo_146226" data-name="Grupo 146226" clip-path="url(#clip-path-8)">
                  <path id="Trazado_195186" data-name="Trazado 195186" d="M166.811,345.161a1.783,1.783,0,0,1,.461,2.257,1.544,1.544,0,0,1-2.132.5,1.882,1.882,0,0,1-.476-2.393,1.6,1.6,0,0,1,2.273-.261" transform="translate(-164.411 -344.893)" fill="#fff"/>
                </g>
              </g>
            </g>
            <path id="Trazado_195187" data-name="Trazado 195187" d="M180.5,361.674c.151.076.746-1.388,2.328-2.181a8.006,8.006,0,0,1,3.065-.628c.023-.068-.315-.284-.939-.373a4.09,4.09,0,0,0-2.387.452,4.345,4.345,0,0,0-1.784,1.72c-.308.575-.349.987-.282,1.01" transform="translate(-18.651 -37.044)" fill="#263238"/>
            <path id="Trazado_195188" data-name="Trazado 195188" d="M182.637,365.972c.127.12.979-.791,2.355-1.21a21.406,21.406,0,0,1,2.6-.362c.076-.143-1.209-.729-2.771-.224-1.566.488-2.324,1.722-2.185,1.8" transform="translate(-18.873 -37.614)" fill="#263238"/>
            <path id="Trazado_195189" data-name="Trazado 195189" d="M176.545,356.338c.126.132,1.428-1.276,3.514-2.124,2.074-.883,3.944-.8,3.949-.982.042-.149-1.939-.528-4.165.412a6.132,6.132,0,0,0-3.3,2.694" transform="translate(-18.244 -36.483)" fill="#263238"/>
            <path id="Trazado_195190" data-name="Trazado 195190" d="M176.019,349.1c.072.167,1.541-.483,3.456-.564,1.914-.108,3.435.395,3.492.221a6.514,6.514,0,0,0-6.947.342" transform="translate(-18.19 -35.954)" fill="#263238"/>
            <path id="Trazado_195191" data-name="Trazado 195191" d="M180.583,347.953a2.515,2.515,0,0,0-.15-1.045,7.476,7.476,0,0,0-1.273-2.563,3.134,3.134,0,0,0-1.582-1.27,1.075,1.075,0,0,0-1.17.49,1.946,1.946,0,0,0-.193,1.319,3.885,3.885,0,0,0,3.981,3.024,4.527,4.527,0,0,0,3.89-3.258,1.694,1.694,0,0,0-.166-1.344,1.046,1.046,0,0,0-1.211-.369,3.858,3.858,0,0,0-1.557,1.278,8.274,8.274,0,0,0-1.406,2.482,2.612,2.612,0,0,0-.233,1.027,13.174,13.174,0,0,1,1.947-3.219,3.586,3.586,0,0,1,1.384-1.079.559.559,0,0,1,.662.2,1.167,1.167,0,0,1,.059.89,4.034,4.034,0,0,1-3.4,2.783,3.368,3.368,0,0,1-3.414-2.515,1.416,1.416,0,0,1,.1-.927.585.585,0,0,1,.643-.281,2.822,2.822,0,0,1,1.358,1.049,11.036,11.036,0,0,1,1.74,3.329" transform="translate(-18.207 -35.434)" fill="#263238"/>
            <path id="Trazado_195192" data-name="Trazado 195192" d="M182.083,153.32a93.174,93.174,0,0,1,6.954,18.756c3.069,11.586,6.517,17.4,5.262,38.758-.64,10.9-9.653,40.474-11.728,50.884-1.709,8.567-7.052,48.824-9.761,59.464H157.292l-1.58-119.163s-24.664,69.54-27.825,77.579-14.1,39.886-14.1,39.886l-19.3-5.134,14.724-71.191c2.935-14.186,10.908-54.24,14.295-66.3s6.6-24.775,6.6-24.775Z" transform="translate(-9.765 -15.717)" fill="#104469"/>
            <path id="Trazado_195193" data-name="Trazado 195193" d="M190.071,176.989c-.028.012.03.22.16.591a9.2,9.2,0,0,0,.7,1.5,12.838,12.838,0,0,0,3.594,4.014,12.136,12.136,0,0,0,4.852,2.113,8.114,8.114,0,0,0,1.589.156c.378,0,.584-.02.585-.05,0-.082-.827-.107-2.113-.417a13.572,13.572,0,0,1-4.668-2.172,14.227,14.227,0,0,1-3.581-3.813c-.73-1.151-1.044-1.956-1.115-1.924" transform="translate(-19.642 -18.29)" fill="#455a64"/>
            <path id="Trazado_195194" data-name="Trazado 195194" d="M125.085,185.906c-.005.03.2.089.568.168a8.445,8.445,0,0,0,1.6.172,9.974,9.974,0,0,0,2.381-.238,10.993,10.993,0,0,0,2.756-1.051,13.542,13.542,0,0,0,4.052-3.554,7.784,7.784,0,0,0,1.2-1.914,22.142,22.142,0,0,0-1.431,1.707,15.265,15.265,0,0,1-4.022,3.363,11.111,11.111,0,0,1-4.94,1.369c-1.325.041-2.15-.1-2.162-.022" transform="translate(-12.927 -18.549)" fill="#455a64"/>
            <path id="Trazado_195195" data-name="Trazado 195195" d="M162.41,179.144a4.233,4.233,0,0,0-.168.961c-.082.622-.175,1.525-.266,2.643-.185,2.236-.334,5.337-.307,8.763s.232,6.525.455,8.758c.111,1.116.218,2.017.311,2.637a4.322,4.322,0,0,0,.184.959,4.282,4.282,0,0,0-.018-.977q-.071-1.081-.174-2.645c-.144-2.234-.3-5.321-.328-8.735s.074-6.5.18-8.737q.077-1.564.129-2.649a4.249,4.249,0,0,0,0-.977" transform="translate(-16.707 -18.513)" fill="#455a64"/>
            <path id="Trazado_195196" data-name="Trazado 195196" d="M179.644,76.533l14.052,6.7-1.958,25.625s-1.657,1.941-4.351,15.673,6.309,40.454,6.309,40.454l-66.134,1.655s7.762-55.425,8.66-62.761l3.3-28.023,13.295-.726h3.834l3.3,23.888L176.6,75.855Z" transform="translate(-13.183 -7.764)" fill="#d9fcff" stroke="#104469" stroke-width="1"/>
            <path id="Trazado_195197" data-name="Trazado 195197" d="M117.1,131.042a3.8,3.8,0,0,0,.2-1.51,10.733,10.733,0,0,0-.612-3.628,10.407,10.407,0,0,0-1.785-3.176c-.6-.71-1.059-1.048-1.091-1.009a18.228,18.228,0,0,1,2.474,4.34,18.821,18.821,0,0,1,.81,4.983" transform="translate(-11.762 -12.579)" fill="#263238"/>
            <path id="Trazado_195198" data-name="Trazado 195198" d="M86.633,119.957l23.554-.205L119.1,93.443a102.562,102.562,0,0,1,4.659-9.278c4.72-8.678,10.715-8.222,10.715-8.222L141.7,87.188l-7.677,17.224s-7.345,32.481-15.856,33.907c-14.134,2.37-39.429-7.4-39.429-7.4Z" transform="translate(-8.137 -7.848)" fill="#d9fcff" stroke="#104469" stroke-width="1"/>
            <g id="Grupo_146231" data-name="Grupo 146231" transform="translate(119.794 117.59)" opacity="0.2">
              <g id="Grupo_146230" data-name="Grupo 146230">
                <g id="Grupo_146229" data-name="Grupo 146229" clip-path="url(#clip-path-9)">
                  <path id="Trazado_195199" data-name="Trazado 195199" d="M133.649,133.725c-.022-.9-.245-2.049.528-2.433a2.61,2.61,0,0,1,2,.151c19.517,6.919,30.81-1.113,50.327,5.807l3.975,20.045c-8.659.071-12.62-1.954-21.135-4.679-8.685-2.779-17.375-5.56-25.894-8.856a23.609,23.609,0,0,1-6.7-3.507,8.509,8.509,0,0,1-3.105-6.528" transform="translate(-133.601 -131.143)"/>
                </g>
              </g>
            </g>
            <path id="Trazado_195200" data-name="Trazado 195200" d="M138.693,97.048a6.76,6.76,0,0,1-.455,1.329,22.361,22.361,0,0,0-.816,3.252c-.461,2.59-.553,4.739-.685,4.736a13.763,13.763,0,0,1,.226-4.82,14.2,14.2,0,0,1,.968-3.291,3.2,3.2,0,0,1,.761-1.207" transform="translate(-14.119 -10.029)" fill="#263238"/>
            <path id="Trazado_195201" data-name="Trazado 195201" d="M278.073,137.706l-5.4-.139.306-11.854,5.4.139a5.594,5.594,0,0,1,5.45,5.737l-.017.667a5.6,5.6,0,0,1-5.738,5.45" transform="translate(-28.179 -12.992)" fill="#79dae1"/>
            <path id="Trazado_195202" data-name="Trazado 195202" d="M9.432,119.469,57.656,114.6l181.2,4.662a3.2,3.2,0,0,1,3.111,3.276l-.438,17.007a3.194,3.194,0,0,1-3.276,3.111L56.365,137.978,9.2,128.3Z" transform="translate(-0.951 -11.843)" fill="#ef9f14"/>
            <path id="Trazado_195203" data-name="Trazado 195203" d="M8.4,122.79l-4.432-.114L.207,123.952c-.311.234-.232.532-.022.852l3.788,1.234,4.344.112Z" transform="translate(0 -12.678)" fill="#1a878e"/>
            <rect id="Rectángulo_44762" data-name="Rectángulo 44762" width="23.402" height="3.761" transform="matrix(0.026, -1, 1, 0.026, 56.102, 126.152)" fill="#1a878e"/>
            <path id="Trazado_195204" data-name="Trazado 195204" d="M258.1,120.2h0a4.166,4.166,0,0,1-4.272,4.057l-90.443-2.327a4.166,4.166,0,0,1,.214-8.33l90.443,2.328A4.166,4.166,0,0,1,258.1,120.2" transform="translate(-16.465 -11.739)" fill="#ef9f14"/>
            <path id="Trazado_195205" data-name="Trazado 195205" d="M258.071,120.169a4.7,4.7,0,0,0-.511-2.007,4.127,4.127,0,0,0-1.769-1.733,4.047,4.047,0,0,0-1.527-.432c-.569-.037-1.2-.03-1.848-.05l-22.189-.5-32.906-.8-19.431-.487-10.277-.261-2.619-.066a9.527,9.527,0,0,0-2.558.1,3.932,3.932,0,0,0-.2,7.53,9.514,9.514,0,0,0,2.55.233l2.62.068,10.28.268,19.434.514,32.906.9,22.182.645c.653.014,1.278.053,1.849.046a4.065,4.065,0,0,0,1.547-.354,4.137,4.137,0,0,0,1.855-1.64,4.708,4.708,0,0,0,.613-1.977,3.161,3.161,0,0,1-.028.535,3.986,3.986,0,0,1-.5,1.49,4.223,4.223,0,0,1-3.478,2.106c-.591.014-1.2-.017-1.859-.024l-22.187-.5-32.908-.8-19.435-.486-10.281-.261-2.62-.067-1.316-.033a4.8,4.8,0,0,1-1.367-.222,4.4,4.4,0,0,1,.225-8.423,4.752,4.752,0,0,1,1.375-.15l1.316.034,2.619.067,10.277.268,19.431.514,32.9.9,22.184.646c.656.026,1.269.026,1.858.071a4.215,4.215,0,0,1,3.365,2.282,4.01,4.01,0,0,1,.428,1.514,3.23,3.23,0,0,1,0,.536" transform="translate(-16.438 -11.713)" fill="#263238"/>
            <path id="Trazado_195206" data-name="Trazado 195206" d="M268.768,122.167l4.646,2.361-.346,13.441-4.775,2.679Z" transform="translate(-27.726 -12.625)" fill="#263238"/>
            <path id="Trazado_195207" data-name="Trazado 195207" d="M205.915,127.652,195.65,111.835l-.92-1.419,0,0-1.384-2.139,6.028-24.554s5.152,2.364,7.981,6.311a93.774,93.774,0,0,1,6.29,11.206s10.042,22.973,11.692,26.4,4.317,9.777,0,13.332-33.211,3.674-33.211,3.674l-1.947-14.515Z" transform="translate(-19.654 -8.652)" fill="#d9fcff" stroke="#104469" stroke-width="1"/>
            <path id="Trazado_195208" data-name="Trazado 195208" d="M193.542,106.134c.076-.015-.148-1.077-.243-2.81a22.331,22.331,0,0,1,3.3-12.916c.913-1.476,1.618-2.3,1.558-2.35-.022-.02-.214.171-.543.536a14.419,14.419,0,0,0-1.271,1.65,20.279,20.279,0,0,0-3.343,13.1,14.4,14.4,0,0,0,.325,2.057,2.63,2.63,0,0,0,.221.732" transform="translate(-19.936 -9.1)" fill="#263238"/>
            <path id="Trazado_195209" data-name="Trazado 195209" d="M183.375,137.468a9.942,9.942,0,0,0-2.6-3.435c-1.893-1.644-6.045-2.916-6.584-4.49s-2.113-.352-1.744,1.609c.234,1.249,2.807,4.523,2.807,4.523s-3.02.757-5.029-.4-9.05-3.24-9.8-2.256c-.851,1.114.992,1.484,1.783,1.933.6.341,5.28,2.661,5.28,2.661s-9.31-.317-10.482.126c-1.275.481.03,1.608.617,1.631a15.108,15.108,0,0,1,3.1,2.492,4.226,4.226,0,0,0,2.82,1.132l2.165.031-6.572.69s-1.136,1.039.445,1.581c.7.241,18.92,1.888,20.467,1.836,3.505-.117,8.388-.359,8.388-.359l-.855-9.866Z" transform="translate(-16.169 -13.313)" fill="#ffbe9d"/>
            <path id="Trazado_195210" data-name="Trazado 195210" d="M157.565,140.711a19.676,19.676,0,0,0,9.045,1.614c0-.127-2.053-.245-4.542-.695s-4.462-1.039-4.5-.919" transform="translate(-16.283 -14.54)" fill="#eb996e"/>
            <g id="Grupo_146234" data-name="Grupo 146234" transform="translate(72.563 114.662)" opacity="0.3">
              <g id="Grupo_146233" data-name="Grupo 146233">
                <g id="Grupo_146232" data-name="Grupo 146232" clip-path="url(#clip-path-10)">
                  <path id="Trazado_195211" data-name="Trazado 195211" d="M80.926,127.956c1.789-.392,3.518.752,4.993,1.837a22.453,22.453,0,0,1,2.642,2.156c2.269,2.269,3.464,5.381,5.373,7.96L83.2,138.275Z" transform="translate(-80.926 -127.877)"/>
                </g>
              </g>
            </g>
            <path id="Trazado_195212" data-name="Trazado 195212" d="M96.647,140.244l-4.688-.976s-4.215-6.727-6.431-7.54l-1.247-.556s-1.627-3.565-3.839-3.111c-1.314-.861-2.494-.516-2.619.8,0,0-.652-2.986-3.094-1.756s3.377,11.567,3.377,11.567,2.04,5.3,4.579,3.527a6.943,6.943,0,0,0,4.23-.355s1.571,2.211,5.285.525Z" transform="translate(-7.661 -13.104)" fill="#ffbe9d"/>
            <path id="Trazado_195213" data-name="Trazado 195213" d="M87.869,142.125c-.022,0-.076.175-.03.5a2.226,2.226,0,0,0,.65,1.205,3.063,3.063,0,0,0,1.841.864,6.308,6.308,0,0,0,2.446-.265,15.39,15.39,0,0,0,4.023-1.762,5.34,5.34,0,0,0,1.435-1.116,27.942,27.942,0,0,1-5.573,2.464,6.377,6.377,0,0,1-2.288.286,2.874,2.874,0,0,1-1.676-.692,2.74,2.74,0,0,1-.829-1.483" transform="translate(-9.076 -14.628)" fill="#eb996e"/>
            <path id="Trazado_195214" data-name="Trazado 195214" d="M82.36,138.389c.108-.075-1.3-2.1-2.5-4.873-1.225-2.764-1.767-5.171-1.9-5.141a5.112,5.112,0,0,0,.245,1.605,22.562,22.562,0,0,0,3.138,7.144,5.1,5.1,0,0,0,1.017,1.266" transform="translate(-8.055 -13.266)" fill="#eb996e"/>
            <path id="Trazado_195215" data-name="Trazado 195215" d="M85.38,138.145c.109-.065-1.077-2.175-2.232-4.916s-1.857-5.057-1.98-5.024a19.038,19.038,0,0,0,1.584,5.192,19.026,19.026,0,0,0,2.627,4.749" transform="translate(-8.387 -13.249)" fill="#eb996e"/>
            <path id="Trazado_195216" data-name="Trazado 195216" d="M81.845,141.96c-.117.005-.014.86.75,1.5s1.618.594,1.6.479c.013-.124-.69-.26-1.327-.808-.65-.532-.907-1.2-1.027-1.167" transform="translate(-8.454 -14.67)" fill="#eb996e"/>
            <path id="Trazado_195217" data-name="Trazado 195217" d="M88.758,137.047a16.669,16.669,0,0,0-1.518-2.614,16.6,16.6,0,0,0-1.625-2.548,12.616,12.616,0,0,0,3.143,5.162" transform="translate(-8.846 -13.629)" fill="#eb996e"/>
          </g>
        </g>
      </g>
    </g>
  </g>
</svg>
