<svg xmlns="http://www.w3.org/2000/svg" width="341.774" height="309.645" viewBox="0 0 341.774 309.645">
  <g id="Grupo_146209" data-name="Grupo 146209" transform="translate(7451 2123.824)">
    <path id="Trazado_194985" data-name="Trazado 194985" d="M35.712,78c9.812-5.507,20.5-9.866,30.145-14.942,16.556-8.712,32.873-17.943,48.6-28.073C135.5,21.438,156.666,10.87,181.576,6.6a165.523,165.523,0,0,1,83.322,7q.363.129.726.262c21.024,7.66,40.329,20.654,53.93,38.576,15.822,20.848,23.057,46.387,22.143,72.382-.233,6.64-.814,13.266-1.575,19.865-8.014,69.449-98.386,76.127-135.782,73.9S92.089,192.948,72.122,195.436C50.494,198.13,26.654,190.5,12.385,173.6c-17.036-20.179-15.283-51.139-2.118-72.87C16.417,90.573,25.6,83.678,35.712,78" transform="translate(-7451 -2062.474)" fill="#c9dae6"/>
    <path id="Trazado_195057" data-name="Trazado 195057" d="M278.71,149.779s-9.5,7.423-11.432,12.323a95.085,95.085,0,0,1-5.642,11.135l8.166,9.947,2.524-1.484s6.978-9.651,8.76-19.45S279.9,148,278.71,149.779" transform="translate(-7558 -2123.821)" fill="#d9fcff"/>
    <path id="Trazado_195058" data-name="Trazado 195058" d="M278.71,149.779s-9.5,7.423-11.432,12.323a95.085,95.085,0,0,1-5.642,11.135l8.166,9.947,2.524-1.484s6.978-9.651,8.76-19.45S279.9,148,278.71,149.779Z" transform="translate(-7558 -2123.821)" fill="none" stroke="#1a004f" stroke-linejoin="round" stroke-width="1"/>
    <path id="Trazado_195059" data-name="Trazado 195059" d="M267.81,211.46s-5.529,37.271-4.505,54.473,5.119,43.209,5.119,43.209h69.012s6.758-38.7,6.758-61.64.2-27.646.2-27.646-19.045,3.686-29.489,2.867-47.1-11.263-47.1-11.263" transform="translate(-7558 -2123.821)" fill="#104469"/>
    <path id="Trazado_195060" data-name="Trazado 195060" d="M267.81,211.46s-5.529,37.271-4.505,54.473,5.119,43.209,5.119,43.209h69.012s6.758-38.7,6.758-61.64.2-27.646.2-27.646-19.045,3.686-29.489,2.867S267.81,211.46,267.81,211.46Z" transform="translate(-7558 -2123.821)" fill="none" stroke="#1a004f" stroke-linejoin="round" stroke-width="1"/>
    <path id="Trazado_195061" data-name="Trazado 195061" d="M272.52,247.707l4.3,4.71,5.324,56.52" transform="translate(-7558 -2123.821)" fill="none" stroke="#1a004f" stroke-linejoin="round" stroke-width="1"/>
    <path id="Trazado_195062" data-name="Trazado 195062" d="M307.2,228.259s-.273,6.342,2.8,10.233a16.251,16.251,0,0,0,7.782,5.119" transform="translate(-7558 -2123.821)" fill="none" stroke="#1a004f" stroke-linejoin="round" stroke-width="1"/>
    <line id="Línea_199" data-name="Línea 199" x2="0.23" y2="43.387" transform="translate(-7238.405 -1858.68)" fill="none" stroke="#1a004f" stroke-linejoin="round" stroke-width="1"/>
    <line id="Línea_200" data-name="Línea 200" x2="0.153" y2="28.805" transform="translate(-7238.584 -1892.497)" fill="none" stroke="#1a004f" stroke-linejoin="round" stroke-width="1"/>
    <line id="Línea_201" data-name="Línea 201" x1="0.526" y2="4.451" transform="translate(-7286.094 -1884.251)" fill="none" stroke="#1a004f" stroke-linejoin="round" stroke-width="1"/>
    <line id="Línea_202" data-name="Línea 202" x1="1.743" y2="14.744" transform="translate(-7285.175 -1902.327)" fill="none" stroke="#1a004f" stroke-linejoin="round" stroke-width="1"/>
    <path id="Trazado_195063" data-name="Trazado 195063" d="M299.357,111.377s-6.652,8.315-9.5,14.492-12.828,20.192-14.491,30.17-3.8,24.232-3.8,24.232-5.7,32.784-4.514,35.159,27.795,10.691,40.149,12.829,22.093,2.375,27.8,0,15.2-5.227,14.254-9.978-2.139-9.74-2.139-9.74-2.138-55.353-2.138-60.579-.237-27.32-4.276-36.347-5.939-11.166-5.939-11.166Z" transform="translate(-7558 -2123.821)" fill="#d9fcff"/>
    <path id="Trazado_195064" data-name="Trazado 195064" d="M299.357,111.377s-6.652,8.315-9.5,14.492-12.828,20.192-14.491,30.17-3.8,24.232-3.8,24.232-5.7,32.784-4.514,35.159,27.795,10.691,40.149,12.829,22.093,2.375,27.8,0,15.2-5.227,14.254-9.978-2.139-9.74-2.139-9.74-2.138-55.353-2.138-60.579-.237-27.32-4.276-36.347-5.939-11.166-5.939-11.166Z" transform="translate(-7558 -2123.821)" fill="none" stroke="#1a004f" stroke-linejoin="round" stroke-width="1"/>
    <path id="Trazado_195065" data-name="Trazado 195065" d="M306.484,97.836l-8.79,3.088L291.28,114.7l8.077-3.326,3.088,2.138,7.84-6.889Z" transform="translate(-7558 -2123.821)" fill="#fff"/>
    <path id="Trazado_195066" data-name="Trazado 195066" d="M306.484,97.836l-8.79,3.088L291.28,114.7l8.077-3.326,3.088,2.138,7.84-6.889Z" transform="translate(-7558 -2123.821)" fill="none" stroke="#1a004f" stroke-linejoin="round" stroke-width="1"/>
    <path id="Trazado_195067" data-name="Trazado 195067" d="M302.962,33.224s-5.653,6.73-7,10.768-2.153,7.537-6.73,9.421-8.075,1.346-8.075,3.769,4.037,5.653,4.037,5.653-.807,14.536.27,18.843,3.5,5.384,5.114,5.384,11.306-1.077,11.306-1.077l5.922,16.959,23.958-9.691-2.422-13.459s5.922-9.422,6.46-14-3.769-18.574-12.921-25.842-16.151-8.614-19.92-6.73" transform="translate(-7558 -2123.821)" fill="#fff"/>
    <path id="Trazado_195068" data-name="Trazado 195068" d="M302.962,33.224s-5.653,6.73-7,10.768-2.153,7.537-6.73,9.421-8.075,1.346-8.075,3.769,4.037,5.653,4.037,5.653-.807,14.536.27,18.843,3.5,5.384,5.114,5.384,11.306-1.077,11.306-1.077l5.922,16.959,23.958-9.691-2.422-13.459s5.922-9.422,6.46-14-3.769-18.574-12.921-25.842S306.731,31.34,302.962,33.224Z" transform="translate(-7558 -2123.821)" fill="none" stroke="#1a004f" stroke-linejoin="round" stroke-width="1"/>
    <path id="Trazado_195069" data-name="Trazado 195069" d="M290.156,68.085A9.332,9.332,0,0,0,299,66.426" transform="translate(-7558 -2123.821)" fill="none" stroke="#1a004f" stroke-linejoin="round" stroke-width="1"/>
    <path id="Trazado_195070" data-name="Trazado 195070" d="M301.885,85.985l9.009-1.311-7.466,5.254Z" transform="translate(-7558 -2123.821)" fill="#1a004f"/>
    <path id="Trazado_195071" data-name="Trazado 195071" d="M301.885,85.985l9.009-1.311-7.466,5.254Z" transform="translate(-7558 -2123.821)" fill="none" stroke="#104469" stroke-linejoin="round" stroke-width="1"/>
    <path id="Trazado_195072" data-name="Trazado 195072" d="M305.223,53.6c-1.348,4.816-5.689,7.811-9.7,6.689s-6.163-5.935-4.815-10.751,5.689-7.811,9.7-6.689S306.571,48.779,305.223,53.6Z" transform="translate(-7558 -2123.821)" fill="none" stroke="#1a004f" stroke-linejoin="round" stroke-width="1"/>
    <line id="Línea_203" data-name="Línea 203" x2="15.503" y2="4.799" transform="translate(-7252.775 -2069.284)" fill="none" stroke="#1a004f" stroke-linejoin="round" stroke-width="1"/>
    <path id="Trazado_195073" data-name="Trazado 195073" d="M298.273,52.253c-.379,1.281-1.1,2.2-1.614,2.046s-.621-1.313-.242-2.594,1.1-2.2,1.613-2.046.622,1.313.243,2.594" transform="translate(-7558 -2123.821)" fill="#1a004f"/>
    <path id="Trazado_195074" data-name="Trazado 195074" d="M298.313,44.306a4.6,4.6,0,0,1,4.009,2.074" transform="translate(-7558 -2123.821)" fill="none" stroke="#1a004f" stroke-linejoin="round" stroke-width="1"/>
    <path id="Trazado_195075" data-name="Trazado 195075" d="M323.958,18.149s-3.23-7.806-15.343-5.922-10.767,19.92-6.731,26.111,14,12.921,14,12.921a33.574,33.574,0,0,0,1.614,6.192c1.077,2.692,3.231,1.884,3.231,1.884A23.712,23.712,0,0,1,326.112,70.1c1.616,7-1.346,11.306,6.729,12.921s12.922-1.077,14.806-5.384a87.589,87.589,0,0,0,3.5-8.883c.269-1.077,13.461-9.96,11.575-23.689a31.625,31.625,0,0,0-21.265-26.111c-9.961-3.231-17.5-.808-17.5-.808" transform="translate(-7558 -2123.821)" fill="#104469"/>
    <path id="Trazado_195076" data-name="Trazado 195076" d="M323.958,18.149s-3.23-7.806-15.343-5.922-10.767,19.92-6.731,26.111,14,12.921,14,12.921a33.574,33.574,0,0,0,1.614,6.192c1.077,2.692,3.231,1.884,3.231,1.884A23.712,23.712,0,0,1,326.112,70.1c1.616,7-1.346,11.306,6.729,12.921s12.922-1.077,14.806-5.384a87.589,87.589,0,0,0,3.5-8.883c.269-1.077,13.461-9.96,11.575-23.689a31.625,31.625,0,0,0-21.265-26.111C331.495,15.726,323.958,18.149,323.958,18.149Z" transform="translate(-7558 -2123.821)" fill="none" stroke="#1a004f" stroke-linejoin="round" stroke-width="1"/>
    <path id="Trazado_195077" data-name="Trazado 195077" d="M317.229,63.1s6.73-11.037,10.229-6.191,3.231,10.5-1.346,13.19a15.8,15.8,0,0,1-8.345,2.423" transform="translate(-7558 -2123.821)" fill="#fff"/>
    <path id="Trazado_195078" data-name="Trazado 195078" d="M317.229,63.1s6.73-11.037,10.229-6.191,3.231,10.5-1.346,13.19a15.8,15.8,0,0,1-8.345,2.423" transform="translate(-7558 -2123.821)" fill="none" stroke="#1a004f" stroke-linejoin="round" stroke-width="1"/>
    <path id="Trazado_195079" data-name="Trazado 195079" d="M356.8,31.07s-7.268-4.575-4.038-17.5S367.029-1.5,366.491,2s-3.5,7.808-3.5,7.808S383.45-.424,392.064,6.844s10.229,25.573,4.845,31.5-20.727,3.229-20.727,3.229,5.653,3.769,0,4.846S358.415,38.607,356.8,31.07" transform="translate(-7558 -2123.821)" fill="#104469"/>
    <path id="Trazado_195080" data-name="Trazado 195080" d="M356.8,31.07s-7.268-4.575-4.038-17.5S367.029-1.5,366.491,2s-3.5,7.808-3.5,7.808S383.45-.424,392.064,6.844s10.229,25.573,4.845,31.5-20.727,3.229-20.727,3.229,5.653,3.769,0,4.846S358.415,38.607,356.8,31.07Z" transform="translate(-7558 -2123.821)" fill="none" stroke="#1a004f" stroke-linejoin="round" stroke-width="1"/>
    <path id="Trazado_195081" data-name="Trazado 195081" d="M332.379,89.521,301.02,103.062l.713,16.867,35.635-19.005Z" transform="translate(-7558 -2123.821)" fill="#fff"/>
    <path id="Trazado_195082" data-name="Trazado 195082" d="M332.379,89.521,301.02,103.062l.713,16.867,35.635-19.005Z" transform="translate(-7558 -2123.821)" fill="none" stroke="#1a004f" stroke-linejoin="round" stroke-width="1"/>
    <path id="Trazado_195083" data-name="Trazado 195083" d="M316.462,118.742s-2.851,1.9-7.365,13.541-12.353,54.165-12.59,55.59-11.166,7.84-13.779,8.553-37.535-1.188-37.535-1.188-2.614.712-2.614,4.751.713,6.177,2.138,7.127,5.94.238,5.94.238,34.922,14.729,46.325,15.441,25.657,1.9,32.784-11.64,16.154-53.452,16.154-72.22-2.376-31.834-14.967-28.508" transform="translate(-7558 -2123.821)" fill="#d9fcff"/>
    <path id="Trazado_195084" data-name="Trazado 195084" d="M316.462,118.742s-2.851,1.9-7.365,13.541-12.353,54.165-12.59,55.59-11.166,7.84-13.779,8.553-37.535-1.188-37.535-1.188-2.614.712-2.614,4.751.713,6.177,2.138,7.127,5.94.238,5.94.238,34.922,14.729,46.325,15.441,25.657,1.9,32.784-11.64,16.154-53.452,16.154-72.22-2.376-31.834-14.967-28.508" transform="translate(-7558 -2123.821)" fill="none" stroke="#1a004f" stroke-linejoin="round" stroke-width="1"/>
    <path id="Trazado_195085" data-name="Trazado 195085" d="M298.169,188.111a45.26,45.26,0,0,0,6.177-15.917" transform="translate(-7558 -2123.821)" fill="none" stroke="#1a004f" stroke-linejoin="round" stroke-width="1"/>
    <path id="Trazado_195086" data-name="Trazado 195086" d="M249.907,183.778s9.8,3.118,11.729,3.118,4.306-2.524,5.345-5.345,2.474-2.577,1.731-4.062-5.19-6.005-7.12-5.411-4.262,4.128-4.707,4.722-6.978,6.978-6.978,6.978" transform="translate(-7558 -2123.821)" fill="#fff"/>
    <path id="Trazado_195087" data-name="Trazado 195087" d="M249.907,183.778s9.8,3.118,11.729,3.118,4.306-2.524,5.345-5.345,2.474-2.577,1.731-4.062-5.19-6.005-7.12-5.411-4.262,4.128-4.707,4.722S249.907,183.778,249.907,183.778Z" transform="translate(-7558 -2123.821)" fill="none" stroke="#1a004f" stroke-linejoin="round" stroke-width="1"/>
    <path id="Trazado_195088" data-name="Trazado 195088" d="M250.2,172.643s-6.236.3-6.533,1.039-1.93,9.8-1.187,10.987,1.484,1.188,2.227-.445a69.912,69.912,0,0,0,2.078-7.276l3.267-.445Z" transform="translate(-7558 -2123.821)" fill="#fff"/>
    <path id="Trazado_195089" data-name="Trazado 195089" d="M250.2,172.643s-6.236.3-6.533,1.039-1.93,9.8-1.187,10.987,1.484,1.188,2.227-.445a69.912,69.912,0,0,0,2.078-7.276l3.267-.445Z" transform="translate(-7558 -2123.821)" fill="none" stroke="#1a004f" stroke-linejoin="round" stroke-width="1"/>
    <path id="Trazado_195090" data-name="Trazado 195090" d="M249.759,169.229s-2.821,5.345-2.969,7.72.3,9.205,1.187,9.651,2.376.593,2.524-.3,0-6.829,0-6.829a66.659,66.659,0,0,0,3.267-7.72c.445-1.931-2.97-3.713-4.009-2.524" transform="translate(-7558 -2123.821)" fill="#fff"/>
    <path id="Trazado_195091" data-name="Trazado 195091" d="M249.759,169.229s-2.821,5.345-2.969,7.72.3,9.205,1.187,9.651,2.376.593,2.524-.3,0-6.829,0-6.829a66.659,66.659,0,0,0,3.267-7.72C254.213,169.822,250.8,168.04,249.759,169.229Z" transform="translate(-7558 -2123.821)" fill="none" stroke="#1a004f" stroke-linejoin="round" stroke-width="1"/>
    <path id="Trazado_195092" data-name="Trazado 195092" d="M253.768,171.753s-3.713,6.384-3.267,7.72-.148,7.721.446,8.166a1.659,1.659,0,0,0,2.227-.3c.741-.741.741-2.968,1.039-3.859a28.36,28.36,0,0,0,.446-4.157s5.048-4.158,5.2-6.533-4.305-3.416-6.086-1.039" transform="translate(-7558 -2123.821)" fill="#fff"/>
    <path id="Trazado_195093" data-name="Trazado 195093" d="M253.768,171.753s-3.713,6.384-3.267,7.72-.148,7.721.446,8.166a1.659,1.659,0,0,0,2.227-.3c.741-.741.741-2.968,1.039-3.859a28.36,28.36,0,0,0,.446-4.157s5.048-4.158,5.2-6.533S255.549,169.376,253.768,171.753Z" transform="translate(-7558 -2123.821)" fill="none" stroke="#1a004f" stroke-linejoin="round" stroke-width="1"/>
    <path id="Trazado_195094" data-name="Trazado 195094" d="M263.863,171.9s3.712,2.672,4.751,4.751,1.93,4.306,1.188,6.533-5.345,4.157-5.791,6.681-3.117,2.227-3.117-.446,2.672-8.759,2.672-8.759" transform="translate(-7558 -2123.821)" fill="#fff"/>
    <path id="Trazado_195095" data-name="Trazado 195095" d="M263.863,171.9s3.712,2.672,4.751,4.751,1.93,4.306,1.188,6.533-5.345,4.157-5.791,6.681-3.117,2.227-3.117-.446,2.672-8.759,2.672-8.759" transform="translate(-7558 -2123.821)" fill="none" stroke="#1a004f" stroke-linejoin="round" stroke-width="1"/>
    <path id="Trazado_195096" data-name="Trazado 195096" d="M263.715,176.8l-5.642,7.275s-.445,3.563-1.336,4.6a2.009,2.009,0,0,1-2.969.3c-.743-.742,1.484-8.017.89-9.65s5.2-6.533,5.2-6.533.891-1.93,2.672-1.484,2.376,2.969,2.376,2.969" transform="translate(-7558 -2123.821)" fill="#fff"/>
    <path id="Trazado_195097" data-name="Trazado 195097" d="M263.715,176.8l-5.642,7.275s-.445,3.563-1.336,4.6a2.009,2.009,0,0,1-2.969.3c-.743-.742,1.484-8.017.89-9.65s5.2-6.533,5.2-6.533.891-1.93,2.672-1.484,2.376,2.969,2.376,2.969" transform="translate(-7558 -2123.821)" fill="none" stroke="#1a004f" stroke-linejoin="round" stroke-width="1"/>
    <path id="Trazado_195098" data-name="Trazado 195098" d="M196.05,137.594l11.6,49.99,43.337,9.5-10.454-53.6Z" transform="translate(-7558 -2123.821)" fill="#ef9f14"/>
    <path id="Trazado_195099" data-name="Trazado 195099" d="M196.05,137.594l11.6,49.99,43.337,9.5-10.454-53.6Z" transform="translate(-7558 -2123.821)" fill="none" stroke="#1a004f" stroke-linejoin="round" stroke-width="1"/>
    <path id="Trazado_195100" data-name="Trazado 195100" d="M250.983,197.088l31.745-.663-33.076-7.13Z" transform="translate(-7558 -2123.821)" fill="#1a004f"/>
    <path id="Trazado_195101" data-name="Trazado 195101" d="M250.983,197.088l31.745-.663-33.076-7.13Z" transform="translate(-7558 -2123.821)" fill="none" stroke="#1a004f" stroke-linejoin="round" stroke-width="1"/>
    <path id="Trazado_195102" data-name="Trazado 195102" d="M210.266,186.005s1.485,7.275,2.376,8.314,6.978,1.93,6.978,1.93Z" transform="translate(-7558 -2123.821)" fill="#fff"/>
    <path id="Trazado_195103" data-name="Trazado 195103" d="M210.266,186.005s1.485,7.275,2.376,8.314,6.978,1.93,6.978,1.93Z" transform="translate(-7558 -2123.821)" fill="none" stroke="#1a004f" stroke-linejoin="round" stroke-width="1"/>
    <path id="Trazado_195104" data-name="Trazado 195104" d="M221.847,196.992s-6.087-2.672-6.681-3.118-4.751-6.681-4.9-7.869.891-1.336,2.228-.593,3.711,4.008,3.711,4.008l2.376,3.712Z" transform="translate(-7558 -2123.821)" fill="#fff"/>
    <path id="Trazado_195105" data-name="Trazado 195105" d="M221.847,196.992s-6.087-2.672-6.681-3.118-4.751-6.681-4.9-7.869.891-1.336,2.228-.593,3.711,4.008,3.711,4.008l2.376,3.712Z" transform="translate(-7558 -2123.821)" fill="none" stroke="#1a004f" stroke-linejoin="round" stroke-width="1"/>
    <path id="Trazado_195106" data-name="Trazado 195106" d="M224.668,191.5a4.465,4.465,0,0,1-3.415-1.485c-2.122-2.538-3.99-7.371-4.9-8.462-1.485-1.782-1.782,2.375-.594,5.2s2.375,6.978,4.454,8.463,6.236,6.087,7.72,6.384,14.55-.149,14.55-.149a7.906,7.906,0,0,1,0-3.414,13.367,13.367,0,0,1,1.039-2.524Z" transform="translate(-7558 -2123.821)" fill="#fff"/>
    <path id="Trazado_195107" data-name="Trazado 195107" d="M224.668,191.5a4.465,4.465,0,0,1-3.415-1.485c-2.122-2.538-3.99-7.371-4.9-8.462-1.485-1.782-1.782,2.375-.594,5.2s2.375,6.978,4.454,8.463,6.236,6.087,7.72,6.384,14.55-.149,14.55-.149a7.906,7.906,0,0,1,0-3.414,13.367,13.367,0,0,1,1.039-2.524Z" transform="translate(-7558 -2123.821)" fill="none" stroke="#1a004f" stroke-linejoin="round" stroke-width="1"/>
    <path id="Trazado_195108" data-name="Trazado 195108" d="M228.973,199.664s-3.712-5.2-3.712-6.533.594-12.174,2.227-11.135,1.782,3.118,1.782,5.345a55.736,55.736,0,0,0,.445,5.642l2.524,2.821" transform="translate(-7558 -2123.821)" fill="#fff"/>
    <path id="Trazado_195109" data-name="Trazado 195109" d="M228.973,199.664s-3.712-5.2-3.712-6.533.594-12.174,2.227-11.135,1.782,3.118,1.782,5.345a55.736,55.736,0,0,0,.445,5.642l2.524,2.821" transform="translate(-7558 -2123.821)" fill="none" stroke="#1a004f" stroke-linejoin="round" stroke-width="1"/>
    <line id="Línea_205" data-name="Línea 205" x1="181.777" transform="translate(-7337.335 -1814.679)" fill="none" stroke="#1a004f" stroke-linejoin="round" stroke-width="1"/>
    <g id="Grupo_146208" data-name="Grupo 146208" transform="translate(-858.232 23.345)">
      <rect id="Rectángulo_44697" data-name="Rectángulo 44697" width="63.376" height="52.3" transform="translate(-6496.954 -2084.477)" fill="none" stroke="#1a878e" stroke-linecap="round" stroke-linejoin="round" stroke-width="1"/>
      <rect id="Rectángulo_44698" data-name="Rectángulo 44698" width="7.96" height="7.96" transform="translate(-6493.127 -2069.753)" fill="none" stroke="#1a878e" stroke-linecap="round" stroke-linejoin="round" stroke-width="1"/>
      <rect id="Rectángulo_44699" data-name="Rectángulo 44699" width="7.96" height="7.96" transform="translate(-6481.188 -2069.753)" fill="none" stroke="#1a878e" stroke-linecap="round" stroke-linejoin="round" stroke-width="1"/>
      <rect id="Rectángulo_44700" data-name="Rectángulo 44700" width="7.96" height="7.96" transform="translate(-6469.247 -2069.753)" fill="none" stroke="#1a878e" stroke-linecap="round" stroke-linejoin="round" stroke-width="1"/>
      <rect id="Rectángulo_44701" data-name="Rectángulo 44701" width="7.96" height="7.96" transform="translate(-6457.307 -2069.753)" fill="none" stroke="#1a878e" stroke-linecap="round" stroke-linejoin="round" stroke-width="1"/>
      <rect id="Rectángulo_44702" data-name="Rectángulo 44702" width="7.96" height="7.96" transform="translate(-6445.368 -2069.753)" fill="none" stroke="#1a878e" stroke-linecap="round" stroke-linejoin="round" stroke-width="1"/>
      <rect id="Rectángulo_44703" data-name="Rectángulo 44703" width="7.96" height="7.96" transform="translate(-6493.127 -2057.481)" fill="none" stroke="#1a878e" stroke-linecap="round" stroke-linejoin="round" stroke-width="1"/>
      <rect id="Rectángulo_44704" data-name="Rectángulo 44704" width="7.96" height="7.96" transform="translate(-6481.188 -2057.481)" fill="none" stroke="#1a878e" stroke-linecap="round" stroke-linejoin="round" stroke-width="1"/>
      <rect id="Rectángulo_44705" data-name="Rectángulo 44705" width="7.96" height="7.96" transform="translate(-6469.247 -2057.481)" fill="none" stroke="#1a878e" stroke-linecap="round" stroke-linejoin="round" stroke-width="1"/>
      <rect id="Rectángulo_44706" data-name="Rectángulo 44706" width="7.96" height="7.96" transform="translate(-6457.307 -2057.481)" fill="none" stroke="#1a878e" stroke-linecap="round" stroke-linejoin="round" stroke-width="1"/>
      <rect id="Rectángulo_44707" data-name="Rectángulo 44707" width="7.96" height="7.96" transform="translate(-6445.368 -2057.481)" fill="none" stroke="#1a878e" stroke-linecap="round" stroke-linejoin="round" stroke-width="1"/>
      <rect id="Rectángulo_44708" data-name="Rectángulo 44708" width="7.96" height="7.96" transform="translate(-6493.127 -2045.21)" fill="none" stroke="#1a878e" stroke-linecap="round" stroke-linejoin="round" stroke-width="1"/>
      <rect id="Rectángulo_44709" data-name="Rectángulo 44709" width="7.96" height="7.96" transform="translate(-6481.188 -2045.21)" fill="none" stroke="#1a878e" stroke-linecap="round" stroke-linejoin="round" stroke-width="1"/>
      <rect id="Rectángulo_44710" data-name="Rectángulo 44710" width="7.96" height="7.96" transform="translate(-6469.247 -2045.21)" fill="none" stroke="#1a878e" stroke-linecap="round" stroke-linejoin="round" stroke-width="1"/>
      <rect id="Rectángulo_44711" data-name="Rectángulo 44711" width="7.96" height="7.96" transform="translate(-6457.307 -2045.21)" fill="none" stroke="#1a878e" stroke-linecap="round" stroke-linejoin="round" stroke-width="1"/>
      <rect id="Rectángulo_44712" data-name="Rectángulo 44712" width="7.96" height="7.96" transform="translate(-6445.368 -2045.21)" fill="none" stroke="#1a878e" stroke-linecap="round" stroke-linejoin="round" stroke-width="1"/>
      <path id="Trazado_194987" data-name="Trazado 194987" d="M398.193,14.6a2.313,2.313,0,0,1-2.313-2.313V4.326a2.313,2.313,0,0,1,4.626,0v7.96A2.313,2.313,0,0,1,398.193,14.6Z" transform="translate(-6871.59 -2094.643)" fill="none" stroke="#1a878e" stroke-linecap="round" stroke-linejoin="round" stroke-width="1"/>
      <path id="Trazado_194988" data-name="Trazado 194988" d="M416.8,14.6a2.313,2.313,0,0,1-2.313-2.313V4.326a2.313,2.313,0,0,1,4.626,0v7.96A2.313,2.313,0,0,1,416.8,14.6Z" transform="translate(-6873.938 -2094.643)" fill="none" stroke="#1a878e" stroke-linecap="round" stroke-linejoin="round" stroke-width="1"/>
    </g>
  </g>
</svg>
