<svg xmlns="http://www.w3.org/2000/svg" xmlns:xlink="http://www.w3.org/1999/xlink" width="341.774" height="265.562" viewBox="0 0 341.774 265.562">
  <defs>
    <clipPath id="clip-path">
      <rect id="Rectángulo_44753" data-name="Rectángulo 44753" width="272.863" height="265.562" fill="none"/>
    </clipPath>
  </defs>
  <g id="Grupo_146199" data-name="Grupo 146199" transform="translate(7451 2617.865)">
    <path id="Trazado_194985" data-name="Trazado 194985" d="M35.712,78c9.812-5.507,20.5-9.866,30.145-14.942,16.556-8.712,32.873-17.943,48.6-28.073C135.5,21.438,156.666,10.87,181.576,6.6a165.523,165.523,0,0,1,83.322,7q.363.129.726.262c21.024,7.66,40.329,20.654,53.93,38.576,15.822,20.848,23.057,46.387,22.143,72.382-.233,6.64-.814,13.266-1.575,19.865-8.014,69.449-98.386,76.127-135.782,73.9S92.089,192.948,72.122,195.436C50.494,198.13,26.654,190.5,12.385,173.6c-17.036-20.179-15.283-51.139-2.118-72.87C16.417,90.573,25.6,83.678,35.712,78" transform="translate(-7451 -2586.474)" fill="#c9dae6"/>
    <g id="Grupo_146198" data-name="Grupo 146198" transform="translate(-7421 -2617.865)">
      <g id="Grupo_146197" data-name="Grupo 146197" clip-path="url(#clip-path)">
        <path id="Trazado_194986" data-name="Trazado 194986" d="M163.055,35.12V31.772a6.891,6.891,0,0,1-5.224-2.248q-1.742-2.08-1.877-6.407l5.173-.778a13.055,13.055,0,0,0,.3,2.839,3.05,3.05,0,0,0,.794,1.555,1.822,1.822,0,0,0,1.268.473,1.208,1.208,0,0,0,1.235-.643,3.291,3.291,0,0,0,.287-1.352,4.961,4.961,0,0,0-.794-2.857,12.176,12.176,0,0,0-2.181-2.349l-2.4-2.063a20.416,20.416,0,0,1-1.842-1.876,7.876,7.876,0,0,1-1.335-2.232,8.13,8.13,0,0,1-.507-3.025A6.776,6.776,0,0,1,157.8,5.773a7.591,7.591,0,0,1,4.953-2.062V.5h1.725V3.677a6.155,6.155,0,0,1,3.144.9,5.173,5.173,0,0,1,1.775,1.96A8.629,8.629,0,0,1,170.2,9a17.754,17.754,0,0,1,.253,2.418l-5.239.643q-.034-1.218-.152-2.131a3.069,3.069,0,0,0-.474-1.4,1.23,1.23,0,0,0-1.132-.455,1.342,1.342,0,0,0-1.251.709,2.839,2.839,0,0,0-.406,1.42,3.959,3.959,0,0,0,.828,2.619,17.741,17.741,0,0,0,1.809,1.877l2.3,1.993a20.917,20.917,0,0,1,2.113,2.232,9.95,9.95,0,0,1,1.538,2.637,9.058,9.058,0,0,1,.574,3.347,7.233,7.233,0,0,1-.744,3.279,6.2,6.2,0,0,1-2.129,2.417,7.205,7.205,0,0,1-3.314,1.134v3.38Z" transform="translate(-60.24 -0.193)" fill="none" stroke="#fff" stroke-linecap="round" stroke-linejoin="round" stroke-width="1"/>
        <line id="Línea_175" data-name="Línea 175" x1="13.197" y1="14.663" transform="translate(35.83 157.336)" fill="none" stroke="#fff" stroke-linecap="round" stroke-linejoin="round" stroke-width="1"/>
        <line id="Línea_176" data-name="Línea 176" x1="1.784" y1="1.982" transform="translate(50.885 174.063)" fill="none" stroke="#fff" stroke-linecap="round" stroke-linejoin="round" stroke-width="1"/>
        <rect id="Rectángulo_44697" data-name="Rectángulo 44697" width="44.511" height="36.732" transform="translate(228.046 6.962)" fill="none" stroke="#fff" stroke-linecap="round" stroke-linejoin="round" stroke-width="1"/>
        <rect id="Rectángulo_44698" data-name="Rectángulo 44698" width="5.591" height="5.591" transform="translate(230.734 17.302)" fill="none" stroke="#fff" stroke-linecap="round" stroke-linejoin="round" stroke-width="1"/>
        <rect id="Rectángulo_44699" data-name="Rectángulo 44699" width="5.591" height="5.591" transform="translate(239.119 17.302)" fill="none" stroke="#fff" stroke-linecap="round" stroke-linejoin="round" stroke-width="1"/>
        <rect id="Rectángulo_44700" data-name="Rectángulo 44700" width="5.591" height="5.591" transform="translate(247.505 17.302)" fill="none" stroke="#fff" stroke-linecap="round" stroke-linejoin="round" stroke-width="1"/>
        <rect id="Rectángulo_44701" data-name="Rectángulo 44701" width="5.591" height="5.591" transform="translate(255.892 17.302)" fill="none" stroke="#fff" stroke-linecap="round" stroke-linejoin="round" stroke-width="1"/>
        <rect id="Rectángulo_44702" data-name="Rectángulo 44702" width="5.591" height="5.591" transform="translate(264.277 17.302)" fill="none" stroke="#fff" stroke-linecap="round" stroke-linejoin="round" stroke-width="1"/>
        <rect id="Rectángulo_44703" data-name="Rectángulo 44703" width="5.591" height="5.591" transform="translate(230.734 25.921)" fill="none" stroke="#fff" stroke-linecap="round" stroke-linejoin="round" stroke-width="1"/>
        <rect id="Rectángulo_44704" data-name="Rectángulo 44704" width="5.591" height="5.591" transform="translate(239.119 25.921)" fill="none" stroke="#fff" stroke-linecap="round" stroke-linejoin="round" stroke-width="1"/>
        <rect id="Rectángulo_44705" data-name="Rectángulo 44705" width="5.591" height="5.591" transform="translate(247.505 25.921)" fill="none" stroke="#fff" stroke-linecap="round" stroke-linejoin="round" stroke-width="1"/>
        <rect id="Rectángulo_44706" data-name="Rectángulo 44706" width="5.591" height="5.591" transform="translate(255.892 25.921)" fill="none" stroke="#fff" stroke-linecap="round" stroke-linejoin="round" stroke-width="1"/>
        <rect id="Rectángulo_44707" data-name="Rectángulo 44707" width="5.591" height="5.591" transform="translate(264.277 25.921)" fill="none" stroke="#fff" stroke-linecap="round" stroke-linejoin="round" stroke-width="1"/>
        <rect id="Rectángulo_44708" data-name="Rectángulo 44708" width="5.591" height="5.591" transform="translate(230.734 34.54)" fill="none" stroke="#fff" stroke-linecap="round" stroke-linejoin="round" stroke-width="1"/>
        <rect id="Rectángulo_44709" data-name="Rectángulo 44709" width="5.591" height="5.591" transform="translate(239.119 34.54)" fill="none" stroke="#fff" stroke-linecap="round" stroke-linejoin="round" stroke-width="1"/>
        <rect id="Rectángulo_44710" data-name="Rectángulo 44710" width="5.591" height="5.591" transform="translate(247.505 34.54)" fill="none" stroke="#fff" stroke-linecap="round" stroke-linejoin="round" stroke-width="1"/>
        <rect id="Rectángulo_44711" data-name="Rectángulo 44711" width="5.591" height="5.591" transform="translate(255.892 34.54)" fill="none" stroke="#fff" stroke-linecap="round" stroke-linejoin="round" stroke-width="1"/>
        <rect id="Rectángulo_44712" data-name="Rectángulo 44712" width="5.591" height="5.591" transform="translate(264.277 34.54)" fill="none" stroke="#fff" stroke-linecap="round" stroke-linejoin="round" stroke-width="1"/>
        <path id="Trazado_194987" data-name="Trazado 194987" d="M397.5,10.853a1.624,1.624,0,0,1-1.625-1.625V3.638a1.625,1.625,0,0,1,3.249,0V9.228A1.624,1.624,0,0,1,397.5,10.853Z" transform="translate(-152.914 -0.778)" fill="none" stroke="#fff" stroke-linecap="round" stroke-linejoin="round" stroke-width="1"/>
        <path id="Trazado_194988" data-name="Trazado 194988" d="M416.112,10.853a1.624,1.624,0,0,1-1.625-1.625V3.638a1.625,1.625,0,1,1,3.249,0V9.228A1.624,1.624,0,0,1,416.112,10.853Z" transform="translate(-160.101 -0.778)" fill="none" stroke="#fff" stroke-linecap="round" stroke-linejoin="round" stroke-width="1"/>
        <rect id="Rectángulo_44713" data-name="Rectángulo 44713" width="12.382" height="81.563" transform="translate(172.857 182.757)" fill="#ef9f14"/>
        <rect id="Rectángulo_44714" data-name="Rectángulo 44714" width="12.382" height="81.563" transform="translate(172.857 182.757)" fill="none" stroke="#001e6c" stroke-linecap="round" stroke-linejoin="round" stroke-width="1"/>
        <path id="Trazado_194989" data-name="Trazado 194989" d="M220.751,364.823H208.613l19.58-104.63h12.137Z" transform="translate(-80.58 -100.503)" fill="#ef9f14"/>
        <path id="Trazado_194990" data-name="Trazado 194990" d="M220.751,364.823H208.613l19.58-104.63h12.137Z" transform="translate(-80.58 -100.503)" fill="none" stroke="#001e6c" stroke-linecap="round" stroke-linejoin="round" stroke-width="1"/>
        <path id="Trazado_194991" data-name="Trazado 194991" d="M341.245,364.823h12.137L333.8,260.193H321.665Z" transform="translate(-124.247 -100.503)" fill="#ef9f14"/>
        <path id="Trazado_194992" data-name="Trazado 194992" d="M341.245,364.823h12.137L333.8,260.193H321.665Z" transform="translate(-124.247 -100.503)" fill="none" stroke="#001e6c" stroke-linecap="round" stroke-linejoin="round" stroke-width="1"/>
        <path id="Trazado_194993" data-name="Trazado 194993" d="M330.414,306.944h12.137l-3.617-19.331H326.8Z" transform="translate(-126.229 -111.094)" fill="#79dae1"/>
        <path id="Trazado_194994" data-name="Trazado 194994" d="M330.414,306.944h12.137l-3.617-19.331H326.8Z" transform="translate(-126.229 -111.094)" fill="none" stroke="#001e6c" stroke-linecap="round" stroke-linejoin="round" stroke-width="1"/>
        <rect id="Rectángulo_44715" data-name="Rectángulo 44715" width="12.382" height="13.093" transform="translate(172.857 182.757)" fill="#79dae1"/>
        <rect id="Rectángulo_44716" data-name="Rectángulo 44716" width="12.382" height="13.093" transform="translate(172.857 182.757)" fill="none" stroke="#001e6c" stroke-linecap="round" stroke-linejoin="round" stroke-width="1"/>
        <path id="Trazado_194995" data-name="Trazado 194995" d="M229.491,306.944h12.137l3.617-19.331H233.109Z" transform="translate(-88.644 -111.094)" fill="#79dae1"/>
        <path id="Trazado_194996" data-name="Trazado 194996" d="M229.491,306.944h12.137l3.617-19.331H233.109Z" transform="translate(-88.644 -111.094)" fill="none" stroke="#001e6c" stroke-linecap="round" stroke-linejoin="round" stroke-width="1"/>
        <rect id="Rectángulo_44717" data-name="Rectángulo 44717" width="123.24" height="161.549" transform="translate(117.428 27.857)" fill="#fff"/>
        <rect id="Rectángulo_44718" data-name="Rectángulo 44718" width="123.24" height="161.549" transform="translate(117.428 27.857)" fill="none" stroke="#001e6c" stroke-linecap="round" stroke-linejoin="round" stroke-width="1"/>
        <line id="Línea_177" data-name="Línea 177" x2="122.526" transform="translate(117.841 183.3)" fill="none" stroke="#001e6c" stroke-linecap="round" stroke-linejoin="round" stroke-width="1"/>
        <line id="Línea_178" data-name="Línea 178" x2="122.526" transform="translate(117.841 185.026)" fill="none" stroke="#001e6c" stroke-linecap="round" stroke-linejoin="round" stroke-width="1"/>
        <line id="Línea_179" data-name="Línea 179" x2="122.526" transform="translate(117.841 187.327)" fill="none" stroke="#001e6c" stroke-linecap="round" stroke-linejoin="round" stroke-width="1"/>
        <rect id="Rectángulo_44719" data-name="Rectángulo 44719" width="4.663" height="10.168" transform="translate(144.878 72.801)" fill="#fff"/>
        <rect id="Rectángulo_44720" data-name="Rectángulo 44720" width="4.663" height="10.168" transform="translate(144.878 72.801)" fill="none" stroke="#001e6c" stroke-linecap="round" stroke-linejoin="round" stroke-width="1"/>
        <rect id="Rectángulo_44721" data-name="Rectángulo 44721" width="4.663" height="13.189" transform="translate(151.871 69.781)" fill="#ef9f14"/>
        <rect id="Rectángulo_44722" data-name="Rectángulo 44722" width="4.663" height="13.189" transform="translate(151.871 69.781)" fill="none" stroke="#104469" stroke-linecap="round" stroke-linejoin="round" stroke-width="1"/>
        <rect id="Rectángulo_44723" data-name="Rectángulo 44723" width="4.663" height="17.215" transform="translate(158.865 65.754)" fill="#fff"/>
        <rect id="Rectángulo_44724" data-name="Rectángulo 44724" width="4.663" height="17.215" transform="translate(158.865 65.754)" fill="none" stroke="#104469" stroke-linecap="round" stroke-linejoin="round" stroke-width="1"/>
        <rect id="Rectángulo_44725" data-name="Rectángulo 44725" width="4.663" height="21.041" transform="translate(165.859 61.928)" fill="#ef9f14"/>
        <rect id="Rectángulo_44726" data-name="Rectángulo 44726" width="4.663" height="21.041" transform="translate(165.859 61.928)" fill="none" stroke="#104469" stroke-linecap="round" stroke-linejoin="round" stroke-width="1"/>
        <line id="Línea_180" data-name="Línea 180" x2="2.014" transform="translate(173.658 62.281)" fill="none" stroke="#001e6c" stroke-linecap="round" stroke-linejoin="round" stroke-width="1"/>
        <line id="Línea_181" data-name="Línea 181" x2="2.014" transform="translate(173.658 66.107)" fill="none" stroke="#001e6c" stroke-linecap="round" stroke-linejoin="round" stroke-width="1"/>
        <line id="Línea_182" data-name="Línea 182" x2="2.014" transform="translate(173.658 69.932)" fill="none" stroke="#001e6c" stroke-linecap="round" stroke-linejoin="round" stroke-width="1"/>
        <line id="Línea_183" data-name="Línea 183" x2="2.014" transform="translate(173.658 73.758)" fill="none" stroke="#001e6c" stroke-linecap="round" stroke-linejoin="round" stroke-width="1"/>
        <line id="Línea_184" data-name="Línea 184" x2="2.014" transform="translate(173.658 77.583)" fill="none" stroke="#001e6c" stroke-linecap="round" stroke-linejoin="round" stroke-width="1"/>
        <line id="Línea_185" data-name="Línea 185" x2="2.014" transform="translate(173.658 81.409)" fill="none" stroke="#001e6c" stroke-linecap="round" stroke-linejoin="round" stroke-width="1"/>
        <line id="Línea_186" data-name="Línea 186" x2="15.302" transform="translate(144.866 58.053)" fill="none" stroke="#104469" stroke-linecap="round" stroke-linejoin="round" stroke-width="1"/>
        <line id="Línea_187" data-name="Línea 187" x2="10.671" transform="translate(144.866 61.275)" fill="none" stroke="#104469" stroke-linecap="round" stroke-linejoin="round" stroke-width="1"/>
        <rect id="Rectángulo_44727" data-name="Rectángulo 44727" width="27.771" height="26.396" transform="translate(196.26 139.599)" fill="#ef9f14"/>
        <rect id="Rectángulo_44728" data-name="Rectángulo 44728" width="27.771" height="26.396" transform="translate(196.26 139.599)" fill="none" stroke="#001e6c" stroke-linecap="round" stroke-linejoin="round" stroke-width="1"/>
        <rect id="Rectángulo_44729" data-name="Rectángulo 44729" width="4.149" height="4.149" transform="translate(198.185 145.924)" fill="#fff"/>
        <rect id="Rectángulo_44731" data-name="Rectángulo 44731" width="4.149" height="4.149" transform="translate(204.775 145.924)" fill="#001e6c"/>
        <rect id="Rectángulo_44733" data-name="Rectángulo 44733" width="4.149" height="4.149" transform="translate(211.366 145.924)" fill="#fff"/>
        <rect id="Rectángulo_44735" data-name="Rectángulo 44735" width="4.149" height="4.149" transform="translate(217.957 145.924)" fill="#fff"/>
        <rect id="Rectángulo_44737" data-name="Rectángulo 44737" width="4.149" height="4.149" transform="translate(198.185 152.647)" fill="#fff"/>
        <rect id="Rectángulo_44739" data-name="Rectángulo 44739" width="4.149" height="4.149" transform="translate(204.775 152.647)" fill="#fff"/>
        <rect id="Rectángulo_44741" data-name="Rectángulo 44741" width="4.149" height="4.149" transform="translate(211.366 152.647)" fill="#fff"/>
        <rect id="Rectángulo_44743" data-name="Rectángulo 44743" width="4.149" height="4.149" transform="translate(217.957 152.647)" fill="#fff"/>
        <rect id="Rectángulo_44745" data-name="Rectángulo 44745" width="4.149" height="4.149" transform="translate(198.185 159.372)" fill="#fff"/>
        <rect id="Rectángulo_44747" data-name="Rectángulo 44747" width="4.149" height="4.149" transform="translate(204.775 159.372)" fill="#fff"/>
        <rect id="Rectángulo_44749" data-name="Rectángulo 44749" width="4.149" height="4.149" transform="translate(211.366 159.372)" fill="#001e6c"/>
        <rect id="Rectángulo_44751" data-name="Rectángulo 44751" width="4.149" height="4.149" transform="translate(217.957 159.372)" fill="#fff"/>
        <path id="Trazado_194997" data-name="Trazado 194997" d="M328.823,104.756a3.335,3.335,0,1,1-3.335-3.335,3.335,3.335,0,0,1,3.335,3.335" transform="translate(-124.436 -39.175)" fill="#ffaa4c"/>
        <path id="Trazado_194998" data-name="Trazado 194998" d="M328.823,104.756a3.335,3.335,0,1,1-3.335-3.335A3.335,3.335,0,0,1,328.823,104.756Z" transform="translate(-124.436 -39.175)" fill="none" stroke="#104469" stroke-linecap="round" stroke-linejoin="round" stroke-width="1"/>
        <path id="Trazado_194999" data-name="Trazado 194999" d="M337.75,93.888a3.335,3.335,0,1,1-3.335-3.335,3.335,3.335,0,0,1,3.335,3.335" transform="translate(-127.884 -34.977)" fill="#ffaa4c"/>
        <path id="Trazado_195000" data-name="Trazado 195000" d="M337.75,93.888a3.335,3.335,0,1,1-3.335-3.335A3.335,3.335,0,0,1,337.75,93.888Z" transform="translate(-127.884 -34.977)" fill="none" stroke="#104469" stroke-linecap="round" stroke-linejoin="round" stroke-width="1"/>
        <path id="Trazado_195001" data-name="Trazado 195001" d="M354.275,93.888a3.335,3.335,0,1,1-3.335-3.335,3.335,3.335,0,0,1,3.335,3.335" transform="translate(-134.267 -34.977)" fill="#ffaa4c" stroke="#104469" stroke-width="1"/>
        <path id="Trazado_195002" data-name="Trazado 195002" d="M354.275,93.888a3.335,3.335,0,1,1-3.335-3.335A3.335,3.335,0,0,1,354.275,93.888Z" transform="translate(-134.267 -34.977)" fill="none" stroke="#001e6c" stroke-linecap="round" stroke-linejoin="round" stroke-width="1"/>
        <path id="Trazado_195003" data-name="Trazado 195003" d="M324.461,114.229h0a4.659,4.659,0,0,0-4.659,4.659v8.2h9.319v-8.2A4.659,4.659,0,0,0,324.461,114.229Z" transform="translate(-123.528 -44.122)" fill="none" stroke="#104469" stroke-linecap="round" stroke-linejoin="round" stroke-width="1"/>
        <path id="Trazado_195004" data-name="Trazado 195004" d="M346.289,104.756a3.335,3.335,0,1,1-3.335-3.335,3.335,3.335,0,0,1,3.335,3.335" transform="translate(-131.183 -39.175)" fill="#ffaa4c" stroke="#104469" stroke-width="1"/>
        <path id="Trazado_195005" data-name="Trazado 195005" d="M346.289,104.756a3.335,3.335,0,1,1-3.335-3.335A3.335,3.335,0,0,1,346.289,104.756Z" transform="translate(-131.183 -39.175)" fill="none" stroke="#001e6c" stroke-linecap="round" stroke-linejoin="round" stroke-width="1"/>
        <path id="Trazado_195006" data-name="Trazado 195006" d="M341.927,114.229h0a4.659,4.659,0,0,0-4.66,4.659v8.2h9.319v-8.2A4.659,4.659,0,0,0,341.927,114.229Z" transform="translate(-130.274 -44.122)" fill="none" stroke="#104469" stroke-linecap="round" stroke-linejoin="round" stroke-width="1"/>
        <path id="Trazado_195007" data-name="Trazado 195007" d="M363.754,104.756a3.335,3.335,0,1,1-3.335-3.335,3.335,3.335,0,0,1,3.335,3.335" transform="translate(-137.929 -39.175)" fill="#ffaa4c" stroke="#104469" stroke-width="1"/>
        <path id="Trazado_195008" data-name="Trazado 195008" d="M363.754,104.756a3.335,3.335,0,1,1-3.335-3.335A3.335,3.335,0,0,1,363.754,104.756Z" transform="translate(-137.929 -39.175)" fill="none" stroke="#001e6c" stroke-linecap="round" stroke-linejoin="round" stroke-width="1"/>
        <path id="Trazado_195009" data-name="Trazado 195009" d="M359.391,114.229h0a4.659,4.659,0,0,0-4.659,4.659v8.2h9.318v-8.2A4.659,4.659,0,0,0,359.391,114.229Z" transform="translate(-137.02 -44.122)" fill="none" stroke="#104469" stroke-linecap="round" stroke-linejoin="round" stroke-width="1"/>
        <path id="Trazado_195010" data-name="Trazado 195010" d="M301.252,246s-9.809-3.878-22.356.913" transform="translate(-107.727 -94.449)" fill="none" stroke="#104469" stroke-linecap="round" stroke-linejoin="round" stroke-width="1"/>
        <path id="Trazado_195011" data-name="Trazado 195011" d="M281.279,240.988l-6.844,5.475,7.528,1.6Z" transform="translate(-106.004 -93.085)" fill="#104469"/>
        <path id="Trazado_195013" data-name="Trazado 195013" d="M230.2,207.309s49.047-4.334,76.65-2.053" transform="translate(-88.919 -79.027)" fill="none" stroke="#104469" stroke-linecap="round" stroke-linejoin="round" stroke-width="1"/>
        <path id="Trazado_195014" data-name="Trazado 195014" d="M240.982,212.022s46.081-3.878,67.982-1.6" transform="translate(-93.082 -81.002)" fill="none" stroke="#104469" stroke-linecap="round" stroke-linejoin="round" stroke-width="1"/>
        <path id="Trazado_195015" data-name="Trazado 195015" d="M364.014,86.008l.684,4.106a35.107,35.107,0,0,1,7.528-8.212" transform="translate(-140.605 -31.635)" fill="none" stroke="#104469" stroke-linecap="round" stroke-linejoin="round" stroke-width="1"/>
        <line id="Línea_188" data-name="Línea 188" x1="7.871" y1="9.503" transform="translate(164.097 87.222)" fill="none" stroke="#104469" stroke-linecap="round" stroke-linejoin="round" stroke-width="1"/>
        <line id="Línea_189" data-name="Línea 189" y1="10.55" x2="10.143" transform="translate(186.119 86.538)" fill="none" stroke="#001e6c" stroke-linecap="round" stroke-linejoin="round" stroke-width="1"/>
        <path id="Trazado_195016" data-name="Trazado 195016" d="M313.464,140.706l4.107,3.422,2.737-6.844Z" transform="translate(-121.079 -53.028)" fill="#104469"/>
        <path id="Trazado_195018" data-name="Trazado 195018" d="M271.7,140.883l-6.159,5.475-1.14-6.844Z" transform="translate(-102.128 -53.889)" fill="#104469"/>
        <path id="Trazado_195020" data-name="Trazado 195020" d="M292.326,81.229V79.354A3.86,3.86,0,0,1,289.4,78.1a5.809,5.809,0,0,1-1.051-3.589l2.9-.436a7.323,7.323,0,0,0,.17,1.591,1.716,1.716,0,0,0,.445.872,1.024,1.024,0,0,0,.71.265.675.675,0,0,0,.692-.36,1.84,1.84,0,0,0,.161-.757,2.778,2.778,0,0,0-.445-1.6,6.831,6.831,0,0,0-1.221-1.316l-1.345-1.155a11.452,11.452,0,0,1-1.032-1.051,4.421,4.421,0,0,1-.748-1.25,4.567,4.567,0,0,1-.284-1.7,3.794,3.794,0,0,1,1.032-2.822,4.254,4.254,0,0,1,2.775-1.155v-1.8h.966v1.78a3.446,3.446,0,0,1,1.761.5,2.9,2.9,0,0,1,.994,1.1,4.8,4.8,0,0,1,.454,1.382,10.025,10.025,0,0,1,.142,1.355l-2.935.36q-.019-.682-.085-1.193a1.719,1.719,0,0,0-.266-.786.689.689,0,0,0-.634-.255.753.753,0,0,0-.7.4,1.59,1.59,0,0,0-.227.8,2.219,2.219,0,0,0,.464,1.467,9.917,9.917,0,0,0,1.013,1.051l1.288,1.117a11.709,11.709,0,0,1,1.184,1.25,5.555,5.555,0,0,1,.861,1.477,5.074,5.074,0,0,1,.322,1.876,4.049,4.049,0,0,1-.417,1.836,3.478,3.478,0,0,1-1.192,1.355,4.039,4.039,0,0,1-1.857.635v1.893Z" transform="translate(-111.379 -23.885)" fill="#104469"/>
        <line id="Línea_190" data-name="Línea 190" x2="4.953" y2="2.702" transform="translate(167.765 41.941)" fill="none" stroke="#104469" stroke-linecap="round" stroke-linejoin="round" stroke-width="1"/>
        <line id="Línea_191" data-name="Línea 191" x1="6.979" y2="1.351" transform="translate(166.414 49.821)" fill="none" stroke="#104469" stroke-linecap="round" stroke-linejoin="round" stroke-width="1"/>
        <line id="Línea_192" data-name="Línea 192" y1="2.251" x2="6.754" transform="translate(187.577 43.292)" fill="none" stroke="#104469" stroke-linecap="round" stroke-linejoin="round" stroke-width="1"/>
        <line id="Línea_193" data-name="Línea 193" x2="5.629" y2="1.576" transform="translate(188.028 50.496)" fill="none" stroke="#104469" stroke-linecap="round" stroke-linejoin="round" stroke-width="1"/>
        <line id="Línea_194" data-name="Línea 194" x1="1.576" y2="3.152" transform="translate(185.776 35.412)" fill="none" stroke="#104469" stroke-linecap="round" stroke-linejoin="round" stroke-width="1"/>
        <path id="Trazado_195021" data-name="Trazado 195021" d="M151.792,77.889s1.561,4.121,1.385,5.718-1.034,2.419-.376,3.558,3.123,3.71,2.994,4.579-2.942,1.966-2.942,1.966-2.02,8.641-2.989,9.492-7.931-1.134-7.931-1.134l-7.45,8.821-10.957-12.34,2.745-2.975s-4.548-8.225-5.552-12.493,2.679-14.3,11.373-17.064,20.023,1.769,22.277,5.351-1.656,6.4-2.578,6.522" transform="translate(-46.568 -25.171)" fill="#fff"/>
        <path id="Trazado_195022" data-name="Trazado 195022" d="M151.792,77.889s1.561,4.121,1.385,5.718-1.034,2.419-.376,3.558,3.123,3.71,2.994,4.579-2.942,1.966-2.942,1.966-2.02,8.641-2.989,9.492-7.931-1.134-7.931-1.134l-7.45,8.821-10.957-12.34,2.745-2.975s-4.548-8.225-5.552-12.493,2.679-14.3,11.373-17.064,20.023,1.769,22.277,5.351S152.714,77.766,151.792,77.889Z" transform="translate(-46.568 -25.171)" fill="none" stroke="#001e6c" stroke-linecap="round" stroke-linejoin="round" stroke-width="1"/>
        <path id="Trazado_195023" data-name="Trazado 195023" d="M154.37,71.368c-2.254-3.581-13.583-8.114-22.277-5.351s-12.376,12.8-11.373,17.064,5.552,12.493,5.552,12.493,5.136,1.392,6.587,1.011a65.729,65.729,0,0,0,6.593-3.046,11.2,11.2,0,0,1-2.266,0c-1.345-.123-2.019-2.689-2.441-5.2s2.143-3.187,3.317-3.257,1.174,2.2,1.744,3,2.072.171,2.289-.363-.592-4.972-.592-4.972,3.247-2.166,3.176-3.34a13.937,13.937,0,0,0-1.3-3.592l8.418,2.079c.922-.123,4.831-2.94,2.578-6.522" transform="translate(-46.567 -25.171)" fill="#104469"/>
        <path id="Trazado_195024" data-name="Trazado 195024" d="M154.37,71.368c-2.254-3.581-13.583-8.114-22.277-5.351s-12.376,12.8-11.373,17.064,5.552,12.493,5.552,12.493,5.136,1.392,6.587,1.011a65.729,65.729,0,0,0,6.593-3.046,11.2,11.2,0,0,1-2.266,0c-1.345-.123-2.019-2.689-2.441-5.2s2.143-3.187,3.317-3.257,1.174,2.2,1.744,3,2.072.171,2.289-.363-.592-4.972-.592-4.972,3.247-2.166,3.176-3.34a13.937,13.937,0,0,0-1.3-3.592l8.418,2.079C152.714,77.766,156.623,74.949,154.37,71.368Z" transform="translate(-46.567 -25.171)" fill="none" stroke="#001e6c" stroke-linecap="round" stroke-linejoin="round" stroke-width="1"/>
        <path id="Trazado_195025" data-name="Trazado 195025" d="M168.108,99.047c.077.921-.222,1.7-.665,1.734s-.867-.679-.944-1.6.222-1.7.666-1.734.867.679.943,1.6" transform="translate(-64.308 -37.64)" fill="#001e6c"/>
        <path id="Trazado_195026" data-name="Trazado 195026" d="M164.494,94.435s2.413-1.708,4.168-.023" transform="translate(-63.538 -36.181)" fill="none" stroke="#001e6c" stroke-linecap="round" stroke-linejoin="round" stroke-width="1"/>
        <path id="Trazado_195027" data-name="Trazado 195027" d="M163.914,108.81a4.384,4.384,0,0,0,2.794,2.2" transform="translate(-63.314 -42.029)" fill="none" stroke="#001e6c" stroke-linecap="round" stroke-linejoin="round" stroke-width="1"/>
        <path id="Trazado_195028" data-name="Trazado 195028" d="M153.368,124.473l-3.2-1.3.131,4.955Z" transform="translate(-58.002 -47.576)" fill="#001e6c"/>
        <path id="Trazado_195029" data-name="Trazado 195029" d="M153.368,124.473l-3.2-1.3.131,4.955Z" transform="translate(-58.002 -47.576)" fill="none" stroke="#001e6c" stroke-linecap="round" stroke-linejoin="round" stroke-width="1"/>
        <path id="Trazado_195030" data-name="Trazado 195030" d="M60.958,113.168a50.619,50.619,0,0,0-8.869,5.527c-3.29,2.821-26.795,19.587-26.481,21.624S44.8,169.593,44.8,169.593l3.687-4.987-6.111-22.25,13.162-6.895Z" transform="translate(-9.89 -43.713)" fill="#d9fcff"/>
        <path id="Trazado_195031" data-name="Trazado 195031" d="M60.958,113.168a50.619,50.619,0,0,0-8.869,5.527c-3.29,2.821-26.795,19.587-26.481,21.624S44.8,169.593,44.8,169.593l3.687-4.987-6.111-22.25,13.162-6.895Z" transform="translate(-9.89 -43.713)" fill="none" stroke="#001e6c" stroke-linecap="round" stroke-linejoin="round" stroke-width="1"/>
        <path id="Trazado_195032" data-name="Trazado 195032" d="M43.737,163.232l5.641-2.507-5.327,5.328" transform="translate(-16.894 -62.082)" fill="none" stroke="#001e6c" stroke-linecap="round" stroke-linejoin="round" stroke-width="1"/>
        <path id="Trazado_195033" data-name="Trazado 195033" d="M131.843,130.205s-2.329-6.711-3.971-7.944-12.326-7.532-14.791-7.532a7.949,7.949,0,0,0-4.656,2.055s11.186,6.136,14.473,8.464a71.9,71.9,0,0,0,8.946,4.957" transform="translate(-41.88 -44.316)" fill="#79dae1"/>
        <path id="Trazado_195034" data-name="Trazado 195034" d="M131.843,130.205s-2.329-6.711-3.971-7.944-12.326-7.532-14.791-7.532a7.949,7.949,0,0,0-4.656,2.055s11.186,6.136,14.473,8.464A71.9,71.9,0,0,0,131.843,130.205Z" transform="translate(-41.88 -44.316)" fill="none" stroke="#001e6c" stroke-linecap="round" stroke-linejoin="round" stroke-width="1"/>
        <path id="Trazado_195035" data-name="Trazado 195035" d="M30.983,234.813v52.549L2.81,343.483s-3.326,3.991-2,6.652,7.038,4.59,12.757,1.99c2.119-.964,5.868,2,9.526,1s6.706-2.529,5.376-5.854c-.6-1.5-4.107-1.644-5.891-2.253-2.175-.742-2.626-1.776-2.626-1.776s3.347-3.722,3.347-6.05-.665-2,0-3.991,22.314-31.539,24.309-35.2,5.654-8.98,6.32-11.641,4.988-24.612,4.988-24.612Z" transform="translate(-0.193 -90.7)" fill="#104469"/>
        <path id="Trazado_195036" data-name="Trazado 195036" d="M30.983,234.813v52.549L2.81,343.483s-3.326,3.991-2,6.652,7.038,4.59,12.757,1.99c2.119-.964,5.868,2,9.526,1s6.706-2.529,5.376-5.854c-.6-1.5-4.107-1.644-5.891-2.253-2.175-.742-2.626-1.776-2.626-1.776s3.347-3.722,3.347-6.05-.665-2,0-3.991,22.314-31.539,24.309-35.2,5.654-8.98,6.32-11.641,4.988-24.612,4.988-24.612Z" transform="translate(-0.193 -90.7)" fill="none" stroke="#001e6c" stroke-linecap="round" stroke-linejoin="round" stroke-width="1"/>
        <path id="Trazado_195037" data-name="Trazado 195037" d="M56.468,202.841s-6.123,17.938-6.319,19.623c-.9,7.747,18.709,26.451,18.709,26.451l22.1,29.75,9.081,52.889.036,9.206a2.977,2.977,0,0,0,2.624,2.675c2.573.3,9.493.12,11.215.12,2.661,0,9.9-1.313,11.19-1.544.982-.177,2.993-2.329,2.329-3.991s-5.443-2.143-7.106-2.807a28.027,28.027,0,0,1-6.174-3.9c-.45-.45-.156-2.279-.143-3.754a8.83,8.83,0,0,0-1.6-5.206,6.8,6.8,0,0,1-1.178-4.041c0-4.323-.652-48.955-1.317-51.283s-22.514-41.9-22.514-41.9l-1.086-8.843Z" transform="translate(-19.359 -78.35)" fill="#104469"/>
        <path id="Trazado_195038" data-name="Trazado 195038" d="M56.468,202.841s-6.123,17.938-6.319,19.623c-.9,7.747,18.709,26.451,18.709,26.451l22.1,29.75,9.081,52.889.036,9.206a2.977,2.977,0,0,0,2.624,2.675c2.573.3,9.493.12,11.215.12,2.661,0,9.9-1.313,11.19-1.544.982-.177,2.993-2.329,2.329-3.991s-5.443-2.143-7.106-2.807a28.027,28.027,0,0,1-6.174-3.9c-.45-.45-.156-2.279-.143-3.754a8.83,8.83,0,0,0-1.6-5.206,6.8,6.8,0,0,1-1.178-4.041c0-4.323-.652-48.955-1.317-51.283s-22.514-41.9-22.514-41.9l-1.086-8.843Z" transform="translate(-19.359 -78.35)" fill="none" stroke="#001e6c" stroke-linecap="round" stroke-linejoin="round" stroke-width="1"/>
        <path id="Trazado_195039" data-name="Trazado 195039" d="M125.672,163.773l-3.584,35.837,3.584,8.7,3.584-6.143-1.024-43" transform="translate(-47.158 -61.48)" fill="#79dae1"/>
        <path id="Trazado_195040" data-name="Trazado 195040" d="M125.672,163.773l-3.584,35.837,3.584,8.7,3.584-6.143-1.024-43" transform="translate(-47.158 -61.48)" fill="none" stroke="#001e6c" stroke-linecap="round" stroke-linejoin="round" stroke-width="1"/>
        <path id="Trazado_195041" data-name="Trazado 195041" d="M88.512,116.171s-13.832-3.287-15.476-3.013-4.793,18.078-6.711,26.432-9.587,28.35-9.45,29.993,2.876,2.877,3.7,3.15,26.432,8.765,28.349,8.9a2.738,2.738,0,0,0,3.013-2.054,13.431,13.431,0,0,1,.547-2.876c.274-.411,11.915-24.1,11.915-24.1s38.21,6.847,38.895,6.574S162.33,122.2,162.33,122.2l-5.2-3.7-21.776,23.42-23.419-12.326-22.6-13.147" transform="translate(-21.968 -43.702)" fill="#d9fcff"/>
        <path id="Trazado_195042" data-name="Trazado 195042" d="M88.512,116.171s-13.832-3.287-15.476-3.013-4.793,18.078-6.711,26.432-9.587,28.35-9.45,29.993,2.876,2.877,3.7,3.15,26.432,8.765,28.349,8.9a2.738,2.738,0,0,0,3.013-2.054,13.431,13.431,0,0,1,.547-2.876c.274-.411,11.915-24.1,11.915-24.1s38.21,6.847,38.895,6.574S162.33,122.2,162.33,122.2l-5.2-3.7-21.776,23.42-23.419-12.326-22.6-13.147" transform="translate(-21.968 -43.702)" fill="none" stroke="#001e6c" stroke-linecap="round" stroke-linejoin="round" stroke-width="1"/>
        <line id="Línea_195" data-name="Línea 195" x1="10.135" y1="0.548" transform="translate(72.296 108.35)" fill="none" stroke="#001e6c" stroke-linecap="round" stroke-linejoin="round" stroke-width="1"/>
        <line id="Línea_196" data-name="Línea 196" x1="22.749" y2="3.709" transform="translate(54.081 110.256)" fill="none" stroke="#001e6c" stroke-linecap="round" stroke-linejoin="round" stroke-width="1"/>
        <line id="Línea_197" data-name="Línea 197" x1="0.949" y2="0.155" transform="translate(78.332 109.857)" fill="none" stroke="#001e6c" stroke-linecap="round" stroke-linejoin="round" stroke-width="1"/>
        <path id="Trazado_195043" data-name="Trazado 195043" d="M96.888,197.853a30.424,30.424,0,0,1-3.192,1.164" transform="translate(-36.191 -76.423)" fill="none" stroke="#001e6c" stroke-linecap="round" stroke-linejoin="round" stroke-width="1"/>
        <path id="Trazado_195044" data-name="Trazado 195044" d="M115.319,184.575a143.544,143.544,0,0,1-13.154,7.257" transform="translate(-39.463 -71.294)" fill="none" stroke="#001e6c" stroke-linecap="round" stroke-linejoin="round" stroke-width="1"/>
        <path id="Trazado_195045" data-name="Trazado 195045" d="M184.289,161.814a48.228,48.228,0,0,1-1.78,4.52" transform="translate(-70.496 -62.503)" fill="none" stroke="#001e6c" stroke-linecap="round" stroke-linejoin="round" stroke-width="1"/>
        <line id="Línea_198" data-name="Línea 198" x2="6.026" y2="4.383" transform="translate(131.871 78.357)" fill="none" stroke="#001e6c" stroke-linecap="round" stroke-linejoin="round" stroke-width="1"/>
        <path id="Trazado_195046" data-name="Trazado 195046" d="M219.711,100.9s.976-5.861,1.14-6.186,4.07-2.6,4.477-2.36a.99.99,0,0,1,.326,1.465,13.543,13.543,0,0,1-2.2,2.2Z" transform="translate(-84.866 -35.667)" fill="#fff"/>
        <path id="Trazado_195047" data-name="Trazado 195047" d="M219.711,100.9s.976-5.861,1.14-6.186,4.07-2.6,4.477-2.36a.99.99,0,0,1,.326,1.465,13.543,13.543,0,0,1-2.2,2.2Z" transform="translate(-84.866 -35.667)" fill="none" stroke="#001e6c" stroke-linecap="round" stroke-linejoin="round" stroke-width="1"/>
        <path id="Trazado_195048" data-name="Trazado 195048" d="M220.024,110.884l-.312-9.56,2.767-3.338s4.232-4.558,4.965-4.558a2.424,2.424,0,0,1,1.872.9,9.243,9.243,0,0,1,.244,1.709s3.419,5.78,3.825,6.838-.57,5.616-2.116,7.163a59.609,59.609,0,0,1-6.041,4.548Z" transform="translate(-84.867 -36.088)" fill="#fff"/>
        <path id="Trazado_195049" data-name="Trazado 195049" d="M220.024,110.884l-.312-9.56,2.767-3.338s4.232-4.558,4.965-4.558a2.424,2.424,0,0,1,1.872.9,9.243,9.243,0,0,1,.244,1.709s3.419,5.78,3.825,6.838-.57,5.616-2.116,7.163a59.609,59.609,0,0,1-6.041,4.548Z" transform="translate(-84.867 -36.088)" fill="none" stroke="#001e6c" stroke-linecap="round" stroke-linejoin="round" stroke-width="1"/>
        <path id="Trazado_195050" data-name="Trazado 195050" d="M224.445,94.491l-8.906,1.53a1.026,1.026,0,1,0,.388,2.016L222,96.689Z" transform="translate(-82.925 -36.498)" fill="#fff"/>
        <path id="Trazado_195051" data-name="Trazado 195051" d="M224.445,94.491l-8.906,1.53a1.026,1.026,0,1,0,.388,2.016L222,96.689Z" transform="translate(-82.925 -36.498)" fill="none" stroke="#001e6c" stroke-linecap="round" stroke-linejoin="round" stroke-width="1"/>
        <path id="Trazado_195052" data-name="Trazado 195052" d="M87.018,70.969,80.9,63.163v-7.5A5.1,5.1,0,0,0,75.8,50.559H49.052a5.1,5.1,0,0,0-5.105,5.105v12.9a5.1,5.1,0,0,0,5.105,5.105H75.8A5.1,5.1,0,0,0,80.9,68.564v-.419Z" transform="translate(-16.975 -19.529)" fill="#fff"/>
        <path id="Trazado_195053" data-name="Trazado 195053" d="M87.018,70.969,80.9,63.163v-7.5A5.1,5.1,0,0,0,75.8,50.559H49.052a5.1,5.1,0,0,0-5.105,5.105v12.9a5.1,5.1,0,0,0,5.105,5.105H75.8A5.1,5.1,0,0,0,80.9,68.564v-.419Z" transform="translate(-16.975 -19.529)" fill="none" stroke="#001e6c" stroke-linecap="round" stroke-linejoin="round" stroke-width="1"/>
        <path id="Trazado_195054" data-name="Trazado 195054" d="M61.806,68.289a1.67,1.67,0,1,1-1.67-1.67,1.67,1.67,0,0,1,1.67,1.67" transform="translate(-22.583 -25.732)" fill="#ffaa4c"/>
        <circle id="Elipse_1311" data-name="Elipse 1311" cx="1.67" cy="1.67" r="1.67" transform="translate(35.883 40.887)" fill="none" stroke="#001e6c" stroke-linecap="round" stroke-linejoin="round" stroke-width="1"/>
        <path id="Trazado_195055" data-name="Trazado 195055" d="M74.578,68.289a1.67,1.67,0,1,1-1.67-1.67,1.67,1.67,0,0,1,1.67,1.67" transform="translate(-27.517 -25.732)" fill="#ffaa4c"/>
        <circle id="Elipse_1312" data-name="Elipse 1312" cx="1.67" cy="1.67" r="1.67" transform="translate(43.721 40.887)" fill="none" stroke="#001e6c" stroke-linecap="round" stroke-linejoin="round" stroke-width="1"/>
        <path id="Trazado_195056" data-name="Trazado 195056" d="M87.349,68.289a1.67,1.67,0,1,1-1.67-1.67,1.67,1.67,0,0,1,1.67,1.67" transform="translate(-32.45 -25.732)" fill="#ffaa4c"/>
        <circle id="Elipse_1313" data-name="Elipse 1313" cx="1.67" cy="1.67" r="1.67" transform="translate(51.559 40.887)" fill="none" stroke="#001e6c" stroke-linecap="round" stroke-linejoin="round" stroke-width="1"/>
      </g>
    </g>
  </g>
</svg>
