<svg xmlns="http://www.w3.org/2000/svg" width="252" height="209" viewBox="0 0 252 209">
  <g id="Grupo_146478" data-name="Grupo 146478" transform="translate(9205 12136)">
    <g id="Right" transform="translate(-9205.5 -12136)">
      <rect id="BG" width="252" height="209" transform="translate(0.5)" fill="#fff" opacity="0.949"/>
    </g>
    <g id="multa" transform="translate(-9172.699 -12107.438)">
      <g id="Grupo_146376" data-name="Grupo 146376" transform="translate(27.476 2.225)">
        <path id="Trazado_195522" data-name="Trazado 195522" d="M143.991,202.785l-4.334-2.5-21.137,36.611,4.334,5Z" transform="translate(-93.077 -143.098)" fill="#fff0d6"/>
        <path id="Trazado_195523" data-name="Trazado 195523" d="M47.5,363.627l15.02-37.42-4.334-2.5S36.4,353.663,33.94,357.919a8.887,8.887,0,0,0-.363,8.2C41.465,371.4,45.856,367.735,47.5,363.627Z" transform="translate(-32.748 -229.909)" fill="#ef9f14"/>
        <path id="Trazado_195524" data-name="Trazado 195524" d="M158.6,211.221l-4.334-2.5L133.131,245.33v2.5h4.334Z" transform="translate(-103.354 -149.032)" fill="#ef9f14"/>
        <path id="Trazado_195525" data-name="Trazado 195525" d="M64.493,332.141l-18.1,36.032a8.637,8.637,0,0,1-10.848,3.877,8.9,8.9,0,0,0,15.776.7c2.457-4.256,17.505-38.108,17.505-38.108Z" transform="translate(-34.716 -235.843)" fill="#79dae1"/>
        <path id="Trazado_195526" data-name="Trazado 195526" d="M189.254,148.22l6.758-17.02L181.3,122.706l-10.546,18.267a3.812,3.812,0,0,0-.462,1.408l9.935,7.52c2.386,1.378,7.5.97,9.028-1.68Z" transform="translate(-129.492 -88.533)" fill="#ef9f14"/>
        <path id="Trazado_195527" data-name="Trazado 195527" d="M195.908,151.34l-9.32,16.143a3.941,3.941,0,0,1-5.53,1.314l-10.87-6.276a8.327,8.327,0,0,0,3.52,7.251l8.668,5c2.386,1.377,7.5.97,9.028-1.681l10.546-18.267Z" transform="translate(-129.388 -108.673)" fill="#fff0d6"/>
        <path id="Trazado_195528" data-name="Trazado 195528" d="M133.84,61.743c5.488,3.168,9.933,10.868,15.421,14.036L181.692,49.27l-12.844-7.416c-5.488-3.168-14.378-3.168-19.866-6.337s-9.933-10.868-15.421-14.036l-12.844-7.416A14.5,14.5,0,0,0,113.905,14C107.3,15.769,94.484,37.96,96.255,44.57a14.493,14.493,0,0,0,3.464,5.865l14.255,4.972c5.488,3.168,14.378,3.168,19.866,6.337Z" transform="translate(-77.3 -11.801)" fill="#ef9f14"/>
        <path id="Trazado_195529" data-name="Trazado 195529" d="M193.765,139.682a14.493,14.493,0,0,0-3.464-5.865l-30.9,23.855c-5.488-3.168-9.933-10.868-15.421-14.036s-14.378-3.168-19.866-6.337l-15.787-2.318,12.844,7.416c5.488,3.168,14.378,3.168,19.866,6.337s9.933,10.868,15.421,14.036l12.845,7.416a14.5,14.5,0,0,0,6.811.068C182.724,168.482,195.536,146.291,193.765,139.682Z" transform="translate(-85.908 -96.348)" fill="#fff0d6"/>
        <path id="Trazado_195530" data-name="Trazado 195530" d="M118.616,51.445l20.33-41.261L135.4,8.138a4.37,4.37,0,0,0-6.078,1.629l-21,36.368,7.249,6.124a2.224,2.224,0,0,0,3.039-.814Z" transform="translate(-85.908 -7.502)" fill="#fff0d6"/>
        <path id="Trazado_195531" data-name="Trazado 195531" d="M139.126,17.463l-1.6-.921-22.11,38.295a2.225,2.225,0,0,1-3.039.814l-5.469-3.157a4.449,4.449,0,0,0,1.629,6.078l5.138,2.966a4.449,4.449,0,0,0,6.078-1.629l21-36.368a4.369,4.369,0,0,0-1.628-6.078Z" transform="translate(-84.493 -13.861)" fill="#fff0d6"/>
        <path id="Trazado_195532" data-name="Trazado 195532" d="M280.874,145.125l20.33-41.261-3.542-2.045a4.37,4.37,0,0,0-6.078,1.629l-21,36.368,7.249,6.124A2.224,2.224,0,0,0,280.874,145.125Z" transform="translate(-200.035 -73.394)" fill="#fff0d6"/>
        <path id="Trazado_195533" data-name="Trazado 195533" d="M301.384,111.143l-1.6-.921-22.11,38.295a2.225,2.225,0,0,1-3.039.814l-5.469-3.157a4.449,4.449,0,0,0,1.629,6.078l5.138,2.966a4.449,4.449,0,0,0,6.078-1.629l21-36.368a4.369,4.369,0,0,0-1.628-6.078Z" transform="translate(-198.62 -79.752)" fill="#fff0d6"/>
        <path id="Trazado_195534" data-name="Trazado 195534" d="M457.219,326.793l-2.966,39.376c1.409-.594,7.416-4.19,7.416-4.19V326Q459.447,326.437,457.219,326.793Z" transform="translate(-329.221 -231.525)" fill="#d9fcff"/>
        <path id="Trazado_195535" data-name="Trazado 195535" d="M193.057,459.091a128.867,128.867,0,0,1,34.4,2.07,128.868,128.868,0,0,0,34.4,2.069l1.064-5.463-35.469-11.438-35.453,7.622Z" transform="translate(-144.767 -316.159)" fill="#d9fcff"/>
        <path id="Trazado_195536" data-name="Trazado 195536" d="M158.1,363.568a128.979,128.979,0,0,1,31,2.278,128.767,128.767,0,0,0,39.918,1.539l9.835-9.93v-36.41a128.772,128.772,0,0,1-45.3-.791,128.834,128.834,0,0,0-49.753,0v35.978Z" transform="translate(-110.86 -225.776)" fill="#79dae1"/>
        <path id="Trazado_195537" data-name="Trazado 195537" d="M457.219,326.791l-2.966,6.558,2.966,7.178a15.648,15.648,0,0,0,4.449.021V326Q459.447,326.437,457.219,326.791Z" transform="translate(-329.221 -231.525)" fill="#d9fcff"/>
        <path id="Trazado_195538" data-name="Trazado 195538" d="M427.512,329.944a12.389,12.389,0,0,0,10.9,12.455V328.663q-5.437.872-10.9,1.281Z" transform="translate(-310.412 -233.396)" fill="#80b6fc"/>
        <path id="Trazado_195539" data-name="Trazado 195539" d="M159.15,476.055a12.806,12.806,0,0,0-1.047-5.14c-6.665-1.149-11.49,0-14.3,1.486v5.724A129.868,129.868,0,0,1,159.15,476.055Z" transform="translate(-110.86 -333.123)" fill="#79dae1"/>
        <path id="Trazado_195540" data-name="Trazado 195540" d="M143.8,446.938v8.823a129.334,129.334,0,0,1,14.3-1.486C155.871,449.154,150.312,446.06,143.8,446.938Z" transform="translate(-110.86 -316.483)" fill="#79dae1"/>
        <path id="Trazado_195541" data-name="Trazado 195541" d="M428.577,458.444a14.929,14.929,0,0,0-1.064,5.463,129.865,129.865,0,0,0,15.348-2.069V447.291a17.468,17.468,0,0,0-4.449,1.223Z" transform="translate(-310.413 -316.835)" fill="#d9fcff"/>
        <path id="Trazado_195542" data-name="Trazado 195542" d="M431.1,461.345q4-.471,8-1.192a2.231,2.231,0,0,0,1.839-2.192v-6.545A18.251,18.251,0,0,0,431.1,461.345Z" transform="translate(-312.935 -319.737)" fill="#79dae1"/>
        <path id="Trazado_195543" data-name="Trazado 195543" d="M201.96,288.7a128.854,128.854,0,0,1-34.4-2.07,128.868,128.868,0,0,0-34.4-2.069L117.8,301.174v21.431l13.977,9.619a128.833,128.833,0,0,1,35.776,1.961,128.83,128.83,0,0,0,35.706,1.967l11.081-11.619V300.847Z" transform="translate(-92.572 -202.125)" fill="#d9fcff"/>
        <g id="Grupo_146375" data-name="Grupo 146375" transform="translate(25.23 82.433)">
          <path id="Trazado_195544" data-name="Trazado 195544" d="M433.253,340.309V364l5.933-1.928V340.636Z" transform="translate(-339.68 -324.02)" fill="#79dae1"/>
          <path id="Trazado_195545" data-name="Trazado 195545" d="M166.29,440.816a128.866,128.866,0,0,1,34.4,2.07,128.867,128.867,0,0,0,34.4,2.069l1.3-6.035a128.83,128.83,0,0,1-35.706-1.967,128.832,128.832,0,0,0-35.776-1.961Z" transform="translate(-150.943 -390.291)" fill="#79dae1"/>
          <path id="Trazado_195546" data-name="Trazado 195546" d="M133.15,285.4a129.929,129.929,0,0,0-15.348,2.069v14.547c8.476-1.143,15.347-8.582,15.348-16.616Z" transform="translate(-117.802 -285.397)" fill="#79dae1"/>
          <path id="Trazado_195547" data-name="Trazado 195547" d="M117.8,413.31v8.614l13.977-1.961C129.365,415.254,124.017,412.472,117.8,413.31Z" transform="translate(-117.802 -375.263)" fill="#79dae1"/>
        </g>
        <path id="Trazado_195548" data-name="Trazado 195548" d="M133.149,441.914a12.683,12.683,0,0,0-1.371-5.823,129.985,129.985,0,0,0-13.977,1.961v5.933A129.823,129.823,0,0,1,133.149,441.914Z" transform="translate(-92.571 -308.958)" fill="#79dae1"/>
        <path id="Trazado_195549" data-name="Trazado 195549" d="M405.9,428.814h11.037l-2.922-8.653A18.26,18.26,0,0,0,405.9,428.814Z" transform="translate(-295.209 -297.753)" fill="#79dae1"/>
        <path id="Trazado_195550" data-name="Trazado 195550" d="M410.927,415.59v5.771a2.229,2.229,0,0,1-1.939,2.208q-3.084.412-6.176.674a15.049,15.049,0,0,0-1.3,6.035,129.928,129.928,0,0,0,15.348-2.069V413.662A17.662,17.662,0,0,0,410.927,415.59Z" transform="translate(-292.124 -293.182)" fill="#79dae1"/>
        <path id="Trazado_195551" data-name="Trazado 195551" d="M401.512,296.862a12.311,12.311,0,0,0,9.415,12.15l2.966-6.872-2.966-6.327Q406.229,296.511,401.512,296.862Z" transform="translate(-292.125 -210.291)" fill="#d9fcff"/>
        <path id="Trazado_195552" data-name="Trazado 195552" d="M433.253,293.393v13.2a15.27,15.27,0,0,0,5.933.327V292.373Q436.224,292.954,433.253,293.393Z" transform="translate(-314.45 -207.871)" fill="#79dae1"/>
        <ellipse id="Elipse_1356" data-name="Elipse 1356" cx="11.841" cy="21.653" rx="11.841" ry="21.653" transform="translate(52.512 119.909) rotate(-85.469)" fill="#d9fcff"/>
      </g>
      <g id="Grupo_146377" data-name="Grupo 146377" transform="translate(25.252 -0.001)">
        <path id="Trazado_195553" data-name="Trazado 195553" d="M228.432,358.039q1.367.091,2.713.09c7.44,0,14.217-2.049,18.116-5.564a10.012,10.012,0,0,0,3.585-7.07c.292-7.85-9.914-14.691-23.236-15.575a39.386,39.386,0,0,0-8.827.377,2.225,2.225,0,0,0,.705,4.393,34.975,34.975,0,0,1,7.828-.331,30.885,30.885,0,0,1,14.11,4.145c3.247,2.036,5.06,4.524,4.974,6.824a5.619,5.619,0,0,1-2.117,3.931c-3.507,3.162-10.234,4.825-17.555,4.339a30.884,30.884,0,0,1-14.11-4.145c-3.246-2.036-5.059-4.523-4.974-6.824.092-2.472,2.234-4.251,4.014-5.308a2.225,2.225,0,0,0-2.272-3.826c-3.861,2.292-6.059,5.477-6.189,8.968-.292,7.85,9.914,14.691,23.236,15.574Z" transform="translate(-151.814 -231.99)" fill="#104469"/>
        <path id="Trazado_195554" data-name="Trazado 195554" d="M161.337,94.984a2.227,2.227,0,0,0-1.842-.465c-1.674.328-3.368.622-5.06.884V86.727a2.224,2.224,0,0,0-2.652-2.183,126.531,126.531,0,0,1-48.9,0,131.287,131.287,0,0,0-27.8-2.441l6.376-11.044a10.8,10.8,0,0,0,2.431.269,11.907,11.907,0,0,0,1.736-.128,7.7,7.7,0,0,0,5.8-3.444l.615-1.071a29.4,29.4,0,0,0,3.305,2.86,6.664,6.664,0,0,0,3.2,7.107l5.137,2.966a6.629,6.629,0,0,0,3.326.893,6.7,6.7,0,0,0,4.77-2,18.142,18.142,0,0,0,2.8.222,14.312,14.312,0,0,0,3.687-.457c5.425-1.454,11.566-11.472,13.319-14.508s7.359-13.363,5.9-18.788a16.083,16.083,0,0,0-3.033-5.726,6.727,6.727,0,0,0,.013-3.647,6.458,6.458,0,0,0-3.132-3.934l-5.094-2.941a6.45,6.45,0,0,0-4.973-.745,6.7,6.7,0,0,0-2.809,1.512,47.251,47.251,0,0,0-8.886-2.566c-3.369-.742-6.853-1.51-9.3-2.922s-4.853-4.046-7.18-6.592a47.288,47.288,0,0,0-6.662-6.41,6.7,6.7,0,0,0-.1-3.191A6.457,6.457,0,0,0,83.2,3.887L78.1.947A6.457,6.457,0,0,0,73.132.2,6.726,6.726,0,0,0,69.99,2.037a16.109,16.109,0,0,0-6.486.235C58.079,3.726,51.938,13.745,50.186,16.78s-7.359,13.363-5.9,18.788A16.091,16.091,0,0,0,47.32,41.3a6.659,6.659,0,0,0,3.09,7.56l5.138,2.966a6.633,6.633,0,0,0,3.326.893A6.708,6.708,0,0,0,63.3,51.048a29.4,29.4,0,0,0,4.122,1.43l-.617,1.075a7.7,7.7,0,0,0-.081,6.738,11.358,11.358,0,0,0,2.206,3.538L57.5,83.629q-2.616.405-5.226.915a2.225,2.225,0,0,0-1.8,2.183V95.59c-4.241,5.839-21.49,29.635-23.739,33.532a11.124,11.124,0,1,0,19.267,11.124c.648-1.123,2.148-4.221,4.472-9.238v6.244a2.224,2.224,0,0,0,2.652,2.183q2.526-.5,5.06-.885v8.677a2.224,2.224,0,0,0,2.652,2.183,126.513,126.513,0,0,1,48.9,0,130.989,130.989,0,0,0,50.609,0,2.225,2.225,0,0,0,1.8-2.183V96.7a2.221,2.221,0,0,0-.81-1.718Zm-22,41.894a15.68,15.68,0,0,1,10.649-11.4v9.931q-5.312.963-10.649,1.471Zm15.1-23.579a17.373,17.373,0,0,0,3.263.32v17.219a19.671,19.671,0,0,0-3.263,1.087ZM157.7,99.377v9.788a12.612,12.612,0,0,1-3.263-.433V99.9C155.524,99.739,156.613,99.567,157.7,99.377Zm-7.712-.179a11.25,11.25,0,0,1-7.5-2.679,9.866,9.866,0,0,1-3.211-5.689q5.365-.493,10.711-1.427ZM102.03,88.91a131.07,131.07,0,0,0,32.785,2.252,14.277,14.277,0,0,0,4.743,8.706,15.874,15.874,0,0,0,10.428,3.773v17.224c-7.907,1.908-14.214,8.715-15.207,16.365a126.631,126.631,0,0,1-31.894-2.162,131.444,131.444,0,0,0-25.3-2.467c-2.494,0-4.988.079-7.48.222a14.279,14.279,0,0,0-4.743-8.712A15.878,15.878,0,0,0,54.93,120.34V103.113C62.837,101.2,69.144,94.4,70.136,86.748A126.618,126.618,0,0,1,102.03,88.91Zm25.693-27.364c-4.3,7.448-8.6,11.893-10.617,12.435a9.95,9.95,0,0,1-2.643.308l17.664-30.6a9.937,9.937,0,0,1,1.056,2.441c.541,2.021-1.161,7.964-5.461,15.412ZM122.36,32.3a2.087,2.087,0,0,1,.511-.065,2.024,2.024,0,0,1,1.069.309l.049.029,5.138,2.966.049.028a2.013,2.013,0,0,1,1,1.246,2.3,2.3,0,0,1-.237,1.765l-21,36.368a2.227,2.227,0,0,1-3.039.815L100.767,72.8a2.225,2.225,0,0,1-.814-3.039l21-36.366v0h0a2.307,2.307,0,0,1,1.41-1.087ZM98.045,27.868a33.5,33.5,0,0,0,9.336,3.141l-5.017,8.741a2.225,2.225,0,1,0,3.859,2.215l5.7-9.923a33.049,33.049,0,0,1,3.973,1.211L97.305,65.446a32.647,32.647,0,0,1-2.97-2.767l7.5-13.074A2.225,2.225,0,1,0,97.98,47.39L91.166,59.263a33.763,33.763,0,0,0-7.448-6.579,33.868,33.868,0,0,0-9.459-3.169L90.513,21.2a34.139,34.139,0,0,0,7.532,6.672ZM57.774,47.976,52.636,45.01a2.224,2.224,0,0,1-.814-3.039l5.692-9.859a2.225,2.225,0,0,0-3.853-2.225l-4.025,6.972a9.936,9.936,0,0,1-1.056-2.441c-.541-2.021,1.16-7.964,5.46-15.412s8.6-11.893,10.617-12.435A9.937,9.937,0,0,1,67.3,6.265L57.975,22.414a2.225,2.225,0,1,0,3.853,2.225L72.819,5.6a2.306,2.306,0,0,1,1.41-1.088,2.012,2.012,0,0,1,1.58.244l.049.029L81,7.754l.05.028a2.013,2.013,0,0,1,1,1.246,2.3,2.3,0,0,1-.237,1.765l-21,36.368a2.227,2.227,0,0,1-3.039.814Zm8.1-.678L84.458,15.106a32.153,32.153,0,0,1,2.883,2.677l-17.618,30.7A32.517,32.517,0,0,1,65.872,47.3Zm6.322,6.316c3.369.742,6.853,1.51,9.3,2.922s4.853,4.046,7.181,6.592l.168.183-1.276,2.223c-.695,1.2-4.212,1.893-5.988.867l-8.669-5c-1.777-1.026-2.938-4.417-2.241-5.625l1.271-2.214.256.056Zm.416,12.748,4.815,2.78-7.6,13.165q-3.38.2-6.754.578ZM65.58,87.1A15.68,15.68,0,0,1,54.93,98.5V88.572Q60.242,87.608,65.58,87.1ZM42.155,138.021a6.674,6.674,0,1,1-11.56-6.674c1.721-2.981,13.489-19.332,19.886-28.174v17.148c-5.759,12.684-7.708,16.63-8.326,17.7Zm12.775-13.24a11.25,11.25,0,0,1,7.5,2.679,9.865,9.865,0,0,1,3.212,5.693q-5.365.493-10.711,1.423Zm7.712,13.159q3.654-.435,7.317-.659a9.787,9.787,0,0,1,3.4,5.843q-5.366.493-10.713,1.427V137.94Zm47.956,7.1a131.087,131.087,0,0,0-32.792-2.252,14.6,14.6,0,0,0-2.157-5.725,126.865,126.865,0,0,1,26.382,2.368,131.443,131.443,0,0,0,25.3,2.468,130.845,130.845,0,0,0,17.3-1.151,17.826,17.826,0,0,0-2.143,6.454,126.608,126.608,0,0,1-31.89-2.162Zm36.458,1.809a14.765,14.765,0,0,1,3.784-7.08q.9-.163,1.8-.338a2.225,2.225,0,0,0,1.8-2.183v-.338a15.971,15.971,0,0,1,3.263-1.458v9.927Q152.391,146.345,147.057,146.853Z" transform="translate(-25.252 0.001)" fill="#104469"/>
      </g>
    </g>
  </g>
</svg>
