<svg xmlns="http://www.w3.org/2000/svg" xmlns:xlink="http://www.w3.org/1999/xlink" width="341.774" height="272.5" viewBox="0 0 341.774 272.5">
  <defs>
    <clipPath id="clip-path">
      <rect id="Rectángulo_44767" data-name="Rectángulo 44767" width="143" height="272" transform="translate(0 -0.63)" fill="#fff" stroke="#707070" stroke-width="1"/>
    </clipPath>
    <clipPath id="clip-path-2">
      <rect id="Rectángulo_44766" data-name="Rectángulo 44766" width="98.509" height="321.177" fill="none"/>
    </clipPath>
  </defs>
  <g id="Grupo_146252" data-name="Grupo 146252" transform="translate(7451 1762)">
    <path id="Trazado_195257" data-name="Trazado 195257" d="M35.712,78c9.812-5.507,20.5-9.866,30.145-14.942,16.556-8.712,32.873-17.943,48.6-28.073C135.5,21.438,156.666,10.87,181.576,6.6a165.523,165.523,0,0,1,83.322,7q.363.129.726.262c21.024,7.66,40.329,20.654,53.93,38.576,15.822,20.848,23.057,46.387,22.143,72.382-.233,6.64-.814,13.266-1.575,19.865-8.014,69.449-98.386,76.127-135.782,73.9S92.089,192.948,72.122,195.436C50.494,198.13,26.654,190.5,12.385,173.6c-17.036-20.179-15.283-51.139-2.118-72.87C16.417,90.573,25.6,83.678,35.712,78" transform="translate(-7451 -1722.56)" fill="#c9dae6"/>
    <g id="pasivo" transform="translate(-7243.882 -1722.557)">
      <path id="Trazado_195218" data-name="Trazado 195218" d="M48.706,38.852S67.635,49.189,68.673,71.16A22.634,22.634,0,0,1,53.21,93.866a44.665,44.665,0,0,1-13.781,2.046,44.664,44.664,0,0,1-13.78-2.046A22.633,22.633,0,0,1,10.185,71.16c1.038-21.972,19.967-32.308,19.967-32.308Z" transform="translate(-0.544 -10.673)" fill="#79dae1"/>
      <path id="Trazado_195219" data-name="Trazado 195219" d="M55.1,23.488l5.846-13.119S55.77,6.305,45.825,6.305,30.7,10.369,30.7,10.369l5.846,13.119Z" transform="translate(-6.94 -0.544)" fill="#d9fcff"/>
      <circle id="Elipse_1324" data-name="Elipse 1324" cx="16.668" cy="16.668" r="16.668" transform="translate(15.307 56.706) rotate(-45)" fill="#ef9f14"/>
      <path id="Trazado_195220" data-name="Trazado 195220" d="M47.492,63.672A11.434,11.434,0,1,0,58.926,75.106,11.434,11.434,0,0,0,47.492,63.672Z" transform="translate(-8.606 -18.398)" fill="#ef9f14"/>
      <path id="Trazado_195221" data-name="Trazado 195221" d="M39.191,31.252H57.743v5.235H39.191Z" transform="translate(-9.581 -8.308)" fill="#ef9f14"/>
      <g id="Grupo_146249" data-name="Grupo 146249" transform="translate(8.404 4.557)">
        <path id="Trazado_195222" data-name="Trazado 195222" d="M46.236,79.594l-1.407,1.739a8.012,8.012,0,0,0,4.553,2.09v1.309H51.16v-1.25c2.833-.195,4.455-1.836,4.455-4.083,0-2.384-1.778-3.3-4.455-3.907V71.819a6.382,6.382,0,0,1,2.774,1.465l1.329-1.8a7.267,7.267,0,0,0-4.1-1.816V68.458H49.382V69.65c-2.4.293-4.025,1.915-4.025,4.025,0,2.305,1.622,3.165,4.025,3.788v3.81A6.681,6.681,0,0,1,46.236,79.594Zm4.923-1.68c1.387.413,2.013.82,2.013,1.722,0,.86-.683,1.6-2.013,1.758ZM47.818,73.46a1.845,1.845,0,0,1,1.564-1.681v3.243C48.327,74.652,47.818,74.241,47.818,73.46Z" transform="translate(-19.74 -24.444)" fill="#104469"/>
        <path id="Trazado_195223" data-name="Trazado 195223" d="M44.583,90.07A17.874,17.874,0,1,0,26.71,72.2,17.874,17.874,0,0,0,44.583,90.07Zm0-33.337A15.463,15.463,0,1,1,29.121,72.2,15.463,15.463,0,0,1,44.583,56.733Z" transform="translate(-14.101 -20.045)" fill="#104469"/>
        <path id="Trazado_195224" data-name="Trazado 195224" d="M46.947,87.2a12.64,12.64,0,1,0-12.639-12.64A12.64,12.64,0,0,0,46.947,87.2Zm0-22.868A10.229,10.229,0,1,1,36.719,74.562,10.229,10.229,0,0,1,46.947,64.333Z" transform="translate(-16.466 -22.41)" fill="#104469"/>
        <path id="Trazado_195225" data-name="Trazado 195225" d="M18.527,56.711a1.206,1.206,0,0,0,1.677-.323c.523-.77,1.084-1.539,1.668-2.282a1.205,1.205,0,1,0-1.9-1.489c-.62.788-1.213,1.6-1.767,2.418a1.205,1.205,0,0,0,.318,1.676Z" transform="translate(-11.39 -19.371)" fill="#104469"/>
        <path id="Trazado_195226" data-name="Trazado 195226" d="M63.957,93.246a1.2,1.2,0,0,0-1.693.2,20.846,20.846,0,0,1-9.967,6.933,43.691,43.691,0,0,1-13.411,1.987,43.683,43.683,0,0,1-13.411-1.987,21.443,21.443,0,0,1-14.628-21.5,36.22,36.22,0,0,1,3.369-13.7,1.205,1.205,0,1,0-2.184-1.021A38.614,38.614,0,0,0,8.439,78.761a23.859,23.859,0,0,0,16.3,23.91,46.1,46.1,0,0,0,14.15,2.1,46.117,46.117,0,0,0,14.149-2.1,23.252,23.252,0,0,0,11.117-7.732A1.206,1.206,0,0,0,63.957,93.246Z" transform="translate(-8.404 -22.888)" fill="#104469"/>
        <path id="Trazado_195227" data-name="Trazado 195227" d="M55.106,27.5V23.2l5.742-12.885a1.205,1.205,0,0,0-.357-1.439c-.225-.176-5.624-4.319-15.867-4.319S28.982,8.7,28.758,8.876a1.205,1.205,0,0,0-.357,1.439L34.143,23.2v4.288a42.924,42.924,0,0,0-6.924,5.391,1.206,1.206,0,1,0,1.661,1.75,40.036,40.036,0,0,1,6.791-5.247H53.58c2.2,1.309,18.157,11.467,19.087,31.16a22.041,22.041,0,0,1-1.643,9.423,1.205,1.205,0,1,0,2.227.922A24.47,24.47,0,0,0,75.072,60.43c-.949-20.1-16.63-30.868-19.966-32.935ZM44.624,6.968a26.7,26.7,0,0,1,13.606,3.3L53.118,21.737H36.131L31.015,10.264C32.737,9.227,37.33,6.968,44.624,6.968Zm8.071,20H36.553V24.148H52.7Z" transform="translate(-14.143 -4.557)" fill="#104469"/>
      </g>
    </g>
    <g id="Enmascarar_grupo_143960" data-name="Enmascarar grupo 143960" transform="translate(-7343 -1761.371)" clip-path="url(#clip-path)">
      <g id="Grupo_146251" data-name="Grupo 146251" transform="translate(25.14 11.629)">
        <g id="Grupo_146250" data-name="Grupo 146250" clip-path="url(#clip-path-2)">
          <path id="Trazado_195228" data-name="Trazado 195228" d="M19.27,349.528s2.346,6.255,2.971,7.038,7.664,4.536,9.541,5.943,0,2.346-3.6,2.5-14.858-.625-16.108-1.251S7.7,357.973,6.6,356.722l-1.094-1.251.781,7.976-3.127-.469S.816,353.281.5,351.092s18.767-1.564,18.767-1.564" transform="translate(65.552 -44.698)" fill="#001e6c"/>
          <path id="Trazado_195229" data-name="Trazado 195229" d="M19.27,349.528s2.346,6.255,2.971,7.038,7.664,4.536,9.541,5.943,0,2.346-3.6,2.5-14.858-.625-16.108-1.251S7.7,357.973,6.6,356.722l-1.094-1.251.781,7.976-3.127-.469S.816,353.281.5,351.092,19.27,349.528,19.27,349.528Z" transform="translate(65.552 -44.698)" fill="none" stroke="#001e6c" stroke-linecap="round" stroke-linejoin="round" stroke-width="1"/>
          <path id="Trazado_195230" data-name="Trazado 195230" d="M78.445,350.792s2.19,3.91,3.6,5.943,9.384,7.663,8.445,8.288-10.479.626-14.389.313a11.471,11.471,0,0,1-6.569-2.971l-5.161-5,.469,7.038h-3.91s-2.972-10.791-2.815-12.981,20.331-.625,20.331-.625" transform="translate(-42.731 -44.801)" fill="#001e6c"/>
          <path id="Trazado_195231" data-name="Trazado 195231" d="M78.445,350.792s2.19,3.91,3.6,5.943,9.384,7.663,8.445,8.288-10.479.626-14.389.313a11.471,11.471,0,0,1-6.569-2.971l-5.161-5,.469,7.038h-3.91s-2.972-10.791-2.815-12.981S78.445,350.792,78.445,350.792Z" transform="translate(-42.731 -44.801)" fill="none" stroke="#001e6c" stroke-linecap="round" stroke-linejoin="round" stroke-width="1"/>
          <path id="Trazado_195232" data-name="Trazado 195232" d="M65.829,199.735l2.095,6.051s14.662,39.565,15.36,45.616S91.9,330.939,91.9,330.939s-4.19,2.56-11.4,2.793a76.275,76.275,0,0,1-13.033-.7s-5.353-34.386-5.353-53.936-.233-26.764-.233-26.764l-13.033-24.2s-1.4,33.747-4.189,48.642-4.19,43.754-4.19,43.754l2.095,12.335a111.784,111.784,0,0,1-15.128,1.163c-7.68,0-10.473-1.163-10.473-1.163S12.532,331,15.326,310.284s7.448-47.943,7.448-52.133S13,201.131,13,201.131s34.678-2.328,39.332-3.957a106.16,106.16,0,0,1,11.87-3.025Z" transform="translate(-4.722 -24.834)" fill="#104469"/>
          <path id="Trazado_195233" data-name="Trazado 195233" d="M65.829,199.735l2.095,6.051s14.662,39.565,15.36,45.616S91.9,330.939,91.9,330.939s-4.19,2.56-11.4,2.793a76.275,76.275,0,0,1-13.033-.7s-5.353-34.386-5.353-53.936-.233-26.764-.233-26.764l-13.033-24.2s-1.4,33.747-4.189,48.642-4.19,43.754-4.19,43.754l2.095,12.335a111.784,111.784,0,0,1-15.128,1.163c-7.68,0-10.473-1.163-10.473-1.163S12.532,331,15.326,310.284s7.448-47.943,7.448-52.133S13,201.131,13,201.131s34.678-2.328,39.332-3.957a106.16,106.16,0,0,1,11.87-3.025Z" transform="translate(-4.722 -24.834)" fill="none" stroke="#001e6c" stroke-linecap="round" stroke-linejoin="round" stroke-width="1"/>
          <line id="Línea_207" data-name="Línea 207" y1="13.266" x2="3.258" transform="translate(44.35 187.468)" fill="#fff"/>
          <line id="Línea_208" data-name="Línea 208" y1="13.266" x2="3.258" transform="translate(44.35 187.468)" fill="none" stroke="#256c72" stroke-linecap="round" stroke-linejoin="round" stroke-width="1"/>
          <path id="Trazado_195234" data-name="Trazado 195234" d="M76.675,81.367S89.129,88.915,92.336,93.82s10.944,17.549,10.378,23.21-4.529,16.605-4.529,16.605L95.819,152.5,99.7,186.26l-5.471,5.284-3.774-6.982-2.642,8.114a114.186,114.186,0,0,1-29.436,1.132c-16.039-1.51-21.511-7.736-21.511-7.736l17.171-55.833S43.653,96.463,43.465,90.99,57.428,75.517,57.428,75.517s15.473,2.265,19.247,5.85" transform="translate(-36.38 -9.659)" fill="#79dae1"/>
          <path id="Trazado_195235" data-name="Trazado 195235" d="M76.675,81.367S89.129,88.915,92.336,93.82s10.944,17.549,10.378,23.21-4.529,16.605-4.529,16.605L95.819,152.5,99.7,186.26l-5.471,5.284-3.774-6.982-2.642,8.114a114.186,114.186,0,0,1-29.436,1.132c-16.039-1.51-21.511-7.736-21.511-7.736l17.171-55.833S43.653,96.463,43.465,90.99,57.428,75.517,57.428,75.517,72.9,77.782,76.675,81.367Z" transform="translate(-36.38 -9.659)" fill="none" stroke="#104469" stroke-linecap="round" stroke-linejoin="round" stroke-width="1"/>
          <path id="Trazado_195236" data-name="Trazado 195236" d="M64.924,83.065s8.868,5.661,11.511,11.7,6.6,20.379,6.6,20.379S59.263,94.952,54.356,88.537,43.6,75.517,43.6,75.517s15.473,3.963,21.323,7.548" transform="translate(-22.553 -9.659)" fill="#d9fcff"/>
          <path id="Trazado_195237" data-name="Trazado 195237" d="M64.924,83.065s8.868,5.661,11.511,11.7,6.6,20.379,6.6,20.379S59.263,94.952,54.356,88.537,43.6,75.517,43.6,75.517,59.074,79.48,64.924,83.065Z" transform="translate(-22.553 -9.659)" fill="none" stroke="#104469" stroke-linecap="round" stroke-linejoin="round" stroke-width="1"/>
          <path id="Trazado_195238" data-name="Trazado 195238" d="M60.39,78.547l9.435,5.472-1.887,7.17-9.624-6.038Z" transform="translate(-22.171 -10.047)" fill="#79dae1"/>
          <path id="Trazado_195239" data-name="Trazado 195239" d="M60.39,78.547l9.435,5.472-1.887,7.17-9.624-6.038Z" transform="translate(-22.171 -10.047)" fill="none" stroke="#104469" stroke-linecap="round" stroke-linejoin="round" stroke-width="1"/>
          <ellipse id="Elipse_1325" data-name="Elipse 1325" cx="4.456" cy="5.149" rx="4.456" ry="5.149" transform="translate(50.15 30.343)" fill="none" stroke="#104469" stroke-linecap="round" stroke-linejoin="round" stroke-width="1"/>
          <path id="Trazado_195240" data-name="Trazado 195240" d="M73.719,22.467s3.564,6.93,3.366,9.9-.99,5.347,0,6.733,5.347,3.168,4.158,5.346a13.577,13.577,0,0,1-3.96,3.961S76.1,57.913,74.709,59.7s-9.109,0-9.109,0L62.63,76.527,46.59,65.636l7.128-44.95s14.852-4.951,20,1.782" transform="translate(-23.569 -2.422)" fill="#fff"/>
          <path id="Trazado_195241" data-name="Trazado 195241" d="M73.719,22.467s3.564,6.93,3.366,9.9-.99,5.347,0,6.733,5.347,3.168,4.158,5.346a13.577,13.577,0,0,1-3.96,3.961S76.1,57.913,74.709,59.7s-9.109,0-9.109,0L62.63,76.527,46.59,65.636l7.128-44.95S68.57,15.735,73.719,22.467Z" transform="translate(-23.569 -2.422)" fill="none" stroke="#104469" stroke-linecap="round" stroke-linejoin="round" stroke-width="1"/>
          <path id="Trazado_195242" data-name="Trazado 195242" d="M84.883,4.07s6.93-7.326,14.456-.99S103.5,16.743,101.12,19.12a27.719,27.719,0,0,1-6.733,4.356A21.084,21.084,0,0,1,92.209,31.6c-1.98,3.564-5.545,11.089-5.545,11.089S93,50.407,92.8,55.16s-4.357,11.881-14.06,10.891S67.061,60.9,67.061,60.9a14.135,14.135,0,0,1-9.307,3.564c-5.347-.2-11.485-7.525-11.683-12.871s2.376-8.317,6.139-9.9,6.139-1.98,5.545-4.95-5.941-12.475-3.762-20S63.1,2.685,69.833,2.09,83.1,2.685,84.883,4.07" transform="translate(-45.624 -0.064)" fill="#104469"/>
          <path id="Trazado_195243" data-name="Trazado 195243" d="M84.883,4.07s6.93-7.326,14.456-.99S103.5,16.743,101.12,19.12a27.719,27.719,0,0,1-6.733,4.356A21.084,21.084,0,0,1,92.209,31.6c-1.98,3.564-5.545,11.089-5.545,11.089S93,50.407,92.8,55.16s-4.357,11.881-14.06,10.891S67.061,60.9,67.061,60.9a14.135,14.135,0,0,1-9.307,3.564c-5.347-.2-11.485-7.525-11.683-12.871s2.376-8.317,6.139-9.9,6.139-1.98,5.545-4.95-5.941-12.475-3.762-20S63.1,2.685,69.833,2.09,83.1,2.685,84.883,4.07Z" transform="translate(-45.624 -0.064)" fill="none" stroke="#104469" stroke-linecap="round" stroke-linejoin="round" stroke-width="1"/>
          <line id="Línea_209" data-name="Línea 209" x1="14.459" y2="0.496" transform="translate(44.602 35.492)" fill="none" stroke="#001e6c" stroke-linecap="round" stroke-linejoin="round" stroke-width="1"/>
          <path id="Trazado_195244" data-name="Trazado 195244" d="M65.481,72.487l20.1,12.078-2.076,8.3-20-17.737Z" transform="translate(-42.46 -9.272)" fill="#d9fcff"/>
          <path id="Trazado_195245" data-name="Trazado 195245" d="M65.481,72.487l20.1,12.078-2.076,8.3-20-17.737Z" transform="translate(-42.46 -9.272)" fill="none" stroke="#104469" stroke-linecap="round" stroke-linejoin="round" stroke-width="1"/>
          <path id="Trazado_195246" data-name="Trazado 195246" d="M67.747,99.374l10.378,35.475L97,132.584s2.076,4.529,2.076,7.171v3.962a133.922,133.922,0,0,1-12.832,7.548c-7.925,4.151-13.775,5.661-14.529,5.661s-4.151-3.208-4.151-3.208a190.218,190.218,0,0,1-13.4-25.474C48.312,114.47,41.518,96.167,43.217,91.26s11.51-7.736,11.51-7.736" transform="translate(-38.02 -10.684)" fill="#79dae1"/>
          <path id="Trazado_195247" data-name="Trazado 195247" d="M67.747,99.374l10.378,35.475L97,132.584s2.076,4.529,2.076,7.171v3.962a133.922,133.922,0,0,1-12.832,7.548c-7.925,4.151-13.775,5.661-14.529,5.661s-4.151-3.208-4.151-3.208a190.218,190.218,0,0,1-13.4-25.474C48.312,114.47,41.518,96.167,43.217,91.26s11.51-7.736,11.51-7.736" transform="translate(-38.02 -10.684)" fill="none" stroke="#104469" stroke-linecap="round" stroke-linejoin="round" stroke-width="1"/>
          <path id="Trazado_195248" data-name="Trazado 195248" d="M61.375,133.431s3.774,4.906,4.151,6.227,1.51.566.378,1.321a21.694,21.694,0,0,1-7.36,2.642,78.206,78.206,0,0,1-8.376.288l-3.018-9.058s9.884-3.118,14.225-1.42" transform="translate(-9.003 -17.003)" fill="#fff"/>
          <path id="Trazado_195249" data-name="Trazado 195249" d="M61.375,133.431s3.774,4.906,4.151,6.227,1.51.566.378,1.321a21.694,21.694,0,0,1-7.36,2.642,78.206,78.206,0,0,1-8.376.288l-3.018-9.058S57.034,131.733,61.375,133.431Z" transform="translate(-9.003 -17.003)" fill="none" stroke="#001e6c" stroke-linecap="round" stroke-linejoin="round" stroke-width="1"/>
          <path id="Trazado_195250" data-name="Trazado 195250" d="M17.011,130.917s2.832,4.22,3.552,7.372,1.531,10.988,1.531,10.988,12.7-2.342,17.563-2.972,7.3-2.972,7.655-5.134,1.892-4.233.27-7.385-8.647-9.818-8.647-9.818l-10.19-10.7S31.1,117.663,31.1,121s-3.677,11.724-3.677,11.724Z" transform="translate(35.36 -14.488)" fill="#79dae1"/>
          <path id="Trazado_195251" data-name="Trazado 195251" d="M17.011,130.917s2.832,4.22,3.552,7.372,1.531,10.988,1.531,10.988,12.7-2.342,17.563-2.972,7.3-2.972,7.655-5.134,1.892-4.233.27-7.385-8.647-9.818-8.647-9.818l-10.19-10.7S31.1,117.663,31.1,121s-3.677,11.724-3.677,11.724Z" transform="translate(35.36 -14.488)" fill="none" stroke="#104469" stroke-linecap="round" stroke-linejoin="round" stroke-width="1"/>
          <line id="Línea_210" data-name="Línea 210" y1="0.3" x2="14.502" transform="translate(62.407 117.856)" fill="none" stroke="#001e6c" stroke-linecap="round" stroke-linejoin="round" stroke-width="1"/>
          <path id="Trazado_195252" data-name="Trazado 195252" d="M36.485,133.911s1.049-3.378,1.23-4.009,1.892-2.882,1.531-3.783-2.342-1.892-3.964-1.621-4.773,3.513-5.4,4.774-1.966,4.878-1.966,4.878Z" transform="translate(34.871 -15.919)" fill="#fff"/>
          <path id="Trazado_195253" data-name="Trazado 195253" d="M36.485,133.911s1.049-3.378,1.23-4.009,1.892-2.882,1.531-3.783-2.342-1.892-3.964-1.621-4.773,3.513-5.4,4.774-1.966,4.878-1.966,4.878Z" transform="translate(34.871 -15.919)" fill="none" stroke="#001e6c" stroke-linecap="round" stroke-linejoin="round" stroke-width="1"/>
          <path id="Trazado_195254" data-name="Trazado 195254" d="M33.4,125.641s-3.513,4.5-4.5,7.115" transform="translate(39.903 -16.071)" fill="none" stroke="#001e6c" stroke-linecap="round" stroke-linejoin="round" stroke-width="1"/>
          <path id="Trazado_195255" data-name="Trazado 195255" d="M35.868,124.918a18.034,18.034,0,0,0-4.593,6.485" transform="translate(35.367 -15.978)" fill="none" stroke="#001e6c" stroke-linecap="round" stroke-linejoin="round" stroke-width="1"/>
          <path id="Trazado_195256" data-name="Trazado 195256" d="M38.61,126.26a29,29,0,0,0-3.513,5.315" transform="translate(29.292 -16.15)" fill="none" stroke="#001e6c" stroke-linecap="round" stroke-linejoin="round" stroke-width="1"/>
        </g>
      </g>
    </g>
    <line id="Línea_211" data-name="Línea 211" x1="181.777" transform="translate(-7337.335 -1490)" fill="none" stroke="#104469" stroke-linejoin="round" stroke-width="1"/>
  </g>
</svg>
