<svg xmlns="http://www.w3.org/2000/svg" xmlns:xlink="http://www.w3.org/1999/xlink" width="341.774" height="279.093" viewBox="0 0 341.774 279.093">
  <defs>
    <clipPath id="clip-path">
      <rect id="Rectángulo_44604" data-name="Rectángulo 44604" width="218.696" height="278.593" fill="none"/>
    </clipPath>
  </defs>
  <g id="Grupo_146254" data-name="Grupo 146254" transform="translate(7451 1271.093)">
    <path id="Trazado_195257" data-name="Trazado 195257" d="M35.712,78c9.812-5.507,20.5-9.866,30.145-14.942,16.556-8.712,32.873-17.943,48.6-28.073C135.5,21.438,156.666,10.87,181.576,6.6a165.523,165.523,0,0,1,83.322,7q.363.129.726.262c21.024,7.66,40.329,20.654,53.93,38.576,15.822,20.848,23.057,46.387,22.143,72.382-.233,6.64-.814,13.266-1.575,19.865-8.014,69.449-98.386,76.127-135.782,73.9S92.089,192.948,72.122,195.436C50.494,198.13,26.654,190.5,12.385,173.6c-17.036-20.179-15.283-51.139-2.118-72.87C16.417,90.573,25.6,83.678,35.712,78" transform="translate(-7451 -1225.06)" fill="#c9dae6"/>
    <line id="Línea_211" data-name="Línea 211" x1="181.777" transform="translate(-7356.299 -992.5)" fill="none" stroke="#104469" stroke-linejoin="round" stroke-width="1"/>
    <g id="Grupo_146253" data-name="Grupo 146253" transform="translate(-7371 -1271.093)">
      <g id="Grupo_146157" data-name="Grupo 146157" transform="translate(0)" clip-path="url(#clip-path)">
        <path id="Trazado_194666" data-name="Trazado 194666" d="M160.132,6.6s12.808,3.449,16.257,11.823.986,10.1.246,9.853-2.463-3.449-2.463-3.449,2.709,7.636-.739,10.839-9.114,7.635-9.114,7.635.739,9.853,3.695,16.011,7.144,13.055,4.926,15.764-4.926-1.231-4.926-1.231-2.463,6.159-11.084,8.375-26.588,5.315-33.978,4.33a25.494,25.494,0,0,1-12.331-5.314s2.217,4.187-1.724,1.724-6.4-5.666-10.345-14.534-6.405-22.907-4.434-33.746S105.7,14.732,112.1,9.559,131.559-.54,143.383.691,160.132,6.6,160.132,6.6" transform="translate(-57.47 0.024)" fill="#104469"/>
        <path id="Trazado_194667" data-name="Trazado 194667" d="M160.132,6.6s12.808,3.449,16.257,11.823.986,10.1.246,9.853-2.463-3.449-2.463-3.449,2.709,7.636-.739,10.839-9.114,7.635-9.114,7.635.739,9.853,3.695,16.011,7.144,13.055,4.926,15.764-4.926-1.231-4.926-1.231-2.463,6.159-11.084,8.375-26.588,5.315-33.978,4.33a25.494,25.494,0,0,1-12.331-5.314s2.217,4.187-1.724,1.724-6.4-5.666-10.345-14.534-6.405-22.907-4.434-33.746S105.7,14.732,112.1,9.559,131.559-.54,143.383.691,160.132,6.6,160.132,6.6Z" transform="translate(-57.47 0.024)" fill="none" stroke="#104469" stroke-linecap="round" stroke-linejoin="round" stroke-width="1"/>
        <path id="Trazado_194668" data-name="Trazado 194668" d="M152.913,98.982l-3.234,40.629,17.084,31.614,7.136-14.533Z" transform="translate(-112.191 4.833)" fill="#79dae1"/>
        <path id="Trazado_194669" data-name="Trazado 194669" d="M152.913,98.982l-3.234,40.629,17.084,31.614,7.136-14.533Z" transform="translate(-112.191 4.833)" fill="none" stroke="#001e6c" stroke-linecap="round" stroke-linejoin="round" stroke-width="1"/>
        <path id="Trazado_194670" data-name="Trazado 194670" d="M149.53,131.467l4.947,31.73,4.265-6.995Z" transform="translate(-96.876 6.419)" fill="#104469"/>
        <path id="Trazado_194671" data-name="Trazado 194671" d="M149.53,131.467l4.947,31.73,4.265-6.995Z" transform="translate(-96.876 6.419)" fill="none" stroke="#104469" stroke-linecap="round" stroke-linejoin="round" stroke-width="1"/>
        <path id="Trazado_194672" data-name="Trazado 194672" d="M172.734,266.948l-3.5-39.187-102.867,4.2-1.749,34.289Z" transform="translate(-21.81 11.12)" fill="#104469"/>
        <path id="Trazado_194673" data-name="Trazado 194673" d="M172.734,266.948l-3.5-39.187-102.867,4.2-1.749,34.289Z" transform="translate(-21.81 11.12)" fill="none" stroke="#001e6c" stroke-linecap="round" stroke-linejoin="round" stroke-width="1"/>
        <path id="Trazado_194674" data-name="Trazado 194674" d="M121.7,19.666s1.6,10.484-.228,12.307-10.94,6.155-10.94,6.155,1.14-11.624,1.14-12.308S105.289,41.546,102.1,43.6s-9.116,7.066-9.116,7.066S92.07,53.4,91.158,53.17,88.2,50.891,88.2,50.891s-6.61-1.824-5.926,3.419,5.242,12.307,7.977,12.763a19.272,19.272,0,0,0,4.786.228s3.647,10.94,4.1,14.586.684,4.331.228,5.7-10.94,6.382-13.219,7.066-20.512,8.2-20.512,8.2l21.652,60.625-22.336,80s33.5,7.75,65.412,4.787,45.127-9.8,45.127-9.8l-27.121-76.809,9.8-65.867-36.01-6.61-.684-8.2s8.889-2.507,11.852-8.889c3.072-6.618.228-18.233,0-21.652a71.087,71.087,0,0,1,0-12.079c.455-3.874-1.368-15.954-11.624-18.689" transform="translate(-24.909 0.96)" fill="#79dae1"/>
        <path id="Trazado_194675" data-name="Trazado 194675" d="M121.7,19.666s1.6,10.484-.228,12.307-10.94,6.155-10.94,6.155,1.14-11.624,1.14-12.308S105.289,41.546,102.1,43.6s-9.116,7.066-9.116,7.066S92.07,53.4,91.158,53.17,88.2,50.891,88.2,50.891s-6.61-1.824-5.926,3.419,5.242,12.307,7.977,12.763a19.272,19.272,0,0,0,4.786.228s3.647,10.94,4.1,14.586.684,4.331.228,5.7-10.94,6.382-13.219,7.066-20.512,8.2-20.512,8.2l21.652,60.625-22.336,80s33.5,7.75,65.412,4.787,45.127-9.8,45.127-9.8l-27.121-76.809,9.8-65.867-36.01-6.61-.684-8.2s8.889-2.507,11.852-8.889c3.072-6.618.228-18.233,0-21.652a71.087,71.087,0,0,1,0-12.079C133.778,34.481,131.955,22.4,121.7,19.666Z" transform="translate(-24.909 0.96)" fill="none" stroke="#104469" stroke-linecap="round" stroke-linejoin="round" stroke-width="1"/>
        <path id="Trazado_194676" data-name="Trazado 194676" d="M126.605,146.666s-24.707,14.824-25.7,15.153" transform="translate(-13.746 7.161)" fill="none" stroke="#104469" stroke-linecap="round" stroke-linejoin="round" stroke-width="1"/>
        <line id="Línea_144" data-name="Línea 144" x1="17.46" y2="11.859" transform="translate(85.517 163.38)" fill="none" stroke="#104469" stroke-linecap="round" stroke-linejoin="round" stroke-width="1"/>
        <path id="Trazado_194677" data-name="Trazado 194677" d="M109.748,92.93c3.853-1.795,8.81-4.415,9.121-5.345.456-1.368.228-2.051-.228-5.7s-4.1-14.587-4.1-14.587a19.211,19.211,0,0,1-4.786-.228c-2.735-.455-7.294-7.521-7.977-12.763S107.7,50.89,107.7,50.89s2.051,2.051,2.963,2.279,1.823-2.507,1.823-2.507,5.926-5.014,9.117-7.065,9.572-18.461,9.572-17.778-1.139,12.307-1.139,12.307,9.116-4.33,10.94-6.153.228-12.307.228-12.307C151.46,22.4,153.283,34.48,152.828,38.355a71.085,71.085,0,0,0,0,12.079c.228,3.418,3.072,15.034,0,21.652-2.963,6.382-11.852,8.889-11.852,8.889l.684,8.2,10.069,1.848,4.69,26.905L119.2,120.571Z" transform="translate(-44.415 0.96)" fill="#fff"/>
        <path id="Trazado_194678" data-name="Trazado 194678" d="M109.748,92.93c3.853-1.795,8.81-4.415,9.121-5.345.456-1.368.228-2.051-.228-5.7s-4.1-14.587-4.1-14.587a19.211,19.211,0,0,1-4.786-.228c-2.735-.455-7.294-7.521-7.977-12.763S107.7,50.89,107.7,50.89s2.051,2.051,2.963,2.279,1.823-2.507,1.823-2.507,5.926-5.014,9.117-7.065,9.572-18.461,9.572-17.778-1.139,12.307-1.139,12.307,9.116-4.33,10.94-6.153.228-12.307.228-12.307C151.46,22.4,153.283,34.48,152.828,38.355a71.085,71.085,0,0,0,0,12.079c.228,3.418,3.072,15.034,0,21.652-2.963,6.382-11.852,8.889-11.852,8.889l.684,8.2,10.069,1.848,4.69,26.905L119.2,120.571Z" transform="translate(-44.415 0.96)" fill="none" stroke="#001e6c" stroke-linecap="round" stroke-linejoin="round" stroke-width="1"/>
        <line id="Línea_145" data-name="Línea 145" x2="0.307" y2="7.073" transform="translate(97.245 90.14)" fill="none" stroke="#001e6c" stroke-linecap="round" stroke-linejoin="round" stroke-width="1"/>
        <path id="Trazado_194679" data-name="Trazado 194679" d="M125.217,71.276A23.616,23.616,0,0,0,138.3,76.81" transform="translate(-50.93 3.48)" fill="none" stroke="#104469" stroke-linecap="round" stroke-linejoin="round" stroke-width="1"/>
        <path id="Trazado_194680" data-name="Trazado 194680" d="M127.039,61.972a12.229,12.229,0,0,1-12.763-3.191" transform="translate(-28.198 2.87)" fill="none" stroke="#104469" stroke-linecap="round" stroke-linejoin="round" stroke-width="1"/>
        <path id="Trazado_194681" data-name="Trazado 194681" d="M115.01,38.807a11.878,11.878,0,0,0,0,3.87c.277,3.042,5.749,11.08,4.09,11.909s-3.094.478-6.411.754" transform="translate(-18.908 1.895)" fill="none" stroke="#104469" stroke-linecap="round" stroke-linejoin="round" stroke-width="1"/>
        <path id="Trazado_194682" data-name="Trazado 194682" d="M110.162,43.193c0,1.428.716,2.586,1.6,2.586s1.6-1.158,1.6-2.586-.716-2.586-1.6-2.586-1.6,1.158-1.6,2.586" transform="translate(-10.208 1.983)" fill="#104469"/>
        <path id="Trazado_194683" data-name="Trazado 194683" d="M124.723,44.72c0,1.429.717,2.586,1.6,2.586s1.6-1.158,1.6-2.586-.716-2.586-1.6-2.586-1.6,1.158-1.6,2.586" transform="translate(-40.041 2.057)" fill="#104469"/>
        <path id="Trazado_194684" data-name="Trazado 194684" d="M115.639,37.632s-3.7-2.709-6.651-1.231" transform="translate(-11.251 1.756)" fill="none" stroke="#104469" stroke-linecap="round" stroke-linejoin="round" stroke-width="1"/>
        <path id="Trazado_194685" data-name="Trazado 194685" d="M131.878,37.087s-5.419-.739-7.39,3.7" transform="translate(-43.748 1.808)" fill="none" stroke="#104469" stroke-linecap="round" stroke-linejoin="round" stroke-width="1"/>
        <path id="Trazado_194686" data-name="Trazado 194686" d="M9.319,92.385l4.242,29.47,12.932,26.893,25.748-38.614s.879-6.154,2.344-8.5,6.447-3.517,9.378-5.567,4.982-8.5,7.326-6.153.879,6.446,0,7.619-7.62,6.74-7.62,6.74l16.41,5.275s12.894-6.155,14.066-3.809-9.376,13.479-13.479,14.651-20.512-1.465-20.512-1.465S41.692,164.051,37.59,169.033s-9.378,11.135-10.549,10.842S.5,152.857.5,152.857Z" transform="translate(123.937 4.365)" fill="#fff"/>
        <path id="Trazado_194687" data-name="Trazado 194687" d="M9.319,92.385l4.242,29.47,12.932,26.893,25.748-38.614s.879-6.154,2.344-8.5,6.447-3.517,9.378-5.567,4.982-8.5,7.326-6.153.879,6.446,0,7.619-7.62,6.74-7.62,6.74l16.41,5.275s12.894-6.155,14.066-3.809-9.376,13.479-13.479,14.651-20.512-1.465-20.512-1.465S41.692,164.051,37.59,169.033s-9.378,11.135-10.549,10.842S.5,152.857.5,152.857Z" transform="translate(123.937 4.365)" fill="none" stroke="#104469" stroke-linecap="round" stroke-linejoin="round" stroke-width="1"/>
        <path id="Trazado_194688" data-name="Trazado 194688" d="M4.318,113.12s4.334-3.059,5.864-3.059,16.826,2.55,16.826,2.55,7.9-4.334,9.433-3.569" transform="translate(177.726 5.319)" fill="none" stroke="#001e6c" stroke-linecap="round" stroke-linejoin="round" stroke-width="1"/>
        <path id="Trazado_194689" data-name="Trazado 194689" d="M79.116,167.574c-7.05-7.15-14.028-14.857-14.028-14.857l8.82-60.472,4.242,29.471,12.932,26.893Z" transform="translate(59.348 4.504)" fill="#79dae1"/>
        <path id="Trazado_194690" data-name="Trazado 194690" d="M79.116,167.574c-7.05-7.15-14.028-14.857-14.028-14.857l8.82-60.472,4.242,29.471,12.932,26.893Z" transform="translate(59.348 4.504)" fill="none" stroke="#001e6c" stroke-linecap="round" stroke-linejoin="round" stroke-width="1"/>
        <path id="Trazado_194691" data-name="Trazado 194691" d="M191.408,128.08s-.765-13-3.569-15.042-11.983-4.843-13-6.629-2.55-1.019-2.295,1.275,3.059,5.608,3.824,5.864,4.59,2.549,4.59,2.549a29.991,29.991,0,0,1-3.824,2.8c-.766.255-10.708,2.295-10.708,2.295s-9.943-8.159-9.943-6.119,6.629,14.533,7.393,16.062,6.374,2.04,8.669,2.295,13.257,1.274,13.257,1.274,2.8,28.809,3.059,35.438,4.59,12.747,6.883,14.278,15.042-9.433,14.787-13.513-16.062-36.457-16.062-36.457Z" transform="translate(-155.957 5.147)" fill="#fff"/>
        <path id="Trazado_194692" data-name="Trazado 194692" d="M191.408,128.08s-.765-13-3.569-15.042-11.983-4.843-13-6.629-2.55-1.019-2.295,1.275,3.059,5.608,3.824,5.864,4.59,2.549,4.59,2.549a29.991,29.991,0,0,1-3.824,2.8c-.766.255-10.708,2.295-10.708,2.295s-9.943-8.159-9.943-6.119,6.629,14.533,7.393,16.062,6.374,2.04,8.669,2.295,13.257,1.274,13.257,1.274,2.8,28.809,3.059,35.438,4.59,12.747,6.883,14.278,15.042-9.433,14.787-13.513-16.062-36.457-16.062-36.457Z" transform="translate(-155.957 5.147)" fill="none" stroke="#001e6c" stroke-linecap="round" stroke-linejoin="round" stroke-width="1"/>
        <path id="Trazado_194693" data-name="Trazado 194693" d="M204.9,129.522s-2.4-4.993-5.974-4.228-14.278,2.039-14.278,2.039-4.843-6.374-6.883-6.629" transform="translate(-172.656 5.893)" fill="none" stroke="#104469" stroke-linecap="round" stroke-linejoin="round" stroke-width="1"/>
      </g>
    </g>
    <g id="ingresos" transform="translate(-7227 -1250.229)">
      <circle id="Elipse_1326" data-name="Elipse 1326" cx="16.019" cy="16.019" r="16.019" transform="translate(18.307 1.333)" fill="#febd55"/>
      <circle id="Elipse_1328" data-name="Elipse 1328" cx="12.968" cy="12.968" r="12.968" transform="translate(21.358 4.385)" fill="#ffe08c"/>
      <path id="Trazado_195258" data-name="Trazado 195258" d="M63.836,44V64.324H51Z" transform="translate(3.554 3.067)" fill="#ef9f14"/>
      <path id="Trazado_195259" data-name="Trazado 195259" d="M55.355,44.936,57.836,41l6.418,3.209L51.418,64.533,45,61.324l2.075-3.273Z" transform="translate(3.136 2.858)" fill="#edf4fa"/>
      <path id="Trazado_195260" data-name="Trazado 195260" d="M13.63,29.631A2.091,2.091,0,0,1,15.139,29a7.349,7.349,0,0,1,3.947,1.145l9.959,6.343H24.231a3.652,3.652,0,0,0-2.129.674l-8.921-6.022c-.053-.043-.118-.075-.171-.118a2.071,2.071,0,0,1,.62-1.391Z" transform="translate(0.907 2.021)" fill="#fff"/>
      <path id="Trazado_195261" data-name="Trazado 195261" d="M22.976,43.906S13.4,36.247,9.038,32.76A8.443,8.443,0,0,0,8,32.054v-.2A1.919,1.919,0,0,1,9.99,30h.15a5.829,5.829,0,0,1,3.22.952c.053.043.118.075.171.118l8.921,6.022a3.89,3.89,0,0,0-.513.428,3.7,3.7,0,0,0-1.1,2.642,3.744,3.744,0,0,0,3.744,3.744Z" transform="translate(0.558 2.091)" fill="#fff"/>
      <path id="Trazado_195262" data-name="Trazado 195262" d="M9.525,32.69c4.364,3.487,13.938,11.146,13.938,11.146h1.6a3.744,3.744,0,0,1-3.744-3.744,3.7,3.7,0,0,1,1.1-2.642,3.891,3.891,0,0,1,.513-.428,3.652,3.652,0,0,1,2.129-.674H44.857a10.366,10.366,0,0,1,7.306,3.027l6.258,6.258L50.142,58.748l-1.006-1.006H30.62a13.418,13.418,0,0,1-8.8-3.284L2.209,37.45A3.719,3.719,0,0,1,1,34.712v-.1A3.611,3.611,0,0,1,4.616,31H4.69a7.756,7.756,0,0,1,3.8.984A8.443,8.443,0,0,1,9.525,32.69Z" transform="translate(0.07 2.161)" fill="#fff"/>
      <path id="Trazado_195264" data-name="Trazado 195264" d="M55.792,42.991,52.92,47.506a12.836,12.836,0,0,1-10.83,5.944H28.919a6.411,6.411,0,0,1-4-1.4L4.9,36.093a4.279,4.279,0,0,1-1.415-4.909A3.6,3.6,0,0,0,1,34.6v.1a3.719,3.719,0,0,0,1.209,2.738L21.816,54.446a13.418,13.418,0,0,0,8.8,3.284H49.136l1.006,1.006,8.279-13.114Z" transform="translate(0.07 2.173)" fill="#e3e3e3"/>
      <path id="Trazado_195266" data-name="Trazado 195266" d="M24.344,35.411a6.418,6.418,0,0,1-3.209-.856l-5.484-3.163A2.125,2.125,0,0,1,14.519,29.1a2.12,2.12,0,0,0-1.509,1.925c.053.043.118.075.171.118L22.1,37.165a3.652,3.652,0,0,1,2.129-.685h4.814l-1.679-1.07Z" transform="translate(0.907 2.028)" fill="#eda377"/>
      <path id="Trazado_195268" data-name="Trazado 195268" d="M61.069,42.511l-8.76,13.538a4.269,4.269,0,0,1-5.091,1.67l-.143.227L45,61.219l6.418,3.209L64.254,44.1Z" transform="translate(3.136 2.963)" fill="#d6e0eb"/>
      <path id="Trazado_195269" data-name="Trazado 195269" d="M33.115,34.23h.18a17.115,17.115,0,1,0-15.87-23.961l1.961.856A14.978,14.978,0,1,1,33.271,32.091h-.156a14.976,14.976,0,0,1-14.976-14.82L16,17.293A17.134,17.134,0,0,0,33.115,34.23Z" transform="translate(1.115 0)" fill="#104469"/>
      <path id="Trazado_195270" data-name="Trazado 195270" d="M18.665,12.3,16.6,11.735a17.046,17.046,0,0,0-.464,2.282l2.12.281a15.057,15.057,0,0,1,.406-1.995Z" transform="translate(1.125 0.818)"/>
      <path id="Trazado_195271" data-name="Trazado 195271" d="M31.348,6V8.139h-.535a4.814,4.814,0,1,0,0,9.627h3.209a2.674,2.674,0,0,1,0,5.348H28.139v2.139h3.209v2.139h2.139V25.254h.535a4.814,4.814,0,0,0,0-9.627H30.814a2.674,2.674,0,1,1,0-5.348H36.7V8.139H33.488V6Z" transform="translate(1.812 0.418)" fill="#104469"/>
      <rect id="Rectángulo_44768" data-name="Rectángulo 44768" width="2.288" height="2.288" transform="translate(42.716 44.813)"/>
      <path id="Trazado_195272" data-name="Trazado 195272" d="M67.869,44.158l-6.418-3.209a1.07,1.07,0,0,0-1.383.386L50.013,57.25l-.055-.055a1.07,1.07,0,0,0-.752-.313H30.69a12.355,12.355,0,0,1-8.1-3.022L3,36.87a2.705,2.705,0,0,1-.862-2.045A2.567,2.567,0,0,1,4.76,32.279a6.685,6.685,0,0,1,3.255.837,7.512,7.512,0,0,1,.912.619L22.865,44.881a1.07,1.07,0,0,0,.669.234H40.648V42.976H25.138A2.674,2.674,0,0,1,22.464,40.3a2.624,2.624,0,0,1,.787-1.885,2.824,2.824,0,0,1,.38-.314,2.567,2.567,0,0,1,1.507-.475H44.927a9.3,9.3,0,0,1,6.55,2.714L55.939,44.8l1.513-1.513-4.462-4.462a11.432,11.432,0,0,0-8.062-3.341H25.138a4.74,4.74,0,0,0-2.088.48l-7.9-5.33a1.209,1.209,0,0,1,.156-.19,1.024,1.024,0,0,1,.742-.308,6.279,6.279,0,0,1,3.373.977l6.753,4.3,1.149-1.8-6.753-4.3A8.413,8.413,0,0,0,16.045,28a3.145,3.145,0,0,0-2.266.945,3.236,3.236,0,0,0-.482.642,6.8,6.8,0,0,0-2.6-.517h-.15a3.068,3.068,0,0,0-2.728,1.625,9.112,9.112,0,0,0-3.134-.555A4.712,4.712,0,0,0,0,34.921a4.814,4.814,0,0,0,1.578,3.546l19.6,17.008a14.5,14.5,0,0,0,9.51,3.546H48.767l.082.082-1.614,2.556a1.07,1.07,0,0,0,.428,1.529L54.082,66.4a1.069,1.069,0,0,0,.473.112H67.391a1.07,1.07,0,0,0,1.07-1.07V45.115a1.07,1.07,0,0,0-.592-.957ZM10.547,31.209h.15a4.783,4.783,0,0,1,2.614.765l.018.013.159.107,7.842,5.293a4.726,4.726,0,0,0-1.007,2.726L10.269,32.065c-.17-.138-.349-.27-.544-.4l-.007-.006A.941.941,0,0,1,10.547,31.209Zm43.62,32.84L49.674,61.8,61.36,43.3l4.493,2.246Zm12.154.321H56.495l9.826-15.558Z" transform="translate(0 1.952)" fill="#104469"/>
    </g>
  </g>
</svg>
