<svg id="Grupo_146195" data-name="Grupo 146195" xmlns="http://www.w3.org/2000/svg" xmlns:xlink="http://www.w3.org/1999/xlink" width="361.793" height="216.917" viewBox="0 0 361.793 216.917">
  <defs>
    <clipPath id="clip-path">
      <rect id="Rectángulo_44696" data-name="Rectángulo 44696" width="361.793" height="216.917" fill="none"/>
    </clipPath>
  </defs>
  <g id="Grupo_146194" data-name="Grupo 146194" clip-path="url(#clip-path)">
    <path id="Trazado_194812" data-name="Trazado 194812" d="M35.712,78c9.812-5.507,20.5-9.866,30.145-14.942,16.556-8.712,32.873-17.943,48.6-28.073C135.5,21.438,156.666,10.87,181.576,6.6a165.523,165.523,0,0,1,83.322,7q.363.129.726.262c21.024,7.66,40.329,20.654,53.93,38.576,15.822,20.848,23.057,46.387,22.143,72.382-.233,6.64-.814,13.266-1.575,19.865-8.014,69.449-98.386,76.127-135.782,73.9S92.089,192.948,72.122,195.436C50.494,198.13,26.654,190.5,12.385,173.6c-17.036-20.179-15.283-51.139-2.118-72.87C16.417,90.573,25.6,83.678,35.712,78" transform="translate(0 -2.016)" fill="#c9dae6"/>
    <rect id="Rectángulo_44683" data-name="Rectángulo 44683" width="56.394" height="68.774" transform="translate(258.341 11.721)" fill="none" stroke="#001e6c" stroke-linecap="round" stroke-linejoin="round" stroke-width="1"/>
    <rect id="Rectángulo_44684" data-name="Rectángulo 44684" width="49.026" height="59.788" transform="translate(262.025 16.214)" fill="none" stroke="#001e6c" stroke-linecap="round" stroke-linejoin="round" stroke-width="1"/>
    <rect id="Rectángulo_44685" data-name="Rectángulo 44685" width="17.383" height="21.199" transform="translate(277.846 35.509)" fill="none" stroke="#001e6c" stroke-linecap="round" stroke-linejoin="round" stroke-width="1"/>
    <line id="Línea_153" data-name="Línea 153" y1="87.76" transform="translate(125.286 3.559)" fill="none" stroke="#001e6c" stroke-linecap="round" stroke-linejoin="round" stroke-width="1"/>
    <path id="Trazado_194813" data-name="Trazado 194813" d="M19.427,228.173H134.639v-44.5" transform="translate(-9.352 -88.424)" fill="none" stroke="#001e6c" stroke-linecap="round" stroke-linejoin="round" stroke-width="1"/>
    <line id="Línea_154" data-name="Línea 154" y1="63.988" transform="translate(245.373 3.976)" fill="none" stroke="#001e6c" stroke-linecap="round" stroke-linejoin="round" stroke-width="1"/>
    <path id="Trazado_194814" data-name="Trazado 194814" d="M250.994,14.236V146.6H366.206V77.824" transform="translate(-120.833 -6.853)" fill="none" stroke="#001e6c" stroke-linecap="round" stroke-linejoin="round" stroke-width="1"/>
    <line id="Línea_155" data-name="Línea 155" y2="1.511" transform="translate(130.161 3.559)" fill="none" stroke="#001e6c" stroke-linecap="round" stroke-linejoin="round" stroke-width="1"/>
    <rect id="Rectángulo_44686" data-name="Rectángulo 44686" width="8.401" height="9.485" transform="translate(50.674 195.435)" fill="#fff"/>
    <rect id="Rectángulo_44687" data-name="Rectángulo 44687" width="8.401" height="9.485" transform="translate(50.674 195.435)" fill="none" stroke="#001e6c" stroke-linecap="round" stroke-linejoin="round" stroke-width="1"/>
    <rect id="Rectángulo_44688" data-name="Rectángulo 44688" width="61.996" height="41.811" transform="translate(23.876 154.591)" fill="#fff"/>
    <rect id="Rectángulo_44689" data-name="Rectángulo 44689" width="61.996" height="41.811" transform="translate(23.876 154.591)" fill="none" stroke="#001e6c" stroke-linecap="round" stroke-linejoin="round" stroke-width="1"/>
    <rect id="Rectángulo_44690" data-name="Rectángulo 44690" width="58.238" height="38.202" transform="translate(25.755 156.396)" fill="#9ebedf"/>
    <rect id="Rectángulo_44691" data-name="Rectángulo 44691" width="58.238" height="38.202" transform="translate(25.755 156.396)" fill="none" stroke="#001e6c" stroke-linecap="round" stroke-linejoin="round" stroke-width="1"/>
    <path id="Trazado_194815" data-name="Trazado 194815" d="M280.365,291.489H244.439a7.148,7.148,0,0,0-7,5.682l-10.055,48.005H277.92l9.441-45.074a7.148,7.148,0,0,0-7-8.613" transform="translate(-109.469 -140.328)" fill="#104469"/>
    <path id="Trazado_194816" data-name="Trazado 194816" d="M280.365,291.489H244.439a7.148,7.148,0,0,0-7,5.682l-10.055,48.005H277.92l9.441-45.074A7.148,7.148,0,0,0,280.365,291.489Z" transform="translate(-109.469 -140.328)" fill="none" stroke="#001e6c" stroke-linecap="round" stroke-linejoin="round" stroke-width="1"/>
    <path id="Trazado_194817" data-name="Trazado 194817" d="M525.018,189.064s-2.313,6.362-7.229,7.229-13.591-8.675-8.1-13.591,13.013,2.892,15.326,6.362" transform="translate(-244.528 -87.195)" fill="#9ebedf"/>
    <path id="Trazado_194818" data-name="Trazado 194818" d="M525.018,189.064s-2.313,6.362-7.229,7.229-13.591-8.675-8.1-13.591S522.7,185.594,525.018,189.064Z" transform="translate(-244.528 -87.195)" fill="none" stroke="#001e6c" stroke-linecap="round" stroke-linejoin="round" stroke-width="1"/>
    <path id="Trazado_194819" data-name="Trazado 194819" d="M550.717,133.691s-7.23,17.64-4.337,26.314,20.82,15.037,26.025,3.759-6.361-27.182-10.7-30.652-9.543-2.313-10.989.578" transform="translate(-262.709 -63.053)" fill="#9ebedf"/>
    <path id="Trazado_194820" data-name="Trazado 194820" d="M550.717,133.691s-7.23,17.64-4.337,26.314,20.82,15.037,26.025,3.759-6.361-27.182-10.7-30.652S552.163,130.8,550.717,133.691Z" transform="translate(-262.709 -63.053)" fill="none" stroke="#001e6c" stroke-linecap="round" stroke-linejoin="round" stroke-width="1"/>
    <path id="Trazado_194821" data-name="Trazado 194821" d="M623.753,148.391s-12.435,11.278-13.88,22.555,6.94,15.326,15.615,13.88S638.5,161.4,635.9,151.282s-12.145-2.892-12.145-2.892" transform="translate(-293.526 -70.234)" fill="#9ebedf"/>
    <path id="Trazado_194822" data-name="Trazado 194822" d="M623.753,148.391s-12.435,11.278-13.88,22.555,6.94,15.326,15.615,13.88S638.5,161.4,635.9,151.282,623.753,148.391,623.753,148.391Z" transform="translate(-293.526 -70.234)" fill="none" stroke="#001e6c" stroke-linecap="round" stroke-linejoin="round" stroke-width="1"/>
    <path id="Trazado_194823" data-name="Trazado 194823" d="M627.8,271.158s-13.88.578-14.458,7.23,6.073,8.1,12.723,2.313,7.518-9.254,1.735-9.542" transform="translate(-295.256 -130.541)" fill="#9ebedf"/>
    <path id="Trazado_194824" data-name="Trazado 194824" d="M627.8,271.158s-13.88.578-14.458,7.23,6.073,8.1,12.723,2.313S633.58,271.447,627.8,271.158Z" transform="translate(-295.256 -130.541)" fill="none" stroke="#001e6c" stroke-linecap="round" stroke-linejoin="round" stroke-width="1"/>
    <path id="Trazado_194825" data-name="Trazado 194825" d="M613.813,282.7s10.939-5,15.865-5.874" transform="translate(-295.501 -133.27)" fill="none" stroke="#001e6c" stroke-linecap="round" stroke-linejoin="round" stroke-width="1"/>
    <path id="Trazado_194826" data-name="Trazado 194826" d="M630.822,349.257s-10.2-9.436-15.32-5.158-1.461,10.015,7.329,10.655,11.864-1.191,7.991-5.5" transform="translate(-295.187 -165.12)" fill="#9ebedf"/>
    <path id="Trazado_194827" data-name="Trazado 194827" d="M630.822,349.257s-10.2-9.436-15.32-5.158-1.461,10.015,7.329,10.655S634.694,353.562,630.822,349.257Z" transform="translate(-295.187 -165.12)" fill="none" stroke="#001e6c" stroke-linecap="round" stroke-linejoin="round" stroke-width="1"/>
    <path id="Trazado_194828" data-name="Trazado 194828" d="M615.82,347.6s11.262,4.23,15.351,7.111" transform="translate(-296.468 -167.342)" fill="none" stroke="#001e6c" stroke-linecap="round" stroke-linejoin="round" stroke-width="1"/>
    <path id="Trazado_194829" data-name="Trazado 194829" d="M541.4,341.694s14.055-13.008,21.119-7.11,2.015,13.805-10.1,14.687-16.354-1.642-11.016-7.578" transform="translate(-259.549 -160.337)" fill="#9ebedf"/>
    <path id="Trazado_194830" data-name="Trazado 194830" d="M541.4,341.694s14.055-13.008,21.119-7.11,2.015,13.805-10.1,14.687S536.066,347.63,541.4,341.694Z" transform="translate(-259.549 -160.337)" fill="none" stroke="#001e6c" stroke-linecap="round" stroke-linejoin="round" stroke-width="1"/>
    <path id="Trazado_194831" data-name="Trazado 194831" d="M567.148,339.413s-15.524,5.831-21.161,9.8" transform="translate(-262.849 -163.4)" fill="none" stroke="#001e6c" stroke-linecap="round" stroke-linejoin="round" stroke-width="1"/>
    <path id="Trazado_194832" data-name="Trazado 194832" d="M558.567,292.543s-1.446,6.94-6.651,9.542-14.458-2.892-9.543-11.278,13.591-1.735,16.194,1.735" transform="translate(-260.437 -138.045)" fill="#9ebedf"/>
    <path id="Trazado_194833" data-name="Trazado 194833" d="M558.567,292.543s-1.446,6.94-6.651,9.542-14.458-2.892-9.543-11.278S555.965,289.073,558.567,292.543Z" transform="translate(-260.437 -138.045)" fill="none" stroke="#001e6c" stroke-linecap="round" stroke-linejoin="round" stroke-width="1"/>
    <path id="Trazado_194834" data-name="Trazado 194834" d="M529.581,253.045s-2.6-5.783-12.723-2.024-14.17,9.542-7.808,11.566,20.531-9.542,20.531-9.542" transform="translate(-243.596 -120.235)" fill="#9ebedf"/>
    <path id="Trazado_194835" data-name="Trazado 194835" d="M529.581,253.045s-2.6-5.783-12.723-2.024-14.17,9.542-7.808,11.566S529.581,253.045,529.581,253.045Z" transform="translate(-243.596 -120.235)" fill="none" stroke="#001e6c" stroke-linecap="round" stroke-linejoin="round" stroke-width="1"/>
    <path id="Trazado_194836" data-name="Trazado 194836" d="M532.4,255.594s-10.722,1.159-16.517,6.086" transform="translate(-248.358 -123.048)" fill="none" stroke="#001e6c" stroke-linecap="round" stroke-linejoin="round" stroke-width="1"/>
    <path id="Trazado_194837" data-name="Trazado 194837" d="M607.237,115.831s1.735,4.049,5.2,3.181,4.338-6.073,9.832-4.627,10.121,7.807,10.121,4.916-6.94-10.41-14.748-10.41-10.121,3.181-10.41,6.94" transform="translate(-292.336 -52.422)" fill="#9ebedf"/>
    <path id="Trazado_194838" data-name="Trazado 194838" d="M607.237,115.831s1.735,4.049,5.2,3.181,4.338-6.073,9.832-4.627,10.121,7.807,10.121,4.916-6.94-10.41-14.748-10.41S607.526,112.072,607.237,115.831Z" transform="translate(-292.336 -52.422)" fill="none" stroke="#001e6c" stroke-linecap="round" stroke-linejoin="round" stroke-width="1"/>
    <path id="Trazado_194839" data-name="Trazado 194839" d="M551.475,255.957s12.452-2.39,17.636,11.437a38.462,38.462,0,0,1,1.3,4.232" transform="translate(-265.491 -123.146)" fill="none" stroke="#001e6c" stroke-linecap="round" stroke-linejoin="round" stroke-width="1"/>
    <path id="Trazado_194840" data-name="Trazado 194840" d="M651.682,227.215s2.6-5.783,12.723-2.024,14.17,9.542,7.808,11.566-20.531-9.542-20.531-9.542" transform="translate(-313.732 -107.8)" fill="#9ebedf"/>
    <path id="Trazado_194841" data-name="Trazado 194841" d="M651.682,227.215s2.6-5.783,12.723-2.024,14.17,9.542,7.808,11.566S651.682,227.215,651.682,227.215Z" transform="translate(-313.732 -107.8)" fill="none" stroke="#001e6c" stroke-linecap="round" stroke-linejoin="round" stroke-width="1"/>
    <path id="Trazado_194842" data-name="Trazado 194842" d="M656.142,230.994s10.432-.58,15.358,5.506" transform="translate(-315.879 -111.198)" fill="none" stroke="#001e6c" stroke-linecap="round" stroke-linejoin="round" stroke-width="1"/>
    <path id="Trazado_194843" data-name="Trazado 194843" d="M643.68,230.127a16.032,16.032,0,0,0-8.619,1.175" transform="translate(-305.731 -110.711)" fill="none" stroke="#001e6c" stroke-linecap="round" stroke-linejoin="round" stroke-width="1"/>
    <path id="Trazado_194844" data-name="Trazado 194844" d="M541.518,202.832c-6.1-6.232-12.132-7.172-12.132-7.172s-8.9-2.356-12.381.831" transform="translate(-248.896 -93.791)" fill="none" stroke="#001e6c" stroke-linecap="round" stroke-linejoin="round" stroke-width="1"/>
    <line id="Línea_156" data-name="Línea 156" x1="0.541" y1="2.417" transform="translate(293.319 74.591)" fill="none" stroke="#001e6c" stroke-linecap="round" stroke-linejoin="round" stroke-width="1"/>
    <path id="Trazado_194845" data-name="Trazado 194845" d="M581.277,278.715s1.3-49.8,0-64.922-7.346-32.839-7.346-32.839l-6.162-27.517" transform="translate(-273.335 -73.868)" fill="none" stroke="#001e6c" stroke-linecap="round" stroke-linejoin="round" stroke-width="1"/>
    <line id="Línea_157" data-name="Línea 157" y1="2.387" x2="1.114" transform="translate(333.642 85.313)" fill="none" stroke="#001e6c" stroke-linecap="round" stroke-linejoin="round" stroke-width="1"/>
    <path id="Trazado_194846" data-name="Trazado 194846" d="M599.649,288.722s.432-45.423,2.16-58.385,8.642-33.271,8.642-33.271l10.61-22.728" transform="translate(-288.683 -83.93)" fill="none" stroke="#001e6c" stroke-linecap="round" stroke-linejoin="round" stroke-width="1"/>
    <path id="Trazado_194847" data-name="Trazado 194847" d="M609.4,288.155s-3.024,26.042-4.753,55.424" transform="translate(-291.089 -138.723)" fill="none" stroke="#001e6c" stroke-linecap="round" stroke-linejoin="round" stroke-width="1"/>
    <path id="Trazado_194848" data-name="Trazado 194848" d="M570.271,347.715s.864-41.534-.864-47.151-4.627-3.144-4.627-3.144-8,.941-10.9,5.577" transform="translate(-266.65 -142.923)" fill="none" stroke="#001e6c" stroke-linecap="round" stroke-linejoin="round" stroke-width="1"/>
    <path id="Trazado_194849" data-name="Trazado 194849" d="M589.312,292.556c2.26,12.667.175,53.122.175,53.122" transform="translate(-283.706 -140.842)" fill="none" stroke="#001e6c" stroke-linecap="round" stroke-linejoin="round" stroke-width="1"/>
    <path id="Trazado_194850" data-name="Trazado 194850" d="M619.956,235.156a18.038,18.038,0,0,0-6.568,8.9c-5.185,13.827-4.594,74-4.594,74" transform="translate(-293.076 -113.209)" fill="none" stroke="#001e6c" stroke-linecap="round" stroke-linejoin="round" stroke-width="1"/>
    <path id="Trazado_194851" data-name="Trazado 194851" d="M567.176,213.448A40.874,40.874,0,0,1,574.51,226.7c6.913,19.876,9.506,71.348,8.21,80.855" transform="translate(-273.049 -102.758)" fill="none" stroke="#001e6c" stroke-linecap="round" stroke-linejoin="round" stroke-width="1"/>
    <path id="Trazado_194852" data-name="Trazado 194852" d="M600.368,249.317c-.421,25.085-.719,75.5-.719,75.5" transform="translate(-288.683 -120.026)" fill="none" stroke="#001e6c" stroke-linecap="round" stroke-linejoin="round" stroke-width="1"/>
    <path id="Trazado_194853" data-name="Trazado 194853" d="M601.137,180.846c.285-16.587.621-32.821.957-41.552.864-22.469,2.207-21.208,2.207-21.208s1.6-5.045,10.583-4.465" transform="translate(-289.399 -54.677)" fill="none" stroke="#001e6c" stroke-linecap="round" stroke-linejoin="round" stroke-width="1"/>
    <path id="Trazado_194854" data-name="Trazado 194854" d="M575.138,267.568s-7.229-6.447-4.337-9.617,20.82-5.5,26.025-1.374-6.361,9.934-10.7,11.2-9.543.845-10.989-.212" transform="translate(-274.466 -122.455)" fill="#9ebedf"/>
    <path id="Trazado_194855" data-name="Trazado 194855" d="M575.138,267.568s-7.229-6.447-4.337-9.617,20.82-5.5,26.025-1.374-6.361,9.934-10.7,11.2S576.584,268.624,575.138,267.568Z" transform="translate(-274.466 -122.455)" fill="none" stroke="#001e6c" stroke-linecap="round" stroke-linejoin="round" stroke-width="1"/>
    <path id="Trazado_194856" data-name="Trazado 194856" d="M592.524,269.647a12.668,12.668,0,0,0-.161,1.925" transform="translate(-285.175 -129.813)" fill="none" stroke="#001e6c" stroke-linecap="round" stroke-linejoin="round" stroke-width="1"/>
    <path id="Trazado_194857" data-name="Trazado 194857" d="M595.743,255.134a32.8,32.8,0,0,0-1.855,4.789" transform="translate(-285.909 -122.826)" fill="none" stroke="#001e6c" stroke-linecap="round" stroke-linejoin="round" stroke-width="1"/>
    <path id="Trazado_194858" data-name="Trazado 194858" d="M575.138,348.848s-7.229-6.447-4.337-9.617,20.82-5.5,26.025-1.374-6.361,9.934-10.7,11.2-9.543.845-10.989-.212" transform="translate(-274.466 -161.585)" fill="#9ebedf"/>
    <path id="Trazado_194859" data-name="Trazado 194859" d="M575.138,348.848s-7.229-6.447-4.337-9.617,20.82-5.5,26.025-1.374-6.361,9.934-10.7,11.2S576.584,349.905,575.138,348.848Z" transform="translate(-274.466 -161.585)" fill="none" stroke="#001e6c" stroke-linecap="round" stroke-linejoin="round" stroke-width="1"/>
    <path id="Trazado_194860" data-name="Trazado 194860" d="M595.009,336.415s-2.646,5.293-2.646,9.451" transform="translate(-285.175 -161.957)" fill="none" stroke="#001e6c" stroke-linecap="round" stroke-linejoin="round" stroke-width="1"/>
    <path id="Trazado_194861" data-name="Trazado 194861" d="M587.013,318.408s-4.908-4.377-2.945-6.529,14.136-3.731,17.67-.933-4.319,6.745-7.264,7.606-6.479.574-7.461-.144" transform="translate(-280.958 -148.972)" fill="#9ebedf"/>
    <path id="Trazado_194862" data-name="Trazado 194862" d="M587.013,318.408s-4.908-4.377-2.945-6.529,14.136-3.731,17.67-.933-4.319,6.745-7.264,7.606S587.994,319.126,587.013,318.408Z" transform="translate(-280.958 -148.972)" fill="none" stroke="#001e6c" stroke-linecap="round" stroke-linejoin="round" stroke-width="1"/>
    <path id="Trazado_194863" data-name="Trazado 194863" d="M600.5,309.967a17.791,17.791,0,0,0-1.8,6.416" transform="translate(-288.229 -149.224)" fill="none" stroke="#001e6c" stroke-linecap="round" stroke-linejoin="round" stroke-width="1"/>
    <path id="Trazado_194864" data-name="Trazado 194864" d="M190.627,326.14s-6.047,9.46-5.841,9.872,4.113,5.038,4.421,5.244a8.115,8.115,0,0,0,2.159.1l3.085-2.571a2.476,2.476,0,0,0-.309-1.131c-.309-.514-1.234-.617-1.234-.617s1.645-4.01,1.542-5.039-.3-4.123-.3-4.123Z" transform="translate(-88.957 -157.01)" fill="#fff"/>
    <path id="Trazado_194865" data-name="Trazado 194865" d="M190.627,326.14s-6.047,9.46-5.841,9.872,4.113,5.038,4.421,5.244a8.115,8.115,0,0,0,2.159.1l3.085-2.571a2.476,2.476,0,0,0-.309-1.131c-.309-.514-1.234-.617-1.234-.617s1.645-4.01,1.542-5.039-.3-4.123-.3-4.123Z" transform="translate(-88.957 -157.01)" fill="none" stroke="#001e6c" stroke-linecap="round" stroke-linejoin="round" stroke-width="1"/>
    <line id="Línea_158" data-name="Línea 158" x1="2.057" y2="2.159" transform="translate(101.896 180.03)" fill="none" stroke="#001e6c" stroke-linecap="round" stroke-linejoin="round" stroke-width="1"/>
    <path id="Trazado_194866" data-name="Trazado 194866" d="M194.979,221.961s19.9,34.1,19.9,34.566-17.484,21.2-17.484,21.2l-3.526-1.739,7.7-20.852-10.057-6.963Z" transform="translate(-92.2 -106.856)" fill="#d9fcff"/>
    <path id="Trazado_194867" data-name="Trazado 194867" d="M194.979,221.961s19.9,34.1,19.9,34.566-17.484,21.2-17.484,21.2l-3.526-1.739,7.7-20.852-10.057-6.963Z" transform="translate(-92.2 -106.856)" fill="none" stroke="#001e6c" stroke-linecap="round" stroke-linejoin="round" stroke-width="1"/>
    <path id="Trazado_194868" data-name="Trazado 194868" d="M195.659,253.2l4.645,14.951-5.516-3.629Z" transform="translate(-93.775 -121.896)" fill="#001e6c"/>
    <path id="Trazado_194869" data-name="Trazado 194869" d="M195.659,253.2l4.645,14.951-5.516-3.629Z" transform="translate(-93.775 -121.896)" fill="none" stroke="#001e6c" stroke-linecap="round" stroke-linejoin="round" stroke-width="1"/>
    <path id="Trazado_194870" data-name="Trazado 194870" d="M219.527,281.431l-8.616,1.643L215.557,280" transform="translate(-101.537 -134.796)" fill="none" stroke="#001e6c" stroke-linecap="round" stroke-linejoin="round" stroke-width="1"/>
    <line id="Línea_159" data-name="Línea 159" x2="4.631" y2="1.654" transform="translate(102.553 166.704)" fill="none" stroke="#001e6c" stroke-linecap="round" stroke-linejoin="round" stroke-width="1"/>
    <path id="Trazado_194871" data-name="Trazado 194871" d="M143.161,227.962l-2.435,22.155.487,26.537H99.135l-.73-12.173s-13.634-42-13.512-43.458,22.724-12.538,22.724-12.538l19.111-.609,16.921,7.3.122,5.965" transform="translate(-40.868 -100.076)" fill="#d9fcff"/>
    <path id="Trazado_194872" data-name="Trazado 194872" d="M143.161,227.962l-2.435,22.155.487,26.537H99.135l-.73-12.173s-13.634-42-13.512-43.458,22.724-12.538,22.724-12.538l19.111-.609,16.921,7.3.122,5.965" transform="translate(-40.868 -100.076)" fill="none" stroke="#001e6c" stroke-linecap="round" stroke-linejoin="round" stroke-width="1"/>
    <path id="Trazado_194873" data-name="Trazado 194873" d="M143.374,214.974l3.93,4.757-2.689,52.125,4.964,5.791,6.205-6.412-6-51.3,1.448-7.033-2.276-5.792-10.135.828Z" transform="translate(-66.832 -99.709)" fill="#ffaa4c"/>
    <path id="Trazado_194874" data-name="Trazado 194874" d="M143.374,214.974l3.93,4.757-2.689,52.125,4.964,5.791,6.205-6.412-6-51.3,1.448-7.033-2.276-5.792-10.135.828Z" transform="translate(-66.832 -99.709)" fill="none" stroke="#001e6c" stroke-linecap="round" stroke-linejoin="round" stroke-width="1"/>
    <path id="Trazado_194875" data-name="Trazado 194875" d="M126.834,175.248l2.556,12.538,9.738,8.278,6.452-5.356-.244-6.33h-2.8l-12.173-6.087Z" transform="translate(-61.06 -84.368)" fill="#fff"/>
    <path id="Trazado_194876" data-name="Trazado 194876" d="M126.834,175.248l2.556,12.538,9.738,8.278,6.452-5.356-.244-6.33h-2.8l-12.173-6.087Z" transform="translate(-61.06 -84.368)" fill="none" stroke="#001e6c" stroke-linecap="round" stroke-linejoin="round" stroke-width="1"/>
    <path id="Trazado_194877" data-name="Trazado 194877" d="M154.768,205.973l2.069,9.251,5.721-9.13-3.652-5.965.122,2.556Z" transform="translate(-74.508 -96.347)" fill="#fff"/>
    <path id="Trazado_194878" data-name="Trazado 194878" d="M154.768,205.973l2.069,9.251,5.721-9.13-3.652-5.965.122,2.556Z" transform="translate(-74.508 -96.347)" fill="none" stroke="#001e6c" stroke-linecap="round" stroke-linejoin="round" stroke-width="1"/>
    <path id="Trazado_194879" data-name="Trazado 194879" d="M128.826,199.426l-3.165,5.6,12.173,10.469,1.1-8.886Z" transform="translate(-60.495 -96.008)" fill="#fff"/>
    <path id="Trazado_194880" data-name="Trazado 194880" d="M128.826,199.426l-3.165,5.6,12.173,10.469,1.1-8.886Z" transform="translate(-60.495 -96.008)" fill="none" stroke="#001e6c" stroke-linecap="round" stroke-linejoin="round" stroke-width="1"/>
    <path id="Trazado_194881" data-name="Trazado 194881" d="M121.431,143s-1.313-2.929-2.626-1.515.2,5.252,1.919,6.261a3.234,3.234,0,0,0,2.828.505s2.929,4.848,3.534,5.252,9.7,4.545,10.908,4.949,5.252-1.01,6.06-2.121.2-12.119,0-15.351-2.424-15.957-2.828-16.664.4-8.181-1.515-8.181a8.812,8.812,0,0,0-3.736,1.01s1.212-2.222-.2-1.515a70.256,70.256,0,0,1-11.716,5.353c-8.078,3.03-5.453,7.978-5.251,8.483S121.431,143,121.431,143" transform="translate(-56.922 -55.601)" fill="#fff"/>
    <path id="Trazado_194882" data-name="Trazado 194882" d="M121.431,143s-1.313-2.929-2.626-1.515.2,5.252,1.919,6.261a3.234,3.234,0,0,0,2.828.505s2.929,4.848,3.534,5.252,9.7,4.545,10.908,4.949,5.252-1.01,6.06-2.121.2-12.119,0-15.351-2.424-15.957-2.828-16.664.4-8.181-1.515-8.181a8.812,8.812,0,0,0-3.736,1.01s1.212-2.222-.2-1.515a70.256,70.256,0,0,1-11.716,5.353c-8.078,3.03-5.453,7.978-5.251,8.483S121.431,143,121.431,143Z" transform="translate(-56.922 -55.601)" fill="none" stroke="#001e6c" stroke-linecap="round" stroke-linejoin="round" stroke-width="1"/>
    <path id="Trazado_194883" data-name="Trazado 194883" d="M124.213,168.187s-.072-.158-.195-.38Z" transform="translate(-59.705 -80.786)" fill="none" stroke="#001e6c" stroke-linecap="round" stroke-linejoin="round" stroke-width="1"/>
    <path id="Trazado_194884" data-name="Trazado 194884" d="M141.158,124.083c-.24-1.454.34-7.945-1.448-7.945a8.809,8.809,0,0,0-3.737,1.011s1.212-2.223-.2-1.515a70.233,70.233,0,0,1-11.715,5.352c-8.079,3.03-5.454,7.978-5.252,8.483S121.43,143,121.43,143l1.818-.606s-1.414-4.242-.707-4.949,2.02-1.515,2.02-1.918-1.717-4.242-.707-5.353c.873-.96,13.807-5.009,17.3-6.093" transform="translate(-56.922 -55.601)" fill="#104469"/>
    <path id="Trazado_194885" data-name="Trazado 194885" d="M141.158,124.083c-.24-1.454.34-7.945-1.448-7.945a8.809,8.809,0,0,0-3.737,1.011s1.212-2.223-.2-1.515a70.233,70.233,0,0,1-11.715,5.352c-8.079,3.03-5.454,7.978-5.252,8.483S121.43,143,121.43,143l1.818-.606s-1.414-4.242-.707-4.949,2.02-1.515,2.02-1.918-1.717-4.242-.707-5.353C124.727,129.216,137.661,125.166,141.158,124.083Z" transform="translate(-56.922 -55.601)" fill="none" stroke="#104469" stroke-linecap="round" stroke-linejoin="round" stroke-width="1"/>
    <path id="Trazado_194886" data-name="Trazado 194886" d="M156.563,153.543l1.717,11.513-2.727-.707" transform="translate(-74.886 -73.919)" fill="none" stroke="#001e6c" stroke-linecap="round" stroke-linejoin="round" stroke-width="1"/>
    <path id="Trazado_194887" data-name="Trazado 194887" d="M144.85,155s-3.636-.505-5.656.707" transform="translate(-67.011 -74.572)" fill="none" stroke="#001e6c" stroke-linecap="round" stroke-linejoin="round" stroke-width="2"/>
    <path id="Trazado_194888" data-name="Trazado 194888" d="M158.864,146.4s.4-3.333,2.929-2.222" transform="translate(-76.48 -69.302)" fill="none" stroke="#001e6c" stroke-linecap="round" stroke-linejoin="round" stroke-width="2"/>
    <path id="Trazado_194889" data-name="Trazado 194889" d="M145.037,179.25a18.171,18.171,0,0,0,4.747,1.212" transform="translate(-69.824 -86.294)" fill="none" stroke="#001e6c" stroke-linecap="round" stroke-linejoin="round" stroke-width="1"/>
    <path id="Trazado_194890" data-name="Trazado 194890" d="M147.229,160.208c0,.669-.316,1.212-.707,1.212s-.707-.542-.707-1.212.317-1.212.707-1.212.707.542.707,1.212" transform="translate(-70.198 -76.544)" fill="#001e6c"/>
    <path id="Trazado_194891" data-name="Trazado 194891" d="M147.229,160.208c0,.669-.316,1.212-.707,1.212s-.707-.542-.707-1.212.317-1.212.707-1.212S147.229,159.538,147.229,160.208Z" transform="translate(-70.198 -76.544)" fill="none" stroke="#001e6c" stroke-linecap="round" stroke-linejoin="round" stroke-width="1"/>
    <path id="Trazado_194892" data-name="Trazado 194892" d="M163.978,155.34c0,.669-.316,1.212-.707,1.212s-.707-.543-.707-1.212.317-1.212.707-1.212.707.542.707,1.212" transform="translate(-78.261 -74.2)" fill="#001e6c"/>
    <path id="Trazado_194893" data-name="Trazado 194893" d="M163.978,155.34c0,.669-.316,1.212-.707,1.212s-.707-.543-.707-1.212.317-1.212.707-1.212S163.978,154.67,163.978,155.34Z" transform="translate(-78.261 -74.2)" fill="none" stroke="#001e6c" stroke-linecap="round" stroke-linejoin="round" stroke-width="1"/>
    <path id="Trazado_194894" data-name="Trazado 194894" d="M144.516,194.887s-1.414-2.424-1.01-2.525,5.453-1.615,5.352-2.423-1.616-1.515-2.828-1.212-7.372,1.516-7.17,2.424a66.741,66.741,0,0,0,2.828,7.676c.707,1.313,1.515,12.422,1.515,12.422h5.151l.2-3.231s2.626-.505,2.929-1.212a9.324,9.324,0,0,0,.1-2.828s2.323-.4,2.323-.909.707-5.049,0-5.655-5.656-3.737-6.565-3.737a8.516,8.516,0,0,0-2.828,1.212" transform="translate(-66.848 -90.822)" fill="#fff"/>
    <path id="Trazado_194895" data-name="Trazado 194895" d="M144.516,194.887s-1.414-2.424-1.01-2.525,5.453-1.615,5.352-2.423-1.616-1.515-2.828-1.212-7.372,1.516-7.17,2.424a66.741,66.741,0,0,0,2.828,7.676c.707,1.313,1.515,12.422,1.515,12.422h5.151l.2-3.231s2.626-.505,2.929-1.212a9.324,9.324,0,0,0,.1-2.828s2.323-.4,2.323-.909.707-5.049,0-5.655-5.656-3.737-6.565-3.737A8.516,8.516,0,0,0,144.516,194.887Z" transform="translate(-66.848 -90.822)" fill="none" stroke="#001e6c" stroke-linecap="round" stroke-linejoin="round" stroke-width="1"/>
    <path id="Trazado_194896" data-name="Trazado 194896" d="M163.4,215.856l.1-2.02.909-.505" transform="translate(-78.666 -102.702)" fill="none" stroke="#001e6c" stroke-linecap="round" stroke-linejoin="round" stroke-width="1"/>
    <line id="Línea_160" data-name="Línea 160" x1="2.121" y2="1.414" transform="translate(75.547 104.065)" fill="none" stroke="#001e6c" stroke-linecap="round" stroke-linejoin="round" stroke-width="1"/>
    <path id="Trazado_194897" data-name="Trazado 194897" d="M108.7,233.6l11.077,18.747.975-20.121H125.9s3.247,20.729,3.978,25.842.609,10.347-.121,11.443-3.976,4.72-5.194,4.72-4.91-2.042-5.519-3.016c-.313-.5-7.9-4.693-14.362-11.383a145.042,145.042,0,0,1-12.464-15.539" transform="translate(-44.397 -111.796)" fill="#d9fcff"/>
    <path id="Trazado_194898" data-name="Trazado 194898" d="M108.7,233.6l11.077,18.747.975-20.121H125.9s3.247,20.729,3.978,25.842.609,10.347-.121,11.443-3.976,4.72-5.194,4.72-4.91-2.042-5.519-3.016c-.313-.5-7.9-4.693-14.362-11.383a145.042,145.042,0,0,1-12.464-15.539" transform="translate(-44.397 -111.796)" fill="none" stroke="#001e6c" stroke-linecap="round" stroke-linejoin="round" stroke-width="1"/>
    <line id="Línea_161" data-name="Línea 161" x1="1.339" y2="11.929" transform="translate(74.041 140.546)" fill="none" stroke="#001e6c" stroke-linecap="round" stroke-linejoin="round" stroke-width="1"/>
    <line id="Línea_162" data-name="Línea 162" x2="5.478" transform="translate(76.111 123.382)" fill="none" stroke="#001e6c" stroke-linecap="round" stroke-linejoin="round" stroke-width="1"/>
    <path id="Trazado_194899" data-name="Trazado 194899" d="M112.358,340.5v28.269H155.2l-.763-28.269Z" transform="translate(-54.091 -163.925)" fill="#104469"/>
    <path id="Trazado_194900" data-name="Trazado 194900" d="M112.358,340.5v28.269H155.2l-.763-28.269Z" transform="translate(-54.091 -163.925)" fill="none" stroke="#001e6c" stroke-linecap="round" stroke-linejoin="round" stroke-width="1"/>
    <path id="Trazado_194901" data-name="Trazado 194901" d="M346.573,133.41s-6.333,1.705-8.038,5.846-.487,4.993-.122,4.872,1.218-1.705,1.218-1.705-1.34,3.776.365,5.359,4.507,3.775,4.507,3.775a27.166,27.166,0,0,1-1.827,7.917c-1.461,3.045-3.532,6.455-2.435,7.794s2.435-.609,2.435-.609a7.919,7.919,0,0,0,5.481,4.141c4.263,1.1,13.146,2.628,16.8,2.141a12.608,12.608,0,0,0,6.1-2.628s-1.1,2.07.853.853,3.166-2.8,5.115-7.186a31.75,31.75,0,0,0,2.193-16.685c-.974-5.358-5.724-9.865-8.892-12.423a23.375,23.375,0,0,0-15.467-4.385c-5.846.609-8.282,2.923-8.282,2.923" transform="translate(-162.551 -62.773)" fill="#104469"/>
    <path id="Trazado_194902" data-name="Trazado 194902" d="M346.573,133.41s-6.333,1.705-8.038,5.846-.487,4.993-.122,4.872,1.218-1.705,1.218-1.705-1.34,3.776.365,5.359,4.507,3.775,4.507,3.775a27.166,27.166,0,0,1-1.827,7.917c-1.461,3.045-3.532,6.455-2.435,7.794s2.435-.609,2.435-.609a7.919,7.919,0,0,0,5.481,4.141c4.263,1.1,13.146,2.628,16.8,2.141a12.608,12.608,0,0,0,6.1-2.628s-1.1,2.07.853.853,3.166-2.8,5.115-7.186a31.75,31.75,0,0,0,2.193-16.685c-.974-5.358-5.724-9.865-8.892-12.423a23.375,23.375,0,0,0-15.467-4.385C349.008,131.1,346.573,133.41,346.573,133.41Z" transform="translate(-162.551 -62.773)" fill="none" stroke="#001e6c" stroke-linecap="round" stroke-linejoin="round" stroke-width="1"/>
    <path id="Trazado_194903" data-name="Trazado 194903" d="M404.281,228.874l1.6,20.089-8.447,15.631-3.528-7.185Z" transform="translate(-189.633 -110.184)" fill="#ffaa4c"/>
    <path id="Trazado_194904" data-name="Trazado 194904" d="M404.281,228.874l1.6,20.089-8.447,15.631-3.528-7.185Z" transform="translate(-189.633 -110.184)" fill="none" stroke="#001e6c" stroke-linecap="round" stroke-linejoin="round" stroke-width="1"/>
    <path id="Trazado_194905" data-name="Trazado 194905" d="M398.309,261.358l-2.446,15.689-2.109-3.458Z" transform="translate(-189.561 -125.823)" fill="#001e6c"/>
    <path id="Trazado_194906" data-name="Trazado 194906" d="M398.309,261.358l-2.446,15.689-2.109-3.458Z" transform="translate(-189.561 -125.823)" fill="none" stroke="#001e6c" stroke-linecap="round" stroke-linejoin="round" stroke-width="1"/>
    <path id="Trazado_194907" data-name="Trazado 194907" d="M308.842,377.028l1.73-19.376,50.862,2.076.865,16.954Z" transform="translate(-148.683 -172.181)" fill="#001e6c"/>
    <path id="Trazado_194908" data-name="Trazado 194908" d="M308.842,377.028l1.73-19.376,50.862,2.076.865,16.954Z" transform="translate(-148.683 -172.181)" fill="none" stroke="#001e6c" stroke-linecap="round" stroke-linejoin="round" stroke-width="1"/>
    <path id="Trazado_194909" data-name="Trazado 194909" d="M335.768,149.557s-.789,5.184.113,6.085,5.409,3.043,5.409,3.043-.564-5.747-.564-6.086,3.156,7.776,4.733,8.79,4.508,3.494,4.508,3.494.451,1.352.9,1.239A5.99,5.99,0,0,0,352.333,165s3.268-.9,2.93,1.691-2.592,6.085-3.944,6.311a9.53,9.53,0,0,1-2.366.113,66.863,66.863,0,0,0-2.029,7.212c-.225,1.8-.338,2.141-.113,2.817s5.409,3.156,6.536,3.494,10.142,4.057,10.142,4.057l-10.706,29.975,11.044,39.554s-16.566,3.832-32.342,2.367-22.312-4.846-22.312-4.846l13.41-37.977L317.737,187.2l17.8-3.268.338-4.057s-4.4-1.239-5.86-4.395c-1.519-3.272-.112-9.015,0-10.706a35.143,35.143,0,0,0,0-5.972c-.225-1.916.676-7.888,5.747-9.241" transform="translate(-148.842 -72)" fill="#ef9f14"/>
    <path id="Trazado_194910" data-name="Trazado 194910" d="M335.768,149.557s-.789,5.184.113,6.085,5.409,3.043,5.409,3.043-.564-5.747-.564-6.086,3.156,7.776,4.733,8.79,4.508,3.494,4.508,3.494.451,1.352.9,1.239A5.99,5.99,0,0,0,352.333,165s3.268-.9,2.93,1.691-2.592,6.085-3.944,6.311a9.53,9.53,0,0,1-2.366.113,66.863,66.863,0,0,0-2.029,7.212c-.225,1.8-.338,2.141-.113,2.817s5.409,3.156,6.536,3.494,10.142,4.057,10.142,4.057l-10.706,29.975,11.044,39.554s-16.566,3.832-32.342,2.367-22.312-4.846-22.312-4.846l13.41-37.977L317.737,187.2l17.8-3.268.338-4.057s-4.4-1.239-5.86-4.395c-1.519-3.272-.112-9.015,0-10.706a35.143,35.143,0,0,0,0-5.972C329.8,156.882,330.7,150.909,335.768,149.557Z" transform="translate(-148.842 -72)" fill="none" stroke="#001e6c" stroke-linecap="round" stroke-linejoin="round" stroke-width="1"/>
    <path id="Trazado_194911" data-name="Trazado 194911" d="M345.134,276.558s12.216,7.33,12.7,7.492" transform="translate(-166.154 -133.14)" fill="none" stroke="#001e6c" stroke-linecap="round" stroke-linejoin="round" stroke-width="1"/>
    <line id="Línea_163" data-name="Línea 163" x2="8.633" y2="5.864" transform="translate(183.866 148.141)" fill="none" stroke="#001e6c" stroke-linecap="round" stroke-linejoin="round" stroke-width="1"/>
    <path id="Trazado_194912" data-name="Trazado 194912" d="M369.026,185.782c-1.905-.887-4.356-2.183-4.51-2.643-.226-.676-.112-1.014.113-2.817a66.838,66.838,0,0,1,2.029-7.212,9.5,9.5,0,0,0,2.366-.113c1.352-.225,3.606-3.719,3.944-6.311s-2.93-1.691-2.93-1.691a5.991,5.991,0,0,1-1.465,1.127c-.451.113-.9-1.239-.9-1.239s-2.929-2.479-4.508-3.493-4.733-9.128-4.733-8.79.564,6.085.564,6.085-4.507-2.141-5.409-3.042-.113-6.085-.113-6.085c-5.071,1.352-5.973,7.324-5.747,9.241a35.155,35.155,0,0,1,0,5.972c-.112,1.69-1.519,7.433,0,10.706,1.465,3.156,5.86,4.395,5.86,4.395l-.338,4.057-4.978.914-2.319,13.3,18.4,1.3Z" transform="translate(-166.547 -72)" fill="#fff"/>
    <path id="Trazado_194913" data-name="Trazado 194913" d="M369.026,185.782c-1.905-.887-4.356-2.183-4.51-2.643-.226-.676-.112-1.014.113-2.817a66.838,66.838,0,0,1,2.029-7.212,9.5,9.5,0,0,0,2.366-.113c1.352-.225,3.606-3.719,3.944-6.311s-2.93-1.691-2.93-1.691a5.991,5.991,0,0,1-1.465,1.127c-.451.113-.9-1.239-.9-1.239s-2.929-2.479-4.508-3.493-4.733-9.128-4.733-8.79.564,6.085.564,6.085-4.507-2.141-5.409-3.042-.113-6.085-.113-6.085c-5.071,1.352-5.973,7.324-5.747,9.241a35.155,35.155,0,0,1,0,5.972c-.112,1.69-1.519,7.433,0,10.706,1.465,3.156,5.86,4.395,5.86,4.395l-.338,4.057-4.978.914-2.319,13.3,18.4,1.3Z" transform="translate(-166.547 -72)" fill="none" stroke="#001e6c" stroke-linecap="round" stroke-linejoin="round" stroke-width="1"/>
    <line id="Línea_164" data-name="Línea 164" x1="0.152" y2="3.497" transform="translate(186.548 111.928)" fill="none" stroke="#001e6c" stroke-linecap="round" stroke-linejoin="round" stroke-width="1"/>
    <path id="Trazado_194914" data-name="Trazado 194914" d="M375.909,201.168a11.677,11.677,0,0,1-6.467,2.736" transform="translate(-177.857 -96.846)" fill="none" stroke="#001e6c" stroke-linecap="round" stroke-linejoin="round" stroke-width="1"/>
    <path id="Trazado_194915" data-name="Trazado 194915" d="M358.5,190.251a6.046,6.046,0,0,0,6.311-1.578" transform="translate(-172.589 -90.831)" fill="none" stroke="#001e6c" stroke-linecap="round" stroke-linejoin="round" stroke-width="1"/>
    <path id="Trazado_194916" data-name="Trazado 194916" d="M359.091,168.7a5.874,5.874,0,0,1,0,1.914c-.137,1.5-2.842,5.478-2.022,5.888s1.53.237,3.17.373" transform="translate(-171.825 -81.215)" fill="none" stroke="#001e6c" stroke-linecap="round" stroke-linejoin="round" stroke-width="1"/>
    <path id="Trazado_194917" data-name="Trazado 194917" d="M355.97,171.778c0,.706-.355,1.279-.792,1.279s-.791-.573-.791-1.279.354-1.279.791-1.279.792.573.792,1.279" transform="translate(-170.609 -82.082)" fill="#001e6c"/>
    <path id="Trazado_194918" data-name="Trazado 194918" d="M370.531,173.3c0,.706-.355,1.279-.791,1.279s-.792-.572-.792-1.279.354-1.279.792-1.279.791.573.791,1.279" transform="translate(-177.619 -82.817)" fill="#001e6c"/>
    <path id="Trazado_194919" data-name="Trazado 194919" d="M353.212,166.678s1.827-1.339,3.288-.609" transform="translate(-170.043 -79.844)" fill="none" stroke="#001e6c" stroke-linecap="round" stroke-linejoin="round" stroke-width="1"/>
    <path id="Trazado_194920" data-name="Trazado 194920" d="M368.713,166.956s2.68-.366,3.654,1.826" transform="translate(-177.506 -80.365)" fill="none" stroke="#001e6c" stroke-linecap="round" stroke-linejoin="round" stroke-width="1"/>
    <path id="Trazado_194921" data-name="Trazado 194921" d="M286.711,220.771l-2.1,14.571-6.394,13.3-12.731-19.092a15.489,15.489,0,0,0-1.159-4.2c-.724-1.159-3.188-1.739-4.637-2.753s-2.463-4.2-3.622-3.043-.435,3.187,0,3.767,3.767,3.332,3.767,3.332l-8.113,2.608s-6.375-3.043-6.955-1.883,4.636,6.665,6.665,7.244,10.142-.724,10.142-.724,9.128,22.312,11.156,24.776,4.637,5.506,5.216,5.361,13.123-13.359,13.123-13.359Z" transform="translate(-117.815 -105.575)" fill="#fff"/>
    <path id="Trazado_194922" data-name="Trazado 194922" d="M286.711,220.771l-2.1,14.571-6.394,13.3-12.731-19.092a15.489,15.489,0,0,0-1.159-4.2c-.724-1.159-3.188-1.739-4.637-2.753s-2.463-4.2-3.622-3.043-.435,3.187,0,3.767,3.767,3.332,3.767,3.332l-8.113,2.608s-6.375-3.043-6.955-1.883,4.636,6.665,6.665,7.244,10.142-.724,10.142-.724,9.128,22.312,11.156,24.776,4.637,5.506,5.216,5.361,13.123-13.359,13.123-13.359Z" transform="translate(-117.815 -105.575)" fill="none" stroke="#001e6c" stroke-linecap="round" stroke-linejoin="round" stroke-width="1"/>
    <path id="Trazado_194923" data-name="Trazado 194923" d="M264.426,240.9s-2.143-1.513-2.9-1.513-8.32,1.261-8.32,1.261-3.908-2.143-4.664-1.765" transform="translate(-119.653 -114.984)" fill="none" stroke="#001e6c" stroke-linecap="round" stroke-linejoin="round" stroke-width="1"/>
    <path id="Trazado_194924" data-name="Trazado 194924" d="M315.229,259.383c3.486-3.535,6.936-7.346,6.936-7.346l-4.361-29.9-2.1,14.572-6.394,13.3Z" transform="translate(-148.909 -106.941)" fill="#ffaa4c"/>
    <path id="Trazado_194925" data-name="Trazado 194925" d="M315.229,259.383c3.486-3.535,6.936-7.346,6.936-7.346l-4.361-29.9-2.1,14.572-6.394,13.3Z" transform="translate(-148.909 -106.941)" fill="none" stroke="#001e6c" stroke-linecap="round" stroke-linejoin="round" stroke-width="1"/>
    <path id="Trazado_194926" data-name="Trazado 194926" d="M410.16,246.517s.378-6.429,1.765-7.437,5.925-2.395,6.429-3.277,1.261-.5,1.135.631a5.271,5.271,0,0,1-1.891,2.9c-.379.126-2.269,1.26-2.269,1.26a14.831,14.831,0,0,0,1.891,1.387c.379.126,5.295,1.135,5.295,1.135s4.916-4.034,4.916-3.025-3.277,7.185-3.655,7.942-3.151,1.009-4.286,1.135-6.555.63-6.555.63-1.387,14.244-1.513,17.522a10.3,10.3,0,0,1-3.4,7.059c-1.135.757-7.438-4.664-7.311-6.681s7.941-18.026,7.941-18.026Z" transform="translate(-192.907 -113.285)" fill="#fff"/>
    <path id="Trazado_194927" data-name="Trazado 194927" d="M410.16,246.517s.378-6.429,1.765-7.437,5.925-2.395,6.429-3.277,1.261-.5,1.135.631a5.271,5.271,0,0,1-1.891,2.9c-.379.126-2.269,1.26-2.269,1.26a14.831,14.831,0,0,0,1.891,1.387c.379.126,5.295,1.135,5.295,1.135s4.916-4.034,4.916-3.025-3.277,7.185-3.655,7.942-3.151,1.009-4.286,1.135-6.555.63-6.555.63-1.387,14.244-1.513,17.522a10.3,10.3,0,0,1-3.4,7.059c-1.135.757-7.438-4.664-7.311-6.681s7.941-18.026,7.941-18.026Z" transform="translate(-192.907 -113.285)" fill="none" stroke="#001e6c" stroke-linecap="round" stroke-linejoin="round" stroke-width="1"/>
    <path id="Trazado_194928" data-name="Trazado 194928" d="M421.994,254.956s1.189-2.469,2.954-2.09,7.059,1.008,7.059,1.008,2.395-3.151,3.4-3.277" transform="translate(-203.156 -120.642)" fill="none" stroke="#001e6c" stroke-linecap="round" stroke-linejoin="round" stroke-width="1"/>
    <path id="Trazado_194929" data-name="Trazado 194929" d="M517.552,291.489H481.626a7.148,7.148,0,0,0-7,5.682l-10.055,48.005h50.531l9.441-45.074a7.147,7.147,0,0,0-7-8.613" transform="translate(-223.655 -140.328)" fill="#104469"/>
    <path id="Trazado_194930" data-name="Trazado 194930" d="M517.552,291.489H481.626a7.148,7.148,0,0,0-7,5.682l-10.055,48.005h50.531l9.441-45.074A7.147,7.147,0,0,0,517.552,291.489Z" transform="translate(-223.655 -140.328)" fill="none" stroke="#001e6c" stroke-linecap="round" stroke-linejoin="round" stroke-width="1"/>
    <path id="Trazado_194931" data-name="Trazado 194931" d="M451.771,287.612l-23,10.894L422.168,328s-2.861.11-2.971.881a11.454,11.454,0,0,0,.11,2.311s-1.981.11-2.2,1.871a11.035,11.035,0,0,0,.33,4.512c.33.88,3.632,4.952,4.622,5.062a18.742,18.742,0,0,1,2.531.44c.33.11,56.453,0,56.453,0a8.707,8.707,0,0,0,2.751-.66,2.459,2.459,0,0,0,.661-1.431s1.54-1.21,1.651-1.981-.55-5.5-.55-6.493,3.961-29.712,4.182-31.693a3.475,3.475,0,0,0-.99-3.3,67.756,67.756,0,0,0-9.244-5.172c-2.641-1.1-11.707-5.117-11.707-5.117Z" transform="translate(-200.76 -138.277)" fill="#fff"/>
    <path id="Trazado_194932" data-name="Trazado 194932" d="M451.771,287.612l-23,10.894L422.168,328s-2.861.11-2.971.881a11.454,11.454,0,0,0,.11,2.311s-1.981.11-2.2,1.871a11.035,11.035,0,0,0,.33,4.512c.33.88,3.632,4.952,4.622,5.062a18.742,18.742,0,0,1,2.531.44c.33.11,56.453,0,56.453,0a8.707,8.707,0,0,0,2.751-.66,2.459,2.459,0,0,0,.661-1.431s1.54-1.21,1.651-1.981-.55-5.5-.55-6.493,3.961-29.712,4.182-31.693a3.475,3.475,0,0,0-.99-3.3,67.756,67.756,0,0,0-9.244-5.172c-2.641-1.1-11.707-5.117-11.707-5.117Z" transform="translate(-200.76 -138.277)" fill="none" stroke="#001e6c" stroke-linecap="round" stroke-linejoin="round" stroke-width="1"/>
    <path id="Trazado_194933" data-name="Trazado 194933" d="M482.232,307.138c.566-.283,12.941-14.8,16.456-18.933a28.9,28.9,0,0,0-3.365-1.21l-15.512.334-4.547,2.341c1.181,3.752,4.715,13.375,5.427,15.156.881,2.2.881,2.641,1.541,2.311" transform="translate(-228.801 -138.165)" fill="#ffaa4c"/>
    <path id="Trazado_194934" data-name="Trazado 194934" d="M482.232,307.138c.566-.283,12.941-14.8,16.456-18.933a28.9,28.9,0,0,0-3.365-1.21l-15.512.334-4.547,2.341c1.181,3.752,4.715,13.375,5.427,15.156C481.572,307.028,481.572,307.468,482.232,307.138Z" transform="translate(-228.801 -138.165)" fill="none" stroke="#001e6c" stroke-linecap="round" stroke-linejoin="round" stroke-width="1"/>
    <path id="Trazado_194935" data-name="Trazado 194935" d="M470.611,222.926s-4.234,5.045-4.234,6.937.811,3.964-.09,5.045-5.946,3.424-4.955,4.685a11.98,11.98,0,0,0,2.522,2.252l-.18,2.883s1.8,7.027,2.793,7.388a18.888,18.888,0,0,0,4.145.27s3.964,15.766,4.955,15.946,12.988-13.165,12.988-13.165l-.465-5.3s4.685-7.658,5.946-11.171-1.261-10.811-4.865-14.145-10.9-3.874-13.6-3.6a11.1,11.1,0,0,0-4.955,1.982" transform="translate(-222.032 -106.338)" fill="#fff"/>
    <path id="Trazado_194936" data-name="Trazado 194936" d="M470.611,222.926s-4.234,5.045-4.234,6.937.811,3.964-.09,5.045-5.946,3.424-4.955,4.685a11.98,11.98,0,0,0,2.522,2.252l-.18,2.883s1.8,7.027,2.793,7.388a18.888,18.888,0,0,0,4.145.27s3.964,15.766,4.955,15.946,12.988-13.165,12.988-13.165l-.465-5.3s4.685-7.658,5.946-11.171-1.261-10.811-4.865-14.145-10.9-3.874-13.6-3.6A11.1,11.1,0,0,0,470.611,222.926Z" transform="translate(-222.032 -106.338)" fill="none" stroke="#001e6c" stroke-linecap="round" stroke-linejoin="round" stroke-width="1"/>
    <path id="Trazado_194937" data-name="Trazado 194937" d="M474.344,239.442a4.427,4.427,0,0,1,3.945.708" transform="translate(-228.358 -115.182)" fill="none" stroke="#001e6c" stroke-linecap="round" stroke-linejoin="round" stroke-width="2"/>
    <path id="Trazado_194938" data-name="Trazado 194938" d="M478.062,246.65c-.217.662-.661,1.11-.992,1s-.424-.733-.206-1.395.661-1.11.992-1,.424.733.206,1.395" transform="translate(-229.515 -118.063)" fill="#001e6c"/>
    <path id="Trazado_194939" data-name="Trazado 194939" d="M478.062,246.65c-.217.662-.661,1.11-.992,1s-.424-.733-.206-1.395.661-1.11.992-1S478.28,245.988,478.062,246.65Z" transform="translate(-229.515 -118.063)" fill="none" stroke="#001e6c" stroke-linecap="round" stroke-linejoin="round" stroke-width="1"/>
    <path id="Trazado_194940" data-name="Trazado 194940" d="M473.526,215.7s-8.288,1.442-6.306,3.063,12.883,4.5,15.225,5.315-3.964,2.252-3.063,2.973,2.7,4.145,2.7,4.145-.36,4.5-1.531,6.937-6.667,5.676-6.667,5.676-2.883-3.874-4.415-3.874-3.694.36-3.513,1.8.811,5.315.9,5.676-1.081,3.964.18,4.775,7.748-1.8,10.631-3.063,4.234-1.892,4.414-3.694,2.973-9.91,2.973-9.91a6.028,6.028,0,0,1,3.6-.991c1.712.27,1.712,4.054.18,5.406a42.039,42.039,0,0,1-3.513,2.7l5.045,4.234s11.082-11.172,11.261-15.5-5.315-11.982-7.658-14.415-15.857-3.063-20.451-1.261" transform="translate(-224.316 -103.341)" fill="#104469"/>
    <path id="Trazado_194941" data-name="Trazado 194941" d="M473.526,215.7s-8.288,1.442-6.306,3.063,12.883,4.5,15.225,5.315-3.964,2.252-3.063,2.973,2.7,4.145,2.7,4.145-.36,4.5-1.531,6.937-6.667,5.676-6.667,5.676-2.883-3.874-4.415-3.874-3.694.36-3.513,1.8.811,5.315.9,5.676-1.081,3.964.18,4.775,7.748-1.8,10.631-3.063,4.234-1.892,4.414-3.694,2.973-9.91,2.973-9.91a6.028,6.028,0,0,1,3.6-.991c1.712.27,1.712,4.054.18,5.406a42.039,42.039,0,0,1-3.513,2.7l5.045,4.234s11.082-11.172,11.261-15.5-5.315-11.982-7.658-14.415S478.12,213.893,473.526,215.7Z" transform="translate(-224.316 -103.341)" fill="none" stroke="#001e6c" stroke-linecap="round" stroke-linejoin="round" stroke-width="1"/>
    <path id="Trazado_194942" data-name="Trazado 194942" d="M466.154,268.178s2.868-1.09,3.684-.938c1.513.283,2.987,1.892,2.457,3.128a5.353,5.353,0,0,1-2.265,2.7c-1.011.506-1.433.759-1.6.253a1.618,1.618,0,0,0-1.123-1.09c-.506-.085-.349.485-.349.485a32.615,32.615,0,0,0-.8-4.536" transform="translate(-224.416 -128.648)" fill="#fff"/>
    <path id="Trazado_194943" data-name="Trazado 194943" d="M466.154,268.178s2.868-1.09,3.684-.938c1.513.283,2.987,1.892,2.457,3.128a5.353,5.353,0,0,1-2.265,2.7c-1.011.506-1.433.759-1.6.253a1.618,1.618,0,0,0-1.123-1.09c-.506-.085-.349.485-.349.485A32.615,32.615,0,0,0,466.154,268.178Z" transform="translate(-224.416 -128.648)" fill="none" stroke="#001e6c" stroke-linecap="round" stroke-linejoin="round" stroke-width="1"/>
    <path id="Trazado_194944" data-name="Trazado 194944" d="M468.089,270.52a7,7,0,0,0,3.425-.969" transform="translate(-225.347 -129.767)" fill="none" stroke="#001e6c" stroke-linecap="round" stroke-linejoin="round" stroke-width="1"/>
    <path id="Trazado_194945" data-name="Trazado 194945" d="M424.4,372.31a8.887,8.887,0,0,1,6.383,4.842" transform="translate(-204.316 -179.237)" fill="none" stroke="#001e6c" stroke-linecap="round" stroke-linejoin="round" stroke-width="1"/>
    <path id="Trazado_194946" data-name="Trazado 194946" d="M429.921,368.066s3.742.991,4.952,2.531" transform="translate(-206.972 -177.194)" fill="none" stroke="#001e6c" stroke-linecap="round" stroke-linejoin="round" stroke-width="1"/>
    <path id="Trazado_194947" data-name="Trazado 194947" d="M517.775,332.667l-3.215,19.017s-5.062.881-5.062,2.421,2.751,5.5,2.751,5.5" transform="translate(-245.282 -160.152)" fill="none" stroke="#001e6c" stroke-linecap="round" stroke-linejoin="round" stroke-width="1"/>
    <line id="Línea_165" data-name="Línea 165" x1="0.201" y2="1.207" transform="translate(272.818 169.083)" fill="none" stroke="#001e6c" stroke-linecap="round" stroke-linejoin="round" stroke-width="1"/>
    <path id="Trazado_194948" data-name="Trazado 194948" d="M537.362,364.99a10.706,10.706,0,0,1,1.616.164" transform="translate(-258.696 -175.713)" fill="none" stroke="#001e6c" stroke-linecap="round" stroke-linejoin="round" stroke-width="1"/>
    <path id="Trazado_194949" data-name="Trazado 194949" d="M521.8,366.513a26.371,26.371,0,0,1,6.479-1.445" transform="translate(-251.207 -175.751)" fill="none" stroke="#001e6c" stroke-linecap="round" stroke-linejoin="round" stroke-width="1"/>
    <path id="Trazado_194950" data-name="Trazado 194950" d="M537.933,370.612a10.068,10.068,0,0,1,5.062,6.493" transform="translate(-258.971 -178.42)" fill="none" stroke="#001e6c" stroke-linecap="round" stroke-linejoin="round" stroke-width="1"/>
    <path id="Trazado_194951" data-name="Trazado 194951" d="M491.34,385.1s.33-2.421-2.641-6.273-5.833-4.181-6.6-3.852-21.679,7.923-21.679,7.923-12.875-7.373-13.976-6.823-8.033,9.134-8.033,9.134Z" transform="translate(-211.059 -180.475)" fill="#fff"/>
    <path id="Trazado_194952" data-name="Trazado 194952" d="M491.34,385.1s.33-2.421-2.641-6.273-5.833-4.181-6.6-3.852-21.679,7.923-21.679,7.923-12.875-7.373-13.976-6.823-8.033,9.134-8.033,9.134Z" transform="translate(-211.059 -180.475)" fill="none" stroke="#001e6c" stroke-linecap="round" stroke-linejoin="round" stroke-width="1"/>
    <line id="Línea_166" data-name="Línea 166" y1="7.263" x2="6.933" transform="translate(230.322 197.475)" fill="none" stroke="#001e6c" stroke-linecap="round" stroke-linejoin="round" stroke-width="1"/>
    <line id="Línea_167" data-name="Línea 167" y1="5.612" x2="6.273" transform="translate(234.063 198.795)" fill="none" stroke="#001e6c" stroke-linecap="round" stroke-linejoin="round" stroke-width="1"/>
    <line id="Línea_168" data-name="Línea 168" y1="4.182" x2="4.292" transform="translate(238.905 200.666)" fill="none" stroke="#001e6c" stroke-linecap="round" stroke-linejoin="round" stroke-width="1"/>
    <line id="Línea_169" data-name="Línea 169" y1="1.431" x2="1.761" transform="translate(243.747 203.087)" fill="none" stroke="#001e6c" stroke-linecap="round" stroke-linejoin="round" stroke-width="1"/>
    <line id="Línea_170" data-name="Línea 170" y1="2.489" x2="0.361" transform="translate(232.601 166.112)" fill="none" stroke="#001e6c" stroke-linecap="round" stroke-linejoin="round" stroke-width="1"/>
    <line id="Línea_171" data-name="Línea 171" y1="32.919" x2="4.783" transform="translate(227.35 171.818)" fill="none" stroke="#001e6c" stroke-linecap="round" stroke-linejoin="round" stroke-width="1"/>
    <path id="Trazado_194953" data-name="Trazado 194953" d="M410.865,386.915s-.66-6.493-3.742-7.923-6.6.22-7.923.55-13.205,7.483-13.205,7.483Z" transform="translate(-185.825 -182.177)" fill="#fff"/>
    <path id="Trazado_194954" data-name="Trazado 194954" d="M410.865,386.915s-.66-6.493-3.742-7.923-6.6.22-7.923.55-13.205,7.483-13.205,7.483Z" transform="translate(-185.825 -182.177)" fill="none" stroke="#001e6c" stroke-linecap="round" stroke-linejoin="round" stroke-width="1"/>
    <path id="Trazado_194955" data-name="Trazado 194955" d="M392.252,382.724s-3.191-2.421-4.622-3.632-2.311-1.32-5.172-.99-4.952,8.583-4.952,8.583h10.674Z" transform="translate(-181.739 -181.949)" fill="#fff"/>
    <path id="Trazado_194956" data-name="Trazado 194956" d="M392.252,382.724s-3.191-2.421-4.622-3.632-2.311-1.32-5.172-.99-4.952,8.583-4.952,8.583h10.674Z" transform="translate(-181.739 -181.949)" fill="none" stroke="#001e6c" stroke-linecap="round" stroke-linejoin="round" stroke-width="1"/>
    <path id="Trazado_194957" data-name="Trazado 194957" d="M399.67,384.83s-3.961,4.4-3.522,4.732a7.323,7.323,0,0,0,2.531.22s3.632-2.751,3.742-3.521-2.751-1.431-2.751-1.431" transform="translate(-190.697 -185.265)" fill="#fff"/>
    <path id="Trazado_194958" data-name="Trazado 194958" d="M399.67,384.83s-3.961,4.4-3.522,4.732a7.323,7.323,0,0,0,2.531.22s3.632-2.751,3.742-3.521S399.67,384.83,399.67,384.83Z" transform="translate(-190.697 -185.265)" fill="none" stroke="#001e6c" stroke-linecap="round" stroke-linejoin="round" stroke-width="1"/>
    <path id="Trazado_194959" data-name="Trazado 194959" d="M387.913,378.516l-3.961,7.813-2.2-.44s2.421-7.483,2.751-8.254,2.09-.99,3.631,0" transform="translate(-183.782 -181.482)" fill="#fff"/>
    <path id="Trazado_194960" data-name="Trazado 194960" d="M387.913,378.516l-3.961,7.813-2.2-.44s2.421-7.483,2.751-8.254,2.09-.99,3.631,0" transform="translate(-183.782 -181.482)" fill="none" stroke="#001e6c" stroke-linecap="round" stroke-linejoin="round" stroke-width="1"/>
    <path id="Trazado_194961" data-name="Trazado 194961" d="M382.458,378.17s-3.267-.366-3.756.395-1.2,8.189-1.2,8.189l2.2-.33Z" transform="translate(-181.739 -182.016)" fill="#fff"/>
    <path id="Trazado_194962" data-name="Trazado 194962" d="M382.458,378.17s-3.267-.366-3.756.395-1.2,8.189-1.2,8.189l2.2-.33Z" transform="translate(-181.739 -182.016)" fill="none" stroke="#001e6c" stroke-linecap="round" stroke-linejoin="round" stroke-width="1"/>
    <path id="Trazado_194963" data-name="Trazado 194963" d="M376.524,379.746s-2.607.869-2.716,1.575.054,6.083.054,6.083l1.845.15Z" transform="translate(-179.941 -182.817)" fill="#fff"/>
    <path id="Trazado_194964" data-name="Trazado 194964" d="M376.524,379.746s-2.607.869-2.716,1.575.054,6.083.054,6.083l1.845.15Z" transform="translate(-179.941 -182.817)" fill="none" stroke="#001e6c" stroke-linecap="round" stroke-linejoin="round" stroke-width="1"/>
    <path id="Trazado_194965" data-name="Trazado 194965" d="M370.192,384.249a19.059,19.059,0,0,0-2.716,2.336c-.163.434-1.52,1.955-.978,2.064s2.444-1.358,2.444-1.358l1.14-.488Z" transform="translate(-176.378 -184.985)" fill="#fff"/>
    <path id="Trazado_194966" data-name="Trazado 194966" d="M370.192,384.249a19.059,19.059,0,0,0-2.716,2.336c-.163.434-1.52,1.955-.978,2.064s2.444-1.358,2.444-1.358l1.14-.488Z" transform="translate(-176.378 -184.985)" fill="none" stroke="#001e6c" stroke-linecap="round" stroke-linejoin="round" stroke-width="1"/>
    <line id="Línea_172" data-name="Línea 172" x1="340.289" transform="translate(0.482 204.848)" fill="none" stroke="#001e6c" stroke-linecap="round" stroke-linejoin="round" stroke-width="1"/>
    <rect id="Rectángulo_44692" data-name="Rectángulo 44692" width="37.125" height="1.081" transform="translate(191.737 203.766)" fill="#5089c6"/>
    <rect id="Rectángulo_44693" data-name="Rectángulo 44693" width="37.125" height="1.081" transform="translate(191.737 203.766)" fill="none" stroke="#001e6c" stroke-linecap="round" stroke-linejoin="round" stroke-width="1"/>
    <path id="Trazado_194967" data-name="Trazado 194967" d="M316.06,337.086H271.671l7.07,30.041H323.13Z" transform="translate(-130.788 -162.279)" fill="#5089c6"/>
    <path id="Trazado_194968" data-name="Trazado 194968" d="M316.06,337.086H271.671l7.07,30.041H323.13Z" transform="translate(-130.788 -162.279)" fill="none" stroke="#001e6c" stroke-linecap="round" stroke-linejoin="round" stroke-width="1"/>
    <path id="Trazado_194969" data-name="Trazado 194969" d="M317,364.54a2.8,2.8,0,1,1-2.8-2.8,2.8,2.8,0,0,1,2.8,2.8" transform="translate(-149.91 -174.147)" fill="#ffaa4c"/>
    <path id="Trazado_194970" data-name="Trazado 194970" d="M317,364.54a2.8,2.8,0,1,1-2.8-2.8A2.8,2.8,0,0,1,317,364.54Z" transform="translate(-149.91 -174.147)" fill="none" stroke="#001e6c" stroke-linecap="round" stroke-linejoin="round" stroke-width="1"/>
    <path id="Trazado_194971" data-name="Trazado 194971" d="M68,364.85s-2.628-1.792-4.658-.358-2.27,8.6,0,11.108c1.3,1.442,4.777.239,4.777.239l.239-3.464s-2.189,2.192-3.344-.119c-.717-1.433-.358-4.778.956-5.375s2.508.717,2.508.717Z" transform="translate(-29.715 -175.206)" fill="#ffaa4c"/>
    <path id="Trazado_194972" data-name="Trazado 194972" d="M68,364.85s-2.628-1.792-4.658-.358-2.27,8.6,0,11.108c1.3,1.442,4.777.239,4.777.239l.239-3.464s-2.189,2.192-3.344-.119c-.717-1.433-.358-4.778.956-5.375s2.508.717,2.508.717Z" transform="translate(-29.715 -175.206)" fill="none" stroke="#001e6c" stroke-linecap="round" stroke-linejoin="round" stroke-width="1"/>
    <path id="Trazado_194973" data-name="Trazado 194973" d="M76.63,342.7s4.348-1.839,4.348-5.352-2.174-3.512-2.509-6.02" transform="translate(-36.891 -159.507)" fill="none" stroke="#001e6c" stroke-linecap="round" stroke-linejoin="round" stroke-width="1"/>
    <path id="Trazado_194974" data-name="Trazado 194974" d="M86.61,331a4.09,4.09,0,0,0,1.839,3.679c2.174,1.672,1.171,4.348.168,5.685" transform="translate(-41.687 -159.352)" fill="none" stroke="#001e6c" stroke-linecap="round" stroke-linejoin="round" stroke-width="1"/>
    <path id="Trazado_194975" data-name="Trazado 194975" d="M87.916,325.9a3.5,3.5,0,0,1,1.672-1.672" transform="translate(-42.324 -156.092)" fill="none" stroke="#001e6c" stroke-linecap="round" stroke-linejoin="round" stroke-width="1"/>
    <rect id="Rectángulo_44694" data-name="Rectángulo 44694" width="16.181" height="20.096" transform="translate(37.616 184.752)" fill="#ef9f14"/>
    <rect id="Rectángulo_44695" data-name="Rectángulo 44695" width="16.181" height="20.096" transform="translate(37.616 184.752)" fill="none" stroke="#001e6c" stroke-linecap="round" stroke-linejoin="round" stroke-width="1"/>
    <path id="Trazado_194976" data-name="Trazado 194976" d="M90.493,59.794h-.76V54.88H79.31v4.914h-.76A13.822,13.822,0,0,0,64.728,73.616v1.377h39.587V73.616A13.822,13.822,0,0,0,90.493,59.794" transform="translate(-31.161 -26.42)" fill="#104469"/>
    <path id="Trazado_194977" data-name="Trazado 194977" d="M90.493,59.794h-.76V54.88H79.31v4.914h-.76A13.822,13.822,0,0,0,64.728,73.616v1.377h39.587V73.616A13.822,13.822,0,0,0,90.493,59.794Z" transform="translate(-31.161 -26.42)" fill="none" stroke="#001e6c" stroke-linecap="round" stroke-linejoin="round" stroke-width="1"/>
    <line id="Línea_173" data-name="Línea 173" y1="28.873" transform="translate(53.36 0.259)" fill="none" stroke="#001e6c" stroke-linecap="round" stroke-linejoin="round" stroke-width="1"/>
    <path id="Trazado_194978" data-name="Trazado 194978" d="M396.887,59.794h-.76V54.88H385.7v4.914h-.76a13.822,13.822,0,0,0-13.822,13.822v1.377h39.587V73.616a13.822,13.822,0,0,0-13.822-13.822" transform="translate(-178.665 -26.42)" fill="#104469"/>
    <path id="Trazado_194979" data-name="Trazado 194979" d="M396.887,59.794h-.76V54.88H385.7v4.914h-.76a13.822,13.822,0,0,0-13.822,13.822v1.377h39.587V73.616A13.822,13.822,0,0,0,396.887,59.794Z" transform="translate(-178.665 -26.42)" fill="none" stroke="#001e6c" stroke-linecap="round" stroke-linejoin="round" stroke-width="1"/>
    <line id="Línea_174" data-name="Línea 174" y1="28.873" transform="translate(212.25 0.259)" fill="none" stroke="#001e6c" stroke-linecap="round" stroke-linejoin="round" stroke-width="1"/>
    <path id="Trazado_194980" data-name="Trazado 194980" d="M294.141,101.281H268.822a5.743,5.743,0,0,0-5.742,5.742V117.7a5.743,5.743,0,0,0,5.742,5.743h19.921l4.544,5.613v-5.613h.855a5.742,5.742,0,0,0,5.742-5.743V107.023a5.743,5.743,0,0,0-5.742-5.742" transform="translate(-126.652 -48.759)" fill="#fff"/>
    <path id="Trazado_194981" data-name="Trazado 194981" d="M294.141,101.281H268.822a5.743,5.743,0,0,0-5.742,5.742V117.7a5.743,5.743,0,0,0,5.742,5.743h19.921l4.544,5.613v-5.613h.855a5.742,5.742,0,0,0,5.742-5.743V107.023A5.743,5.743,0,0,0,294.141,101.281Z" transform="translate(-126.652 -48.759)" fill="none" stroke="#001e6c" stroke-linecap="round" stroke-linejoin="round" stroke-width="1"/>
    <path id="Trazado_194982" data-name="Trazado 194982" d="M284.536,120.921a1.562,1.562,0,1,1-1.563-1.562,1.563,1.563,0,0,1,1.563,1.562" transform="translate(-135.477 -57.462)" fill="#ffaa4c"/>
    <circle id="Elipse_1306" data-name="Elipse 1306" cx="1.562" cy="1.562" r="1.562" transform="translate(145.934 61.897)" fill="none" stroke="#001e6c" stroke-linecap="round" stroke-linejoin="round" stroke-width="1"/>
    <path id="Trazado_194983" data-name="Trazado 194983" d="M298.677,120.921a1.562,1.562,0,1,1-1.563-1.562,1.563,1.563,0,0,1,1.563,1.562" transform="translate(-142.284 -57.462)" fill="#ffaa4c"/>
    <circle id="Elipse_1307" data-name="Elipse 1307" cx="1.562" cy="1.562" r="1.562" transform="translate(153.268 61.897)" fill="none" stroke="#001e6c" stroke-linecap="round" stroke-linejoin="round" stroke-width="1"/>
    <path id="Trazado_194984" data-name="Trazado 194984" d="M312.818,120.921a1.562,1.562,0,1,1-1.562-1.562,1.563,1.563,0,0,1,1.563,1.562" transform="translate(-149.092 -57.462)" fill="#ffaa4c"/>
    <circle id="Elipse_1308" data-name="Elipse 1308" cx="1.562" cy="1.562" r="1.562" transform="translate(160.601 61.897)" fill="none" stroke="#001e6c" stroke-linecap="round" stroke-linejoin="round" stroke-width="1"/>
  </g>
</svg>
