<svg xmlns="http://www.w3.org/2000/svg" xmlns:xlink="http://www.w3.org/1999/xlink" width="341.774" height="320" viewBox="0 0 341.774 320">
  <defs>
    <clipPath id="clip-path">
      <rect id="Rectángulo_44770" data-name="Rectángulo 44770" width="232" height="320" transform="translate(211 2747.158)" fill="#fff" stroke="#707070" stroke-width="1"/>
    </clipPath>
    <clipPath id="clip-path-2">
      <rect id="Rectángulo_44769" data-name="Rectángulo 44769" width="221.215" height="335.531" fill="none"/>
    </clipPath>
  </defs>
  <g id="Grupo_146380" data-name="Grupo 146380" transform="translate(10254 873)">
    <path id="Trazado_195257" data-name="Trazado 195257" d="M35.712,78c9.812-5.507,20.5-9.866,30.145-14.942,16.556-8.712,32.873-17.943,48.6-28.073C135.5,21.438,156.666,10.87,181.576,6.6a165.523,165.523,0,0,1,83.322,7q.363.129.726.262c21.024,7.66,40.329,20.654,53.93,38.576,15.822,20.848,23.057,46.387,22.143,72.382-.233,6.64-.814,13.266-1.575,19.865-8.014,69.449-98.386,76.127-135.782,73.9S92.089,192.948,72.122,195.436C50.494,198.13,26.654,190.5,12.385,173.6c-17.036-20.179-15.283-51.139-2.118-72.87C16.417,90.573,25.6,83.678,35.712,78" transform="translate(-10254 -817.764)" fill="#c9dae6"/>
    <g id="Enmascarar_grupo_143961" data-name="Enmascarar grupo 143961" transform="translate(-10418 -3620.158)" clip-path="url(#clip-path)">
      <g id="Grupo_146256" data-name="Grupo 146256" transform="translate(210.571 2764.551)">
        <g id="Grupo_146255" data-name="Grupo 146255" clip-path="url(#clip-path-2)">
          <path id="Trazado_195273" data-name="Trazado 195273" d="M166.955,19.4s2.319,6.122,2.057,8.493-1.535,3.593-.559,5.285,4.639,5.511,4.447,6.8-4.37,2.92-4.37,2.92-3,12.837-4.44,14.1-11.781-1.684-11.781-1.684l-11.066,13.1L124.967,50.091l4.078-4.42s-6.757-12.218-8.247-18.557,3.98-21.241,16.895-25.348,29.744,2.628,33.092,7.948-2.46,9.5-3.829,9.688" transform="translate(-10.646 -0.044)" fill="#fff"/>
          <path id="Trazado_195274" data-name="Trazado 195274" d="M166.955,19.4s2.319,6.122,2.057,8.493-1.535,3.593-.559,5.285,4.639,5.511,4.447,6.8-4.37,2.92-4.37,2.92-3,12.837-4.44,14.1-11.781-1.684-11.781-1.684l-11.066,13.1L124.967,50.091l4.078-4.42s-6.757-12.218-8.247-18.557,3.98-21.241,16.895-25.348,29.744,2.628,33.092,7.948S168.324,19.219,166.955,19.4Z" transform="translate(-10.646 -0.044)" fill="none" stroke="#104469" stroke-linecap="round" stroke-linejoin="round" stroke-width="1"/>
          <path id="Trazado_195275" data-name="Trazado 195275" d="M170.784,9.714c-3.348-5.32-20.178-12.053-33.093-7.948S119.307,20.775,120.8,27.114s8.247,18.557,8.247,18.557,7.63,2.068,9.784,1.5,9.793-4.525,9.793-4.525a16.63,16.63,0,0,1-3.366,0c-2-.183-3-3.994-3.627-7.727s3.183-4.734,4.927-4.838,1.744,3.261,2.59,4.455,3.078.253,3.4-.54-.88-7.387-.88-7.387,4.823-3.217,4.718-4.961-1.936-5.336-1.936-5.336l12.5,3.088c1.369-.183,7.177-4.368,3.829-9.688" transform="translate(-10.646 -0.044)" fill="#1a878e"/>
          <path id="Trazado_195276" data-name="Trazado 195276" d="M170.784,9.714c-3.348-5.32-20.178-12.053-33.093-7.948S119.307,20.775,120.8,27.114s8.247,18.557,8.247,18.557,7.63,2.068,9.784,1.5,9.793-4.525,9.793-4.525a16.63,16.63,0,0,1-3.366,0c-2-.183-3-3.994-3.627-7.727s3.183-4.734,4.927-4.838,1.744,3.261,2.59,4.455,3.078.253,3.4-.54-.88-7.387-.88-7.387,4.823-3.217,4.718-4.961-1.936-5.336-1.936-5.336l12.5,3.088C168.324,19.219,174.132,15.034,170.784,9.714Z" transform="translate(-10.646 -0.044)" fill="none" stroke="#104469" stroke-linecap="round" stroke-linejoin="round" stroke-width="1"/>
          <path id="Trazado_195277" data-name="Trazado 195277" d="M168.895,35.159c.114,1.368-.329,2.52-.988,2.576s-1.288-1.009-1.4-2.376.329-2.521.989-2.576,1.287,1.008,1.4,2.376" transform="translate(-14.702 -2.895)" fill="#001e6c"/>
          <path id="Trazado_195278" data-name="Trazado 195278" d="M164.494,30.142s3.585-2.537,6.191-.035" transform="translate(-14.526 -2.561)" fill="none" stroke="#001e6c" stroke-linecap="round" stroke-linejoin="round" stroke-width="1"/>
          <path id="Trazado_195279" data-name="Trazado 195279" d="M163.914,44.145a6.512,6.512,0,0,0,4.15,3.261" transform="translate(-14.475 -3.898)" fill="none" stroke="#001e6c" stroke-linecap="round" stroke-linejoin="round" stroke-width="1"/>
          <path id="Trazado_195280" data-name="Trazado 195280" d="M154.924,60.441,150.163,58.5l.194,7.36Z" transform="translate(-13.261 -5.167)" fill="#001e6c"/>
          <path id="Trazado_195281" data-name="Trazado 195281" d="M154.924,60.441,150.163,58.5l.194,7.36Z" transform="translate(-13.261 -5.167)" fill="none" stroke="#104469" stroke-linecap="round" stroke-linejoin="round" stroke-width="1"/>
          <path id="Trazado_195282" data-name="Trazado 195282" d="M78.121,48.5s-8.286,4.021-13.175,8.21-39.8,29.1-39.337,32.122,28.506,43.487,28.506,43.487l5.477-7.408L50.515,91.86,70.067,81.618Z" transform="translate(-2.261 -4.283)" fill="#79dae1"/>
          <path id="Trazado_195283" data-name="Trazado 195283" d="M78.121,48.5s-8.286,4.021-13.175,8.21-39.8,29.1-39.337,32.122,28.506,43.487,28.506,43.487l5.477-7.408L50.515,91.86,70.067,81.618Z" transform="translate(-2.261 -4.283)" fill="none" stroke="#104469" stroke-linecap="round" stroke-linejoin="round" stroke-width="1"/>
          <path id="Trazado_195284" data-name="Trazado 195284" d="M43.737,99.784l8.379-3.724L44.2,103.974" transform="translate(-3.862 -8.483)" fill="none" stroke="#001e6c" stroke-linecap="round" stroke-linejoin="round" stroke-width="1"/>
          <path id="Trazado_195285" data-name="Trazado 195285" d="M143.212,73.053s-3.459-9.968-5.9-11.8S119,50.064,115.341,50.064s-6.917,3.052-6.917,3.052,16.616,9.115,21.5,12.573a106.806,106.806,0,0,0,13.289,7.364" transform="translate(-9.575 -4.421)" fill="#d9fcff"/>
          <path id="Trazado_195286" data-name="Trazado 195286" d="M143.212,73.053s-3.459-9.968-5.9-11.8S119,50.064,115.341,50.064s-6.917,3.052-6.917,3.052,16.616,9.115,21.5,12.573A106.806,106.806,0,0,0,143.212,73.053Z" transform="translate(-9.575 -4.421)" fill="none" stroke="#104469" stroke-linecap="round" stroke-linejoin="round" stroke-width="1"/>
          <path id="Trazado_195287" data-name="Trazado 195287" d="M45.782,170.148v78.06L3.931,331.574S-1.01,337.5.967,341.455s10.455,6.818,18.95,2.957c3.148-1.431,8.717,2.972,14.151,1.49s9.962-3.756,7.986-8.7c-.891-2.227-6.1-2.442-8.751-3.347-3.231-1.1-3.9-2.638-3.9-2.638s4.972-5.529,4.972-8.987-.988-2.965,0-5.929,33.146-46.851,36.11-52.285,8.4-13.34,9.388-17.292,7.41-36.561,7.41-36.561Z" transform="translate(-0.044 -15.026)" fill="#104469"/>
          <path id="Trazado_195288" data-name="Trazado 195288" d="M45.782,170.148v78.06L3.931,331.574S-1.01,337.5.967,341.455s10.455,6.818,18.95,2.957c3.148-1.431,8.717,2.972,14.151,1.49s9.962-3.756,7.986-8.7c-.891-2.227-6.1-2.442-8.751-3.347-3.231-1.1-3.9-2.638-3.9-2.638s4.972-5.529,4.972-8.987-.988-2.965,0-5.929,33.146-46.851,36.11-52.285,8.4-13.34,9.388-17.292,7.41-36.561,7.41-36.561Z" transform="translate(-0.044 -15.026)" fill="none" stroke="#001e6c" stroke-linecap="round" stroke-linejoin="round" stroke-width="1"/>
          <path id="Trazado_195289" data-name="Trazado 195289" d="M59.55,138.176s-9.1,26.647-9.387,29.149c-1.342,11.508,27.791,39.292,27.791,39.292l32.827,44.192,13.489,78.565.053,13.675a4.422,4.422,0,0,0,3.9,3.973c3.823.439,14.1.178,16.66.178,3.953,0,14.711-1.95,16.622-2.293,1.459-.263,4.446-3.459,3.459-5.929s-8.085-3.183-10.556-4.17a41.637,41.637,0,0,1-9.172-5.8c-.668-.669-.232-3.386-.212-5.576a13.116,13.116,0,0,0-2.375-7.734,10.1,10.1,0,0,1-1.75-6c0-6.422-.968-72.721-1.956-76.179s-33.444-62.24-33.444-62.24l-1.613-13.136Z" transform="translate(-4.426 -12.202)" fill="#104469"/>
          <path id="Trazado_195290" data-name="Trazado 195290" d="M59.55,138.176s-9.1,26.647-9.387,29.149c-1.342,11.508,27.791,39.292,27.791,39.292l32.827,44.192,13.489,78.565.053,13.675a4.422,4.422,0,0,0,3.9,3.973c3.823.439,14.1.178,16.66.178,3.953,0,14.711-1.95,16.622-2.293,1.459-.263,4.446-3.459,3.459-5.929s-8.085-3.183-10.556-4.17a41.637,41.637,0,0,1-9.172-5.8c-.668-.669-.232-3.386-.212-5.576a13.116,13.116,0,0,0-2.375-7.734,10.1,10.1,0,0,1-1.75-6c0-6.422-.968-72.721-1.956-76.179s-33.444-62.24-33.444-62.24l-1.613-13.136Z" transform="translate(-4.426 -12.202)" fill="none" stroke="#001e6c" stroke-linecap="round" stroke-linejoin="round" stroke-width="1"/>
          <path id="Trazado_195291" data-name="Trazado 195291" d="M127.412,101.345l-5.323,53.235,5.323,12.929,5.323-9.126L131.215,94.5" transform="translate(-10.782 -8.345)" fill="#d9fcff"/>
          <path id="Trazado_195292" data-name="Trazado 195292" d="M127.412,101.345l-5.323,53.235,5.323,12.929,5.323-9.126L131.215,94.5" transform="translate(-10.782 -8.345)" fill="none" stroke="#104469" stroke-linecap="round" stroke-linejoin="round" stroke-width="1"/>
          <path id="Trazado_195293" data-name="Trazado 195293" d="M103.872,52.976S83.324,48.094,80.882,48.5s-7.12,26.854-9.968,39.264-14.241,42.113-14.037,44.553,4.272,4.273,5.493,4.68,39.264,13.02,42.112,13.223a4.068,4.068,0,0,0,4.476-3.051c.2-1.221.407-3.662.813-4.272s17.7-35.806,17.7-35.806,56.76,10.172,57.777,9.765,28.278-54.928,28.278-54.928l-7.73-5.494L173.448,91.223,138.66,72.913l-33.568-19.53" transform="translate(-5.023 -4.281)" fill="#79dae1"/>
          <path id="Trazado_195294" data-name="Trazado 195294" d="M103.872,52.976S83.324,48.094,80.882,48.5s-7.12,26.854-9.968,39.264-14.241,42.113-14.037,44.553,4.272,4.273,5.493,4.68,39.264,13.02,42.112,13.223a4.068,4.068,0,0,0,4.476-3.051c.2-1.221.407-3.662.813-4.272s17.7-35.806,17.7-35.806,56.76,10.172,57.777,9.765,28.278-54.928,28.278-54.928l-7.73-5.494L173.448,91.223,138.66,72.913l-33.568-19.53" transform="translate(-5.023 -4.281)" fill="none" stroke="#104469" stroke-linecap="round" stroke-linejoin="round" stroke-width="1"/>
          <line id="Línea_212" data-name="Línea 212" x1="15.055" y1="0.814" transform="translate(107.393 101.997)" fill="none" stroke="#001e6c" stroke-linecap="round" stroke-linejoin="round" stroke-width="1"/>
          <line id="Línea_213" data-name="Línea 213" x1="33.793" y2="5.509" transform="translate(80.336 104.828)" fill="none" stroke="#001e6c" stroke-linecap="round" stroke-linejoin="round" stroke-width="1"/>
          <line id="Línea_214" data-name="Línea 214" x1="1.409" y2="0.23" transform="translate(116.36 104.235)" fill="none" stroke="#001e6c" stroke-linecap="round" stroke-linejoin="round" stroke-width="1"/>
          <path id="Trazado_195295" data-name="Trazado 195295" d="M98.438,133.188a45.2,45.2,0,0,1-4.742,1.729" transform="translate(-8.274 -11.762)" fill="none" stroke="#001e6c" stroke-linecap="round" stroke-linejoin="round" stroke-width="1"/>
          <path id="Trazado_195296" data-name="Trazado 195296" d="M121.705,119.91a213.23,213.23,0,0,1-19.54,10.781" transform="translate(-9.022 -10.589)" fill="none" stroke="#001e6c" stroke-linecap="round" stroke-linejoin="round" stroke-width="1"/>
          <path id="Trazado_195297" data-name="Trazado 195297" d="M185.154,97.149a71.642,71.642,0,0,1-2.645,6.714" transform="translate(-16.117 -8.579)" fill="none" stroke="#001e6c" stroke-linecap="round" stroke-linejoin="round" stroke-width="1"/>
          <line id="Línea_215" data-name="Línea 215" x2="8.952" y2="6.51" transform="translate(195.89 57.443)" fill="none" stroke="#001e6c" stroke-linecap="round" stroke-linejoin="round" stroke-width="1"/>
          <path id="Trazado_195298" data-name="Trazado 195298" d="M219.711,40.4s1.45-8.706,1.693-9.189,6.045-3.869,6.65-3.506a1.471,1.471,0,0,1,.484,2.176,20.118,20.118,0,0,1-3.265,3.265Z" transform="translate(-19.402 -2.444)" fill="#fff"/>
          <path id="Trazado_195299" data-name="Trazado 195299" d="M219.711,40.4s1.45-8.706,1.693-9.189,6.045-3.869,6.65-3.506a1.471,1.471,0,0,1,.484,2.176,20.118,20.118,0,0,1-3.265,3.265Z" transform="translate(-19.402 -2.444)" fill="none" stroke="#104469" stroke-linecap="round" stroke-linejoin="round" stroke-width="1"/>
          <path id="Trazado_195300" data-name="Trazado 195300" d="M220.176,54.694l-.464-14.2,4.111-4.959s6.287-6.771,7.376-6.771a3.6,3.6,0,0,1,2.781,1.331,13.732,13.732,0,0,1,.363,2.539s5.078,8.585,5.683,10.157-.846,8.343-3.144,10.639-8.974,6.756-8.974,6.756Z" transform="translate(-19.403 -2.54)" fill="#fff"/>
          <path id="Trazado_195301" data-name="Trazado 195301" d="M220.176,54.694l-.464-14.2,4.111-4.959s6.287-6.771,7.376-6.771a3.6,3.6,0,0,1,2.781,1.331,13.732,13.732,0,0,1,.363,2.539s5.078,8.585,5.683,10.157-.846,8.343-3.144,10.639-8.974,6.756-8.974,6.756Z" transform="translate(-19.403 -2.54)" fill="none" stroke="#104469" stroke-linecap="round" stroke-linejoin="round" stroke-width="1"/>
          <path id="Trazado_195302" data-name="Trazado 195302" d="M229.183,29.826,215.953,32.1a1.525,1.525,0,1,0,.576,2.994l9.025-2Z" transform="translate(-18.959 -2.634)" fill="#fff"/>
          <path id="Trazado_195303" data-name="Trazado 195303" d="M229.183,29.826,215.953,32.1a1.525,1.525,0,1,0,.576,2.994l9.025-2Z" transform="translate(-18.959 -2.634)" fill="none" stroke="#104469" stroke-linecap="round" stroke-linejoin="round" stroke-width="1"/>
        </g>
      </g>
    </g>
  </g>
</svg>
