<svg xmlns="http://www.w3.org/2000/svg" xmlns:xlink="http://www.w3.org/1999/xlink" width="399" height="498" viewBox="0 0 399 498">
  <defs>
    <clipPath id="clip-path">
      <rect id="Rectángulo_44600" data-name="Rectángulo 44600" width="224.044" height="372.613" fill="#ace6eb"/>
    </clipPath>
    <clipPath id="clip-path-2">
      <rect id="Rectángulo_44602" data-name="Rectángulo 44602" width="175" height="332" transform="translate(0 -0.133)" fill="#fff" stroke="#707070" stroke-width="1"/>
    </clipPath>
    <clipPath id="clip-path-3">
      <rect id="Rectángulo_44601" data-name="Rectángulo 44601" width="120.454" height="392.725" fill="none"/>
    </clipPath>
  </defs>
  <g id="Grupo_146375" data-name="Grupo 146375" transform="translate(-181 -2560)">
    <rect id="Rectángulo_44595" data-name="Rectángulo 44595" width="399" height="498" rx="8" transform="translate(181 2560)" fill="#b0eef4"/>
    <path id="Trazado_195522" data-name="Trazado 195522" d="M7.629-6.035H5.4V0H1.289V-17.062H8a7.5,7.5,0,0,1,4.746,1.346,4.561,4.561,0,0,1,1.711,3.8,5.54,5.54,0,0,1-.721,2.95,5.115,5.115,0,0,1-2.256,1.9L15.047-.176V0H10.641ZM5.4-9.2H8a2.335,2.335,0,0,0,1.764-.617,2.384,2.384,0,0,0,.592-1.721,2.412,2.412,0,0,0-.6-1.733A2.313,2.313,0,0,0,8-13.9H5.4ZM22.9.234a6.518,6.518,0,0,1-4.723-1.74,6.009,6.009,0,0,1-1.8-4.529v-.328A7.787,7.787,0,0,1,17.092-9.8a5.274,5.274,0,0,1,2.1-2.3,6.35,6.35,0,0,1,3.281-.814A5.489,5.489,0,0,1,26.7-11.256a6.516,6.516,0,0,1,1.547,4.623V-5.1H20.391a2.846,2.846,0,0,0,.926,1.676,2.755,2.755,0,0,0,1.852.609A3.549,3.549,0,0,0,26.1-4.125l1.8,2.133A5.045,5.045,0,0,1,25.811-.369,7.069,7.069,0,0,1,22.9.234Zm-.445-10.1q-1.734,0-2.062,2.3h3.984v-.3a1.956,1.956,0,0,0-.48-1.471A1.912,1.912,0,0,0,22.453-9.867Zm14.016,6.3a.912.912,0,0,0-.527-.809,8.021,8.021,0,0,0-2-.633A9.138,9.138,0,0,1,31.5-5.865,4.083,4.083,0,0,1,30.035-7.16a3.092,3.092,0,0,1-.5-1.746,3.5,3.5,0,0,1,1.441-2.877,5.938,5.938,0,0,1,3.773-1.131,6.579,6.579,0,0,1,4.031,1.137A3.555,3.555,0,0,1,40.3-8.789H36.34q0-1.523-1.605-1.523a1.591,1.591,0,0,0-1.043.346,1.07,1.07,0,0,0-.422.861.982.982,0,0,0,.516.855,4.872,4.872,0,0,0,1.646.539,14.228,14.228,0,0,1,1.986.5q2.859.984,2.859,3.527A3.321,3.321,0,0,1,38.736-.855a6.758,6.758,0,0,1-3.99,1.09A6.9,6.9,0,0,1,31.84-.352a4.86,4.86,0,0,1-1.992-1.594,3.609,3.609,0,0,1-.715-2.121h3.691a1.526,1.526,0,0,0,.586,1.283,2.41,2.41,0,0,0,1.441.4,1.9,1.9,0,0,0,1.213-.328A1.05,1.05,0,0,0,36.469-3.562ZM53.895-6.246a7.646,7.646,0,0,1-1.33,4.717A4.264,4.264,0,0,1,48.973.234,3.655,3.655,0,0,1,46.1-1.043V4.875H42.152V-12.68h3.691l.117,1.172a3.656,3.656,0,0,1,2.988-1.406,4.3,4.3,0,0,1,3.645,1.729,7.741,7.741,0,0,1,1.3,4.752Zm-3.949-.246q0-3.375-1.969-3.375A1.859,1.859,0,0,0,46.1-8.859v4.992A1.919,1.919,0,0,0,48-2.812q1.887,0,1.945-3.258Zm5.191.035a7.484,7.484,0,0,1,.738-3.381A5.28,5.28,0,0,1,58-12.117a6.388,6.388,0,0,1,3.246-.8A5.83,5.83,0,0,1,65.73-11.15a6.768,6.768,0,0,1,1.641,4.8v.141a6.566,6.566,0,0,1-1.646,4.705A5.846,5.846,0,0,1,61.266.234a5.912,5.912,0,0,1-4.348-1.623,6.348,6.348,0,0,1-1.77-4.4Zm3.949.246a4.718,4.718,0,0,0,.551,2.578,1.835,1.835,0,0,0,1.629.82q2.109,0,2.156-3.246v-.4q0-3.41-2.18-3.41-1.98,0-2.145,2.941ZM72.738-12.68l.129,1.488a4.3,4.3,0,0,1,3.621-1.723,3.618,3.618,0,0,1,2.959,1.184,5.635,5.635,0,0,1,1.014,3.563V0H76.5V-8a2.14,2.14,0,0,0-.387-1.412,1.789,1.789,0,0,0-1.406-.451,1.883,1.883,0,0,0-1.723.914V0H69.035V-12.68ZM89.285-3.562a.912.912,0,0,0-.527-.809,8.021,8.021,0,0,0-2-.633,9.138,9.138,0,0,1-2.437-.861A4.083,4.083,0,0,1,82.852-7.16a3.092,3.092,0,0,1-.5-1.746,3.5,3.5,0,0,1,1.441-2.877,5.938,5.938,0,0,1,3.773-1.131,6.579,6.579,0,0,1,4.031,1.137,3.555,3.555,0,0,1,1.523,2.988H89.156q0-1.523-1.605-1.523a1.591,1.591,0,0,0-1.043.346,1.07,1.07,0,0,0-.422.861.982.982,0,0,0,.516.855,4.872,4.872,0,0,0,1.646.539,14.228,14.228,0,0,1,1.986.5q2.859.984,2.859,3.527A3.321,3.321,0,0,1,91.553-.855a6.758,6.758,0,0,1-3.99,1.09,6.9,6.9,0,0,1-2.906-.586,4.86,4.86,0,0,1-1.992-1.594,3.609,3.609,0,0,1-.715-2.121h3.691a1.526,1.526,0,0,0,.586,1.283,2.41,2.41,0,0,0,1.441.4,1.9,1.9,0,0,0,1.213-.328A1.05,1.05,0,0,0,89.285-3.562ZM102.082,0a4.459,4.459,0,0,1-.375-1.137A3.672,3.672,0,0,1,98.66.234,4.5,4.5,0,0,1,95.613-.85a3.45,3.45,0,0,1-1.254-2.725,3.546,3.546,0,0,1,1.523-3.117,7.761,7.761,0,0,1,4.43-1.055h1.219v-.671q0-1.755-1.512-1.755a1.236,1.236,0,0,0-1.406,1.39H94.664a3.54,3.54,0,0,1,1.564-2.985,6.575,6.575,0,0,1,3.99-1.147,5.764,5.764,0,0,1,3.832,1.184,4.115,4.115,0,0,1,1.441,3.246v5.613A5.748,5.748,0,0,0,106.031-.2V0ZM99.609-2.578a2.2,2.2,0,0,0,1.225-.316,1.983,1.983,0,0,0,.7-.715V-5.637h-1.148q-2.062,0-2.062,1.852a1.131,1.131,0,0,0,.363.873A1.315,1.315,0,0,0,99.609-2.578Zm19.84-3.656a7.728,7.728,0,0,1-1.289,4.793A4.318,4.318,0,0,1,114.527.234,3.747,3.747,0,0,1,111.41-1.3L111.246,0h-3.539V-18h3.949v6.34a3.615,3.615,0,0,1,2.848-1.254,4.319,4.319,0,0,1,3.656,1.7,7.768,7.768,0,0,1,1.289,4.781Zm-3.961-.252a5.155,5.155,0,0,0-.486-2.6,1.639,1.639,0,0,0-1.494-.778,1.891,1.891,0,0,0-1.852,1.018v5.031a1.9,1.9,0,0,0,1.875,1.006A1.677,1.677,0,0,0,115.3-4.17,9.745,9.745,0,0,0,115.488-6.486ZM125.355,0h-3.961V-18h3.961Zm8.566.234a6.518,6.518,0,0,1-4.723-1.74,6.009,6.009,0,0,1-1.8-4.529v-.328a7.787,7.787,0,0,1,.721-3.434,5.274,5.274,0,0,1,2.1-2.3,6.35,6.35,0,0,1,3.281-.814,5.489,5.489,0,0,1,4.219,1.658,6.516,6.516,0,0,1,1.547,4.623V-5.1h-7.852a2.846,2.846,0,0,0,.926,1.676,2.755,2.755,0,0,0,1.852.609,3.549,3.549,0,0,0,2.93-1.312l1.8,2.133a5.045,5.045,0,0,1-2.092,1.623A7.069,7.069,0,0,1,133.922.234Zm-.445-10.1q-1.734,0-2.062,2.3H135.4v-.3a1.956,1.956,0,0,0-.48-1.471A1.912,1.912,0,0,0,133.477-9.867Zm14.016,6.3a.912.912,0,0,0-.527-.809,8.021,8.021,0,0,0-2-.633,9.138,9.138,0,0,1-2.437-.861,4.083,4.083,0,0,1-1.465-1.295,3.092,3.092,0,0,1-.5-1.746A3.5,3.5,0,0,1,142-11.783a5.938,5.938,0,0,1,3.773-1.131,6.579,6.579,0,0,1,4.031,1.137,3.555,3.555,0,0,1,1.523,2.988h-3.961q0-1.523-1.605-1.523a1.591,1.591,0,0,0-1.043.346,1.07,1.07,0,0,0-.422.861.982.982,0,0,0,.516.855,4.872,4.872,0,0,0,1.646.539,14.228,14.228,0,0,1,1.986.5q2.859.984,2.859,3.527A3.321,3.321,0,0,1,149.76-.855a6.758,6.758,0,0,1-3.99,1.09,6.9,6.9,0,0,1-2.906-.586,4.86,4.86,0,0,1-1.992-1.594,3.609,3.609,0,0,1-.715-2.121h3.691a1.526,1.526,0,0,0,.586,1.283,2.41,2.41,0,0,0,1.441.4,1.9,1.9,0,0,0,1.213-.328A1.05,1.05,0,0,0,147.492-3.562ZM.609,23.566a7.746,7.746,0,0,1,1.3-4.746,4.282,4.282,0,0,1,3.633-1.734A3.641,3.641,0,0,1,8.4,18.422V12h3.961V30H8.813l-.2-1.359A3.739,3.739,0,0,1,5.52,30.234,4.274,4.274,0,0,1,1.934,28.5,7.991,7.991,0,0,1,.609,23.566Zm3.949.246q0,3.375,1.969,3.375a1.944,1.944,0,0,0,1.875-1.1V21.258a1.892,1.892,0,0,0-1.852-1.125q-1.828,0-1.98,2.953Zm16.184,6.422a6.518,6.518,0,0,1-4.723-1.74,6.009,6.009,0,0,1-1.8-4.529v-.328a7.787,7.787,0,0,1,.721-3.434,5.274,5.274,0,0,1,2.1-2.3,6.35,6.35,0,0,1,3.281-.814,5.489,5.489,0,0,1,4.219,1.658,6.516,6.516,0,0,1,1.547,4.623V24.9H18.234a2.846,2.846,0,0,0,.926,1.676,2.755,2.755,0,0,0,1.852.609,3.549,3.549,0,0,0,2.93-1.312l1.8,2.133a5.045,5.045,0,0,1-2.092,1.623A7.069,7.069,0,0,1,20.742,30.234Zm-.445-10.1q-1.734,0-2.062,2.3h3.984v-.3a1.956,1.956,0,0,0-.48-1.471A1.912,1.912,0,0,0,20.3,20.133ZM38.215,30h-4.1V12.938h4.1Zm9.48-4.641,3.4-12.422h4.594L49.945,30h-4.5l-5.7-17.062h4.559Zm18.047,1.453H60.105L59.121,30H54.727l6.258-17.062h3.867L71.156,30H66.738ZM61.09,23.637h3.668l-1.84-5.918Z" transform="translate(307 2635)" fill="#12263f"/>
    <g id="Grupo_146161" data-name="Grupo 146161" transform="translate(42)">
      <g id="Grupo_146146" data-name="Grupo 146146" transform="translate(268.478 2685.387)">
        <g id="Grupo_146145" data-name="Grupo 146145" clip-path="url(#clip-path)">
          <path id="Trazado_194590" data-name="Trazado 194590" d="M76.27,109.862S60.155,80.2,31.9,78.28C15.826,77.186-2.684,80.536.324,84.3s24.814,36.093,75.946,25.566" transform="translate(0 0)" fill="#ace6eb"/>
          <path id="Trazado_194591" data-name="Trazado 194591" d="M77.953,109.862s5.679-33.272,31.8-44.211c14.865-6.227,33.466-9.03,31.833-4.5s-11.836,42.171-63.629,48.712" transform="translate(0 0)" fill="#ace6eb"/>
          <path id="Trazado_194592" data-name="Trazado 194592" d="M76.441,78.751s-16.48-29.457-3.029-54.373C81.068,10.2,93.781-3.669,95.355.881s17.279,40.248-18.914,77.87" transform="translate(0 0)" fill="#ace6eb"/>
          <path id="Trazado_194593" data-name="Trazado 194593" d="M81.318,155.856S65.2,126.2,36.953,124.274C20.874,123.18,2.364,126.53,5.372,130.29s24.814,36.093,75.946,25.566" transform="translate(0 0)" fill="#ace6eb"/>
          <path id="Trazado_194594" data-name="Trazado 194594" d="M81.879,155.856s8.875-32.566,35.929-40.923c15.4-4.757,34.184-5.746,32.119-1.4s-15.865,40.826-68.048,42.319" transform="translate(0 0)" fill="#ace6eb"/>
          <path id="Trazado_194595" data-name="Trazado 194595" d="M89.057,200.689s-21.1-26.342-49.25-23.24c-16.019,1.766-33.645,8.336-30.02,11.5s30.8,31.137,79.27,11.735" transform="translate(0 0)" fill="#ace6eb"/>
          <path id="Trazado_194596" data-name="Trazado 194596" d="M90.05,200.338s11.147-31.859,38.723-38.291c15.7-3.66,34.5-3.323,32.137.871s-18.7,39.607-70.86,37.42" transform="translate(0 0)" fill="#ace6eb"/>
          <path id="Trazado_194597" data-name="Trazado 194597" d="M99.828,241.674s-24.494-23.223-51.955-16.318c-15.63,3.93-32.2,12.839-28.175,15.484s34.758,26.654,80.13.834" transform="translate(0 0)" fill="#ace6eb"/>
          <path id="Trazado_194598" data-name="Trazado 194598" d="M100.021,241.594s13.713-30.842,41.722-35c15.941-2.366,34.659-.494,31.959,3.493s-21.875,37.947-73.681,31.506" transform="translate(0 0)" fill="#ace6eb"/>
          <path id="Trazado_194599" data-name="Trazado 194599" d="M111.607,274.207S83.93,254.887,57.8,265.8c-14.871,6.211-29.929,17.487-25.557,19.5s38.336,21.185,79.362-11.1" transform="translate(0 0)" fill="#ace6eb"/>
          <path id="Trazado_194600" data-name="Trazado 194600" d="M114.412,274.207s11.675-31.67,39.353-37.643c15.754-3.4,34.554-2.75,32.119,1.4s-19.357,39.291-71.472,36.239" transform="translate(0 0)" fill="#ace6eb"/>
          <path id="Trazado_194601" data-name="Trazado 194601" d="M128.434,307.3s11.675-31.67,39.353-37.643c15.754-3.4,34.554-2.75,32.119,1.4s-19.357,39.291-71.472,36.239" transform="translate(0 0)" fill="#ace6eb"/>
          <path id="Trazado_194602" data-name="Trazado 194602" d="M152.358,344.052s11.675-31.67,39.353-37.643c15.754-3.4,34.554-2.75,32.119,1.4s-19.357,39.291-71.472,36.239" transform="translate(0 0)" fill="#ace6eb"/>
          <path id="Trazado_194603" data-name="Trazado 194603" d="M127.313,307.3s-27.677-19.32-53.805-8.406c-14.871,6.211-29.929,17.487-25.557,19.5s38.336,21.185,79.362-11.1" transform="translate(0 0)" fill="#ace6eb"/>
          <path id="Trazado_194604" data-name="Trazado 194604" d="M151.431,344.881s-27.677-19.32-53.8-8.406c-14.871,6.211-29.929,17.487-25.557,19.5s38.336,21.185,79.362-11.1" transform="translate(0 0)" fill="#ace6eb"/>
          <path id="Trazado_194605" data-name="Trazado 194605" d="M173.307,372.613a1.366,1.366,0,0,1-1.012-.447c-24.8-27.176-45.322-60.071-61-97.771C98.767,244.259,89.288,211,83.124,175.547,72.63,115.192,75.434,68.73,75.464,68.268a1.37,1.37,0,0,1,2.734.174c-.03.46-2.812,46.657,7.637,106.707,6.133,35.244,15.556,68.295,28.008,98.234,15.552,37.39,35.9,70,60.475,96.937a1.369,1.369,0,0,1-1.011,2.293" transform="translate(0 0)" fill="#ace6eb"/>
        </g>
      </g>
      <g id="_40_Tax" data-name="40_Tax" transform="translate(335 2769.627)">
        <path id="Trazado_194531" data-name="Trazado 194531" d="M79.043,16.342V9.671a6.671,6.671,0,0,1,13.342,0v6.671H79.043V93.06a6.671,6.671,0,0,1-13.342,0V86.389c.053-.053-7.423,0-7.423,0H14V9.671A6.671,6.671,0,0,1,20.671,3H85.714" transform="translate(8.013 0.668)" fill="#79dae1"/>
        <path id="Trazado_194532" data-name="Trazado 194532" d="M25.674,3h-5A6.671,6.671,0,0,0,14,9.671V86.389h5V9.671A6.671,6.671,0,0,1,25.674,3Z" transform="translate(8.013 0.668)" fill="#d9fcff"/>
        <path id="Trazado_194533" data-name="Trazado 194533" d="M53,16.342V9.671a6.671,6.671,0,0,1,13.342,0v6.671Z" transform="translate(34.056 0.668)" fill="#79dae1"/>
        <path id="Trazado_194534" data-name="Trazado 194534" d="M16.336,28.684H13V10.339A8.349,8.349,0,0,1,21.339,2H86.382V5.336H21.339a5,5,0,0,0-5,5Z" transform="translate(7.346 0)" fill="#104469"/>
        <path id="Trazado_194535" data-name="Trazado 194535" d="M73.04,72.684A8.349,8.349,0,0,1,64.7,64.346V59.317c-1.5,0-3.686.01-5.744.025H14.668A1.668,1.668,0,0,1,13,57.674V46h3.336V56.007h42.61c8.506-.058,8.506-.062,8.963,1.022a1.668,1.668,0,0,1,.128.645v6.671a5,5,0,1,0,10.007,0V47.668h3.336V64.346a8.331,8.331,0,0,1-8.339,8.339Z" transform="translate(7.346 29.382)" fill="#104469"/>
        <path id="Trazado_194536" data-name="Trazado 194536" d="M55.336,67.043H52v-56.7a8.339,8.339,0,1,1,16.678,0V17.01a1.668,1.668,0,0,1-1.668,1.668H55.336Zm0-51.7H65.342v-5a5,5,0,0,0-10.007,0Z" transform="translate(33.389 0)" fill="#104469"/>
        <path id="Trazado_194537" data-name="Trazado 194537" d="M52,43h3.336v3.336H52Z" transform="translate(33.389 27.379)"/>
        <path id="Trazado_194538" data-name="Trazado 194538" d="M20,10H33.342v3.336H20Z" transform="translate(12.02 5.342)" fill="#fff"/>
        <path id="Trazado_194539" data-name="Trazado 194539" d="M23,11h3.336V26.01H23Z" transform="translate(14.023 6.01)" fill="#fff"/>
        <path id="Trazado_194540" data-name="Trazado 194540" d="M41.674,26.678H38.339V13.336h-5V26.678H30V11.668A1.668,1.668,0,0,1,31.668,10h8.339a1.668,1.668,0,0,1,1.668,1.668Z" transform="translate(18.698 5.342)" fill="#fff"/>
        <path id="Trazado_194541" data-name="Trazado 194541" d="M31,15h8.339v3.336H31Z" transform="translate(19.365 8.681)" fill="#fff"/>
        <path id="Trazado_194542" data-name="Trazado 194542" d="M49.007,26.678H45.671V22.367L39.49,16.2A1.668,1.668,0,0,1,39,15.018V10h3.336v4.326L48.516,20.5a1.668,1.668,0,0,1,.49,1.177Z" transform="translate(24.708 5.342)" fill="#fff"/>
        <path id="Trazado_194543" data-name="Trazado 194543" d="M42.336,26.678H39v-5a1.668,1.668,0,0,1,.488-1.179l6.183-6.183V10h3.336v5a1.668,1.668,0,0,1-.488,1.179l-6.183,6.183Z" transform="translate(24.708 5.342)" fill="#fff"/>
        <path id="Trazado_194545" data-name="Trazado 194545" d="M28,43H56.352v3.336H28Z" transform="translate(17.362 27.379)" fill="#104469"/>
        <path id="Trazado_194546" data-name="Trazado 194546" d="M32,23H53.681v3.336H32Z" transform="translate(20.033 14.023)" fill="#104469"/>
        <path id="Trazado_194547" data-name="Trazado 194547" d="M32,27H53.681v3.336H32Z" transform="translate(20.033 16.694)" fill="#104469"/>
        <path id="Trazado_194548" data-name="Trazado 194548" d="M32,31H53.681v3.336H32Z" transform="translate(20.033 19.365)" fill="#104469"/>
        <path id="Trazado_194549" data-name="Trazado 194549" d="M32,35H53.681v3.336H32Z" transform="translate(20.033 22.037)" fill="#104469"/>
        <path id="Trazado_194550" data-name="Trazado 194550" d="M32,39H53.681v3.336H32Z" transform="translate(20.033 24.708)" fill="#104469"/>
        <path id="Trazado_194551" data-name="Trazado 194551" d="M22,47H60.359v3.336H22Z" transform="translate(13.355 30.05)" fill="#104469"/>
        <ellipse id="Elipse_1298" data-name="Elipse 1298" cx="18.23" cy="18.534" rx="18.23" ry="18.534" transform="translate(3.823 33.399)" fill="#ef9f14"/>
        <path id="Trazado_194553" data-name="Trazado 194553" d="M0,0H26.686V3.336H0Z" transform="translate(11.392 60.285) rotate(-45)" fill="#104469"/>
        <path id="Trazado_194554" data-name="Trazado 194554" d="M20.245,43.248a5,5,0,1,1,3.539-1.463,5,5,0,0,1-3.539,1.463Zm0-6.671a1.668,1.668,0,1,0,1.177.487,1.668,1.668,0,0,0-1.177-.487Z" transform="translate(8.845 20.862)" fill="#104469"/>
        <path id="Trazado_194555" data-name="Trazado 194555" d="M11.758,34.763A5,5,0,1,1,15.3,33.3,5,5,0,0,1,11.758,34.763Zm0-6.671a1.668,1.668,0,1,0,1.177.487,1.668,1.668,0,0,0-1.177-.487Z" transform="translate(3.179 15.196)" fill="#104469"/>
        <path id="Trazado_194556" data-name="Trazado 194556" d="M22.013,60.027A20.013,20.013,0,1,1,42.027,40.013,20.013,20.013,0,0,1,22.013,60.027Zm0-36.691A16.678,16.678,0,1,0,38.691,40.013,16.678,16.678,0,0,0,22.013,23.336Z" transform="translate(0 12.02)" fill="#104469"/>
        <path id="Trazado_194557" data-name="Trazado 194557" d="M79.718,66.342H16.342A13.342,13.342,0,0,1,3,53H73.046v6.671A6.671,6.671,0,0,0,79.718,66.342Z" transform="translate(0.668 34.056)" fill="#d9fcff"/>
        <path id="Trazado_194558" data-name="Trazado 194558" d="M80.385,68.678H17.01A15.027,15.027,0,0,1,2,53.668,1.668,1.668,0,0,1,3.668,52H73.714a1.668,1.668,0,0,1,1.668,1.668v6.671a5,5,0,0,0,5,5,1.668,1.668,0,1,1,0,3.336ZM5.454,55.336A11.693,11.693,0,0,0,17.01,65.342h56.7a8.294,8.294,0,0,1-1.668-5v-5Z" transform="translate(0 33.389)" fill="#104469"/>
      </g>
      <g id="Enmascarar_grupo_143958" data-name="Enmascarar grupo 143958" transform="translate(231 2726.133)" clip-path="url(#clip-path-2)">
        <g id="Grupo_146148" data-name="Grupo 146148" transform="translate(30.74 14.264)">
          <g id="Grupo_146147" data-name="Grupo 146147" clip-path="url(#clip-path-3)">
            <path id="Trazado_194606" data-name="Trazado 194606" d="M23.452,349.546s2.869,7.649,3.633,8.605,9.371,5.546,11.666,7.267,0,2.868-4.4,3.059-18.168-.765-19.7-1.53-5.355-7.075-6.694-8.606l-1.338-1.529.955,9.753-3.824-.574S.887,354.136.5,351.458s22.948-1.912,22.948-1.912" transform="translate(80.267 23.19)" fill="#001e6c"/>
            <path id="Trazado_194607" data-name="Trazado 194607" d="M23.452,349.546s2.869,7.649,3.633,8.605,9.371,5.546,11.666,7.267,0,2.868-4.4,3.059-18.168-.765-19.7-1.53-5.355-7.075-6.694-8.606l-1.338-1.529.955,9.753-3.824-.574S.887,354.136.5,351.458,23.452,349.546,23.452,349.546Z" transform="translate(80.267 23.19)" fill="none" stroke="#001e6c" stroke-linecap="round" stroke-linejoin="round" stroke-width="1"/>
            <path id="Trazado_194608" data-name="Trazado 194608" d="M82.976,350.912s2.678,4.78,4.4,7.267,11.474,9.37,10.327,10.135-12.813.766-17.594.383a14.026,14.026,0,0,1-8.032-3.633l-6.311-6.12.574,8.605h-4.78s-3.634-13.2-3.442-15.873,24.86-.765,24.86-.765" transform="translate(-39.305 23.243)" fill="#001e6c"/>
            <path id="Trazado_194609" data-name="Trazado 194609" d="M82.976,350.912s2.678,4.78,4.4,7.267,11.474,9.37,10.327,10.135-12.813.766-17.594.383a14.026,14.026,0,0,1-8.032-3.633l-6.311-6.12.574,8.605h-4.78s-3.634-13.2-3.442-15.873S82.976,350.912,82.976,350.912Z" transform="translate(-39.305 23.243)" fill="none" stroke="#001e6c" stroke-linecap="round" stroke-linejoin="round" stroke-width="1"/>
            <path id="Trazado_194610" data-name="Trazado 194610" d="M77.6,200.979l2.561,7.4s17.929,48.379,18.782,55.778,10.53,97.254,10.53,97.254-5.123,3.131-13.945,3.416a93.268,93.268,0,0,1-15.937-.854s-6.545-42.046-6.545-65.951-.285-32.727-.285-32.727L56.823,235.7s-1.707,41.265-5.122,59.479-5.123,53.5-5.123,53.5L49.14,363.76a136.684,136.684,0,0,1-18.5,1.423c-9.391,0-12.806-1.423-12.806-1.423s-5.408-2.277-1.992-27.6,9.107-58.623,9.107-63.746S13,202.686,13,202.686s42.4-2.846,48.094-4.838a129.809,129.809,0,0,1,14.514-3.7Z" transform="translate(-2.878 12.884)" fill="#104469"/>
            <path id="Trazado_194611" data-name="Trazado 194611" d="M77.6,200.979l2.561,7.4s17.929,48.379,18.782,55.778,10.53,97.254,10.53,97.254-5.123,3.131-13.945,3.416a93.268,93.268,0,0,1-15.937-.854s-6.545-42.046-6.545-65.951-.285-32.727-.285-32.727L56.823,235.7s-1.707,41.265-5.122,59.479-5.123,53.5-5.123,53.5L49.14,363.76a136.684,136.684,0,0,1-18.5,1.423c-9.391,0-12.806-1.423-12.806-1.423s-5.408-2.277-1.992-27.6,9.107-58.623,9.107-63.746S13,202.686,13,202.686s42.4-2.846,48.094-4.838a129.809,129.809,0,0,1,14.514-3.7Z" transform="translate(-2.878 12.884)" fill="none" stroke="#001e6c" stroke-linecap="round" stroke-linejoin="round" stroke-width="1"/>
            <line id="Línea_140" data-name="Línea 140" y1="16.222" x2="3.984" transform="translate(54.23 229.23)" fill="#fff"/>
            <line id="Línea_141" data-name="Línea 141" y1="16.222" x2="3.984" transform="translate(54.23 229.23)" fill="none" stroke="#256c72" stroke-linecap="round" stroke-linejoin="round" stroke-width="1"/>
            <path id="Trazado_194612" data-name="Trazado 194612" d="M85.544,82.67S100.773,91.9,104.695,97.9s13.382,21.458,12.69,28.38-5.538,20.3-5.538,20.3l-2.894,23.063,4.74,41.284L107,217.391l-4.615-8.537-3.23,9.921a139.624,139.624,0,0,1-35.994,1.384c-19.613-1.846-26.3-9.46-26.3-9.46l21-68.271s-12.69-41.3-12.92-47.992,17.074-18.92,17.074-18.92,18.92,2.769,23.535,7.153" transform="translate(-36.273 5.011)" fill="#79dae1"/>
            <path id="Trazado_194613" data-name="Trazado 194613" d="M85.544,82.67S100.773,91.9,104.695,97.9s13.382,21.458,12.69,28.38-5.538,20.3-5.538,20.3l-2.894,23.063,4.74,41.284L107,217.391l-4.615-8.537-3.23,9.921a139.624,139.624,0,0,1-35.994,1.384c-19.613-1.846-26.3-9.46-26.3-9.46l21-68.271s-12.69-41.3-12.92-47.992,17.074-18.92,17.074-18.92S80.93,78.286,85.544,82.67Z" transform="translate(-36.273 5.011)" fill="none" stroke="#104469" stroke-linecap="round" stroke-linejoin="round" stroke-width="1"/>
            <path id="Trazado_194614" data-name="Trazado 194614" d="M69.674,84.746s10.844,6.922,14.075,14.305,8.076,24.919,8.076,24.919S62.752,99.282,56.752,91.438,43.6,75.517,43.6,75.517s18.919,4.846,26.073,9.229" transform="translate(-17.864 5.011)" fill="#d9fcff"/>
            <path id="Trazado_194615" data-name="Trazado 194615" d="M69.674,84.746s10.844,6.922,14.075,14.305,8.076,24.919,8.076,24.919S62.752,99.282,56.752,91.438,43.6,75.517,43.6,75.517,62.52,80.363,69.674,84.746Z" transform="translate(-17.864 5.011)" fill="none" stroke="#104469" stroke-linecap="round" stroke-linejoin="round" stroke-width="1"/>
            <path id="Trazado_194616" data-name="Trazado 194616" d="M60.852,78.547l11.537,6.691-2.308,8.768L58.314,86.622Z" transform="translate(-14.119 5.213)" fill="#79dae1"/>
            <path id="Trazado_194617" data-name="Trazado 194617" d="M60.852,78.547l11.537,6.691-2.308,8.768L58.314,86.622Z" transform="translate(-14.119 5.213)" fill="none" stroke="#104469" stroke-linecap="round" stroke-linejoin="round" stroke-width="1"/>
            <ellipse id="Elipse_1299" data-name="Elipse 1299" cx="5.448" cy="6.296" rx="5.448" ry="6.296" transform="translate(61.322 37.103)" fill="none" stroke="#104469" stroke-linecap="round" stroke-linejoin="round" stroke-width="1"/>
            <path id="Trazado_194618" data-name="Trazado 194618" d="M79.763,23.255s4.358,8.474,4.116,12.106-1.21,6.538,0,8.233,6.538,3.874,5.084,6.537a16.6,16.6,0,0,1-4.842,4.843s-1.452,11.622-3.148,13.8-11.138,0-11.138,0L66.2,89.358,46.59,76.04l8.716-54.964s18.16-6.054,24.456,2.179" transform="translate(-18.44 1.256)" fill="#fff"/>
            <path id="Trazado_194619" data-name="Trazado 194619" d="M79.763,23.255s4.358,8.474,4.116,12.106-1.21,6.538,0,8.233,6.538,3.874,5.084,6.537a16.6,16.6,0,0,1-4.842,4.843s-1.452,11.622-3.148,13.8-11.138,0-11.138,0L66.2,89.358,46.59,76.04l8.716-54.964S73.467,15.023,79.763,23.255Z" transform="translate(-18.44 1.256)" fill="none" stroke="#104469" stroke-linecap="round" stroke-linejoin="round" stroke-width="1"/>
            <path id="Trazado_194620" data-name="Trazado 194620" d="M93.531,4.866s8.474-8.959,17.676-1.21,5.084,16.707,2.179,19.613-8.232,5.326-8.232,5.326a25.781,25.781,0,0,1-2.664,9.928c-2.421,4.358-6.78,13.56-6.78,13.56s7.749,9.443,7.507,15.254S97.889,81.865,86.025,80.653s-14.286-6.295-14.286-6.295-4.842,4.6-11.38,4.358-14.044-9.2-14.286-15.738,2.906-10.17,7.506-12.107,7.506-2.421,6.78-6.053-7.264-15.254-4.6-24.456S66.9,3.171,75.129,2.444s16.223.727,18.4,2.422" transform="translate(-45.527 0.033)" fill="#1a878e"/>
            <path id="Trazado_194621" data-name="Trazado 194621" d="M93.531,4.866s8.474-8.959,17.676-1.21,5.084,16.707,2.179,19.613-8.232,5.326-8.232,5.326a25.781,25.781,0,0,1-2.664,9.928c-2.421,4.358-6.78,13.56-6.78,13.56s7.749,9.443,7.507,15.254S97.889,81.865,86.025,80.653s-14.286-6.295-14.286-6.295-4.842,4.6-11.38,4.358-14.044-9.2-14.286-15.738,2.906-10.17,7.506-12.107,7.506-2.421,6.78-6.053-7.264-15.254-4.6-24.456S66.9,3.171,75.129,2.444,91.352,3.171,93.531,4.866Z" transform="translate(-45.527 0.033)" fill="none" stroke="#104469" stroke-linecap="round" stroke-linejoin="round" stroke-width="1"/>
            <line id="Línea_142" data-name="Línea 142" x1="17.68" y2="0.607" transform="translate(54.538 43.398)" fill="none" stroke="#001e6c" stroke-linecap="round" stroke-linejoin="round" stroke-width="1"/>
            <path id="Trazado_194622" data-name="Trazado 194622" d="M65.921,72.487,90.5,87.255,87.965,97.408,63.507,75.719Z" transform="translate(-37.771 4.81)" fill="#d9fcff"/>
            <path id="Trazado_194623" data-name="Trazado 194623" d="M65.921,72.487,90.5,87.255,87.965,97.408,63.507,75.719Z" transform="translate(-37.771 4.81)" fill="none" stroke="#104469" stroke-linecap="round" stroke-linejoin="round" stroke-width="1"/>
            <path id="Trazado_194624" data-name="Trazado 194624" d="M73.271,102.905l12.69,43.377,23.074-2.769s2.538,5.538,2.538,8.769v4.844a163.755,163.755,0,0,1-15.69,9.229c-9.69,5.076-16.843,6.922-17.766,6.922s-5.076-3.922-5.076-3.922a232.591,232.591,0,0,1-16.383-31.148C49.506,121.364,41.2,98.983,43.276,92.984s14.074-9.46,14.074-9.46" transform="translate(-36.921 5.543)" fill="#79dae1"/>
            <path id="Trazado_194625" data-name="Trazado 194625" d="M73.271,102.905l12.69,43.377,23.074-2.769s2.538,5.538,2.538,8.769v4.844a163.755,163.755,0,0,1-15.69,9.229c-9.69,5.076-16.843,6.922-17.766,6.922s-5.076-3.922-5.076-3.922a232.591,232.591,0,0,1-16.383-31.148C49.506,121.364,41.2,98.983,43.276,92.984s14.074-9.46,14.074-9.46" transform="translate(-36.921 5.543)" fill="none" stroke="#104469" stroke-linecap="round" stroke-linejoin="round" stroke-width="1"/>
            <path id="Trazado_194626" data-name="Trazado 194626" d="M64.543,133.544s4.614,6,5.076,7.614,1.846.692.462,1.616a26.526,26.526,0,0,1-9,3.23,95.628,95.628,0,0,1-10.241.352L47.15,135.28s12.086-3.812,17.393-1.736" transform="translate(-0.505 8.821)" fill="#fff"/>
            <path id="Trazado_194627" data-name="Trazado 194627" d="M64.543,133.544s4.614,6,5.076,7.614,1.846.692.462,1.616a26.526,26.526,0,0,1-9,3.23,95.628,95.628,0,0,1-10.241.352L47.15,135.28S59.236,131.467,64.543,133.544Z" transform="translate(-0.505 8.821)" fill="none" stroke="#001e6c" stroke-linecap="round" stroke-linejoin="round" stroke-width="1"/>
            <path id="Trazado_194628" data-name="Trazado 194628" d="M17.011,134.848s3.462,5.16,4.343,9.014S23.227,157.3,23.227,157.3s15.528-2.863,21.475-3.634,8.92-3.634,9.361-6.278,2.313-5.176.331-9.03-10.573-12.005-10.573-12.005L31.36,113.269s2.879,5.373,2.879,9.448-4.5,14.336-4.5,14.336Z" transform="translate(47.027 7.517)" fill="#79dae1"/>
            <path id="Trazado_194629" data-name="Trazado 194629" d="M17.011,134.848s3.462,5.16,4.343,9.014S23.227,157.3,23.227,157.3s15.528-2.863,21.475-3.634,8.92-3.634,9.361-6.278,2.313-5.176.331-9.03-10.573-12.005-10.573-12.005L31.36,113.269s2.879,5.373,2.879,9.448-4.5,14.336-4.5,14.336Z" transform="translate(47.027 7.517)" fill="none" stroke="#104469" stroke-linecap="round" stroke-linejoin="round" stroke-width="1"/>
            <line id="Línea_143" data-name="Línea 143" y1="0.367" x2="17.733" transform="translate(76.309 144.111)" fill="none" stroke="#001e6c" stroke-linecap="round" stroke-linejoin="round" stroke-width="1"/>
            <path id="Trazado_194630" data-name="Trazado 194630" d="M38.394,136.018s1.283-4.131,1.5-4.9,2.313-3.524,1.873-4.626-2.864-2.313-4.847-1.982-5.836,4.3-6.607,5.837-2.4,5.965-2.4,5.965Z" transform="translate(48.858 8.259)" fill="#fff"/>
            <path id="Trazado_194631" data-name="Trazado 194631" d="M38.394,136.018s1.283-4.131,1.5-4.9,2.313-3.524,1.873-4.626-2.864-2.313-4.847-1.982-5.836,4.3-6.607,5.837-2.4,5.965-2.4,5.965Z" transform="translate(48.858 8.259)" fill="none" stroke="#001e6c" stroke-linecap="round" stroke-linejoin="round" stroke-width="1"/>
            <path id="Trazado_194632" data-name="Trazado 194632" d="M34.407,125.641s-4.3,5.507-5.507,8.7" transform="translate(55.23 8.338)" fill="none" stroke="#001e6c" stroke-linecap="round" stroke-linejoin="round" stroke-width="1"/>
            <path id="Trazado_194633" data-name="Trazado 194633" d="M36.892,124.918a22.051,22.051,0,0,0-5.617,7.929" transform="translate(50.212 8.29)" fill="none" stroke="#001e6c" stroke-linecap="round" stroke-linejoin="round" stroke-width="1"/>
            <path id="Trazado_194634" data-name="Trazado 194634" d="M39.392,126.26s-3.414,4.184-4.3,6.5" transform="translate(43.636 8.379)" fill="none" stroke="#001e6c" stroke-linecap="round" stroke-linejoin="round" stroke-width="1"/>
          </g>
        </g>
      </g>
    </g>
    <g id="Icon_feather-rotate-ccw" data-name="Icon feather-rotate-ccw" transform="translate(447.5 2990.486)">
      <path id="Trazado_194131" data-name="Trazado 194131" d="M1.5,6v9h9" fill="none" stroke="#fff" stroke-linecap="round" stroke-linejoin="round" stroke-width="3"/>
      <path id="Trazado_194132" data-name="Trazado 194132" d="M5.265,22.5A13.5,13.5,0,1,0,8.46,8.46L1.5,15" fill="none" stroke="#fff" stroke-linecap="round" stroke-linejoin="round" stroke-width="3"/>
    </g>
  </g>
</svg>
