<svg xmlns="http://www.w3.org/2000/svg" width="1013" height="297" viewBox="0 0 1013 297">
  <g id="Grupo_146480" data-name="Grupo 146480" transform="translate(7882.271 6551)">
    <path id="Trazado_195590" data-name="Trazado 195590" d="M-9148.862-8973.5h369.245" transform="translate(1561.091 2489)" fill="none" stroke="#000" stroke-width="2" stroke-dasharray="6"/>
    <text id="Equidad" transform="translate(-7844.771 -6258)" fill="#104469" font-size="16" font-family="Roboto-Bold, Roboto" font-weight="700"><tspan x="-28.922" y="0">Equidad</tspan></text>
    <text id="Eficiencia" transform="translate(-7697.732 -6258)" fill="#104469" font-size="16" font-family="Roboto-Bold, Roboto" font-weight="700"><tspan x="-35.047" y="0">Eficiencia</tspan></text>
    <text id="Gradualidad" transform="translate(-7258.271 -6258)" fill="#104469" font-size="16" font-family="Roboto-Bold, Roboto" font-weight="700"><tspan x="-43.359" y="0">Gradualidad</tspan></text>
    <text id="Progresividad" transform="translate(-7139.271 -6258)" fill="#104469" font-size="16" font-family="Roboto-Bold, Roboto" font-weight="700"><tspan x="-49.973" y="0">Progresividad</tspan></text>
    <text id="Lesividad" transform="translate(-7031.271 -6258)" fill="#104469" font-size="16" font-family="Roboto-Bold, Roboto" font-weight="700"><tspan x="-34.359" y="0">Lesividad</tspan></text>
    <text id="Favorabilidad" transform="translate(-6918.271 -6258)" fill="#104469" font-size="16" font-family="Roboto-Bold, Roboto" font-weight="700"><tspan x="-48.25" y="0">Favorabilidad</tspan></text>
    <g id="Grupo_146409" data-name="Grupo 146409" transform="translate(-8198.232 -9211)">
      <circle id="Elipse_1362" data-name="Elipse 1362" cx="37.5" cy="37.5" r="37.5" transform="translate(463 2850)" fill="#ffd690"/>
      <g id="motivacion" transform="translate(441.417 2859.209)">
        <g id="Grupo_146406" data-name="Grupo 146406" transform="translate(38.809 0.807)">
          <g id="Grupo_146403" data-name="Grupo 146403" transform="translate(4.443 19.808)">
            <g id="XMLID_1_">
              <g id="Grupo_146402" data-name="Grupo 146402">
                <path id="Trazado_195606" data-name="Trazado 195606" d="M112.685,204.446a2.625,2.625,0,0,1-1.856,4.481,2.626,2.626,0,0,1,0,5.251,2.626,2.626,0,0,1,0,5.251,2.626,2.626,0,0,1,0,5.251H98.356a12.572,12.572,0,0,1-6.767-1.976l-.111-.071-11.189-.046V204.773h10.99L98,199a5.4,5.4,0,0,0,1.678-2.627l.763-2.689a1.658,1.658,0,0,1,3.128-.178l.081.2a11.68,11.68,0,0,1,.5,7.349l-.541,2.1a.426.426,0,0,0,.412.532h6.8a2.613,2.613,0,0,1,1.856.769Z" transform="translate(-80.289 -192.473)" fill="#d9fcff"/>
              </g>
            </g>
          </g>
          <g id="Grupo_146405" data-name="Grupo 146405" transform="translate(0)">
            <path id="Trazado_195607" data-name="Trazado 195607" d="M110.345,19.526h6.712a.559.559,0,0,0,.376-.973L105.715,7.894a1.4,1.4,0,0,0-1.89,0L92.107,18.553a.559.559,0,0,0,.376.973H99.2V31.9a.971.971,0,0,0,.971.971h10.124Z" transform="translate(-86.234 -7.529)" fill="#ef9f14"/>
            <g id="Grupo_146404" data-name="Grupo 146404" transform="translate(33.731 15.251)">
              <path id="Trazado_195608" data-name="Trazado 195608" d="M361.6,161.972v-4.778a.591.591,0,0,1,.591-.591h1.742a.591.591,0,0,0,.446-.98l-4.8-5.495a.591.591,0,0,0-.891,0l-4.8,5.495a.591.591,0,0,0,.446.98h1.742a.591.591,0,0,1,.591.591v4.778a.849.849,0,0,0,.849.849h3.228A.849.849,0,0,0,361.6,161.972Z" transform="translate(-353.753 -149.925)" fill="#d9fcff"/>
            </g>
            <path id="Trazado_195609" data-name="Trazado 195609" d="M113.155,323.375a2.624,2.624,0,0,1-2.322,1.4H98.359c-1.96,0-5.311-1.367-6.47-1.867a2.231,2.231,0,0,0-.874-.182A1.023,1.023,0,0,1,90,321.7V308.436a4.526,4.526,0,0,0-.141-1.124H80.29v17.815l11.189.046.111.071a12.572,12.572,0,0,0,6.767,1.976h12.41a2.666,2.666,0,0,0,2.687-2.573,2.611,2.611,0,0,0-.3-1.272Z" transform="translate(-75.847 -275.204)" fill="#79dae1"/>
            <path id="Trazado_195610" data-name="Trazado 195610" d="M48.426,311.939a2.926,2.926,0,0,0,2.926-2.926v-15.6a2.926,2.926,0,0,0-2.926-2.926H39.957a1.148,1.148,0,0,0-1.148,1.148v19.153a1.148,1.148,0,0,0,1.148,1.148h8.469Z" transform="translate(-38.809 -260.184)" fill="#d9fcff"/>
            <path id="Trazado_195611" data-name="Trazado 195611" d="M48.533,290.515c0,.042,0,15.724,0,15.724a2.926,2.926,0,0,1-2.926,2.926h-6.8v1.648a1.148,1.148,0,0,0,1.148,1.148h8.469a2.926,2.926,0,0,0,2.926-2.926v-15.6A2.926,2.926,0,0,0,48.533,290.515Z" transform="translate(-38.809 -260.206)" fill="#79dae1"/>
          </g>
        </g>
        <g id="Grupo_146407" data-name="Grupo 146407" transform="translate(42.448 0)">
          <path id="Trazado_195612" data-name="Trazado 195612" d="M358.279,148.4l-4.8-5.495a1.395,1.395,0,0,0-2.1,0l-4.8,5.495a1.395,1.395,0,0,0,1.051,2.312h1.53v5.415a.8.8,0,1,0,1.607,0V150.5a1.4,1.4,0,0,0-1.395-1.395H348.1l4.33-4.96,4.33,4.96h-1.275a1.4,1.4,0,0,0-1.395,1.395v5.627a.8.8,0,1,0,1.607,0V150.71h1.53a1.395,1.395,0,0,0,1.051-2.312Z" transform="translate(-316.952 -127.172)" fill="#104469"/>
          <path id="Trazado_195613" data-name="Trazado 195613" d="M107.558,293.006a3.433,3.433,0,0,0-3.429-3.429h-.914a.8.8,0,1,0,0,1.607h.914a1.822,1.822,0,0,1,0,3.645.8.8,0,1,0,0,1.607,1.822,1.822,0,0,1,0,3.645.8.8,0,1,0,0,1.607,1.822,1.822,0,1,1,0,3.645.8.8,0,1,0,0,1.607,1.822,1.822,0,0,1,0,3.645H91.657a11.752,11.752,0,0,1-6.335-1.85l-.111-.071a.8.8,0,0,0-.432-.126h-2.3c.01-.111.016-.223.016-.337v-2.647a.8.8,0,0,0-1.607,0V308.2a2.125,2.125,0,0,1-2.123,2.123H73.589a.8.8,0,1,0,0,1.607h5.175a3.73,3.73,0,0,0,3.181-1.786h2.6a13.355,13.355,0,0,0,7.111,2.047h12.473a3.428,3.428,0,0,0,2.2-6.055,3.425,3.425,0,0,0,0-5.251,3.425,3.425,0,0,0,0-5.251,3.423,3.423,0,0,0,1.226-2.626Z" transform="translate(-72.786 -258.563)" fill="#104469"/>
          <path id="Trazado_195614" data-name="Trazado 195614" d="M85.785,13.607h5.909v3.584a.8.8,0,1,0,1.607,0V12.8a.8.8,0,0,0-.8-.8H86.417L97.668,1.766a.6.6,0,0,1,.809,0L109.728,12h-6.081a.8.8,0,0,0-.8.8v4.674a.8.8,0,0,0,1.607,0v-3.87h5.909a1.362,1.362,0,0,0,.917-2.37L99.558.578a2.2,2.2,0,0,0-2.971,0L84.869,11.237a1.362,1.362,0,0,0,.917,2.37Z" transform="translate(-83.175 0)" fill="#104469"/>
          <path id="Trazado_195615" data-name="Trazado 195615" d="M153.126,184.969a.8.8,0,0,0-.8.8V191.3a.8.8,0,0,0,1.607,0v-5.531A.8.8,0,0,0,153.126,184.969Z" transform="translate(-143.804 -165.158)" fill="#104469"/>
          <path id="Trazado_195616" data-name="Trazado 195616" d="M73.589,197.075h5.175a2.125,2.125,0,0,1,2.123,2.123v9.528a.8.8,0,0,0,1.607,0s-.006-9.743-.015-9.849h2.1a.8.8,0,0,0,.524-.194l6.722-5.777a6.194,6.194,0,0,0,1.928-3.017l.762-2.69a.855.855,0,0,1,1.613-.091l.08.2a10.874,10.874,0,0,1,.469,6.844l-.541,2.1a1.229,1.229,0,0,0,1.19,1.536h2.466a.8.8,0,1,0,0-1.607H97.813l.419-1.625a12.48,12.48,0,0,0-.538-7.856l-.08-.2a2.461,2.461,0,0,0-4.645.263l-.762,2.69a4.593,4.593,0,0,1-1.429,2.237l-6.5,5.583H81.955a3.73,3.73,0,0,0-3.191-1.8H73.589a.8.8,0,1,0,0,1.606Z" transform="translate(-72.786 -165.159)" fill="#104469"/>
        </g>
      </g>
    </g>
    <g id="Grupo_146418" data-name="Grupo 146418" transform="translate(-8203.271 -9211)">
      <g id="Grupo_146412" data-name="Grupo 146412" transform="translate(667)">
        <circle id="Elipse_1361" data-name="Elipse 1361" cx="37.5" cy="37.5" r="37.5" transform="translate(361 2850)" fill="#79dae1"/>
      </g>
      <g id="progreso" transform="translate(1041.453 2862.002)">
        <path id="Trazado_195617" data-name="Trazado 195617" d="M256,247.988h8.016v22.444H256Zm0,0" transform="translate(-230.349 -223.142)" fill="#79dae1"/>
        <path id="Trazado_195618" data-name="Trazado 195618" d="M256,247.988h8.016v3.206H256Zm0,0" transform="translate(-230.349 -223.142)" fill="#ffc119"/>
        <path id="Trazado_195619" data-name="Trazado 195619" d="M144,295.988h8.016v17.635H144Zm0,0" transform="translate(-129.571 -266.332)" fill="#79dae1"/>
        <path id="Trazado_195620" data-name="Trazado 195620" d="M144,295.988h8.016v3.206H144Zm0,0" transform="translate(-129.571 -266.332)" fill="#ffc119"/>
        <path id="Trazado_195621" data-name="Trazado 195621" d="M32,343.988h8.016v12.825H32Zm0,0" transform="translate(-28.794 -309.523)" fill="#d9fcff"/>
        <path id="Trazado_195622" data-name="Trazado 195622" d="M32,343.988h8.016v3.206H32Zm0,0" transform="translate(-28.794 -309.523)" fill="#ffc119"/>
        <path id="Trazado_195623" data-name="Trazado 195623" d="M256,59.21V47.988h10.421v9.619a1.6,1.6,0,0,1-1.6,1.6Zm0,0" transform="translate(-230.349 -43.181)" fill="#ef9f14"/>
        <path id="Trazado_195624" data-name="Trazado 195624" d="M309.611,64.806a1.6,1.6,0,0,0-1.6-1.6h-2.4a1.6,1.6,0,0,1-1.6-1.6V55.988h5.611Zm0,0" transform="translate(-273.54 -50.38)" fill="#fcd89b"/>
        <path id="Trazado_195625" data-name="Trazado 195625" d="M304,32.806a1.6,1.6,0,0,1,1.6-1.6h8.016V23.988H306.4a2.4,2.4,0,0,0-2.4,2.4Zm0,0" transform="translate(-273.54 -21.586)" fill="#ef9f14"/>
        <path id="Trazado_195626" data-name="Trazado 195626" d="M395.206,29.631H392V9.591a1.6,1.6,0,0,1,3.206,0Zm0,0" transform="translate(-352.722 -7.189)" fill="#c7ebff"/>
        <path id="Trazado_195627" data-name="Trazado 195627" d="M368,199.988h8.016v27.254H368Zm0,0" transform="translate(-331.127 -179.951)" fill="#79dae1"/>
        <path id="Trazado_195628" data-name="Trazado 195628" d="M368,199.988h8.016v3.206H368Zm0,0" transform="translate(-331.127 -179.951)" fill="#ffc119"/>
        <path id="Trazado_195629" data-name="Trazado 195629" d="M376,23.988h1.6V31.2H376Zm0,0" transform="translate(-338.325 -21.586)" fill="#fff0d6"/>
        <path id="Trazado_195630" data-name="Trazado 195630" d="M45.69,20.037a.8.8,0,0,0-.8-.8h-1.6V2.4a2.4,2.4,0,0,0-4.662-.8H32.865a3.206,3.206,0,0,0-3.092,2.4H25.651a.8.8,0,0,0-.8.8V16.029a.8.8,0,0,0,.8.8h8.817a2.4,2.4,0,0,0,2.4-2.4V10.418h1.6v8.817h-1.6a.8.8,0,0,0-.8.8V46.49h-1.6V24.847a.8.8,0,0,0-.8-.8H25.651a.8.8,0,0,0-.8.8V46.49h-1.6V29.656a.8.8,0,0,0-.8-.8H14.429a.8.8,0,0,0-.8.8V46.49h-1.6V34.466a.8.8,0,0,0-.8-.8H3.206a.8.8,0,0,0-.8.8V46.49H0v1.6H48.1v-1.6h-2.4Zm-11.222-4.81H26.452V5.609h3.206V11.22a2.4,2.4,0,0,0,2.4,2.4h2.4a.8.8,0,1,1,0,1.6Zm.8-3.059a2.386,2.386,0,0,0-.8-.148h-2.4a.8.8,0,0,1,0-1.6H35.27ZM32.063,8.815a2.386,2.386,0,0,0-.8.148V4.807a1.6,1.6,0,0,1,1.6-1.6h5.611V8.815ZM40.079,2.4a.8.8,0,1,1,1.6,0V19.236h-1.6Zm-.8,18.436h4.81v1.6H37.675v-1.6Zm-6.413,4.81v1.6H26.452v-1.6Zm-11.222,4.81v1.6H15.23v-1.6Zm-11.222,4.81v1.6H4.008v-1.6ZM8.016,46.49v-2.4h-1.6v2.4h-2.4V38.474h6.413V46.49Zm11.222,0v-2.4h-1.6v2.4h-2.4V33.664h6.413V46.49Zm11.222,0v-2.4h-1.6v2.4h-2.4V28.855h6.413V46.49Zm11.222,0v-2.4h-1.6v2.4h-2.4V24.045h6.413V46.49Zm0,0" fill="#104469"/>
      </g>
    </g>
    <g id="Grupo_146419" data-name="Grupo 146419" transform="translate(-8203.271 -9211)">
      <g id="Grupo_146413" data-name="Grupo 146413" transform="translate(773)">
        <circle id="Elipse_1361-2" data-name="Elipse 1361" cx="37.5" cy="37.5" r="37.5" transform="translate(361 2850)" fill="#79dae1"/>
      </g>
      <g id="tarjeta-de-credito" transform="translate(1146.534 2864.21)">
        <path id="Trazado_195639" data-name="Trazado 195639" d="M301.963,40v4.654H289.544L291.1,43.1,288,40Zm0,0" transform="translate(-260.074 -36.121)" fill="#d9fcff"/>
        <path id="Trazado_195640" data-name="Trazado 195640" d="M125.963,40l-3.1,3.1,1.559,1.559H112V40.078l.07-.078Zm0,0" transform="translate(-101.14 -36.121)" fill="#d9fcff"/>
        <path id="Trazado_195641" data-name="Trazado 195641" d="M143.029,98.348v.512a1.556,1.556,0,0,1-1.551,1.551H118.384l1.583-1.714a2.129,2.129,0,0,0,.566-1.451v-.132a2.133,2.133,0,0,0-3.739-1.4l-3.972,4.538-.047-.047A1.538,1.538,0,0,1,112,98.86V88h12.419l1.544,1.544-3.1,3.11,3.879,4.654h2.327l3.1-4.654-3.1-3.11L130.61,88h12.419Zm0,0" transform="translate(-101.14 -79.467)" fill="#ef9f14"/>
        <path id="Trazado_195642" data-name="Trazado 195642" d="M340.411,396.654H328V392h15.514v4.654Zm0,0" transform="translate(-296.195 -353.99)" fill="#d9fcff"/>
        <path id="Trazado_195643" data-name="Trazado 195643" d="M324.412,444.654H312V440h15.514v4.654Zm0,0" transform="translate(-281.747 -397.335)" fill="#79dae1"/>
        <path id="Trazado_195644" data-name="Trazado 195644" d="M324.412,348.654H312V344h15.514v4.654Zm0,0" transform="translate(-281.747 -310.644)" fill="#fff0d6"/>
        <path id="Trazado_195645" data-name="Trazado 195645" d="M319.757,196.782h2.327a1.556,1.556,0,0,0,1.551-1.551v-.512a7.757,7.757,0,1,1-10.084,2.064Zm0,0" transform="translate(-281.747 -175.838)" fill="#d9fcff"/>
        <path id="Trazado_195646" data-name="Trazado 195646" d="M301.963,9.551V11.1H288L291.1,8h9.309A1.556,1.556,0,0,1,301.963,9.551Zm0,0" transform="translate(-260.074 -7.224)" fill="#ef9f14"/>
        <path id="Trazado_195647" data-name="Trazado 195647" d="M112.07,11.1H112V9.551A1.556,1.556,0,0,1,113.551,8h9.309l3.1,3.1Zm0,0" transform="translate(-101.14 -7.224)" fill="#ef9f14"/>
        <path id="Trazado_195648" data-name="Trazado 195648" d="M33.355,57.626l3.972-4.538a2.133,2.133,0,0,1,3.739,1.4v.132a2.129,2.129,0,0,1-.566,1.451l-1.583,1.714L32.99,64.212a4.651,4.651,0,0,0-1.233,3.157v3.607H24V54.888a12.435,12.435,0,0,1,3.3-8.424L32.533,40.8V56.238a1.538,1.538,0,0,0,.776,1.342Zm0,0" transform="translate(-21.673 -36.845)" fill="#d9fcff"/>
        <path id="Trazado_195649" data-name="Trazado 195649" d="M8,352H18.86v6.206H8Zm0,0" transform="translate(-7.224 -317.868)" fill="#79dae1"/>
        <path id="Trazado_195650" data-name="Trazado 195650" d="M48.095,37.235H46.543V32.58H42.9a8.5,8.5,0,0,0-.237-14.112V2.327A2.33,2.33,0,0,0,40.338,0h-9.63L26.828,3.876l3.1,3.1-3.1,3.1,3.2,3.205-2.52,3.784H25.962l-3.193-3.834,3.151-3.154-3.1-3.1,3.1-3.1L22.041,0h-9.63a2.33,2.33,0,0,0-2.327,2.327v1.33L5.058,9.093a13.149,13.149,0,0,0-3.506,8.954V33.356H0v7.757H12.412V33.356H10.86V30.522a3.866,3.866,0,0,1,1.029-2.631l5.7-6.171H30.41a8.519,8.519,0,0,0,2.709,10.86H29.477v6.206h1.551v3.1H29.477v6.206H46.543V43.44h1.551ZM31.35,1.551h8.987a.777.777,0,0,1,.776.776V3.1L29.8,3.1Zm-1.55,3.1,11.313,0v3.1H31.345l.781-.781ZM21.4,7.757H11.636v-3.1l11.313,0L20.623,6.977ZM12.412,1.551H21.4L22.95,3.1l-11.314,0V2.327A.777.777,0,0,1,12.412,1.551ZM1.551,39.562V38.01h3.1V36.459h-3.1V34.907H10.86v1.551H6.206V38.01H10.86v1.551Zm9.2-12.723a5.416,5.416,0,0,0-1.44,3.683v2.834H3.1V18.047a11.61,11.61,0,0,1,3.093-7.9l3.888-4.2V19.393a2.318,2.318,0,0,0,.473,1.374,1.306,1.306,0,0,1-1.336-.036L7.411,19.523l-.861,1.291,1.81,1.206a2.892,2.892,0,0,0,3.7-.49l4.18-4.776a1.358,1.358,0,0,1,2.381.894v.133a1.358,1.358,0,0,1-.36.922Zm6.511-12.1a2.911,2.911,0,0,0-2.19.994l-3.4,3.883a.764.764,0,0,1-.036-.222V9.309h11.32l.77.77-3.055,3.057,4.563,5.482h3.106l3.685-5.532-3-3.007.771-.77h11.32V19.393a.777.777,0,0,1-.776.776H19.017l.38-.412a2.9,2.9,0,0,0,.772-1.975v-.133A2.914,2.914,0,0,0,17.259,14.739ZM31.029,25.6A6.912,6.912,0,0,1,32.21,21.72h5.024v.143a2.321,2.321,0,0,0,.776,4.512.776.776,0,1,1-.776.776H35.683a2.324,2.324,0,0,0,1.551,2.184v1.694h1.551V29.335a2.321,2.321,0,0,0-.776-4.512.776.776,0,1,1,.776-.776h1.551a2.324,2.324,0,0,0-1.551-2.184V21.72h1.551a2.328,2.328,0,0,0,2.155-1.457A6.976,6.976,0,1,1,31.029,25.6Zm0,8.533H44.992v3.1H43.44V35.683H41.889v1.551H40.338V35.683H38.786v1.551H37.235V35.683H35.683v1.551H34.132V35.683H32.58v1.551H31.029ZM44.992,46.543H43.44V44.992H41.889v1.551H40.338V44.992H38.786v1.551H37.235V44.992H35.683v1.551H34.132V44.992H32.58v1.551H31.029v-3.1H44.992Zm1.551-4.654H44.992V40.338H43.44v1.551H41.889V40.338H40.338v1.551H38.786V40.338H37.235v1.551H35.683V40.338H34.132v1.551H32.58v-3.1H46.543Zm0,0" fill="#104469"/>
        <path id="Trazado_195651" data-name="Trazado 195651" d="M328,176h7.757v1.551H328Zm0,0" transform="translate(-296.195 -158.934)"/>
        <path id="Trazado_195652" data-name="Trazado 195652" d="M344,144h6.206v1.551H344Zm0,0" transform="translate(-310.644 -130.037)"/>
      </g>
    </g>
    <rect id="Rectángulo_44840" data-name="Rectángulo 44840" width="144" height="45" rx="12" transform="translate(-7473.271 -6506)" fill="#fff"/>
    <path id="Trazado_195660" data-name="Trazado 195660" d="M-9431.644-8826.873s146.5-286.12,330.456,0" transform="translate(1570.645 2493.037)" fill="none" stroke="#ef9f14" stroke-width="2" stroke-dasharray="6"/>
    <text id="PRINCIPIOS" transform="translate(-7446.271 -6478)" fill="#104469" font-size="16" font-family="Roboto-Black, Roboto" font-weight="800"><tspan x="0" y="0">PRINCIPIOS</tspan></text>
    <circle id="Elipse_1359" data-name="Elipse 1359" cx="89.5" cy="89.5" r="89.5" transform="translate(-7794.271 -6551)" fill="#fcdea9"/>
    <g id="obediente" transform="translate(-7757.889 -6527.545)">
      <g id="Grupo_146378" data-name="Grupo 146378" transform="translate(31.903 1.246)">
        <path id="Trazado_195555" data-name="Trazado 195555" d="M170.07,7.5H117.146a.831.831,0,0,0-.831.831V31.37h5.45a4.072,4.072,0,0,1,.284,8.135v5.052h0a1.661,1.661,0,0,1,1.409,1.641V56.514a1.661,1.661,0,0,1-1.409,1.641h0v5.052a4.072,4.072,0,0,1-.284,8.135h-5.45v6.82h11.469a1.662,1.662,0,0,1,1.662,1.662V83.13s0,0,0,0h1.266a1.662,1.662,0,0,1,1.662,1.662v5.3H170.9V8.331A.831.831,0,0,0,170.07,7.5Z" transform="translate(-116.315 -7.5)" fill="#fff3de"/>
      </g>
      <g id="Grupo_146379" data-name="Grupo 146379" transform="translate(31.903 1.246)">
        <path id="Trazado_195556" data-name="Trazado 195556" d="M121.765,31.37c.05,0,.1,0,.148,0V8.331a.831.831,0,0,1,.831-.831h-5.6a.831.831,0,0,0-.831.831V31.37Z" transform="translate(-116.315 -7.5)" fill="#ffe5c2"/>
        <path id="Trazado_195557" data-name="Trazado 195557" d="M121.765,391.631h-5.45v6.82h5.6v-6.824C121.864,391.629,121.815,391.631,121.765,391.631Z" transform="translate(-116.315 -327.789)" fill="#ffe5c2"/>
      </g>
      <g id="Grupo_146397" data-name="Grupo 146397" transform="translate(16.324 25.116)">
        <g id="Grupo_146380" data-name="Grupo 146380" transform="translate(22.721 17.145)">
          <path id="Trazado_195558" data-name="Trazado 195558" d="M159.3,254.29h7.693v5.683H159.3Z" transform="translate(-159.296 -254.29)" fill="#d9fcff"/>
          <path id="Trazado_195559" data-name="Trazado 195559" d="M237.5,254.29H248.49v5.683H237.5Z" transform="translate(-224.505 -254.29)" fill="#d9fcff"/>
        </g>
        <g id="Grupo_146381" data-name="Grupo 146381" transform="translate(22.721 20.088)">
          <path id="Trazado_195560" data-name="Trazado 195560" d="M159.3,272h7.693v2.74H159.3Z" transform="translate(-159.296 -272)" fill="#79dae1"/>
          <path id="Trazado_195561" data-name="Trazado 195561" d="M237.5,272H248.49v2.74H237.5Z" transform="translate(-224.505 -272)" fill="#79dae1"/>
        </g>
        <g id="Grupo_146382" data-name="Grupo 146382" transform="translate(46.706 15.818)">
          <path id="Trazado_195562" data-name="Trazado 195562" d="M334.5,250.478a4.168,4.168,0,0,1-4.168,4.168H304.563a.947.947,0,0,1-.947-.947v-6.441a.947.947,0,0,1,.947-.947h25.764A4.168,4.168,0,0,1,334.5,250.478Z" transform="translate(-303.616 -246.31)" fill="#79dae1"/>
        </g>
        <g id="Grupo_146383" data-name="Grupo 146383" transform="translate(46.706 15.818)">
          <path id="Trazado_195563" data-name="Trazado 195563" d="M309.28,251.078a.947.947,0,0,1-.947-.947V246.31h-3.77a.947.947,0,0,0-.947.947V253.7a.947.947,0,0,0,.947.947h25.764a4.168,4.168,0,0,0,4.124-3.568Z" transform="translate(-303.616 -246.31)" fill="#d9fcff"/>
        </g>
        <g id="Grupo_146384" data-name="Grupo 146384" transform="translate(30.414 15.819)">
          <path id="Trazado_195564" data-name="Trazado 195564" d="M210.889,247.142v6.674a.831.831,0,0,1-.831.831h-3.642a.831.831,0,0,1-.831-.831v-6.674a.831.831,0,0,1,.831-.831h3.642A.831.831,0,0,1,210.889,247.142Z" transform="translate(-205.585 -246.311)" fill="#79dae1"/>
        </g>
        <g id="Grupo_146385" data-name="Grupo 146385" transform="translate(30.414 15.819)">
          <path id="Trazado_195565" data-name="Trazado 195565" d="M207.994,253.816v-6.674a.831.831,0,0,1,.831-.831h-2.409a.831.831,0,0,0-.831.831v6.674a.831.831,0,0,0,.831.831h2.409A.831.831,0,0,1,207.994,253.816Z" transform="translate(-205.585 -246.311)" fill="#d9fcff"/>
        </g>
        <g id="Grupo_146386" data-name="Grupo 146386" transform="translate(10.325 8.135)">
          <path id="Trazado_195566" data-name="Trazado 195566" d="M95.438,312.318H84.956a1.67,1.67,0,0,1-.253-.021v5.052c.094-.006.188-.011.284-.011H95.407c.1,0,.19,0,.284.011V312.3A1.646,1.646,0,0,1,95.438,312.318Z" transform="translate(-84.703 -293.647)" fill="#d9fcff"/>
          <path id="Trazado_195567" data-name="Trazado 195567" d="M84.956,312.318a1.67,1.67,0,0,1-.253-.021v5.052c.094-.006.188-.011.284-.011h3.9v-5.02H84.956Z" transform="translate(-84.703 -293.647)" fill="#79dae1"/>
          <path id="Trazado_195568" data-name="Trazado 195568" d="M84.956,205.11H95.438a1.67,1.67,0,0,1,.253.021v-5.052c-.094.006-.189.011-.284.011H84.987c-.1,0-.19,0-.284-.011v5.052A1.67,1.67,0,0,1,84.956,205.11Z" transform="translate(-84.703 -200.079)" fill="#d9fcff"/>
          <path id="Trazado_195569" data-name="Trazado 195569" d="M84.956,205.109h3.932v-5.02h-3.9c-.1,0-.19,0-.284-.011v5.052A1.692,1.692,0,0,1,84.956,205.109Z" transform="translate(-84.703 -200.078)" fill="#79dae1"/>
        </g>
        <g id="Grupo_146387" data-name="Grupo 146387" transform="translate(8.916 13.166)">
          <path id="Trazado_195570" data-name="Trazado 195570" d="M90.031,232.014V242.33a1.662,1.662,0,0,1-1.662,1.662H77.887a1.662,1.662,0,0,1-1.662-1.662V232.014a1.662,1.662,0,0,1,1.662-1.662H88.369A1.662,1.662,0,0,1,90.031,232.014Z" transform="translate(-76.225 -230.352)" fill="#79dae1"/>
        </g>
        <g id="Grupo_146388" data-name="Grupo 146388" transform="translate(8.916 13.166)">
          <path id="Trazado_195571" data-name="Trazado 195571" d="M81.838,242.33V232.014a1.662,1.662,0,0,1,1.662-1.662H77.887a1.662,1.662,0,0,0-1.662,1.662V242.33a1.662,1.662,0,0,0,1.662,1.662H83.5A1.662,1.662,0,0,1,81.838,242.33Z" transform="translate(-76.225 -230.352)" fill="#d9fcff"/>
        </g>
        <g id="Grupo_146391" data-name="Grupo 146391" transform="translate(0 46.792)">
          <path id="Trazado_195572" data-name="Trazado 195572" d="M65.968,437.824a1.7,1.7,0,0,0,.009-.171v-3.307a1.662,1.662,0,0,0-1.662-1.662H41.857a1.662,1.662,0,0,0-1.662,1.662v3.307a1.7,1.7,0,0,0,.009.171Z" transform="translate(-37.267 -432.685)" fill="#79dae1"/>
          <path id="Trazado_195573" data-name="Trazado 195573" d="M45.822,437.824a1.7,1.7,0,0,1-.009-.171v-3.307a1.662,1.662,0,0,1,1.662-1.662H41.857a1.662,1.662,0,0,0-1.662,1.662v3.307a1.7,1.7,0,0,0,.009.171Z" transform="translate(-37.267 -432.685)" fill="#79dae1"/>
          <g id="Grupo_146389" data-name="Grupo 146389" transform="translate(0 4.973)">
            <path id="Trazado_195574" data-name="Trazado 195574" d="M54.215,469.57H23.409a.831.831,0,0,1-.831-.831V464.27a1.662,1.662,0,0,1,1.662-1.662H52.553a1.662,1.662,0,0,1,1.662,1.662Z" transform="translate(-22.578 -462.608)" fill="#d9fcff"/>
          </g>
          <g id="Grupo_146390" data-name="Grupo 146390" transform="translate(0 4.973)">
            <path id="Trazado_195575" data-name="Trazado 195575" d="M28.132,468.739V464.27a1.662,1.662,0,0,1,1.662-1.662H24.24a1.662,1.662,0,0,0-1.662,1.662v4.469a.831.831,0,0,0,.831.831h5.554A.831.831,0,0,1,28.132,468.739Z" transform="translate(-22.578 -462.608)" fill="#79dae1"/>
          </g>
        </g>
        <g id="Grupo_146396" data-name="Grupo 146396" transform="translate(6.536)">
          <g id="Grupo_146392" data-name="Grupo 146392" transform="translate(0 31.826)">
            <path id="Trazado_195576" data-name="Trazado 195576" d="M80.47,346.706a4.073,4.073,0,0,1-4.073,4.073H65.978a4.073,4.073,0,0,1,0-8.146H76.4A4.073,4.073,0,0,1,80.47,346.706Z" transform="translate(-61.905 -342.633)" fill="#79dae1"/>
          </g>
          <g id="Grupo_146393" data-name="Grupo 146393" transform="translate(0 31.826)">
            <path id="Trazado_195577" data-name="Trazado 195577" d="M67.453,346.706a4.073,4.073,0,0,1,4.073-4.073H65.978a4.073,4.073,0,0,0,0,8.146h5.548A4.073,4.073,0,0,1,67.453,346.706Z" transform="translate(-61.905 -342.633)" fill="#79dae1"/>
          </g>
          <g id="Grupo_146394" data-name="Grupo 146394" transform="translate(0)">
            <path id="Trazado_195578" data-name="Trazado 195578" d="M80.47,155.2a4.073,4.073,0,0,1-4.073,4.073H65.978a4.073,4.073,0,0,1,0-8.146H76.4A4.073,4.073,0,0,1,80.47,155.2Z" transform="translate(-61.905 -151.128)" fill="#79dae1"/>
          </g>
          <g id="Grupo_146395" data-name="Grupo 146395">
            <path id="Trazado_195579" data-name="Trazado 195579" d="M67.453,155.2a4.073,4.073,0,0,1,4.073-4.073H65.978a4.073,4.073,0,0,0,0,8.146h5.548A4.073,4.073,0,0,1,67.453,155.2Z" transform="translate(-61.905 -151.128)" fill="#79dae1"/>
          </g>
        </g>
      </g>
      <g id="Grupo_146400" data-name="Grupo 146400" transform="translate(47.534 8.992)">
        <g id="Grupo_146398" data-name="Grupo 146398">
          <circle id="Elipse_1358" data-name="Elipse 1358" cx="11.661" cy="11.661" r="11.661" fill="#ef9f14"/>
        </g>
        <g id="Grupo_146399" data-name="Grupo 146399" transform="translate(0)">
          <path id="Trazado_195580" data-name="Trazado 195580" d="M215.961,65.768a11.664,11.664,0,0,1,8.867-11.322,11.661,11.661,0,1,0,0,22.644A11.665,11.665,0,0,1,215.961,65.768Z" transform="translate(-210.372 -54.107)" fill="#fff0d6"/>
        </g>
      </g>
      <g id="Grupo_146401" data-name="Grupo 146401" transform="translate(15.078 0)">
        <path id="Trazado_195581" data-name="Trazado 195581" d="M89.742,39.688H87.735V18.115a1.247,1.247,0,0,0-1.285-1.246,1.281,1.281,0,0,0-1.208,1.3V39.688H76.888a1.246,1.246,0,0,0,0,2.493H89.742a2.921,2.921,0,1,1,0,5.843H64.277V42.181h6.794a1.246,1.246,0,1,0,0-2.493H63.978a2.2,2.2,0,0,0-2.014,1.326H53.147a2.079,2.079,0,0,0-1.935-1.326H47.57a2.079,2.079,0,0,0-1.935,1.326H40.292v-1.07a2.906,2.906,0,0,0-1.409-2.487V34.283a5.319,5.319,0,0,0-1.53-10.414h-4.2V2.493H85.242V12.3a1.247,1.247,0,0,0,1.285,1.246,1.281,1.281,0,0,0,1.208-1.3V2.077A2.077,2.077,0,0,0,85.658,0H32.733a2.077,2.077,0,0,0-2.077,2.077V23.87H26.933A5.319,5.319,0,0,0,25.4,34.283v3.174a2.906,2.906,0,0,0-1.409,2.487V50.26A2.906,2.906,0,0,0,25.4,52.748v3.174a5.319,5.319,0,0,0,1.531,10.414h3.723v4.327H20.914a2.912,2.912,0,0,0-2.908,2.908v2.065h-.019a2.912,2.912,0,0,0-2.908,2.908v4.469a2.08,2.08,0,0,0,2.077,2.077h68.5a2.077,2.077,0,0,0,2.077-2.077v-32.5h2.007a5.414,5.414,0,0,0,0-10.828ZM53.289,43.507h8.495V46.7H53.289Zm-5.3-1.326H50.8v5.843H47.985Zm-7.693,1.326h5.2V46.7h-5.2ZM24.107,29.189a2.83,2.83,0,0,1,2.827-2.827H37.353a2.827,2.827,0,1,1,0,5.653H26.933a2.83,2.83,0,0,1-2.827-2.827Zm2.8,21.487a.416.416,0,0,1-.415-.415V39.944a.416.416,0,0,1,.415-.415H37.384a.416.416,0,0,1,.415.415V50.26a.416.416,0,0,1-.415.415Zm9.488,2.493V55.7H27.9V53.169ZM27.9,37.036V34.509H36.39v2.527Zm-.962,26.806a2.827,2.827,0,0,1,0-5.653H37.353a2.827,2.827,0,0,1,0,5.653ZM46.715,82.6H17.571V78.543a.416.416,0,0,1,.415-.415H25.7a1.246,1.246,0,1,0,0-2.493H20.5V73.57a.416.416,0,0,1,.415-.415H43.372a.416.416,0,0,1,.415.415v2.065H31.518a1.246,1.246,0,1,0,0,2.493H46.3a.416.416,0,0,1,.415.415Zm38.527,0H49.208V78.543A2.912,2.912,0,0,0,46.3,75.635h-.02V73.57a2.912,2.912,0,0,0-2.908-2.908H33.149V66.335h4.2a5.319,5.319,0,0,0,1.53-10.414V52.748a2.906,2.906,0,0,0,1.409-2.487V49.19h5.343a2.079,2.079,0,0,0,1.935,1.326h3.642a2.079,2.079,0,0,0,1.935-1.326h8.817a2.2,2.2,0,0,0,2.014,1.326H85.242V82.6Z" transform="translate(-15.078 0)" fill="#104469"/>
        <path id="Trazado_195582" data-name="Trazado 195582" d="M202.872,59.515A12.908,12.908,0,1,0,215.78,46.607,12.922,12.922,0,0,0,202.872,59.515Zm23.323,0A10.415,10.415,0,1,1,215.78,49.1,10.427,10.427,0,0,1,226.195,59.515Z" transform="translate(-171.662 -38.861)" fill="#104469"/>
        <path id="Trazado_195583" data-name="Trazado 195583" d="M248.471,103.633a1.246,1.246,0,0,0-1.763,1.763l3.834,3.834a1.247,1.247,0,0,0,1.763,0l5.943-5.943a1.246,1.246,0,0,0-1.763-1.763l-5.061,5.061Z" transform="translate(-207.909 -84.347)" fill="#104469"/>
        <path id="Trazado_195584" data-name="Trazado 195584" d="M243.681,328.315a1.246,1.246,0,0,0,1.246,1.246H267.85a1.246,1.246,0,1,0,0-2.493H244.927A1.246,1.246,0,0,0,243.681,328.315Z" transform="translate(-205.689 -272.713)" fill="#104469"/>
        <path id="Trazado_195585" data-name="Trazado 195585" d="M323.564,363.546H311.746a1.246,1.246,0,0,0,0,2.493h11.818a1.246,1.246,0,1,0,0-2.493Z" transform="translate(-261.404 -303.128)" fill="#104469"/>
        <path id="Trazado_195586" data-name="Trazado 195586" d="M244.927,366.039h6.784a1.246,1.246,0,0,0,0-2.493h-6.784a1.246,1.246,0,0,0,0,2.493Z" transform="translate(-205.689 -303.128)" fill="#104469"/>
        <path id="Trazado_195587" data-name="Trazado 195587" d="M267.849,400.023H244.926a1.246,1.246,0,1,0,0,2.493h22.923a1.246,1.246,0,0,0,0-2.493Z" transform="translate(-205.688 -333.543)" fill="#104469"/>
        <path id="Trazado_195588" data-name="Trazado 195588" d="M352.748,436.5h-6a1.246,1.246,0,1,0,0,2.493h6a1.246,1.246,0,1,0,0-2.493Z" transform="translate(-290.587 -363.958)" fill="#104469"/>
        <path id="Trazado_195589" data-name="Trazado 195589" d="M258.026,436.5h-13.1a1.246,1.246,0,1,0,0,2.493h13.1a1.246,1.246,0,1,0,0-2.493Z" transform="translate(-205.689 -363.958)" fill="#104469"/>
      </g>
    </g>
    <text id="Art_363_E.T" data-name="Art 363
E.T" transform="translate(-7702.732 -6417)" fill="#104469" font-size="16" font-family="Roboto-Bold, Roboto" font-weight="700"><tspan x="-26.961" y="0">Art 363</tspan><tspan x="-11.773" y="24">E.T</tspan></text>
    <path id="Trazado_195661" data-name="Trazado 195661" d="M-9431.644-8826.873s146.5-286.12,330.456,0" transform="translate(2182.372 2493.037)" fill="none" stroke="#104469" stroke-width="2" stroke-dasharray="6"/>
    <g id="Grupo_146417" data-name="Grupo 146417" transform="translate(-8203.271 -9211)">
      <g id="Grupo_146411" data-name="Grupo 146411" transform="translate(549)">
        <circle id="Elipse_1361-3" data-name="Elipse 1361" cx="37.5" cy="37.5" r="37.5" transform="translate(361 2850)" fill="#79dae1"/>
      </g>
      <g id="Icon" transform="translate(924 2862.42)">
        <path id="Trazado_195631" data-name="Trazado 195631" d="M5,5H34.636V47.115H5Z" transform="translate(-0.22 -0.22)" fill="#d9fcff"/>
        <circle id="Elipse_1364" data-name="Elipse 1364" cx="12.479" cy="12.479" r="12.479" transform="translate(21.938 21.938)" fill="#ef9f14"/>
        <path id="Trazado_195632" data-name="Trazado 195632" d="M35.528,23.55a12.411,12.411,0,0,1,11.423,0L44.359,11.239h3.12L41.239,5,35,11.239h3.12Z" transform="translate(-6.823 -0.22)" fill="#d9fcff"/>
        <path id="Trazado_195633" data-name="Trazado 195633" d="M40.816,22.812,38.5,11.8h2.159a.78.78,0,0,0,.551-1.331L34.968,4.229A.789.789,0,0,0,34.416,4H4.78A.78.78,0,0,0,4,4.78V46.895a.78.78,0,0,0,.78.78H34.416a13.254,13.254,0,0,0,6.4-24.863Zm-3.28-12.573a.78.78,0,0,0-.764.941l2.28,10.831a13.024,13.024,0,0,0-9.273,0L32.06,11.18a.78.78,0,0,0-.764-.941H30.06l4.357-4.357,4.357,4.357ZM5.56,46.115V5.56H32.534l-4.908,4.908a.78.78,0,0,0,.551,1.331h2.159L28.021,22.812a13.246,13.246,0,0,0,.169,23.3Zm28.857,0a11.7,11.7,0,1,1,11.7-11.7,11.7,11.7,0,0,1-11.7,11.7Z" transform="translate(0)" fill="#104469"/>
        <path id="Trazado_195634" data-name="Trazado 195634" d="M42.459,34.9a2.34,2.34,0,0,1,2.34,2.34.78.78,0,1,0,1.56,0,3.9,3.9,0,0,0-3.9-3.9V31.78a.78.78,0,0,0-1.56,0v1.56H37.78a.78.78,0,0,0-.78.78v6.239a.78.78,0,0,0,.78.78H44.8v4.679H40.9a2.34,2.34,0,0,1-2.34-2.34.78.78,0,0,0-1.56,0,3.9,3.9,0,0,0,3.9,3.9v1.56a.78.78,0,0,0,1.56,0v-1.56h3.12a.78.78,0,0,0,.78-.78V40.359a.78.78,0,0,0-.78-.78H38.56V34.9Z" transform="translate(-7.263 -5.943)" fill="#104469"/>
        <path id="Trazado_195635" data-name="Trazado 195635" d="M8.78,13.56H23.6a.78.78,0,0,0,0-1.56H8.78a.78.78,0,0,0,0,1.56Z" transform="translate(-0.88 -1.761)" fill="#104469"/>
        <path id="Trazado_195636" data-name="Trazado 195636" d="M8.78,19.56H25.158a.78.78,0,1,0,0-1.56H8.78a.78.78,0,0,0,0,1.56Z" transform="translate(-0.88 -3.081)" fill="#104469"/>
        <path id="Trazado_195637" data-name="Trazado 195637" d="M8.78,25.56H25.158a.78.78,0,0,0,0-1.56H8.78a.78.78,0,0,0,0,1.56Z" transform="translate(-0.88 -4.402)" fill="#104469"/>
        <path id="Trazado_195638" data-name="Trazado 195638" d="M18.919,30H8.78a.78.78,0,0,0,0,1.56H18.919a.78.78,0,0,0,0-1.56Z" transform="translate(-0.88 -5.722)" fill="#104469"/>
      </g>
    </g>
    <g id="Grupo_146420" data-name="Grupo 146420" transform="translate(-8203.271 -9211)">
      <g id="Grupo_146414" data-name="Grupo 146414" transform="translate(884)">
        <circle id="Elipse_1361-4" data-name="Elipse 1361" cx="37.5" cy="37.5" r="37.5" transform="translate(361 2850)" fill="#79dae1"/>
      </g>
      <g id="ley" transform="translate(1259.912 2864.21)">
        <g id="Grupo_146415" data-name="Grupo 146415" transform="translate(0.94 0.937)">
          <path id="Trazado_195653" data-name="Trazado 195653" d="M48.029,50.462l-.071-37.447A3.749,3.749,0,0,0,44.283,10H12.813A2.81,2.81,0,0,0,10,12.81v4.683h5.62V53.271a2.81,2.81,0,0,0,2.81,2.81H50.839a2.81,2.81,0,0,0,2.81-2.81v-2.81Z" transform="translate(-10.003 -10)" fill="#d9fcff"/>
          <path id="Trazado_195654" data-name="Trazado 195654" d="M260.421,42.571a26.286,26.286,0,0,0-10.615-.416,17.391,17.391,0,0,0-7.346,3.055c-9.235,6.827-6.665,23.692-6.7,23.838a54,54,0,0,0,9.055-6L243,59.43h5.784a48.007,48.007,0,0,0,3.583-4.174,79.5,79.5,0,0,0,8.055-12.685Z" transform="translate(-214.34 -38.824)" fill="#ef9f14"/>
          <ellipse id="Elipse_1365" data-name="Elipse 1365" cx="4.385" cy="4.933" rx="4.385" ry="4.933" transform="translate(9.89 5.501)" fill="#79dae1"/>
        </g>
        <g id="Grupo_146416" data-name="Grupo 146416" transform="translate(0.003 0)">
          <path id="Trazado_195655" data-name="Trazado 195655" d="M.94,9.366H5.623V44.208a3.751,3.751,0,0,0,3.746,3.746H24.449a.937.937,0,1,0,0-1.873H12.611a3.722,3.722,0,0,0,.5-1.873V42.335H43.649v1.873a1.875,1.875,0,0,1-1.873,1.873h-8.9a.937.937,0,1,0,0,1.873h8.9a3.751,3.751,0,0,0,3.746-3.746V41.4a.937.937,0,0,0-.937-.937H39.9V17.689a79.59,79.59,0,0,0,7.961-12.6.939.939,0,0,0-.608-1.314l-.007,0a27.5,27.5,0,0,0-7.661-.782A4.7,4.7,0,0,0,35.22,0H3.749A3.751,3.751,0,0,0,0,3.746V8.43a.937.937,0,0,0,.937.937ZM36.38,19.061c-.441.517-.909,1.035-1.395,1.544H29.6a.937.937,0,0,0-.838,1.356l1.473,2.946a56.321,56.321,0,0,1-6.761,4.578,27.28,27.28,0,0,1,5.234-12.625h6.618a.937.937,0,1,0,0-1.873h-5.09a29.1,29.1,0,0,1,4.028-3.746h5a.937.937,0,1,0,0-1.873H37.012a29.182,29.182,0,0,1,8.27-3.376,78.77,78.77,0,0,1-8.9,13.071Zm-13.3,4.276c.281-4.564,1.389-10.134,4.757-13.7l-.74,6.169c0,.027,0,.055-.005.082a29.584,29.584,0,0,0-4.011,7.444Zm6.211-10.1.648-5.4a15.863,15.863,0,0,1,4.795-2.233L32.709,9.9a.934.934,0,0,0-.074.233,30.972,30.972,0,0,0-3.342,3.1ZM40.582,4.847c.588,0,1.152.02,1.683.054a31.16,31.16,0,0,0-6.577,3.08l1.354-2.869A22.926,22.926,0,0,1,40.582,4.847ZM35.22,1.873a2.818,2.818,0,0,1,2.354,1.276,18.238,18.238,0,0,0-10.485,4.6c-3.874,3.6-5.384,9.318-5.821,14.617a44.956,44.956,0,0,0,.147,8.828l-.18,2.529H10.306a.937.937,0,1,0,0,1.873H25.853a.937.937,0,1,0,0-1.873H23.113l.14-1.968A56.231,56.231,0,0,0,32,25.89a.937.937,0,0,0,.246-1.145l-1.133-2.266h4.268a.937.937,0,0,0,.671-.283c.613-.629,1.2-1.275,1.751-1.919l.224-.266V40.462H12.179a.937.937,0,0,0-.937.937v2.81a1.873,1.873,0,0,1-3.746,0V3.746a3.722,3.722,0,0,0-.5-1.873ZM1.876,3.746a1.873,1.873,0,0,1,3.746,0V7.493H1.876Z" transform="translate(-0.003 0)" fill="#104469"/>
          <path id="Trazado_195656" data-name="Trazado 195656" d="M100.94,321.873h8.055a.937.937,0,0,0,0-1.873H100.94a.937.937,0,0,0,0,1.873Z" transform="translate(-90.637 -290.028)" fill="#104469"/>
          <path id="Trazado_195657" data-name="Trazado 195657" d="M108.623,71.239A5.62,5.62,0,1,0,103,65.62,5.626,5.626,0,0,0,108.623,71.239Zm0-9.366a3.746,3.746,0,1,1-3.746,3.746A3.751,3.751,0,0,1,108.623,61.873Z" transform="translate(-93.356 -54.38)" fill="#104469"/>
          <circle id="Elipse_1366" data-name="Elipse 1366" cx="1.096" cy="1.096" r="1.096" transform="translate(27.269 45.902)" fill="#104469"/>
        </g>
      </g>
    </g>
    <circle id="Elipse_1360" data-name="Elipse 1360" cx="89.5" cy="89.5" r="89.5" transform="translate(-7178.271 -6551)" fill="#79dae1"/>
    <g id="obediente-2" data-name="obediente" transform="translate(-7126.811 -6527.545)">
      <g id="Grupo_146378-2" data-name="Grupo 146378" transform="translate(8.667 1.246)">
        <path id="Trazado_195555-2" data-name="Trazado 195555" d="M117.146,7.5H170.07a.831.831,0,0,1,.831.831V31.37h-5.45a4.072,4.072,0,0,0-.284,8.135v5.052h0a1.661,1.661,0,0,0-1.409,1.641V56.514a1.661,1.661,0,0,0,1.409,1.641h0v5.052a4.072,4.072,0,0,0,.284,8.135h5.45v6.82H159.432a1.662,1.662,0,0,0-1.662,1.662V83.13s0,0,0,0H156.5a1.662,1.662,0,0,0-1.662,1.662v5.3H116.315V8.331A.831.831,0,0,1,117.146,7.5Z" transform="translate(-116.315 -7.5)" fill="#fff3de"/>
      </g>
      <g id="Grupo_146379-2" data-name="Grupo 146379" transform="translate(56.824 1.246)">
        <path id="Trazado_195556-2" data-name="Trazado 195556" d="M117.294,31.37c-.05,0-.1,0-.148,0V8.331a.831.831,0,0,0-.831-.831h5.6a.831.831,0,0,1,.831.831V31.37Z" transform="translate(-116.315 -7.5)" fill="#ffe5c2"/>
        <path id="Trazado_195557-2" data-name="Trazado 195557" d="M116.463,391.631h5.45v6.82h-5.6v-6.824C116.364,391.629,116.414,391.631,116.463,391.631Z" transform="translate(-115.484 -327.789)" fill="#ffe5c2"/>
      </g>
      <g id="Grupo_146397-2" data-name="Grupo 146397" transform="translate(1.246 25.116)">
        <g id="Grupo_146380-2" data-name="Grupo 146380" transform="translate(30.879 17.145)">
          <path id="Trazado_195558-2" data-name="Trazado 195558" d="M166.989,254.29H159.3v5.683h7.693Z" transform="translate(-143.004 -254.29)" fill="#d9fcff"/>
          <path id="Trazado_195559-2" data-name="Trazado 195559" d="M248.49,254.29H237.5v5.683H248.49Z" transform="translate(-237.502 -254.29)" fill="#d9fcff"/>
        </g>
        <g id="Grupo_146381-2" data-name="Grupo 146381" transform="translate(30.879 20.088)">
          <path id="Trazado_195560-2" data-name="Trazado 195560" d="M166.989,272H159.3v2.74h7.693Z" transform="translate(-143.004 -272)" fill="#79dae1"/>
          <path id="Trazado_195561-2" data-name="Trazado 195561" d="M248.49,272H237.5v2.74H248.49Z" transform="translate(-237.502 -272)" fill="#79dae1"/>
        </g>
        <g id="Grupo_146382-2" data-name="Grupo 146382" transform="translate(0 15.818)">
          <path id="Trazado_195562-2" data-name="Trazado 195562" d="M303.616,250.478a4.168,4.168,0,0,0,4.168,4.168h25.764a.947.947,0,0,0,.947-.947v-6.441a.947.947,0,0,0-.947-.947H307.784A4.168,4.168,0,0,0,303.616,250.478Z" transform="translate(-303.616 -246.31)" fill="#79dae1"/>
        </g>
        <g id="Grupo_146383-2" data-name="Grupo 146383" transform="translate(0.044 15.818)">
          <path id="Trazado_195563-2" data-name="Trazado 195563" d="M328.787,251.078a.947.947,0,0,0,.947-.947V246.31h3.77a.947.947,0,0,1,.947.947V253.7a.947.947,0,0,1-.947.947H307.74a4.168,4.168,0,0,1-4.124-3.568Z" transform="translate(-303.616 -246.31)" fill="#d9fcff"/>
        </g>
        <g id="Grupo_146384-2" data-name="Grupo 146384" transform="translate(41.867 15.819)">
          <path id="Trazado_195564-2" data-name="Trazado 195564" d="M205.585,247.142v6.674a.831.831,0,0,0,.831.831h3.642a.831.831,0,0,0,.831-.831v-6.674a.831.831,0,0,0-.831-.831h-3.642A.831.831,0,0,0,205.585,247.142Z" transform="translate(-205.585 -246.311)" fill="#79dae1"/>
        </g>
        <g id="Grupo_146385-2" data-name="Grupo 146385" transform="translate(43.931 15.819)">
          <path id="Trazado_195565-2" data-name="Trazado 195565" d="M206.416,253.816v-6.674a.831.831,0,0,0-.831-.831h2.409a.831.831,0,0,1,.831.831v6.674a.831.831,0,0,1-.831.831h-2.409A.831.831,0,0,0,206.416,253.816Z" transform="translate(-205.585 -246.311)" fill="#d9fcff"/>
        </g>
        <g id="Grupo_146386-2" data-name="Grupo 146386" transform="translate(56.273 8.135)">
          <path id="Trazado_195566-2" data-name="Trazado 195566" d="M84.956,312.318H95.438a1.67,1.67,0,0,0,.253-.021v5.052c-.094-.006-.188-.011-.284-.011H84.987c-.1,0-.19,0-.284.011V312.3A1.646,1.646,0,0,0,84.956,312.318Z" transform="translate(-84.703 -293.647)" fill="#d9fcff"/>
          <path id="Trazado_195567-2" data-name="Trazado 195567" d="M88.635,312.318a1.67,1.67,0,0,0,.253-.021v5.052c-.094-.006-.188-.011-.284-.011H84.7v-5.02h3.932Z" transform="translate(-77.9 -293.647)" fill="#79dae1"/>
          <path id="Trazado_195568-2" data-name="Trazado 195568" d="M95.438,205.11H84.956a1.67,1.67,0,0,0-.253.021v-5.052c.094.006.189.011.284.011H95.407c.1,0,.19,0,.284-.011v5.052A1.67,1.67,0,0,0,95.438,205.11Z" transform="translate(-84.703 -200.079)" fill="#d9fcff"/>
          <path id="Trazado_195569-2" data-name="Trazado 195569" d="M88.635,205.109H84.7v-5.02h3.9c.1,0,.19,0,.284-.011v5.052A1.692,1.692,0,0,0,88.635,205.109Z" transform="translate(-77.9 -200.078)" fill="#79dae1"/>
        </g>
        <g id="Grupo_146387-2" data-name="Grupo 146387" transform="translate(54.864 13.166)">
          <path id="Trazado_195570-2" data-name="Trazado 195570" d="M76.225,232.014V242.33a1.662,1.662,0,0,0,1.662,1.662H88.369a1.662,1.662,0,0,0,1.662-1.662V232.014a1.662,1.662,0,0,0-1.662-1.662H77.887A1.662,1.662,0,0,0,76.225,232.014Z" transform="translate(-76.225 -230.352)" fill="#79dae1"/>
        </g>
        <g id="Grupo_146388-2" data-name="Grupo 146388" transform="translate(61.395 13.166)">
          <path id="Trazado_195571-2" data-name="Trazado 195571" d="M77.887,242.33V232.014a1.662,1.662,0,0,0-1.662-1.662h5.613a1.662,1.662,0,0,1,1.662,1.662V242.33a1.662,1.662,0,0,1-1.662,1.662H76.225A1.662,1.662,0,0,0,77.887,242.33Z" transform="translate(-76.225 -230.352)" fill="#d9fcff"/>
        </g>
        <g id="Grupo_146391-2" data-name="Grupo 146391" transform="translate(45.948 46.792)">
          <path id="Trazado_195572-2" data-name="Trazado 195572" d="M40.2,437.824a1.7,1.7,0,0,1-.009-.171v-3.307a1.662,1.662,0,0,1,1.662-1.662H64.314a1.662,1.662,0,0,1,1.662,1.662v3.307a1.7,1.7,0,0,1-.009.171Z" transform="translate(-37.267 -432.685)" fill="#79dae1"/>
          <path id="Trazado_195573-2" data-name="Trazado 195573" d="M41.848,437.824a1.7,1.7,0,0,0,.009-.171v-3.307a1.662,1.662,0,0,0-1.662-1.662h5.618a1.662,1.662,0,0,1,1.662,1.662v3.307a1.7,1.7,0,0,1-.009.171Z" transform="translate(-18.766 -432.685)" fill="#79dae1"/>
          <g id="Grupo_146389-2" data-name="Grupo 146389" transform="translate(0 4.973)">
            <path id="Trazado_195574-2" data-name="Trazado 195574" d="M22.578,469.57H53.384a.831.831,0,0,0,.831-.831V464.27a1.662,1.662,0,0,0-1.662-1.662H24.24a1.662,1.662,0,0,0-1.662,1.662Z" transform="translate(-22.578 -462.608)" fill="#d9fcff"/>
          </g>
          <g id="Grupo_146390-2" data-name="Grupo 146390" transform="translate(24.421 4.973)">
            <path id="Trazado_195575-2" data-name="Trazado 195575" d="M24.24,468.739V464.27a1.662,1.662,0,0,0-1.662-1.662h5.554a1.662,1.662,0,0,1,1.662,1.662v4.469a.831.831,0,0,1-.831.831H23.409A.831.831,0,0,0,24.24,468.739Z" transform="translate(-22.578 -462.608)" fill="#79dae1"/>
          </g>
        </g>
        <g id="Grupo_146396-2" data-name="Grupo 146396" transform="translate(52.484)">
          <g id="Grupo_146392-2" data-name="Grupo 146392" transform="translate(0 31.826)">
            <path id="Trazado_195576-2" data-name="Trazado 195576" d="M61.9,346.706a4.073,4.073,0,0,0,4.073,4.073H76.4a4.073,4.073,0,1,0,0-8.146H65.978A4.073,4.073,0,0,0,61.9,346.706Z" transform="translate(-61.905 -342.633)" fill="#79dae1"/>
          </g>
          <g id="Grupo_146393-2" data-name="Grupo 146393" transform="translate(8.944 31.826)">
            <path id="Trazado_195577-2" data-name="Trazado 195577" d="M65.978,346.706a4.073,4.073,0,0,0-4.073-4.073h5.548a4.073,4.073,0,1,1,0,8.146H61.9A4.073,4.073,0,0,0,65.978,346.706Z" transform="translate(-61.905 -342.633)" fill="#79dae1"/>
          </g>
          <g id="Grupo_146394-2" data-name="Grupo 146394" transform="translate(0)">
            <path id="Trazado_195578-2" data-name="Trazado 195578" d="M61.9,155.2a4.073,4.073,0,0,0,4.073,4.073H76.4a4.073,4.073,0,0,0,0-8.146H65.978A4.073,4.073,0,0,0,61.9,155.2Z" transform="translate(-61.905 -151.128)" fill="#79dae1"/>
          </g>
          <g id="Grupo_146395-2" data-name="Grupo 146395" transform="translate(8.944)">
            <path id="Trazado_195579-2" data-name="Trazado 195579" d="M65.978,155.2a4.073,4.073,0,0,0-4.073-4.073h5.548a4.073,4.073,0,0,1,0,8.146H61.9A4.073,4.073,0,0,0,65.978,155.2Z" transform="translate(-61.905 -151.128)" fill="#79dae1"/>
          </g>
        </g>
      </g>
      <g id="Grupo_146400-2" data-name="Grupo 146400" transform="translate(24.299 8.992)">
        <g id="Grupo_146398-2" data-name="Grupo 146398">
          <ellipse id="Elipse_1358-2" data-name="Elipse 1358" cx="11.661" cy="11.661" rx="11.661" ry="11.661" fill="#ef9f14"/>
        </g>
        <g id="Grupo_146399-2" data-name="Grupo 146399" transform="translate(8.867)">
          <path id="Trazado_195580-2" data-name="Trazado 195580" d="M219.239,65.768a11.665,11.665,0,0,0-8.867-11.322,11.661,11.661,0,1,1,0,22.644A11.665,11.665,0,0,0,219.239,65.768Z" transform="translate(-210.372 -54.107)" fill="#fff0d6"/>
        </g>
      </g>
      <g id="Grupo_146401-2" data-name="Grupo 146401" transform="translate(0 0)">
        <path id="Trazado_195581-2" data-name="Trazado 195581" d="M20.492,39.688H22.5V18.115a1.247,1.247,0,0,1,1.285-1.246,1.281,1.281,0,0,1,1.208,1.3V39.688h8.354a1.246,1.246,0,0,1,0,2.493H20.492a2.921,2.921,0,1,0,0,5.843H45.957V42.181H39.163a1.246,1.246,0,1,1,0-2.493h7.094a2.2,2.2,0,0,1,2.014,1.326h8.817a2.079,2.079,0,0,1,1.935-1.326h3.642A2.079,2.079,0,0,1,64.6,41.014h5.343v-1.07a2.906,2.906,0,0,1,1.409-2.487V34.283a5.319,5.319,0,0,1,1.53-10.414h4.2V2.493H24.992V12.3a1.247,1.247,0,0,1-1.285,1.246,1.281,1.281,0,0,1-1.208-1.3V2.077A2.077,2.077,0,0,1,24.576,0H77.5a2.077,2.077,0,0,1,2.077,2.077V23.87H83.3a5.319,5.319,0,0,1,1.531,10.413v3.174a2.906,2.906,0,0,1,1.409,2.487V50.26a2.906,2.906,0,0,1-1.409,2.487v3.174A5.319,5.319,0,0,1,83.3,66.335H79.578v4.327H89.32a2.912,2.912,0,0,1,2.908,2.908v2.065h.019a2.912,2.912,0,0,1,2.908,2.908v4.469a2.08,2.08,0,0,1-2.077,2.077h-68.5A2.077,2.077,0,0,1,22.5,83.012v-32.5H20.492a5.414,5.414,0,0,1,0-10.828Zm36.453,3.819H48.45V46.7h8.495Zm5.3-1.326H59.438v5.843h2.811Zm7.693,1.326h-5.2V46.7h5.2ZM86.127,29.189A2.83,2.83,0,0,0,83.3,26.363H72.882a2.827,2.827,0,1,0,0,5.653H83.3A2.83,2.83,0,0,0,86.127,29.189Zm-2.8,21.487a.416.416,0,0,0,.415-.415V39.944a.416.416,0,0,0-.415-.415H72.85a.416.416,0,0,0-.415.415V50.26a.416.416,0,0,0,.415.415Zm-9.488,2.493V55.7h8.495V53.169Zm8.495-16.133V34.509H73.844v2.527ZM83.3,63.842a2.827,2.827,0,1,0,0-5.653H72.882a2.827,2.827,0,1,0,0,5.653ZM63.519,82.6H92.663V78.543a.416.416,0,0,0-.415-.415H84.533a1.246,1.246,0,1,1,0-2.493h5.2V73.57a.416.416,0,0,0-.415-.415H66.863a.416.416,0,0,0-.415.415v2.065H78.716a1.246,1.246,0,0,1,0,2.493H63.935a.416.416,0,0,0-.415.415Zm-38.527,0H61.026V78.543a2.912,2.912,0,0,1,2.908-2.908h.02V73.57a2.912,2.912,0,0,1,2.908-2.908H77.085V66.335h-4.2a5.319,5.319,0,0,1-1.53-10.414V52.748a2.906,2.906,0,0,1-1.409-2.487V49.19H64.6a2.079,2.079,0,0,1-1.935,1.326H59.022a2.079,2.079,0,0,1-1.935-1.326H48.27a2.2,2.2,0,0,1-2.014,1.326H24.992V82.6Z" transform="translate(-15.078 0)" fill="#104469"/>
        <path id="Trazado_195582-2" data-name="Trazado 195582" d="M228.688,59.515A12.908,12.908,0,1,1,215.78,46.607,12.922,12.922,0,0,1,228.688,59.515Zm-23.323,0A10.415,10.415,0,1,0,215.78,49.1,10.427,10.427,0,0,0,205.365,59.515Z" transform="translate(-179.819 -38.861)" fill="#104469"/>
        <path id="Trazado_195583-2" data-name="Trazado 195583" d="M256.485,103.633a1.246,1.246,0,0,1,1.763,1.763l-3.834,3.834a1.247,1.247,0,0,1-1.763,0l-5.943-5.943a1.246,1.246,0,0,1,1.763-1.763l5.061,5.061Z" transform="translate(-216.969 -84.348)" fill="#104469"/>
        <path id="Trazado_195584-2" data-name="Trazado 195584" d="M269.1,328.315a1.246,1.246,0,0,1-1.246,1.246H244.927a1.246,1.246,0,1,1,0-2.493H267.85A1.246,1.246,0,0,1,269.1,328.315Z" transform="translate(-227.01 -272.713)" fill="#104469"/>
        <path id="Trazado_195585-2" data-name="Trazado 195585" d="M311.746,363.546h11.818a1.246,1.246,0,0,1,0,2.493H311.746a1.246,1.246,0,1,1,0-2.493Z" transform="translate(-293.829 -303.128)" fill="#104469"/>
        <path id="Trazado_195586-2" data-name="Trazado 195586" d="M251.711,366.039h-6.784a1.246,1.246,0,0,1,0-2.493h6.784a1.246,1.246,0,0,1,0,2.493Z" transform="translate(-210.871 -303.128)" fill="#104469"/>
        <path id="Trazado_195587-2" data-name="Trazado 195587" d="M244.926,400.023h22.923a1.246,1.246,0,1,1,0,2.493H244.926a1.246,1.246,0,1,1,0-2.493Z" transform="translate(-227.009 -333.543)" fill="#104469"/>
        <path id="Trazado_195588-2" data-name="Trazado 195588" d="M346.746,436.5h6a1.246,1.246,0,1,1,0,2.493h-6a1.246,1.246,0,1,1,0-2.493Z" transform="translate(-328.829 -363.958)" fill="#104469"/>
        <path id="Trazado_195589-2" data-name="Trazado 195589" d="M244.927,436.5h13.1a1.246,1.246,0,0,1,0,2.493h-13.1a1.246,1.246,0,1,1,0-2.493Z" transform="translate(-217.187 -363.958)" fill="#104469"/>
      </g>
    </g>
    <text id="Ley_1819" data-name="Ley
1819" transform="translate(-7088.732 -6417)" fill="#104469" font-size="16" font-family="Roboto-Bold, Roboto" font-weight="700"><tspan x="-12.672" y="0">Ley</tspan><tspan x="-18.359" y="24">1819</tspan></text>
    <g id="Grupo_146410" data-name="Grupo 146410" transform="translate(-8243.271 -9211)">
      <circle id="Elipse_1361-5" data-name="Elipse 1361" cx="37.5" cy="37.5" r="37.5" transform="translate(361 2850)" fill="#ffd690"/>
      <g id="equilibrio" transform="translate(373 2861.998)">
        <path id="Trazado_195591" data-name="Trazado 195591" d="M366.564,215.281H356.1a2.243,2.243,0,1,1,0-4.486h10.468a2.243,2.243,0,1,1,0,4.486Z" transform="translate(-318.714 -189.861)" fill="#ef9f14"/>
        <path id="Trazado_195592" data-name="Trazado 195592" d="M225.851,105.381h5.982v37.384h-5.982Z" transform="translate(-203.423 -94.915)" fill="#79dae1"/>
        <path id="Trazado_195593" data-name="Trazado 195593" d="M225.851,346.321h5.982v13.458h-5.982Z" transform="translate(-203.423 -311.929)" fill="#d9fcff"/>
        <path id="Trazado_195594" data-name="Trazado 195594" d="M231.833,105.381v6.208a8.572,8.572,0,0,1-.824.248,9.009,9.009,0,0,1-5.158-.247v-6.209Z" transform="translate(-203.423 -94.915)" fill="#d9fcff"/>
        <path id="Trazado_195595" data-name="Trazado 195595" d="M73.254,11.909,61.391,15.088,44.72,19.556,32.811,22.746a2.243,2.243,0,0,1-1.162-4.334l11.818-3.167L60.325,10.73,72.093,7.576a2.243,2.243,0,1,1,1.161,4.334Z" transform="translate(-27.009 -6.753)" fill="#79dae1"/>
        <path id="Trazado_195596" data-name="Trazado 195596" d="M183.666,44.276c0,.038,0,.074,0,.112l-16.672,4.468a8.9,8.9,0,0,1-1.252-4.31L182.6,40.03A8.924,8.924,0,0,1,183.666,44.276Z" transform="translate(-149.283 -36.054)" fill="#d9fcff"/>
        <path id="Trazado_195597" data-name="Trazado 195597" d="M207.695,28.541a5.982,5.982,0,1,1-6.737-5.933c.089-.011.18-.021.271-.028.16-.013.321-.02.484-.02A5.982,5.982,0,0,1,207.695,28.541Z" transform="translate(-176.294 -20.318)" fill="#d9fcff"/>
        <path id="Trazado_195598" data-name="Trazado 195598" d="M203.159,34.779a5.982,5.982,0,1,1-2.2-11.739C200.626,25.559,200.447,30.512,203.159,34.779Z" transform="translate(-176.294 -20.751)" fill="#79dae1"/>
        <path id="Trazado_195599" data-name="Trazado 195599" d="M20.211,305.634H9.743a2.243,2.243,0,1,1,0-4.486H20.211a2.243,2.243,0,1,1,0,4.486Z" transform="translate(-6.755 -271.242)" fill="#ef9f14"/>
        <path id="Trazado_195600" data-name="Trazado 195600" d="M151.037,395.933h-19.3a2.979,2.979,0,0,1-2.729-4.173l2.627-6a2.98,2.98,0,0,1,2.73-1.785H148.41a2.98,2.98,0,0,1,2.73,1.785l2.627,6A2.979,2.979,0,0,1,151.037,395.933Z" transform="translate(-115.968 -345.839)" fill="#79dae1"/>
        <path id="Trazado_195601" data-name="Trazado 195601" d="M142.207,395.933H131.735a2.979,2.979,0,0,1-2.729-4.173l2.627-6a2.98,2.98,0,0,1,2.73-1.785h7.06A21.657,21.657,0,0,0,142.207,395.933Z" transform="translate(-115.968 -345.839)" fill="#d9fcff"/>
        <path id="Trazado_195602" data-name="Trazado 195602" d="M48.234,20.215,44.022,6.523l2.416-.647A2.988,2.988,0,1,0,44.892.1L30.6,3.934a6.72,6.72,0,0,0-7.207-2.124.745.745,0,0,0,.2,1.462.407.407,0,0,0,.229-.036,5.237,5.237,0,1,1-3.639,4.987,5.184,5.184,0,0,1,1.091-3.2.745.745,0,1,0-1.178-.911A6.651,6.651,0,0,0,18.785,7.1L4.448,10.94a2.988,2.988,0,0,0,.774,5.874,4.314,4.314,0,0,0,1.257-.232L2.6,29.187a2.987,2.987,0,0,0,.386,5.95H13.456a2.987,2.987,0,0,0,.385-5.95L9.7,15.72l10.819-2.9a6.773,6.773,0,0,0,1.167.992V37.386H18.395a3.724,3.724,0,0,0-3.412,2.231l-2.627,6a3.725,3.725,0,0,0,3.412,5.216h19.3a3.725,3.725,0,0,0,3.412-5.216l-2.627-6a3.724,3.724,0,0,0-3.412-2.231h-9.27V14.562a6.71,6.71,0,0,0,4.492,0V34.789a.745.745,0,1,0,1.49,0V13.813a6.745,6.745,0,0,0,2.813-4.06l8.989-2.409L37,20.214a2.987,2.987,0,0,0,.385,5.95H47.849a2.987,2.987,0,0,0,.385-5.95Zm-13.745,20,2.627,6a2.233,2.233,0,0,1-2.047,3.13h-19.3a2.232,2.232,0,0,1-2.047-3.13l2.627-6a2.234,2.234,0,0,1,2.047-1.339H32.443a2.234,2.234,0,0,1,2.047,1.339ZM14.954,32.149a1.5,1.5,0,0,1-1.5,1.5H2.988a1.5,1.5,0,0,1,0-3H13.455A1.5,1.5,0,0,1,14.954,32.149Zm-2.68-2.988H4.168l4.01-13.034.079-.021ZM5.61,15.274a1.5,1.5,0,1,1-.776-2.895L18.708,8.661a6.677,6.677,0,0,0,.859,2.872Zm41.058,4.915H38.563L42.616,7.017ZM45.277,1.542a1.5,1.5,0,1,1,.776,2.895L32.144,8.164a6.681,6.681,0,0,0-.695-2.917Zm2.573,23.133H37.382a1.5,1.5,0,1,1,0-3H47.849a1.5,1.5,0,0,1,0,3Z" transform="translate(0 0)" fill="#104469"/>
        <path id="Trazado_195603" data-name="Trazado 195603" d="M170.541,418.116a.745.745,0,0,0-.745.745v1.192a.745.745,0,1,0,1.49,0v-1.192A.745.745,0,0,0,170.541,418.116Z" transform="translate(-152.935 -376.595)" fill="#104469"/>
        <path id="Trazado_195605" data-name="Trazado 195605" d="M327.891,420.8a.745.745,0,0,0,.745-.745v-1.192a.745.745,0,1,0-1.49,0v1.192A.745.745,0,0,0,327.891,420.8Z" transform="translate(-294.66 -376.595)" fill="#104469"/>
      </g>
    </g>
    <text id="Progresividad-2" data-name="Progresividad" transform="translate(-7538.771 -6258)" fill="#104469" font-size="16" font-family="Roboto-Bold, Roboto" font-weight="700"><tspan x="-49.973" y="0">Progresividad</tspan></text>
    <g id="Grupo_146408" data-name="Grupo 146408" transform="translate(-8154.771 -9211)">
      <circle id="Elipse_1363" data-name="Elipse 1363" cx="37.5" cy="37.5" r="37.5" transform="translate(575 2850)" fill="#ffd690"/>
      <g id="progreso-2" data-name="progreso" transform="translate(588 2862.002)">
        <path id="Trazado_195617-2" data-name="Trazado 195617" d="M256,247.988h8.016v22.444H256Zm0,0" transform="translate(-230.349 -223.142)" fill="#79dae1"/>
        <path id="Trazado_195618-2" data-name="Trazado 195618" d="M256,247.988h8.016v3.206H256Zm0,0" transform="translate(-230.349 -223.142)" fill="#ffc119"/>
        <path id="Trazado_195619-2" data-name="Trazado 195619" d="M144,295.988h8.016v17.635H144Zm0,0" transform="translate(-129.571 -266.332)" fill="#79dae1"/>
        <path id="Trazado_195620-2" data-name="Trazado 195620" d="M144,295.988h8.016v3.206H144Zm0,0" transform="translate(-129.571 -266.332)" fill="#ffc119"/>
        <path id="Trazado_195621-2" data-name="Trazado 195621" d="M32,343.988h8.016v12.825H32Zm0,0" transform="translate(-28.794 -309.523)" fill="#d9fcff"/>
        <path id="Trazado_195622-2" data-name="Trazado 195622" d="M32,343.988h8.016v3.206H32Zm0,0" transform="translate(-28.794 -309.523)" fill="#ffc119"/>
        <path id="Trazado_195623-2" data-name="Trazado 195623" d="M256,59.21V47.988h10.421v9.619a1.6,1.6,0,0,1-1.6,1.6Zm0,0" transform="translate(-230.349 -43.181)" fill="#ef9f14"/>
        <path id="Trazado_195624-2" data-name="Trazado 195624" d="M309.611,64.806a1.6,1.6,0,0,0-1.6-1.6h-2.4a1.6,1.6,0,0,1-1.6-1.6V55.988h5.611Zm0,0" transform="translate(-273.54 -50.38)" fill="#fcd89b"/>
        <path id="Trazado_195625-2" data-name="Trazado 195625" d="M304,32.806a1.6,1.6,0,0,1,1.6-1.6h8.016V23.988H306.4a2.4,2.4,0,0,0-2.4,2.4Zm0,0" transform="translate(-273.54 -21.586)" fill="#ef9f14"/>
        <path id="Trazado_195626-2" data-name="Trazado 195626" d="M395.206,29.631H392V9.591a1.6,1.6,0,0,1,3.206,0Zm0,0" transform="translate(-352.722 -7.189)" fill="#c7ebff"/>
        <path id="Trazado_195627-2" data-name="Trazado 195627" d="M368,199.988h8.016v27.254H368Zm0,0" transform="translate(-331.127 -179.951)" fill="#79dae1"/>
        <path id="Trazado_195628-2" data-name="Trazado 195628" d="M368,199.988h8.016v3.206H368Zm0,0" transform="translate(-331.127 -179.951)" fill="#ffc119"/>
        <path id="Trazado_195629-2" data-name="Trazado 195629" d="M376,23.988h1.6V31.2H376Zm0,0" transform="translate(-338.325 -21.586)" fill="#fff0d6"/>
        <path id="Trazado_195630-2" data-name="Trazado 195630" d="M45.69,20.037a.8.8,0,0,0-.8-.8h-1.6V2.4a2.4,2.4,0,0,0-4.662-.8H32.865a3.206,3.206,0,0,0-3.092,2.4H25.651a.8.8,0,0,0-.8.8V16.029a.8.8,0,0,0,.8.8h8.817a2.4,2.4,0,0,0,2.4-2.4V10.418h1.6v8.817h-1.6a.8.8,0,0,0-.8.8V46.49h-1.6V24.847a.8.8,0,0,0-.8-.8H25.651a.8.8,0,0,0-.8.8V46.49h-1.6V29.656a.8.8,0,0,0-.8-.8H14.429a.8.8,0,0,0-.8.8V46.49h-1.6V34.466a.8.8,0,0,0-.8-.8H3.206a.8.8,0,0,0-.8.8V46.49H0v1.6H48.1v-1.6h-2.4Zm-11.222-4.81H26.452V5.609h3.206V11.22a2.4,2.4,0,0,0,2.4,2.4h2.4a.8.8,0,1,1,0,1.6Zm.8-3.059a2.386,2.386,0,0,0-.8-.148h-2.4a.8.8,0,0,1,0-1.6H35.27ZM32.063,8.815a2.386,2.386,0,0,0-.8.148V4.807a1.6,1.6,0,0,1,1.6-1.6h5.611V8.815ZM40.079,2.4a.8.8,0,1,1,1.6,0V19.236h-1.6Zm-.8,18.436h4.81v1.6H37.675v-1.6Zm-6.413,4.81v1.6H26.452v-1.6Zm-11.222,4.81v1.6H15.23v-1.6Zm-11.222,4.81v1.6H4.008v-1.6ZM8.016,46.49v-2.4h-1.6v2.4h-2.4V38.474h6.413V46.49Zm11.222,0v-2.4h-1.6v2.4h-2.4V33.664h6.413V46.49Zm11.222,0v-2.4h-1.6v2.4h-2.4V28.855h6.413V46.49Zm11.222,0v-2.4h-1.6v2.4h-2.4V24.045h6.413V46.49Zm0,0" fill="#104469"/>
      </g>
    </g>
  </g>
</svg>
