<svg xmlns="http://www.w3.org/2000/svg" width="1082" height="610" viewBox="0 0 1082 610">
  <g id="Grupo_146482" data-name="Grupo 146482" transform="translate(10945 7751)">
    <g id="Grupo_146471" data-name="Grupo 146471">
      <ellipse id="Elipse_1392" data-name="Elipse 1392" cx="160" cy="108.5" rx="160" ry="108.5" transform="translate(-10579 -7553)" fill="#104469"/>
      <text id="Sanciones" transform="translate(-10475 -7436)" fill="#fff" font-size="24" font-family="Roboto-Black, Roboto" font-weight="800"><tspan x="0" y="0">Sanciones</tspan></text>
      <path id="Trazado_195725" data-name="Trazado 195725" d="M-8963-7641.37v185.859l-197.254-120.431" transform="translate(-1456 -43)" fill="none" stroke="#ef9f14" stroke-width="2"/>
      <path id="Trazado_195726" data-name="Trazado 195726" d="M-8963-7455.51V-7641.37l-208.414,115.792" transform="translate(-1456 245)" fill="none" stroke="#ef9f14" stroke-width="2"/>
      <rect id="Rectángulo_44950" data-name="Rectángulo 44950" width="217" height="55" rx="12" transform="translate(-10527 -7751)" fill="#ef9f14"/>
      <path id="Trazado_195800" data-name="Trazado 195800" d="M4.7-6.34V0H1.734V-17.062H8.262A6.605,6.605,0,0,1,12.8-15.574a5,5,0,0,1,1.682,3.938,4.836,4.836,0,0,1-1.646,3.9A6.925,6.925,0,0,1,8.227-6.34Zm0-2.379H8.262a3.509,3.509,0,0,0,2.414-.744,2.735,2.735,0,0,0,.832-2.15,2.951,2.951,0,0,0-.844-2.209,3.252,3.252,0,0,0-2.32-.85H4.7ZM16.113-6.457a7.477,7.477,0,0,1,.738-3.357,5.392,5.392,0,0,1,2.074-2.3,5.844,5.844,0,0,1,3.07-.8,5.539,5.539,0,0,1,4.166,1.652,6.5,6.5,0,0,1,1.729,4.383l.012.668a7.543,7.543,0,0,1-.721,3.352A5.327,5.327,0,0,1,25.119-.574a5.887,5.887,0,0,1-3.1.809,5.5,5.5,0,0,1-4.295-1.787,6.845,6.845,0,0,1-1.611-4.764Zm2.848.246a5.109,5.109,0,0,0,.809,3.064,2.629,2.629,0,0,0,2.25,1.107,2.6,2.6,0,0,0,2.244-1.125,5.643,5.643,0,0,0,.8-3.293A5.043,5.043,0,0,0,24.24-9.5,2.638,2.638,0,0,0,22-10.629a2.614,2.614,0,0,0-2.215,1.107A5.537,5.537,0,0,0,18.961-6.211Zm17.988-3.867a7.047,7.047,0,0,0-1.16-.094,2.612,2.612,0,0,0-2.637,1.5V0H30.3V-12.68h2.719l.07,1.418a3.208,3.208,0,0,1,2.859-1.652,2.666,2.666,0,0,1,1.008.164Zm10.418-2.6.082,1.465a4.559,4.559,0,0,1,3.691-1.7q3.961,0,4.031,4.535V0H52.324V-8.215A2.611,2.611,0,0,0,51.8-10a2.194,2.194,0,0,0-1.705-.58,2.744,2.744,0,0,0-2.566,1.559V0H44.684V-12.68ZM57.539-6.457a7.477,7.477,0,0,1,.738-3.357,5.392,5.392,0,0,1,2.074-2.3,5.844,5.844,0,0,1,3.07-.8,5.539,5.539,0,0,1,4.166,1.652,6.5,6.5,0,0,1,1.729,4.383l.012.668a7.543,7.543,0,0,1-.721,3.352A5.327,5.327,0,0,1,66.545-.574a5.887,5.887,0,0,1-3.1.809A5.5,5.5,0,0,1,59.15-1.553a6.845,6.845,0,0,1-1.611-4.764Zm2.848.246A5.109,5.109,0,0,0,61.2-3.146a2.629,2.629,0,0,0,2.25,1.107,2.6,2.6,0,0,0,2.244-1.125,5.643,5.643,0,0,0,.8-3.293A5.043,5.043,0,0,0,65.666-9.5a2.638,2.638,0,0,0-2.244-1.125,2.614,2.614,0,0,0-2.215,1.107A5.537,5.537,0,0,0,60.387-6.211ZM77.18-6.434a7.538,7.538,0,0,1,1.359-4.705,4.356,4.356,0,0,1,3.645-1.775,4.139,4.139,0,0,1,3.258,1.406V-18h2.848V0H85.711L85.57-1.312A4.2,4.2,0,0,1,82.16.234a4.331,4.331,0,0,1-3.6-1.793A7.814,7.814,0,0,1,77.18-6.434Zm2.848.246a5.278,5.278,0,0,0,.744,3.018,2.415,2.415,0,0,0,2.115,1.084,2.689,2.689,0,0,0,2.555-1.559V-9.059a2.648,2.648,0,0,0-2.531-1.523,2.432,2.432,0,0,0-2.133,1.1A5.878,5.878,0,0,0,80.027-6.187ZM96.844.234a5.891,5.891,0,0,1-4.389-1.705,6.185,6.185,0,0,1-1.682-4.541v-.352a7.608,7.608,0,0,1,.732-3.393,5.575,5.575,0,0,1,2.057-2.326,5.437,5.437,0,0,1,2.953-.832,4.977,4.977,0,0,1,4,1.652,6.987,6.987,0,0,1,1.412,4.676v1.148H93.645a3.808,3.808,0,0,0,1.049,2.484,3.149,3.149,0,0,0,2.314.914A3.856,3.856,0,0,0,100.2-3.621l1.535,1.465A5.127,5.127,0,0,1,99.7-.393,6.365,6.365,0,0,1,96.844.234ZM96.5-10.629a2.4,2.4,0,0,0-1.893.82,4.252,4.252,0,0,0-.92,2.285h5.426v-.211A3.461,3.461,0,0,0,98.355-9.9,2.38,2.38,0,0,0,96.5-10.629Zm12.844,8.59a2.575,2.575,0,0,0,1.77-.621,2.122,2.122,0,0,0,.75-1.535h2.684a4.183,4.183,0,0,1-.738,2.209,4.843,4.843,0,0,1-1.875,1.623,5.588,5.588,0,0,1-2.555.6,5.406,5.406,0,0,1-4.219-1.723,6.833,6.833,0,0,1-1.559-4.758v-.293a6.719,6.719,0,0,1,1.547-4.635,5.357,5.357,0,0,1,4.219-1.74,5.21,5.21,0,0,1,3.686,1.318,4.722,4.722,0,0,1,1.494,3.463h-2.684a2.608,2.608,0,0,0-.744-1.793,2.394,2.394,0,0,0-1.775-.7,2.506,2.506,0,0,0-2.133,1,5.113,5.113,0,0,0-.762,3.041v.457a5.2,5.2,0,0,0,.744,3.076A2.5,2.5,0,0,0,109.348-2.039ZM119.73,0h-2.848V-18h2.848Zm10.676,0a4.395,4.395,0,0,1-.328-1.184A4.433,4.433,0,0,1,126.75.234a4.473,4.473,0,0,1-3.117-1.09,3.487,3.487,0,0,1-1.207-2.7,3.6,3.6,0,0,1,1.506-3.111,7.3,7.3,0,0,1,4.307-1.084h1.746v-.832a2.221,2.221,0,0,0-.551-1.576,2.183,2.183,0,0,0-1.676-.592,2.508,2.508,0,0,0-1.594.486,1.505,1.505,0,0,0-.621,1.236H122.7a3.16,3.16,0,0,1,.691-1.951,4.606,4.606,0,0,1,1.881-1.424,6.607,6.607,0,0,1,2.654-.516,5.32,5.32,0,0,1,3.551,1.119,3.991,3.991,0,0,1,1.359,3.146V-2.93a6.481,6.481,0,0,0,.48,2.73V0Zm-3.129-2.051a3.239,3.239,0,0,0,1.588-.41,2.74,2.74,0,0,0,1.119-1.1V-5.953h-1.535a4.2,4.2,0,0,0-2.379.551,1.784,1.784,0,0,0-.8,1.559,1.664,1.664,0,0,0,.545,1.307A2.11,2.11,0,0,0,127.277-2.051Zm15.176-8.027a7.047,7.047,0,0,0-1.16-.094,2.612,2.612,0,0,0-2.637,1.5V0h-2.848V-12.68h2.719l.07,1.418a3.208,3.208,0,0,1,2.859-1.652,2.666,2.666,0,0,1,1.008.164ZM151.477,0a4.395,4.395,0,0,1-.328-1.184A4.433,4.433,0,0,1,147.82.234,4.473,4.473,0,0,1,144.7-.855a3.487,3.487,0,0,1-1.207-2.7A3.6,3.6,0,0,1,145-6.662a7.3,7.3,0,0,1,4.307-1.084h1.746v-.832a2.221,2.221,0,0,0-.551-1.576,2.183,2.183,0,0,0-1.676-.592,2.508,2.508,0,0,0-1.594.486,1.505,1.505,0,0,0-.621,1.236h-2.848a3.16,3.16,0,0,1,.691-1.951,4.606,4.606,0,0,1,1.881-1.424,6.607,6.607,0,0,1,2.654-.516,5.32,5.32,0,0,1,3.551,1.119A3.991,3.991,0,0,1,153.9-8.648V-2.93a6.481,6.481,0,0,0,.48,2.73V0Zm-3.129-2.051a3.239,3.239,0,0,0,1.588-.41,2.74,2.74,0,0,0,1.119-1.1V-5.953H149.52a4.2,4.2,0,0,0-2.379.551,1.784,1.784,0,0,0-.8,1.559,1.664,1.664,0,0,0,.545,1.307A2.11,2.11,0,0,0,148.348-2.051Zm15.176-8.027a7.047,7.047,0,0,0-1.16-.094,2.612,2.612,0,0,0-2.637,1.5V0h-2.848V-12.68H159.6l.07,1.418a3.208,3.208,0,0,1,2.859-1.652,2.666,2.666,0,0,1,1.008.164Z" transform="translate(-10501 -7716)" fill="#12263f"/>
      <rect id="Rectángulo_44951" data-name="Rectángulo 44951" width="217" height="55" rx="12" transform="translate(-10527 -7196)" fill="#ef9f14"/>
      <path id="Trazado_195806" data-name="Trazado 195806" d="M15.352-8.086a10.468,10.468,0,0,1-.867,4.4A6.557,6.557,0,0,1,12.006-.779,6.817,6.817,0,0,1,8.3.234,6.834,6.834,0,0,1,4.6-.779,6.658,6.658,0,0,1,2.092-3.668a10.141,10.141,0,0,1-.9-4.324v-.961a10.379,10.379,0,0,1,.885-4.406,6.65,6.65,0,0,1,2.5-2.924,6.8,6.8,0,0,1,3.7-1.014,6.856,6.856,0,0,1,3.7,1,6.565,6.565,0,0,1,2.49,2.883,10.356,10.356,0,0,1,.891,4.377Zm-2.965-.891a7.459,7.459,0,0,0-1.072-4.348,3.508,3.508,0,0,0-3.041-1.512A3.5,3.5,0,0,0,5.268-13.33,7.315,7.315,0,0,0,4.16-9.07v.984a7.4,7.4,0,0,0,1.1,4.348A3.528,3.528,0,0,0,8.3-2.2a3.487,3.487,0,0,0,3.029-1.5,7.562,7.562,0,0,0,1.061-4.383ZM21.6-15.762v3.082h2.238v2.109H21.6v7.078a1.559,1.559,0,0,0,.287,1.049,1.331,1.331,0,0,0,1.025.322,4.387,4.387,0,0,0,1-.117v2.2a7.013,7.013,0,0,1-1.875.27q-3.281,0-3.281-3.621V-10.57H16.664V-12.68H18.75v-3.082Zm11.051,5.684a7.047,7.047,0,0,0-1.16-.094,2.612,2.612,0,0,0-2.637,1.5V0H26V-12.68h2.719l.07,1.418a3.208,3.208,0,0,1,2.859-1.652,2.666,2.666,0,0,1,1.008.164ZM41.672,0a4.395,4.395,0,0,1-.328-1.184A4.433,4.433,0,0,1,38.016.234,4.473,4.473,0,0,1,34.9-.855a3.487,3.487,0,0,1-1.207-2.7A3.6,3.6,0,0,1,35.2-6.662,7.3,7.3,0,0,1,39.5-7.746H41.25v-.832a2.221,2.221,0,0,0-.551-1.576,2.183,2.183,0,0,0-1.676-.592,2.508,2.508,0,0,0-1.594.486,1.505,1.505,0,0,0-.621,1.236H33.961a3.16,3.16,0,0,1,.691-1.951A4.606,4.606,0,0,1,36.533-12.4a6.607,6.607,0,0,1,2.654-.516,5.32,5.32,0,0,1,3.551,1.119A3.991,3.991,0,0,1,44.1-8.648V-2.93a6.481,6.481,0,0,0,.48,2.73V0ZM38.543-2.051a3.239,3.239,0,0,0,1.588-.41,2.74,2.74,0,0,0,1.119-1.1V-5.953H39.715a4.2,4.2,0,0,0-2.379.551,1.784,1.784,0,0,0-.8,1.559,1.664,1.664,0,0,0,.545,1.307A2.11,2.11,0,0,0,38.543-2.051ZM54.188-3.445a1.291,1.291,0,0,0-.627-1.16,6.668,6.668,0,0,0-2.08-.7,10.693,10.693,0,0,1-2.426-.773A3.237,3.237,0,0,1,46.922-9.07,3.375,3.375,0,0,1,48.3-11.812a5.467,5.467,0,0,1,3.516-1.1,5.688,5.688,0,0,1,3.674,1.125,3.57,3.57,0,0,1,1.4,2.918H54.047a1.755,1.755,0,0,0-.609-1.365,2.335,2.335,0,0,0-1.617-.545,2.523,2.523,0,0,0-1.529.434,1.367,1.367,0,0,0-.592,1.16,1.154,1.154,0,0,0,.551,1.02,7.574,7.574,0,0,0,2.227.732,10.54,10.54,0,0,1,2.631.879,3.725,3.725,0,0,1,1.418,1.225A3.123,3.123,0,0,1,56.988-3.6,3.3,3.3,0,0,1,55.57-.826,6.046,6.046,0,0,1,51.855.234a6.556,6.556,0,0,1-2.777-.562,4.571,4.571,0,0,1-1.9-1.547A3.662,3.662,0,0,1,46.5-4h2.766a2.007,2.007,0,0,0,.762,1.553,2.96,2.96,0,0,0,1.863.545A2.88,2.88,0,0,0,53.6-2.326,1.324,1.324,0,0,0,54.188-3.445Zm18.363,0a1.291,1.291,0,0,0-.627-1.16,6.668,6.668,0,0,0-2.08-.7,10.693,10.693,0,0,1-2.426-.773A3.237,3.237,0,0,1,65.285-9.07a3.375,3.375,0,0,1,1.383-2.742,5.467,5.467,0,0,1,3.516-1.1,5.688,5.688,0,0,1,3.674,1.125,3.57,3.57,0,0,1,1.4,2.918H72.41a1.755,1.755,0,0,0-.609-1.365,2.335,2.335,0,0,0-1.617-.545,2.523,2.523,0,0,0-1.529.434,1.367,1.367,0,0,0-.592,1.16,1.154,1.154,0,0,0,.551,1.02,7.574,7.574,0,0,0,2.227.732,10.54,10.54,0,0,1,2.631.879,3.725,3.725,0,0,1,1.418,1.225A3.123,3.123,0,0,1,75.352-3.6,3.3,3.3,0,0,1,73.934-.826,6.046,6.046,0,0,1,70.219.234a6.556,6.556,0,0,1-2.777-.562,4.571,4.571,0,0,1-1.9-1.547A3.662,3.662,0,0,1,64.863-4h2.766a2.007,2.007,0,0,0,.762,1.553,2.96,2.96,0,0,0,1.863.545,2.88,2.88,0,0,0,1.711-.428A1.324,1.324,0,0,0,72.551-3.445ZM85.406,0a4.395,4.395,0,0,1-.328-1.184A4.433,4.433,0,0,1,81.75.234a4.473,4.473,0,0,1-3.117-1.09,3.487,3.487,0,0,1-1.207-2.7,3.6,3.6,0,0,1,1.506-3.111,7.3,7.3,0,0,1,4.307-1.084h1.746v-.832a2.221,2.221,0,0,0-.551-1.576,2.183,2.183,0,0,0-1.676-.592,2.508,2.508,0,0,0-1.594.486,1.505,1.505,0,0,0-.621,1.236H77.7a3.16,3.16,0,0,1,.691-1.951A4.606,4.606,0,0,1,80.268-12.4a6.607,6.607,0,0,1,2.654-.516,5.32,5.32,0,0,1,3.551,1.119,3.991,3.991,0,0,1,1.359,3.146V-2.93a6.481,6.481,0,0,0,.48,2.73V0ZM82.277-2.051a3.239,3.239,0,0,0,1.588-.41,2.74,2.74,0,0,0,1.119-1.1V-5.953H83.449A4.2,4.2,0,0,0,81.07-5.4a1.784,1.784,0,0,0-.8,1.559,1.664,1.664,0,0,0,.545,1.307A2.11,2.11,0,0,0,82.277-2.051ZM93.457-12.68l.082,1.465a4.559,4.559,0,0,1,3.691-1.7q3.961,0,4.031,4.535V0H98.414V-8.215A2.611,2.611,0,0,0,97.893-10a2.194,2.194,0,0,0-1.705-.58,2.744,2.744,0,0,0-2.566,1.559V0H90.773V-12.68ZM109.371-2.039a2.575,2.575,0,0,0,1.77-.621,2.122,2.122,0,0,0,.75-1.535h2.684a4.183,4.183,0,0,1-.738,2.209,4.843,4.843,0,0,1-1.875,1.623,5.588,5.588,0,0,1-2.555.6,5.406,5.406,0,0,1-4.219-1.723,6.833,6.833,0,0,1-1.559-4.758v-.293a6.719,6.719,0,0,1,1.547-4.635,5.357,5.357,0,0,1,4.219-1.74A5.21,5.21,0,0,1,113.08-11.6a4.722,4.722,0,0,1,1.494,3.463h-2.684a2.608,2.608,0,0,0-.744-1.793,2.394,2.394,0,0,0-1.775-.7,2.506,2.506,0,0,0-2.133,1,5.113,5.113,0,0,0-.762,3.041v.457a5.2,5.2,0,0,0,.744,3.076A2.5,2.5,0,0,0,109.371-2.039ZM119.754,0h-2.848V-12.68h2.848ZM116.73-15.973a1.511,1.511,0,0,1,.416-1.09,1.571,1.571,0,0,1,1.189-.434,1.591,1.591,0,0,1,1.2.434,1.5,1.5,0,0,1,.422,1.09,1.465,1.465,0,0,1-.422,1.072,1.6,1.6,0,0,1-1.2.428,1.584,1.584,0,0,1-1.189-.428A1.476,1.476,0,0,1,116.73-15.973Zm5.59,9.516a7.477,7.477,0,0,1,.738-3.357,5.392,5.392,0,0,1,2.074-2.3,5.844,5.844,0,0,1,3.07-.8,5.539,5.539,0,0,1,4.166,1.652A6.5,6.5,0,0,1,134.1-6.879l.012.668a7.543,7.543,0,0,1-.721,3.352,5.327,5.327,0,0,1-2.062,2.285,5.887,5.887,0,0,1-3.1.809,5.5,5.5,0,0,1-4.295-1.787,6.845,6.845,0,0,1-1.611-4.764Zm2.848.246a5.109,5.109,0,0,0,.809,3.064,2.629,2.629,0,0,0,2.25,1.107,2.6,2.6,0,0,0,2.244-1.125,5.643,5.643,0,0,0,.8-3.293,5.043,5.043,0,0,0-.826-3.047,2.638,2.638,0,0,0-2.244-1.125,2.614,2.614,0,0,0-2.215,1.107A5.537,5.537,0,0,0,125.168-6.211ZM139.16-12.68l.082,1.465a4.559,4.559,0,0,1,3.691-1.7q3.961,0,4.031,4.535V0h-2.848V-8.215A2.611,2.611,0,0,0,143.6-10a2.194,2.194,0,0,0-1.705-.58,2.744,2.744,0,0,0-2.566,1.559V0h-2.848V-12.68ZM155.449.234a5.891,5.891,0,0,1-4.389-1.705,6.185,6.185,0,0,1-1.682-4.541v-.352a7.608,7.608,0,0,1,.732-3.393,5.575,5.575,0,0,1,2.057-2.326,5.437,5.437,0,0,1,2.953-.832,4.977,4.977,0,0,1,4,1.652,6.987,6.987,0,0,1,1.412,4.676v1.148H152.25A3.808,3.808,0,0,0,153.3-2.953a3.149,3.149,0,0,0,2.314.914A3.856,3.856,0,0,0,158.8-3.621l1.535,1.465A5.127,5.127,0,0,1,158.3-.393,6.365,6.365,0,0,1,155.449.234Zm-.34-10.863a2.4,2.4,0,0,0-1.893.82,4.252,4.252,0,0,0-.92,2.285h5.426v-.211a3.461,3.461,0,0,0-.762-2.162A2.38,2.38,0,0,0,155.109-10.629Zm14.742,7.184a1.291,1.291,0,0,0-.627-1.16,6.668,6.668,0,0,0-2.08-.7,10.693,10.693,0,0,1-2.426-.773,3.237,3.237,0,0,1-2.133-2.988,3.375,3.375,0,0,1,1.383-2.742,5.467,5.467,0,0,1,3.516-1.1,5.688,5.688,0,0,1,3.674,1.125,3.57,3.57,0,0,1,1.4,2.918h-2.848a1.755,1.755,0,0,0-.609-1.365,2.335,2.335,0,0,0-1.617-.545,2.523,2.523,0,0,0-1.529.434,1.367,1.367,0,0,0-.592,1.16,1.154,1.154,0,0,0,.551,1.02,7.574,7.574,0,0,0,2.227.732,10.54,10.54,0,0,1,2.631.879,3.725,3.725,0,0,1,1.418,1.225,3.123,3.123,0,0,1,.463,1.734,3.3,3.3,0,0,1-1.418,2.771A6.046,6.046,0,0,1,167.52.234a6.556,6.556,0,0,1-2.777-.562,4.571,4.571,0,0,1-1.9-1.547A3.662,3.662,0,0,1,162.164-4h2.766a2.007,2.007,0,0,0,.762,1.553,2.96,2.96,0,0,0,1.863.545,2.88,2.88,0,0,0,1.711-.428A1.324,1.324,0,0,0,169.852-3.445Z" transform="translate(-10505 -7160)" fill="#12263f"/>
      <rect id="Rectángulo_44952" data-name="Rectángulo 44952" width="267" height="55" rx="12" transform="translate(-10907 -7674)" fill="#ef9f14"/>
      <path id="Trazado_195799" data-name="Trazado 195799" d="M4.7-6.34V0H1.734V-17.062H8.262A6.605,6.605,0,0,1,12.8-15.574a5,5,0,0,1,1.682,3.938,4.836,4.836,0,0,1-1.646,3.9A6.925,6.925,0,0,1,8.227-6.34Zm0-2.379H8.262a3.509,3.509,0,0,0,2.414-.744,2.735,2.735,0,0,0,.832-2.15,2.951,2.951,0,0,0-.844-2.209,3.252,3.252,0,0,0-2.32-.85H4.7ZM16.113-6.457a7.477,7.477,0,0,1,.738-3.357,5.392,5.392,0,0,1,2.074-2.3,5.844,5.844,0,0,1,3.07-.8,5.539,5.539,0,0,1,4.166,1.652,6.5,6.5,0,0,1,1.729,4.383l.012.668a7.543,7.543,0,0,1-.721,3.352A5.327,5.327,0,0,1,25.119-.574a5.887,5.887,0,0,1-3.1.809,5.5,5.5,0,0,1-4.295-1.787,6.845,6.845,0,0,1-1.611-4.764Zm2.848.246a5.109,5.109,0,0,0,.809,3.064,2.629,2.629,0,0,0,2.25,1.107,2.6,2.6,0,0,0,2.244-1.125,5.643,5.643,0,0,0,.8-3.293A5.043,5.043,0,0,0,24.24-9.5,2.638,2.638,0,0,0,22-10.629a2.614,2.614,0,0,0-2.215,1.107A5.537,5.537,0,0,0,18.961-6.211Zm17.988-3.867a7.047,7.047,0,0,0-1.16-.094,2.612,2.612,0,0,0-2.637,1.5V0H30.3V-12.68h2.719l.07,1.418a3.208,3.208,0,0,1,2.859-1.652,2.666,2.666,0,0,1,1.008.164ZM50.309.234A5.891,5.891,0,0,1,45.92-1.471a6.185,6.185,0,0,1-1.682-4.541v-.352a7.608,7.608,0,0,1,.732-3.393,5.575,5.575,0,0,1,2.057-2.326,5.437,5.437,0,0,1,2.953-.832,4.977,4.977,0,0,1,4,1.652,6.987,6.987,0,0,1,1.412,4.676v1.148H47.109a3.808,3.808,0,0,0,1.049,2.484,3.149,3.149,0,0,0,2.314.914A3.856,3.856,0,0,0,53.66-3.621L55.2-2.156A5.127,5.127,0,0,1,53.162-.393,6.365,6.365,0,0,1,50.309.234Zm-.34-10.863a2.4,2.4,0,0,0-1.893.82,4.252,4.252,0,0,0-.92,2.285h5.426v-.211A3.461,3.461,0,0,0,51.82-9.9,2.38,2.38,0,0,0,49.969-10.629ZM62.156-8.508,64.57-12.68h3.164L63.855-6.434,67.863,0H64.723L62.191-4.336,59.672,0H56.508l4.008-6.434L56.648-12.68h3.141Zm11.086-7.254v3.082H75.48v2.109H73.242v7.078a1.559,1.559,0,0,0,.287,1.049,1.331,1.331,0,0,0,1.025.322,4.387,4.387,0,0,0,1-.117v2.2a7.013,7.013,0,0,1-1.875.27q-3.281,0-3.281-3.621V-10.57H68.309V-12.68h2.086v-3.082Zm10,16A5.891,5.891,0,0,1,78.85-1.471a6.185,6.185,0,0,1-1.682-4.541v-.352A7.608,7.608,0,0,1,77.9-9.756a5.575,5.575,0,0,1,2.057-2.326,5.437,5.437,0,0,1,2.953-.832,4.977,4.977,0,0,1,4,1.652,6.987,6.987,0,0,1,1.412,4.676v1.148H80.039a3.808,3.808,0,0,0,1.049,2.484,3.149,3.149,0,0,0,2.314.914A3.856,3.856,0,0,0,86.59-3.621l1.535,1.465A5.127,5.127,0,0,1,86.092-.393,6.365,6.365,0,0,1,83.238.234ZM82.9-10.629a2.4,2.4,0,0,0-1.893.82,4.252,4.252,0,0,0-.92,2.285h5.426v-.211A3.461,3.461,0,0,0,84.75-9.9,2.38,2.38,0,0,0,82.9-10.629ZM93.211-12.68l.082,1.324a4.563,4.563,0,0,1,3.656-1.559,3.505,3.505,0,0,1,3.48,1.945,4.5,4.5,0,0,1,3.891-1.945,3.953,3.953,0,0,1,3.123,1.16,5.108,5.108,0,0,1,1.049,3.422V0h-2.848V-8.25a2.522,2.522,0,0,0-.527-1.77,2.308,2.308,0,0,0-1.746-.562,2.371,2.371,0,0,0-1.588.521,2.75,2.75,0,0,0-.861,1.365l.012,8.7H98.086V-8.344A2.031,2.031,0,0,0,95.8-10.582a2.507,2.507,0,0,0-2.426,1.395V0H90.527V-12.68ZM122.52-6.211a7.549,7.549,0,0,1-1.336,4.693A4.278,4.278,0,0,1,117.6.234a4.307,4.307,0,0,1-3.34-1.371V4.875H111.41V-12.68h2.625l.117,1.289a4.183,4.183,0,0,1,3.41-1.523,4.322,4.322,0,0,1,3.639,1.729,7.751,7.751,0,0,1,1.318,4.8Zm-2.836-.246a5.288,5.288,0,0,0-.756-3.012,2.457,2.457,0,0,0-2.162-1.113,2.62,2.62,0,0,0-2.508,1.441v5.625a2.645,2.645,0,0,0,2.531,1.477,2.454,2.454,0,0,0,2.127-1.1A5.821,5.821,0,0,0,119.684-6.457Zm4.711,0a7.477,7.477,0,0,1,.738-3.357,5.392,5.392,0,0,1,2.074-2.3,5.844,5.844,0,0,1,3.07-.8,5.539,5.539,0,0,1,4.166,1.652,6.5,6.5,0,0,1,1.729,4.383l.012.668a7.543,7.543,0,0,1-.721,3.352A5.327,5.327,0,0,1,133.4-.574a5.887,5.887,0,0,1-3.1.809,5.5,5.5,0,0,1-4.295-1.787,6.845,6.845,0,0,1-1.611-4.764Zm2.848.246a5.109,5.109,0,0,0,.809,3.064,2.629,2.629,0,0,0,2.25,1.107,2.6,2.6,0,0,0,2.244-1.125,5.643,5.643,0,0,0,.8-3.293,5.043,5.043,0,0,0-.826-3.047,2.638,2.638,0,0,0-2.244-1.125,2.614,2.614,0,0,0-2.215,1.107A5.537,5.537,0,0,0,127.242-6.211Zm17.988-3.867a7.047,7.047,0,0,0-1.16-.094,2.612,2.612,0,0,0-2.637,1.5V0h-2.848V-12.68H141.3l.07,1.418a3.208,3.208,0,0,1,2.859-1.652,2.666,2.666,0,0,1,1.008.164ZM154.254,0a4.395,4.395,0,0,1-.328-1.184A4.433,4.433,0,0,1,150.6.234a4.473,4.473,0,0,1-3.117-1.09,3.487,3.487,0,0,1-1.207-2.7,3.6,3.6,0,0,1,1.506-3.111,7.3,7.3,0,0,1,4.307-1.084h1.746v-.832a2.221,2.221,0,0,0-.551-1.576,2.183,2.183,0,0,0-1.676-.592,2.508,2.508,0,0,0-1.594.486,1.505,1.505,0,0,0-.621,1.236h-2.848a3.16,3.16,0,0,1,.691-1.951,4.606,4.606,0,0,1,1.881-1.424,6.607,6.607,0,0,1,2.654-.516,5.32,5.32,0,0,1,3.551,1.119,3.991,3.991,0,0,1,1.359,3.146V-2.93a6.481,6.481,0,0,0,.48,2.73V0Zm-3.129-2.051a3.239,3.239,0,0,0,1.588-.41,2.74,2.74,0,0,0,1.119-1.1V-5.953H152.3a4.2,4.2,0,0,0-2.379.551,1.784,1.784,0,0,0-.8,1.559,1.664,1.664,0,0,0,.545,1.307A2.11,2.11,0,0,0,151.125-2.051ZM162.3-12.68l.082,1.465a4.559,4.559,0,0,1,3.691-1.7q3.961,0,4.031,4.535V0h-2.848V-8.215A2.611,2.611,0,0,0,166.74-10a2.194,2.194,0,0,0-1.705-.58,2.744,2.744,0,0,0-2.566,1.559V0h-2.848V-12.68ZM178.594.234a5.891,5.891,0,0,1-4.389-1.705,6.185,6.185,0,0,1-1.682-4.541v-.352a7.608,7.608,0,0,1,.732-3.393,5.575,5.575,0,0,1,2.057-2.326,5.437,5.437,0,0,1,2.953-.832,4.977,4.977,0,0,1,4,1.652,6.987,6.987,0,0,1,1.412,4.676v1.148h-8.285a3.808,3.808,0,0,0,1.049,2.484,3.149,3.149,0,0,0,2.314.914,3.856,3.856,0,0,0,3.188-1.582l1.535,1.465a5.127,5.127,0,0,1-2.033,1.764A6.365,6.365,0,0,1,178.594.234Zm-.34-10.863a2.4,2.4,0,0,0-1.893.82,4.252,4.252,0,0,0-.92,2.285h5.426v-.211a3.461,3.461,0,0,0-.762-2.162A2.38,2.38,0,0,0,178.254-10.629ZM188.918,0H186.07V-12.68h2.848Zm-3.023-15.973a1.511,1.511,0,0,1,.416-1.09A1.571,1.571,0,0,1,187.5-17.5a1.591,1.591,0,0,1,1.2.434,1.5,1.5,0,0,1,.422,1.09A1.465,1.465,0,0,1,188.7-14.9a1.6,1.6,0,0,1-1.2.428,1.584,1.584,0,0,1-1.189-.428A1.476,1.476,0,0,1,185.895-15.973Zm5.59,9.539a7.538,7.538,0,0,1,1.359-4.705,4.356,4.356,0,0,1,3.645-1.775,4.139,4.139,0,0,1,3.258,1.406V-18h2.848V0h-2.578l-.141-1.312a4.2,4.2,0,0,1-3.41,1.547,4.331,4.331,0,0,1-3.6-1.793A7.814,7.814,0,0,1,191.484-6.434Zm2.848.246a5.278,5.278,0,0,0,.744,3.018,2.415,2.415,0,0,0,2.115,1.084,2.689,2.689,0,0,0,2.555-1.559V-9.059a2.648,2.648,0,0,0-2.531-1.523,2.432,2.432,0,0,0-2.133,1.1A5.878,5.878,0,0,0,194.332-6.187ZM213.141,0a4.395,4.395,0,0,1-.328-1.184A4.433,4.433,0,0,1,209.484.234a4.473,4.473,0,0,1-3.117-1.09,3.487,3.487,0,0,1-1.207-2.7,3.6,3.6,0,0,1,1.506-3.111,7.3,7.3,0,0,1,4.307-1.084h1.746v-.832a2.221,2.221,0,0,0-.551-1.576,2.183,2.183,0,0,0-1.676-.592,2.508,2.508,0,0,0-1.594.486,1.505,1.505,0,0,0-.621,1.236H205.43a3.16,3.16,0,0,1,.691-1.951A4.606,4.606,0,0,1,208-12.4a6.607,6.607,0,0,1,2.654-.516,5.32,5.32,0,0,1,3.551,1.119,3.991,3.991,0,0,1,1.359,3.146V-2.93a6.481,6.481,0,0,0,.48,2.73V0Zm-3.129-2.051a3.239,3.239,0,0,0,1.588-.41,2.74,2.74,0,0,0,1.119-1.1V-5.953h-1.535A4.2,4.2,0,0,0,208.8-5.4a1.784,1.784,0,0,0-.8,1.559,1.664,1.664,0,0,0,.545,1.307A2.11,2.11,0,0,0,210.012-2.051Zm8-4.383a7.538,7.538,0,0,1,1.359-4.705,4.356,4.356,0,0,1,3.645-1.775,4.139,4.139,0,0,1,3.258,1.406V-18h2.848V0h-2.578l-.141-1.312A4.2,4.2,0,0,1,223,.234a4.331,4.331,0,0,1-3.6-1.793A7.814,7.814,0,0,1,218.016-6.434Zm2.848.246a5.278,5.278,0,0,0,.744,3.018,2.415,2.415,0,0,0,2.115,1.084,2.689,2.689,0,0,0,2.555-1.559V-9.059a2.648,2.648,0,0,0-2.531-1.523,2.432,2.432,0,0,0-2.133,1.1A5.878,5.878,0,0,0,220.863-6.187Z" transform="translate(-10891 -7638)" fill="#12263f"/>
      <rect id="Rectángulo_44953" data-name="Rectángulo 44953" width="296" height="55" rx="12" transform="translate(-10945 -7472)" fill="#ef9f14"/>
      <path id="Trazado_195802" data-name="Trazado 195802" d="M4.7-6.34V0H1.734V-17.062H8.262A6.605,6.605,0,0,1,12.8-15.574a5,5,0,0,1,1.682,3.938,4.836,4.836,0,0,1-1.646,3.9A6.925,6.925,0,0,1,8.227-6.34Zm0-2.379H8.262a3.509,3.509,0,0,0,2.414-.744,2.735,2.735,0,0,0,.832-2.15,2.951,2.951,0,0,0-.844-2.209,3.252,3.252,0,0,0-2.32-.85H4.7ZM16.113-6.457a7.477,7.477,0,0,1,.738-3.357,5.392,5.392,0,0,1,2.074-2.3,5.844,5.844,0,0,1,3.07-.8,5.539,5.539,0,0,1,4.166,1.652,6.5,6.5,0,0,1,1.729,4.383l.012.668a7.543,7.543,0,0,1-.721,3.352A5.327,5.327,0,0,1,25.119-.574a5.887,5.887,0,0,1-3.1.809,5.5,5.5,0,0,1-4.295-1.787,6.845,6.845,0,0,1-1.611-4.764Zm2.848.246a5.109,5.109,0,0,0,.809,3.064,2.629,2.629,0,0,0,2.25,1.107,2.6,2.6,0,0,0,2.244-1.125,5.643,5.643,0,0,0,.8-3.293A5.043,5.043,0,0,0,24.24-9.5,2.638,2.638,0,0,0,22-10.629a2.614,2.614,0,0,0-2.215,1.107A5.537,5.537,0,0,0,18.961-6.211Zm17.988-3.867a7.047,7.047,0,0,0-1.16-.094,2.612,2.612,0,0,0-2.637,1.5V0H30.3V-12.68h2.719l.07,1.418a3.208,3.208,0,0,1,2.859-1.652,2.666,2.666,0,0,1,1.008.164Zm7.242,3.621a7.477,7.477,0,0,1,.738-3.357A5.392,5.392,0,0,1,47-12.111a5.844,5.844,0,0,1,3.07-.8,5.539,5.539,0,0,1,4.166,1.652,6.5,6.5,0,0,1,1.729,4.383l.012.668a7.543,7.543,0,0,1-.721,3.352A5.327,5.327,0,0,1,53.2-.574a5.887,5.887,0,0,1-3.1.809A5.5,5.5,0,0,1,45.8-1.553a6.845,6.845,0,0,1-1.611-4.764Zm2.848.246a5.109,5.109,0,0,0,.809,3.064A2.629,2.629,0,0,0,50.1-2.039a2.6,2.6,0,0,0,2.244-1.125,5.643,5.643,0,0,0,.8-3.293A5.043,5.043,0,0,0,52.318-9.5a2.638,2.638,0,0,0-2.244-1.125,2.614,2.614,0,0,0-2.215,1.107A5.537,5.537,0,0,0,47.039-6.211ZM61.066-12.68l.082,1.324A4.563,4.563,0,0,1,64.8-12.914a3.505,3.505,0,0,1,3.48,1.945,4.5,4.5,0,0,1,3.891-1.945,3.953,3.953,0,0,1,3.123,1.16,5.108,5.108,0,0,1,1.049,3.422V0H73.5V-8.25a2.522,2.522,0,0,0-.527-1.77,2.308,2.308,0,0,0-1.746-.562,2.371,2.371,0,0,0-1.588.521A2.75,2.75,0,0,0,68.777-8.7L68.789,0H65.941V-8.344a2.031,2.031,0,0,0-2.285-2.238A2.507,2.507,0,0,0,61.23-9.187V0H58.383V-12.68ZM82.3,0H79.453V-12.68H82.3ZM79.277-15.973a1.511,1.511,0,0,1,.416-1.09,1.571,1.571,0,0,1,1.189-.434,1.591,1.591,0,0,1,1.2.434,1.5,1.5,0,0,1,.422,1.09,1.465,1.465,0,0,1-.422,1.072,1.6,1.6,0,0,1-1.2.428,1.584,1.584,0,0,1-1.189-.428A1.476,1.476,0,0,1,79.277-15.973ZM92.508-3.445a1.291,1.291,0,0,0-.627-1.16,6.668,6.668,0,0,0-2.08-.7,10.693,10.693,0,0,1-2.426-.773A3.237,3.237,0,0,1,85.242-9.07a3.375,3.375,0,0,1,1.383-2.742,5.467,5.467,0,0,1,3.516-1.1,5.688,5.688,0,0,1,3.674,1.125,3.57,3.57,0,0,1,1.4,2.918H92.367a1.755,1.755,0,0,0-.609-1.365,2.335,2.335,0,0,0-1.617-.545,2.523,2.523,0,0,0-1.529.434,1.367,1.367,0,0,0-.592,1.16,1.154,1.154,0,0,0,.551,1.02,7.574,7.574,0,0,0,2.227.732,10.54,10.54,0,0,1,2.631.879,3.725,3.725,0,0,1,1.418,1.225A3.123,3.123,0,0,1,95.309-3.6,3.3,3.3,0,0,1,93.891-.826,6.046,6.046,0,0,1,90.176.234,6.556,6.556,0,0,1,87.4-.328a4.571,4.571,0,0,1-1.9-1.547A3.662,3.662,0,0,1,84.82-4h2.766a2.007,2.007,0,0,0,.762,1.553,2.96,2.96,0,0,0,1.863.545,2.88,2.88,0,0,0,1.711-.428A1.324,1.324,0,0,0,92.508-3.445ZM100.816,0H97.969V-12.68h2.848ZM97.793-15.973a1.511,1.511,0,0,1,.416-1.09A1.571,1.571,0,0,1,99.4-17.5a1.591,1.591,0,0,1,1.2.434,1.5,1.5,0,0,1,.422,1.09,1.465,1.465,0,0,1-.422,1.072,1.6,1.6,0,0,1-1.2.428,1.584,1.584,0,0,1-1.189-.428A1.476,1.476,0,0,1,97.793-15.973Zm5.59,9.516a7.477,7.477,0,0,1,.738-3.357,5.392,5.392,0,0,1,2.074-2.3,5.844,5.844,0,0,1,3.07-.8,5.539,5.539,0,0,1,4.166,1.652,6.5,6.5,0,0,1,1.729,4.383l.012.668a7.543,7.543,0,0,1-.721,3.352,5.327,5.327,0,0,1-2.062,2.285,5.887,5.887,0,0,1-3.1.809,5.5,5.5,0,0,1-4.295-1.787,6.845,6.845,0,0,1-1.611-4.764Zm2.848.246a5.109,5.109,0,0,0,.809,3.064,2.629,2.629,0,0,0,2.25,1.107,2.6,2.6,0,0,0,2.244-1.125,5.643,5.643,0,0,0,.8-3.293A5.043,5.043,0,0,0,111.51-9.5a2.638,2.638,0,0,0-2.244-1.125,2.614,2.614,0,0,0-2.215,1.107A5.537,5.537,0,0,0,106.23-6.211ZM110.051-18H113.3l-3.246,3.551h-2.285Zm10.172,5.32.082,1.465a4.559,4.559,0,0,1,3.691-1.7q3.961,0,4.031,4.535V0H125.18V-8.215A2.611,2.611,0,0,0,124.658-10a2.194,2.194,0,0,0-1.705-.58,2.744,2.744,0,0,0-2.566,1.559V0h-2.848V-12.68Zm16.148,6.246a7.538,7.538,0,0,1,1.359-4.705,4.356,4.356,0,0,1,3.645-1.775,4.139,4.139,0,0,1,3.258,1.406V-18h2.848V0H144.9l-.141-1.312a4.2,4.2,0,0,1-3.41,1.547,4.331,4.331,0,0,1-3.6-1.793A7.814,7.814,0,0,1,136.371-6.434Zm2.848.246a5.278,5.278,0,0,0,.744,3.018,2.415,2.415,0,0,0,2.115,1.084,2.689,2.689,0,0,0,2.555-1.559V-9.059a2.648,2.648,0,0,0-2.531-1.523,2.432,2.432,0,0,0-2.133,1.1A5.878,5.878,0,0,0,139.219-6.187ZM156.035.234a5.891,5.891,0,0,1-4.389-1.705,6.185,6.185,0,0,1-1.682-4.541v-.352a7.608,7.608,0,0,1,.732-3.393,5.575,5.575,0,0,1,2.057-2.326,5.437,5.437,0,0,1,2.953-.832,4.977,4.977,0,0,1,4,1.652,6.987,6.987,0,0,1,1.412,4.676v1.148h-8.285a3.808,3.808,0,0,0,1.049,2.484,3.149,3.149,0,0,0,2.314.914,3.856,3.856,0,0,0,3.188-1.582l1.535,1.465a5.127,5.127,0,0,1-2.033,1.764A6.365,6.365,0,0,1,156.035.234Zm-.34-10.863a2.4,2.4,0,0,0-1.893.82,4.252,4.252,0,0,0-.92,2.285h5.426v-.211a3.461,3.461,0,0,0-.762-2.162A2.38,2.38,0,0,0,155.7-10.629ZM172.336,0h-2.848V-12.68h2.848Zm-3.023-15.973a1.511,1.511,0,0,1,.416-1.09,1.571,1.571,0,0,1,1.189-.434,1.591,1.591,0,0,1,1.2.434,1.5,1.5,0,0,1,.422,1.09,1.465,1.465,0,0,1-.422,1.072,1.6,1.6,0,0,1-1.2.428,1.584,1.584,0,0,1-1.189-.428A1.476,1.476,0,0,1,169.313-15.973Zm8.766,3.293.082,1.465a4.559,4.559,0,0,1,3.691-1.7q3.961,0,4.031,4.535V0h-2.848V-8.215A2.611,2.611,0,0,0,182.514-10a2.194,2.194,0,0,0-1.705-.58,2.744,2.744,0,0,0-2.566,1.559V0h-2.848V-12.68Zm10.207,6.246a7.416,7.416,0,0,1,1.389-4.717,4.457,4.457,0,0,1,3.686-1.764,4.175,4.175,0,0,1,3.41,1.512l.129-1.277h2.566V-.387a5.109,5.109,0,0,1-1.553,3.938,5.914,5.914,0,0,1-4.189,1.441A6.753,6.753,0,0,1,191,4.412a4.841,4.841,0,0,1-2.021-1.518l1.348-1.711a4.07,4.07,0,0,0,3.234,1.559,3.146,3.146,0,0,0,2.238-.768,2.942,2.942,0,0,0,.82-2.256v-.855A4.193,4.193,0,0,1,193.336.234a4.446,4.446,0,0,1-3.639-1.77A7.656,7.656,0,0,1,188.285-6.434Zm2.836.246a5.1,5.1,0,0,0,.779,3.006,2.506,2.506,0,0,0,2.162,1.1,2.74,2.74,0,0,0,2.555-1.477V-9.141a2.7,2.7,0,0,0-2.531-1.441A2.516,2.516,0,0,0,191.9-9.469,5.716,5.716,0,0,0,191.121-6.187Zm17.906-3.891a7.047,7.047,0,0,0-1.16-.094,2.612,2.612,0,0,0-2.637,1.5V0h-2.848V-12.68H205.1l.07,1.418a3.208,3.208,0,0,1,2.859-1.652,2.666,2.666,0,0,1,1.008.164ZM216.41.234a5.891,5.891,0,0,1-4.389-1.705,6.185,6.185,0,0,1-1.682-4.541v-.352a7.608,7.608,0,0,1,.732-3.393,5.575,5.575,0,0,1,2.057-2.326,5.437,5.437,0,0,1,2.953-.832,4.977,4.977,0,0,1,4,1.652A6.987,6.987,0,0,1,221.5-6.586v1.148h-8.285a3.808,3.808,0,0,0,1.049,2.484,3.149,3.149,0,0,0,2.314.914,3.856,3.856,0,0,0,3.188-1.582L221.3-2.156a5.127,5.127,0,0,1-2.033,1.764A6.365,6.365,0,0,1,216.41.234Zm-.34-10.863a2.4,2.4,0,0,0-1.893.82,4.252,4.252,0,0,0-.92,2.285h5.426v-.211a3.461,3.461,0,0,0-.762-2.162A2.38,2.38,0,0,0,216.07-10.629Zm14.742,7.184a1.291,1.291,0,0,0-.627-1.16,6.668,6.668,0,0,0-2.08-.7,10.693,10.693,0,0,1-2.426-.773,3.237,3.237,0,0,1-2.133-2.988,3.375,3.375,0,0,1,1.383-2.742,5.467,5.467,0,0,1,3.516-1.1,5.688,5.688,0,0,1,3.674,1.125,3.57,3.57,0,0,1,1.4,2.918h-2.848a1.755,1.755,0,0,0-.609-1.365,2.335,2.335,0,0,0-1.617-.545,2.523,2.523,0,0,0-1.529.434,1.367,1.367,0,0,0-.592,1.16,1.154,1.154,0,0,0,.551,1.02,7.574,7.574,0,0,0,2.227.732,10.54,10.54,0,0,1,2.631.879,3.725,3.725,0,0,1,1.418,1.225,3.123,3.123,0,0,1,.463,1.734A3.3,3.3,0,0,1,232.2-.826,6.046,6.046,0,0,1,228.48.234,6.556,6.556,0,0,1,225.7-.328a4.571,4.571,0,0,1-1.9-1.547A3.662,3.662,0,0,1,223.125-4h2.766a2.007,2.007,0,0,0,.762,1.553,2.96,2.96,0,0,0,1.863.545,2.88,2.88,0,0,0,1.711-.428A1.324,1.324,0,0,0,230.813-3.445Zm4.746-3.012a7.477,7.477,0,0,1,.738-3.357,5.392,5.392,0,0,1,2.074-2.3,5.844,5.844,0,0,1,3.07-.8,5.539,5.539,0,0,1,4.166,1.652,6.5,6.5,0,0,1,1.729,4.383l.012.668a7.543,7.543,0,0,1-.721,3.352,5.327,5.327,0,0,1-2.062,2.285,5.887,5.887,0,0,1-3.1.809,5.5,5.5,0,0,1-4.295-1.787,6.845,6.845,0,0,1-1.611-4.764Zm2.848.246a5.109,5.109,0,0,0,.809,3.064,2.629,2.629,0,0,0,2.25,1.107,2.6,2.6,0,0,0,2.244-1.125,5.643,5.643,0,0,0,.8-3.293,5.043,5.043,0,0,0-.826-3.047,2.638,2.638,0,0,0-2.244-1.125,2.614,2.614,0,0,0-2.215,1.107A5.537,5.537,0,0,0,238.406-6.211Zm18.457,2.766a1.291,1.291,0,0,0-.627-1.16,6.668,6.668,0,0,0-2.08-.7,10.693,10.693,0,0,1-2.426-.773A3.237,3.237,0,0,1,249.6-9.07a3.375,3.375,0,0,1,1.383-2.742,5.467,5.467,0,0,1,3.516-1.1,5.688,5.688,0,0,1,3.674,1.125,3.57,3.57,0,0,1,1.4,2.918h-2.848a1.755,1.755,0,0,0-.609-1.365,2.335,2.335,0,0,0-1.617-.545,2.523,2.523,0,0,0-1.529.434,1.367,1.367,0,0,0-.592,1.16,1.154,1.154,0,0,0,.551,1.02,7.574,7.574,0,0,0,2.227.732,10.54,10.54,0,0,1,2.631.879A3.725,3.725,0,0,1,259.2-5.332a3.123,3.123,0,0,1,.463,1.734,3.3,3.3,0,0,1-1.418,2.771A6.046,6.046,0,0,1,254.531.234a6.556,6.556,0,0,1-2.777-.562,4.571,4.571,0,0,1-1.9-1.547A3.662,3.662,0,0,1,249.176-4h2.766a2.007,2.007,0,0,0,.762,1.553,2.96,2.96,0,0,0,1.863.545,2.88,2.88,0,0,0,1.711-.428A1.324,1.324,0,0,0,256.863-3.445Z" transform="translate(-10929 -7436)" fill="#12263f"/>
      <rect id="Rectángulo_44954" data-name="Rectángulo 44954" width="267" height="55" rx="12" transform="translate(-10907 -7297)" fill="#ef9f14"/>
      <path id="Trazado_195804" data-name="Trazado 195804" d="M4.7-6.34V0H1.734V-17.062H8.262A6.605,6.605,0,0,1,12.8-15.574a5,5,0,0,1,1.682,3.938,4.836,4.836,0,0,1-1.646,3.9A6.925,6.925,0,0,1,8.227-6.34Zm0-2.379H8.262a3.509,3.509,0,0,0,2.414-.744,2.735,2.735,0,0,0,.832-2.15,2.951,2.951,0,0,0-.844-2.209,3.252,3.252,0,0,0-2.32-.85H4.7ZM16.113-6.457a7.477,7.477,0,0,1,.738-3.357,5.392,5.392,0,0,1,2.074-2.3,5.844,5.844,0,0,1,3.07-.8,5.539,5.539,0,0,1,4.166,1.652,6.5,6.5,0,0,1,1.729,4.383l.012.668a7.543,7.543,0,0,1-.721,3.352A5.327,5.327,0,0,1,25.119-.574a5.887,5.887,0,0,1-3.1.809,5.5,5.5,0,0,1-4.295-1.787,6.845,6.845,0,0,1-1.611-4.764Zm2.848.246a5.109,5.109,0,0,0,.809,3.064,2.629,2.629,0,0,0,2.25,1.107,2.6,2.6,0,0,0,2.244-1.125,5.643,5.643,0,0,0,.8-3.293A5.043,5.043,0,0,0,24.24-9.5,2.638,2.638,0,0,0,22-10.629a2.614,2.614,0,0,0-2.215,1.107A5.537,5.537,0,0,0,18.961-6.211Zm17.988-3.867a7.047,7.047,0,0,0-1.16-.094,2.612,2.612,0,0,0-2.637,1.5V0H30.3V-12.68h2.719l.07,1.418a3.208,3.208,0,0,1,2.859-1.652,2.666,2.666,0,0,1,1.008.164ZM58.02-5.555A6.161,6.161,0,0,1,56-1.295,6.872,6.872,0,0,1,51.328.234a6.654,6.654,0,0,1-3.592-.967,6.346,6.346,0,0,1-2.4-2.748,9.917,9.917,0,0,1-.879-4.137V-9.211a9.989,9.989,0,0,1,.855-4.254A6.447,6.447,0,0,1,47.771-16.3a6.848,6.848,0,0,1,3.7-1,6.579,6.579,0,0,1,4.547,1.535,6.413,6.413,0,0,1,2,4.336H55.066a4.215,4.215,0,0,0-1.072-2.654,3.544,3.544,0,0,0-2.525-.814A3.463,3.463,0,0,0,48.5-13.482,7.053,7.053,0,0,0,47.438-9.34v1.512a7.482,7.482,0,0,0,.99,4.219,3.287,3.287,0,0,0,2.9,1.453,3.833,3.833,0,0,0,2.625-.785,4.094,4.094,0,0,0,1.113-2.613Zm1.84-.9A7.477,7.477,0,0,1,60.6-9.814a5.392,5.392,0,0,1,2.074-2.3,5.844,5.844,0,0,1,3.07-.8,5.539,5.539,0,0,1,4.166,1.652,6.5,6.5,0,0,1,1.729,4.383l.012.668a7.543,7.543,0,0,1-.721,3.352A5.327,5.327,0,0,1,68.865-.574a5.887,5.887,0,0,1-3.1.809,5.5,5.5,0,0,1-4.295-1.787,6.845,6.845,0,0,1-1.611-4.764Zm2.848.246a5.109,5.109,0,0,0,.809,3.064,2.629,2.629,0,0,0,2.25,1.107A2.6,2.6,0,0,0,68.01-3.164a5.643,5.643,0,0,0,.8-3.293A5.043,5.043,0,0,0,67.986-9.5a2.638,2.638,0,0,0-2.244-1.125,2.614,2.614,0,0,0-2.215,1.107A5.537,5.537,0,0,0,62.707-6.211ZM80.7-10.078a7.047,7.047,0,0,0-1.16-.094,2.612,2.612,0,0,0-2.637,1.5V0H74.051V-12.68H76.77l.07,1.418A3.208,3.208,0,0,1,79.7-12.914a2.666,2.666,0,0,1,1.008.164Zm8.438,0a7.047,7.047,0,0,0-1.16-.094,2.612,2.612,0,0,0-2.637,1.5V0H82.488V-12.68h2.719l.07,1.418a3.208,3.208,0,0,1,2.859-1.652,2.666,2.666,0,0,1,1.008.164ZM96.516.234a5.891,5.891,0,0,1-4.389-1.705,6.185,6.185,0,0,1-1.682-4.541v-.352a7.608,7.608,0,0,1,.732-3.393,5.575,5.575,0,0,1,2.057-2.326,5.437,5.437,0,0,1,2.953-.832,4.977,4.977,0,0,1,4,1.652A6.987,6.987,0,0,1,101.6-6.586v1.148H93.316a3.808,3.808,0,0,0,1.049,2.484,3.149,3.149,0,0,0,2.314.914,3.856,3.856,0,0,0,3.188-1.582L101.4-2.156A5.127,5.127,0,0,1,99.369-.393,6.365,6.365,0,0,1,96.516.234Zm-.34-10.863a2.4,2.4,0,0,0-1.893.82,4.252,4.252,0,0,0-.92,2.285h5.426v-.211A3.461,3.461,0,0,0,98.027-9.9,2.38,2.38,0,0,0,96.176-10.629Zm12.844,8.59a2.575,2.575,0,0,0,1.77-.621,2.122,2.122,0,0,0,.75-1.535h2.684a4.183,4.183,0,0,1-.738,2.209,4.843,4.843,0,0,1-1.875,1.623,5.588,5.588,0,0,1-2.555.6,5.406,5.406,0,0,1-4.219-1.723,6.833,6.833,0,0,1-1.559-4.758v-.293a6.719,6.719,0,0,1,1.547-4.635,5.357,5.357,0,0,1,4.219-1.74,5.21,5.21,0,0,1,3.686,1.318,4.722,4.722,0,0,1,1.494,3.463h-2.684a2.608,2.608,0,0,0-.744-1.793,2.394,2.394,0,0,0-1.775-.7,2.506,2.506,0,0,0-2.133,1,5.113,5.113,0,0,0-.762,3.041v.457a5.2,5.2,0,0,0,.744,3.076A2.5,2.5,0,0,0,109.02-2.039Zm12.563,0a2.575,2.575,0,0,0,1.77-.621A2.122,2.122,0,0,0,124.1-4.2h2.684a4.183,4.183,0,0,1-.738,2.209,4.843,4.843,0,0,1-1.875,1.623,5.588,5.588,0,0,1-2.555.6A5.406,5.406,0,0,1,117.4-1.488a6.833,6.833,0,0,1-1.559-4.758v-.293a6.719,6.719,0,0,1,1.547-4.635,5.357,5.357,0,0,1,4.219-1.74,5.21,5.21,0,0,1,3.686,1.318,4.722,4.722,0,0,1,1.494,3.463H124.1a2.608,2.608,0,0,0-.744-1.793,2.394,2.394,0,0,0-1.775-.7,2.506,2.506,0,0,0-2.133,1,5.113,5.113,0,0,0-.762,3.041v.457a5.2,5.2,0,0,0,.744,3.076A2.5,2.5,0,0,0,121.582-2.039ZM131.965,0h-2.848V-12.68h2.848Zm-3.023-15.973a1.511,1.511,0,0,1,.416-1.09,1.571,1.571,0,0,1,1.189-.434,1.591,1.591,0,0,1,1.2.434,1.5,1.5,0,0,1,.422,1.09,1.465,1.465,0,0,1-.422,1.072,1.6,1.6,0,0,1-1.2.428,1.584,1.584,0,0,1-1.189-.428A1.476,1.476,0,0,1,128.941-15.973Zm5.59,9.516a7.477,7.477,0,0,1,.738-3.357,5.392,5.392,0,0,1,2.074-2.3,5.844,5.844,0,0,1,3.07-.8,5.539,5.539,0,0,1,4.166,1.652,6.5,6.5,0,0,1,1.729,4.383l.012.668a7.543,7.543,0,0,1-.721,3.352,5.327,5.327,0,0,1-2.062,2.285,5.887,5.887,0,0,1-3.1.809,5.5,5.5,0,0,1-4.295-1.787,6.845,6.845,0,0,1-1.611-4.764Zm2.848.246a5.109,5.109,0,0,0,.809,3.064,2.629,2.629,0,0,0,2.25,1.107,2.6,2.6,0,0,0,2.244-1.125,5.643,5.643,0,0,0,.8-3.293,5.043,5.043,0,0,0-.826-3.047,2.638,2.638,0,0,0-2.244-1.125A2.614,2.614,0,0,0,138.2-9.521,5.537,5.537,0,0,0,137.379-6.211ZM141.2-18h3.246L141.2-14.449h-2.285Zm10.172,5.32.082,1.465a4.559,4.559,0,0,1,3.691-1.7q3.961,0,4.031,4.535V0h-2.848V-8.215A2.611,2.611,0,0,0,155.807-10a2.194,2.194,0,0,0-1.705-.58,2.744,2.744,0,0,0-2.566,1.559V0h-2.848V-12.68Z" transform="translate(-10858 -7261)" fill="#12263f"/>
      <rect id="Rectángulo_44955" data-name="Rectángulo 44955" width="267" height="55" rx="12" transform="translate(-10198 -7674)" fill="#ef9f14"/>
      <path id="Trazado_195801" data-name="Trazado 195801" d="M4.7-6.34V0H1.734V-17.062H8.262A6.605,6.605,0,0,1,12.8-15.574a5,5,0,0,1,1.682,3.938,4.836,4.836,0,0,1-1.646,3.9A6.925,6.925,0,0,1,8.227-6.34Zm0-2.379H8.262a3.509,3.509,0,0,0,2.414-.744,2.735,2.735,0,0,0,.832-2.15,2.951,2.951,0,0,0-.844-2.209,3.252,3.252,0,0,0-2.32-.85H4.7ZM16.113-6.457a7.477,7.477,0,0,1,.738-3.357,5.392,5.392,0,0,1,2.074-2.3,5.844,5.844,0,0,1,3.07-.8,5.539,5.539,0,0,1,4.166,1.652,6.5,6.5,0,0,1,1.729,4.383l.012.668a7.543,7.543,0,0,1-.721,3.352A5.327,5.327,0,0,1,25.119-.574a5.887,5.887,0,0,1-3.1.809,5.5,5.5,0,0,1-4.295-1.787,6.845,6.845,0,0,1-1.611-4.764Zm2.848.246a5.109,5.109,0,0,0,.809,3.064,2.629,2.629,0,0,0,2.25,1.107,2.6,2.6,0,0,0,2.244-1.125,5.643,5.643,0,0,0,.8-3.293A5.043,5.043,0,0,0,24.24-9.5,2.638,2.638,0,0,0,22-10.629a2.614,2.614,0,0,0-2.215,1.107A5.537,5.537,0,0,0,18.961-6.211Zm17.988-3.867a7.047,7.047,0,0,0-1.16-.094,2.612,2.612,0,0,0-2.637,1.5V0H30.3V-12.68h2.719l.07,1.418a3.208,3.208,0,0,1,2.859-1.652,2.666,2.666,0,0,1,1.008.164ZM47.754,0H44.906V-12.68h2.848ZM44.73-15.973a1.511,1.511,0,0,1,.416-1.09,1.571,1.571,0,0,1,1.189-.434,1.591,1.591,0,0,1,1.2.434,1.5,1.5,0,0,1,.422,1.09,1.465,1.465,0,0,1-.422,1.072,1.6,1.6,0,0,1-1.2.428,1.584,1.584,0,0,1-1.189-.428A1.476,1.476,0,0,1,44.73-15.973ZM53.5-12.68l.082,1.465a4.559,4.559,0,0,1,3.691-1.7q3.961,0,4.031,4.535V0H58.453V-8.215A2.611,2.611,0,0,0,57.932-10a2.194,2.194,0,0,0-1.705-.58A2.744,2.744,0,0,0,53.66-9.023V0H50.813V-12.68ZM69.785.234A5.891,5.891,0,0,1,65.4-1.471a6.185,6.185,0,0,1-1.682-4.541v-.352a7.608,7.608,0,0,1,.732-3.393A5.575,5.575,0,0,1,66.5-12.082a5.437,5.437,0,0,1,2.953-.832,4.977,4.977,0,0,1,4,1.652,6.987,6.987,0,0,1,1.412,4.676v1.148H66.586a3.808,3.808,0,0,0,1.049,2.484,3.149,3.149,0,0,0,2.314.914,3.856,3.856,0,0,0,3.188-1.582l1.535,1.465A5.127,5.127,0,0,1,72.639-.393,6.365,6.365,0,0,1,69.785.234Zm-.34-10.863a2.4,2.4,0,0,0-1.893.82,4.252,4.252,0,0,0-.92,2.285h5.426v-.211A3.461,3.461,0,0,0,71.3-9.9,2.38,2.38,0,0,0,69.445-10.629ZM81.633-8.508l2.414-4.172h3.164L83.332-6.434,87.34,0H84.2L81.668-4.336,79.148,0H75.984l4.008-6.434L76.125-12.68h3.141ZM96.727,0A4.395,4.395,0,0,1,96.4-1.184,4.433,4.433,0,0,1,93.07.234a4.473,4.473,0,0,1-3.117-1.09,3.487,3.487,0,0,1-1.207-2.7,3.6,3.6,0,0,1,1.506-3.111,7.3,7.3,0,0,1,4.307-1.084H96.3v-.832a2.221,2.221,0,0,0-.551-1.576,2.183,2.183,0,0,0-1.676-.592,2.508,2.508,0,0,0-1.594.486,1.505,1.505,0,0,0-.621,1.236H89.016a3.16,3.16,0,0,1,.691-1.951A4.606,4.606,0,0,1,91.588-12.4a6.607,6.607,0,0,1,2.654-.516,5.32,5.32,0,0,1,3.551,1.119,3.991,3.991,0,0,1,1.359,3.146V-2.93a6.481,6.481,0,0,0,.48,2.73V0ZM93.6-2.051a3.239,3.239,0,0,0,1.588-.41,2.74,2.74,0,0,0,1.119-1.1V-5.953H94.77a4.2,4.2,0,0,0-2.379.551,1.784,1.784,0,0,0-.8,1.559,1.664,1.664,0,0,0,.545,1.307A2.11,2.11,0,0,0,93.6-2.051Zm13.746.012a2.575,2.575,0,0,0,1.77-.621,2.122,2.122,0,0,0,.75-1.535h2.684a4.183,4.183,0,0,1-.738,2.209,4.843,4.843,0,0,1-1.875,1.623,5.588,5.588,0,0,1-2.555.6,5.406,5.406,0,0,1-4.219-1.723A6.833,6.833,0,0,1,101.6-6.246v-.293a6.719,6.719,0,0,1,1.547-4.635,5.357,5.357,0,0,1,4.219-1.74,5.21,5.21,0,0,1,3.686,1.318,4.722,4.722,0,0,1,1.494,3.463h-2.684a2.608,2.608,0,0,0-.744-1.793,2.394,2.394,0,0,0-1.775-.7,2.506,2.506,0,0,0-2.133,1,5.113,5.113,0,0,0-.762,3.041v.457a5.2,5.2,0,0,0,.744,3.076A2.5,2.5,0,0,0,107.344-2.039Zm10.922-13.723v3.082H120.5v2.109h-2.238v7.078a1.559,1.559,0,0,0,.287,1.049,1.331,1.331,0,0,0,1.025.322,4.387,4.387,0,0,0,1-.117v2.2a7.013,7.013,0,0,1-1.875.27q-3.281,0-3.281-3.621V-10.57h-2.086V-12.68h2.086v-3.082ZM125.707,0h-2.848V-12.68h2.848Zm-3.023-15.973a1.511,1.511,0,0,1,.416-1.09,1.571,1.571,0,0,1,1.189-.434,1.591,1.591,0,0,1,1.2.434,1.5,1.5,0,0,1,.422,1.09,1.465,1.465,0,0,1-.422,1.072,1.6,1.6,0,0,1-1.2.428A1.584,1.584,0,0,1,123.1-14.9,1.476,1.476,0,0,1,122.684-15.973Zm9.691.211v3.082h2.238v2.109h-2.238v7.078a1.559,1.559,0,0,0,.287,1.049,1.331,1.331,0,0,0,1.025.322,4.387,4.387,0,0,0,1-.117v2.2a7.013,7.013,0,0,1-1.875.27q-3.281,0-3.281-3.621V-10.57h-2.086V-12.68h2.086v-3.082Zm12.094,14.52A4.416,4.416,0,0,1,140.906.234a3.936,3.936,0,0,1-3.123-1.207,5.135,5.135,0,0,1-1.061-3.492V-12.68h2.848V-4.5q0,2.414,2,2.414a2.814,2.814,0,0,0,2.8-1.488V-12.68h2.848V0h-2.684Zm5.121-5.191a7.538,7.538,0,0,1,1.359-4.705,4.356,4.356,0,0,1,3.645-1.775,4.139,4.139,0,0,1,3.258,1.406V-18H160.7V0h-2.578l-.141-1.312A4.2,4.2,0,0,1,154.57.234a4.331,4.331,0,0,1-3.6-1.793A7.814,7.814,0,0,1,149.59-6.434Zm2.848.246a5.278,5.278,0,0,0,.744,3.018A2.415,2.415,0,0,0,155.3-2.086a2.689,2.689,0,0,0,2.555-1.559V-9.059a2.648,2.648,0,0,0-2.531-1.523,2.432,2.432,0,0,0-2.133,1.1A5.878,5.878,0,0,0,152.438-6.187Z" transform="translate(-10145 -7638)" fill="#12263f"/>
      <rect id="Rectángulo_44956" data-name="Rectángulo 44956" width="311" height="55" rx="12" transform="translate(-10198 -7471)" fill="#ef9f14"/>
      <path id="Trazado_195803" data-name="Trazado 195803" d="M4.7-6.34V0H1.734V-17.062H8.262A6.605,6.605,0,0,1,12.8-15.574a5,5,0,0,1,1.682,3.938,4.836,4.836,0,0,1-1.646,3.9A6.925,6.925,0,0,1,8.227-6.34Zm0-2.379H8.262a3.509,3.509,0,0,0,2.414-.744,2.735,2.735,0,0,0,.832-2.15,2.951,2.951,0,0,0-.844-2.209,3.252,3.252,0,0,0-2.32-.85H4.7ZM16.113-6.457a7.477,7.477,0,0,1,.738-3.357,5.392,5.392,0,0,1,2.074-2.3,5.844,5.844,0,0,1,3.07-.8,5.539,5.539,0,0,1,4.166,1.652,6.5,6.5,0,0,1,1.729,4.383l.012.668a7.543,7.543,0,0,1-.721,3.352A5.327,5.327,0,0,1,25.119-.574a5.887,5.887,0,0,1-3.1.809,5.5,5.5,0,0,1-4.295-1.787,6.845,6.845,0,0,1-1.611-4.764Zm2.848.246a5.109,5.109,0,0,0,.809,3.064,2.629,2.629,0,0,0,2.25,1.107,2.6,2.6,0,0,0,2.244-1.125,5.643,5.643,0,0,0,.8-3.293A5.043,5.043,0,0,0,24.24-9.5,2.638,2.638,0,0,0,22-10.629a2.614,2.614,0,0,0-2.215,1.107A5.537,5.537,0,0,0,18.961-6.211Zm17.988-3.867a7.047,7.047,0,0,0-1.16-.094,2.612,2.612,0,0,0-2.637,1.5V0H30.3V-12.68h2.719l.07,1.418a3.208,3.208,0,0,1,2.859-1.652,2.666,2.666,0,0,1,1.008.164Zm7.242,3.621a7.477,7.477,0,0,1,.738-3.357A5.392,5.392,0,0,1,47-12.111a5.844,5.844,0,0,1,3.07-.8,5.539,5.539,0,0,1,4.166,1.652,6.5,6.5,0,0,1,1.729,4.383l.012.668a7.543,7.543,0,0,1-.721,3.352A5.327,5.327,0,0,1,53.2-.574a5.887,5.887,0,0,1-3.1.809A5.5,5.5,0,0,1,45.8-1.553a6.845,6.845,0,0,1-1.611-4.764Zm2.848.246a5.109,5.109,0,0,0,.809,3.064A2.629,2.629,0,0,0,50.1-2.039a2.6,2.6,0,0,0,2.244-1.125,5.643,5.643,0,0,0,.8-3.293A5.043,5.043,0,0,0,52.318-9.5a2.638,2.638,0,0,0-2.244-1.125,2.614,2.614,0,0,0-2.215,1.107A5.537,5.537,0,0,0,47.039-6.211ZM61.066-12.68l.082,1.324A4.563,4.563,0,0,1,64.8-12.914a3.505,3.505,0,0,1,3.48,1.945,4.5,4.5,0,0,1,3.891-1.945,3.953,3.953,0,0,1,3.123,1.16,5.108,5.108,0,0,1,1.049,3.422V0H73.5V-8.25a2.522,2.522,0,0,0-.527-1.77,2.308,2.308,0,0,0-1.746-.562,2.371,2.371,0,0,0-1.588.521A2.75,2.75,0,0,0,68.777-8.7L68.789,0H65.941V-8.344a2.031,2.031,0,0,0-2.285-2.238A2.507,2.507,0,0,0,61.23-9.187V0H58.383V-12.68ZM82.3,0H79.453V-12.68H82.3ZM79.277-15.973a1.511,1.511,0,0,1,.416-1.09,1.571,1.571,0,0,1,1.189-.434,1.591,1.591,0,0,1,1.2.434,1.5,1.5,0,0,1,.422,1.09,1.465,1.465,0,0,1-.422,1.072,1.6,1.6,0,0,1-1.2.428,1.584,1.584,0,0,1-1.189-.428A1.476,1.476,0,0,1,79.277-15.973ZM92.508-3.445a1.291,1.291,0,0,0-.627-1.16,6.668,6.668,0,0,0-2.08-.7,10.693,10.693,0,0,1-2.426-.773A3.237,3.237,0,0,1,85.242-9.07a3.375,3.375,0,0,1,1.383-2.742,5.467,5.467,0,0,1,3.516-1.1,5.688,5.688,0,0,1,3.674,1.125,3.57,3.57,0,0,1,1.4,2.918H92.367a1.755,1.755,0,0,0-.609-1.365,2.335,2.335,0,0,0-1.617-.545,2.523,2.523,0,0,0-1.529.434,1.367,1.367,0,0,0-.592,1.16,1.154,1.154,0,0,0,.551,1.02,7.574,7.574,0,0,0,2.227.732,10.54,10.54,0,0,1,2.631.879,3.725,3.725,0,0,1,1.418,1.225A3.123,3.123,0,0,1,95.309-3.6,3.3,3.3,0,0,1,93.891-.826,6.046,6.046,0,0,1,90.176.234,6.556,6.556,0,0,1,87.4-.328a4.571,4.571,0,0,1-1.9-1.547A3.662,3.662,0,0,1,84.82-4h2.766a2.007,2.007,0,0,0,.762,1.553,2.96,2.96,0,0,0,1.863.545,2.88,2.88,0,0,0,1.711-.428A1.324,1.324,0,0,0,92.508-3.445ZM100.816,0H97.969V-12.68h2.848ZM97.793-15.973a1.511,1.511,0,0,1,.416-1.09A1.571,1.571,0,0,1,99.4-17.5a1.591,1.591,0,0,1,1.2.434,1.5,1.5,0,0,1,.422,1.09,1.465,1.465,0,0,1-.422,1.072,1.6,1.6,0,0,1-1.2.428,1.584,1.584,0,0,1-1.189-.428A1.476,1.476,0,0,1,97.793-15.973Zm5.59,9.516a7.477,7.477,0,0,1,.738-3.357,5.392,5.392,0,0,1,2.074-2.3,5.844,5.844,0,0,1,3.07-.8,5.539,5.539,0,0,1,4.166,1.652,6.5,6.5,0,0,1,1.729,4.383l.012.668a7.543,7.543,0,0,1-.721,3.352,5.327,5.327,0,0,1-2.062,2.285,5.887,5.887,0,0,1-3.1.809,5.5,5.5,0,0,1-4.295-1.787,6.845,6.845,0,0,1-1.611-4.764Zm2.848.246a5.109,5.109,0,0,0,.809,3.064,2.629,2.629,0,0,0,2.25,1.107,2.6,2.6,0,0,0,2.244-1.125,5.643,5.643,0,0,0,.8-3.293A5.043,5.043,0,0,0,111.51-9.5a2.638,2.638,0,0,0-2.244-1.125,2.614,2.614,0,0,0-2.215,1.107A5.537,5.537,0,0,0,106.23-6.211ZM110.051-18H113.3l-3.246,3.551h-2.285Zm10.172,5.32.082,1.465a4.559,4.559,0,0,1,3.691-1.7q3.961,0,4.031,4.535V0H125.18V-8.215A2.611,2.611,0,0,0,124.658-10a2.194,2.194,0,0,0-1.705-.58,2.744,2.744,0,0,0-2.566,1.559V0h-2.848V-12.68Zm16.148,6.246a7.538,7.538,0,0,1,1.359-4.705,4.356,4.356,0,0,1,3.645-1.775,4.139,4.139,0,0,1,3.258,1.406V-18h2.848V0H144.9l-.141-1.312a4.2,4.2,0,0,1-3.41,1.547,4.331,4.331,0,0,1-3.6-1.793A7.814,7.814,0,0,1,136.371-6.434Zm2.848.246a5.278,5.278,0,0,0,.744,3.018,2.415,2.415,0,0,0,2.115,1.084,2.689,2.689,0,0,0,2.555-1.559V-9.059a2.648,2.648,0,0,0-2.531-1.523,2.432,2.432,0,0,0-2.133,1.1A5.878,5.878,0,0,0,139.219-6.187ZM156.035.234a5.891,5.891,0,0,1-4.389-1.705,6.185,6.185,0,0,1-1.682-4.541v-.352a7.608,7.608,0,0,1,.732-3.393,5.575,5.575,0,0,1,2.057-2.326,5.437,5.437,0,0,1,2.953-.832,4.977,4.977,0,0,1,4,1.652,6.987,6.987,0,0,1,1.412,4.676v1.148h-8.285a3.808,3.808,0,0,0,1.049,2.484,3.149,3.149,0,0,0,2.314.914,3.856,3.856,0,0,0,3.188-1.582l1.535,1.465a5.127,5.127,0,0,1-2.033,1.764A6.365,6.365,0,0,1,156.035.234Zm-.34-10.863a2.4,2.4,0,0,0-1.893.82,4.252,4.252,0,0,0-.92,2.285h5.426v-.211a3.461,3.461,0,0,0-.762-2.162A2.38,2.38,0,0,0,155.7-10.629ZM176.883,0a4.395,4.395,0,0,1-.328-1.184A4.433,4.433,0,0,1,173.227.234a4.473,4.473,0,0,1-3.117-1.09,3.487,3.487,0,0,1-1.207-2.7,3.6,3.6,0,0,1,1.506-3.111,7.3,7.3,0,0,1,4.307-1.084h1.746v-.832a2.221,2.221,0,0,0-.551-1.576,2.183,2.183,0,0,0-1.676-.592,2.508,2.508,0,0,0-1.594.486,1.505,1.505,0,0,0-.621,1.236h-2.848a3.16,3.16,0,0,1,.691-1.951,4.606,4.606,0,0,1,1.881-1.424,6.607,6.607,0,0,1,2.654-.516,5.32,5.32,0,0,1,3.551,1.119,3.991,3.991,0,0,1,1.359,3.146V-2.93a6.481,6.481,0,0,0,.48,2.73V0Zm-3.129-2.051a3.239,3.239,0,0,0,1.588-.41,2.74,2.74,0,0,0,1.119-1.1V-5.953h-1.535a4.2,4.2,0,0,0-2.379.551,1.784,1.784,0,0,0-.8,1.559,1.664,1.664,0,0,0,.545,1.307A2.11,2.11,0,0,0,173.754-2.051Zm13.746.012a2.575,2.575,0,0,0,1.77-.621,2.122,2.122,0,0,0,.75-1.535H192.7a4.183,4.183,0,0,1-.738,2.209A4.843,4.843,0,0,1,190.09-.363a5.588,5.588,0,0,1-2.555.6,5.406,5.406,0,0,1-4.219-1.723,6.833,6.833,0,0,1-1.559-4.758v-.293a6.719,6.719,0,0,1,1.547-4.635,5.357,5.357,0,0,1,4.219-1.74,5.21,5.21,0,0,1,3.686,1.318A4.722,4.722,0,0,1,192.7-8.133H190.02a2.608,2.608,0,0,0-.744-1.793,2.394,2.394,0,0,0-1.775-.7,2.506,2.506,0,0,0-2.133,1,5.113,5.113,0,0,0-.762,3.041v.457a5.2,5.2,0,0,0,.744,3.076A2.5,2.5,0,0,0,187.5-2.039Zm10.922-13.723v3.082h2.238v2.109h-2.238v7.078a1.559,1.559,0,0,0,.287,1.049,1.331,1.331,0,0,0,1.025.322,4.387,4.387,0,0,0,1-.117v2.2a7.013,7.013,0,0,1-1.875.27q-3.281,0-3.281-3.621V-10.57h-2.086V-12.68h2.086v-3.082ZM205.863,0h-2.848V-12.68h2.848ZM202.84-15.973a1.511,1.511,0,0,1,.416-1.09,1.571,1.571,0,0,1,1.189-.434,1.591,1.591,0,0,1,1.2.434,1.5,1.5,0,0,1,.422,1.09,1.465,1.465,0,0,1-.422,1.072,1.6,1.6,0,0,1-1.2.428,1.584,1.584,0,0,1-1.189-.428A1.476,1.476,0,0,1,202.84-15.973ZM213.434-3.609l2.684-9.07h2.941L214.664,0h-2.473l-4.43-12.68h2.953Zm6.691-2.848a7.477,7.477,0,0,1,.738-3.357,5.392,5.392,0,0,1,2.074-2.3,5.844,5.844,0,0,1,3.07-.8,5.539,5.539,0,0,1,4.166,1.652A6.5,6.5,0,0,1,231.9-6.879l.012.668a7.543,7.543,0,0,1-.721,3.352,5.327,5.327,0,0,1-2.062,2.285,5.887,5.887,0,0,1-3.1.809,5.5,5.5,0,0,1-4.295-1.787,6.845,6.845,0,0,1-1.611-4.764Zm2.848.246a5.109,5.109,0,0,0,.809,3.064,2.629,2.629,0,0,0,2.25,1.107,2.6,2.6,0,0,0,2.244-1.125,5.643,5.643,0,0,0,.8-3.293,5.043,5.043,0,0,0-.826-3.047,2.638,2.638,0,0,0-2.244-1.125,2.614,2.614,0,0,0-2.215,1.107A5.537,5.537,0,0,0,222.973-6.211ZM241.43-3.445a1.291,1.291,0,0,0-.627-1.16,6.668,6.668,0,0,0-2.08-.7,10.693,10.693,0,0,1-2.426-.773,3.237,3.237,0,0,1-2.133-2.988,3.375,3.375,0,0,1,1.383-2.742,5.467,5.467,0,0,1,3.516-1.1,5.688,5.688,0,0,1,3.674,1.125,3.57,3.57,0,0,1,1.4,2.918h-2.848a1.755,1.755,0,0,0-.609-1.365,2.335,2.335,0,0,0-1.617-.545,2.523,2.523,0,0,0-1.529.434,1.367,1.367,0,0,0-.592,1.16,1.154,1.154,0,0,0,.551,1.02,7.574,7.574,0,0,0,2.227.732,10.54,10.54,0,0,1,2.631.879,3.725,3.725,0,0,1,1.418,1.225A3.123,3.123,0,0,1,244.23-3.6a3.3,3.3,0,0,1-1.418,2.771A6.046,6.046,0,0,1,239.1.234a6.556,6.556,0,0,1-2.777-.562,4.571,4.571,0,0,1-1.9-1.547A3.662,3.662,0,0,1,233.742-4h2.766a2.007,2.007,0,0,0,.762,1.553,2.96,2.96,0,0,0,1.863.545,2.88,2.88,0,0,0,1.711-.428A1.324,1.324,0,0,0,241.43-3.445Z" transform="translate(-10165 -7435)" fill="#12263f"/>
      <rect id="Rectángulo_44957" data-name="Rectángulo 44957" width="335" height="86" rx="12" transform="translate(-10198 -7297)" fill="#ef9f14"/>
      <path id="Trazado_195805" data-name="Trazado 195805" d="M4.7-6.34V0H1.734V-17.062H8.262A6.605,6.605,0,0,1,12.8-15.574a5,5,0,0,1,1.682,3.938,4.836,4.836,0,0,1-1.646,3.9A6.925,6.925,0,0,1,8.227-6.34Zm0-2.379H8.262a3.509,3.509,0,0,0,2.414-.744,2.735,2.735,0,0,0,.832-2.15,2.951,2.951,0,0,0-.844-2.209,3.252,3.252,0,0,0-2.32-.85H4.7ZM16.113-6.457a7.477,7.477,0,0,1,.738-3.357,5.392,5.392,0,0,1,2.074-2.3,5.844,5.844,0,0,1,3.07-.8,5.539,5.539,0,0,1,4.166,1.652,6.5,6.5,0,0,1,1.729,4.383l.012.668a7.543,7.543,0,0,1-.721,3.352A5.327,5.327,0,0,1,25.119-.574a5.887,5.887,0,0,1-3.1.809,5.5,5.5,0,0,1-4.295-1.787,6.845,6.845,0,0,1-1.611-4.764Zm2.848.246a5.109,5.109,0,0,0,.809,3.064,2.629,2.629,0,0,0,2.25,1.107,2.6,2.6,0,0,0,2.244-1.125,5.643,5.643,0,0,0,.8-3.293A5.043,5.043,0,0,0,24.24-9.5,2.638,2.638,0,0,0,22-10.629a2.614,2.614,0,0,0-2.215,1.107A5.537,5.537,0,0,0,18.961-6.211Zm17.988-3.867a7.047,7.047,0,0,0-1.16-.094,2.612,2.612,0,0,0-2.637,1.5V0H30.3V-12.68h2.719l.07,1.418a3.208,3.208,0,0,1,2.859-1.652,2.666,2.666,0,0,1,1.008.164Zm7.242,3.621a7.477,7.477,0,0,1,.738-3.357A5.392,5.392,0,0,1,47-12.111a5.844,5.844,0,0,1,3.07-.8,5.539,5.539,0,0,1,4.166,1.652,6.5,6.5,0,0,1,1.729,4.383l.012.668a7.543,7.543,0,0,1-.721,3.352A5.327,5.327,0,0,1,53.2-.574a5.887,5.887,0,0,1-3.1.809A5.5,5.5,0,0,1,45.8-1.553a6.845,6.845,0,0,1-1.611-4.764Zm2.848.246a5.109,5.109,0,0,0,.809,3.064A2.629,2.629,0,0,0,50.1-2.039a2.6,2.6,0,0,0,2.244-1.125,5.643,5.643,0,0,0,.8-3.293A5.043,5.043,0,0,0,52.318-9.5a2.638,2.638,0,0,0-2.244-1.125,2.614,2.614,0,0,0-2.215,1.107A5.537,5.537,0,0,0,47.039-6.211ZM61.066-12.68l.082,1.324A4.563,4.563,0,0,1,64.8-12.914a3.505,3.505,0,0,1,3.48,1.945,4.5,4.5,0,0,1,3.891-1.945,3.953,3.953,0,0,1,3.123,1.16,5.108,5.108,0,0,1,1.049,3.422V0H73.5V-8.25a2.522,2.522,0,0,0-.527-1.77,2.308,2.308,0,0,0-1.746-.562,2.371,2.371,0,0,0-1.588.521A2.75,2.75,0,0,0,68.777-8.7L68.789,0H65.941V-8.344a2.031,2.031,0,0,0-2.285-2.238A2.507,2.507,0,0,0,61.23-9.187V0H58.383V-12.68ZM82.3,0H79.453V-12.68H82.3ZM79.277-15.973a1.511,1.511,0,0,1,.416-1.09,1.571,1.571,0,0,1,1.189-.434,1.591,1.591,0,0,1,1.2.434,1.5,1.5,0,0,1,.422,1.09,1.465,1.465,0,0,1-.422,1.072,1.6,1.6,0,0,1-1.2.428,1.584,1.584,0,0,1-1.189-.428A1.476,1.476,0,0,1,79.277-15.973ZM92.508-3.445a1.291,1.291,0,0,0-.627-1.16,6.668,6.668,0,0,0-2.08-.7,10.693,10.693,0,0,1-2.426-.773A3.237,3.237,0,0,1,85.242-9.07a3.375,3.375,0,0,1,1.383-2.742,5.467,5.467,0,0,1,3.516-1.1,5.688,5.688,0,0,1,3.674,1.125,3.57,3.57,0,0,1,1.4,2.918H92.367a1.755,1.755,0,0,0-.609-1.365,2.335,2.335,0,0,0-1.617-.545,2.523,2.523,0,0,0-1.529.434,1.367,1.367,0,0,0-.592,1.16,1.154,1.154,0,0,0,.551,1.02,7.574,7.574,0,0,0,2.227.732,10.54,10.54,0,0,1,2.631.879,3.725,3.725,0,0,1,1.418,1.225A3.123,3.123,0,0,1,95.309-3.6,3.3,3.3,0,0,1,93.891-.826,6.046,6.046,0,0,1,90.176.234,6.556,6.556,0,0,1,87.4-.328a4.571,4.571,0,0,1-1.9-1.547A3.662,3.662,0,0,1,84.82-4h2.766a2.007,2.007,0,0,0,.762,1.553,2.96,2.96,0,0,0,1.863.545,2.88,2.88,0,0,0,1.711-.428A1.324,1.324,0,0,0,92.508-3.445ZM100.816,0H97.969V-12.68h2.848ZM97.793-15.973a1.511,1.511,0,0,1,.416-1.09A1.571,1.571,0,0,1,99.4-17.5a1.591,1.591,0,0,1,1.2.434,1.5,1.5,0,0,1,.422,1.09,1.465,1.465,0,0,1-.422,1.072,1.6,1.6,0,0,1-1.2.428,1.584,1.584,0,0,1-1.189-.428A1.476,1.476,0,0,1,97.793-15.973Zm5.59,9.516a7.477,7.477,0,0,1,.738-3.357,5.392,5.392,0,0,1,2.074-2.3,5.844,5.844,0,0,1,3.07-.8,5.539,5.539,0,0,1,4.166,1.652,6.5,6.5,0,0,1,1.729,4.383l.012.668a7.543,7.543,0,0,1-.721,3.352,5.327,5.327,0,0,1-2.062,2.285,5.887,5.887,0,0,1-3.1.809,5.5,5.5,0,0,1-4.295-1.787,6.845,6.845,0,0,1-1.611-4.764Zm2.848.246a5.109,5.109,0,0,0,.809,3.064,2.629,2.629,0,0,0,2.25,1.107,2.6,2.6,0,0,0,2.244-1.125,5.643,5.643,0,0,0,.8-3.293A5.043,5.043,0,0,0,111.51-9.5a2.638,2.638,0,0,0-2.244-1.125,2.614,2.614,0,0,0-2.215,1.107A5.537,5.537,0,0,0,106.23-6.211ZM110.051-18H113.3l-3.246,3.551h-2.285Zm10.172,5.32.082,1.465a4.559,4.559,0,0,1,3.691-1.7q3.961,0,4.031,4.535V0H125.18V-8.215A2.611,2.611,0,0,0,124.658-10a2.194,2.194,0,0,0-1.705-.58,2.744,2.744,0,0,0-2.566,1.559V0h-2.848V-12.68Zm16.148,6.246a7.538,7.538,0,0,1,1.359-4.705,4.356,4.356,0,0,1,3.645-1.775,4.139,4.139,0,0,1,3.258,1.406V-18h2.848V0H144.9l-.141-1.312a4.2,4.2,0,0,1-3.41,1.547,4.331,4.331,0,0,1-3.6-1.793A7.814,7.814,0,0,1,136.371-6.434Zm2.848.246a5.278,5.278,0,0,0,.744,3.018,2.415,2.415,0,0,0,2.115,1.084,2.689,2.689,0,0,0,2.555-1.559V-9.059a2.648,2.648,0,0,0-2.531-1.523,2.432,2.432,0,0,0-2.133,1.1A5.878,5.878,0,0,0,139.219-6.187ZM156.035.234a5.891,5.891,0,0,1-4.389-1.705,6.185,6.185,0,0,1-1.682-4.541v-.352a7.608,7.608,0,0,1,.732-3.393,5.575,5.575,0,0,1,2.057-2.326,5.437,5.437,0,0,1,2.953-.832,4.977,4.977,0,0,1,4,1.652,6.987,6.987,0,0,1,1.412,4.676v1.148h-8.285a3.808,3.808,0,0,0,1.049,2.484,3.149,3.149,0,0,0,2.314.914,3.856,3.856,0,0,0,3.188-1.582l1.535,1.465a5.127,5.127,0,0,1-2.033,1.764A6.365,6.365,0,0,1,156.035.234Zm-.34-10.863a2.4,2.4,0,0,0-1.893.82,4.252,4.252,0,0,0-.92,2.285h5.426v-.211a3.461,3.461,0,0,0-.762-2.162A2.38,2.38,0,0,0,155.7-10.629ZM180.41-6.211a7.549,7.549,0,0,1-1.336,4.693A4.278,4.278,0,0,1,175.488.234a4.307,4.307,0,0,1-3.34-1.371V4.875H169.3V-12.68h2.625l.117,1.289a4.183,4.183,0,0,1,3.41-1.523,4.322,4.322,0,0,1,3.639,1.729,7.751,7.751,0,0,1,1.318,4.8Zm-2.836-.246a5.288,5.288,0,0,0-.756-3.012,2.457,2.457,0,0,0-2.162-1.113,2.62,2.62,0,0,0-2.508,1.441v5.625a2.645,2.645,0,0,0,2.531,1.477,2.454,2.454,0,0,0,2.127-1.1A5.821,5.821,0,0,0,177.574-6.457ZM190.395,0a4.395,4.395,0,0,1-.328-1.184A4.433,4.433,0,0,1,186.738.234a4.473,4.473,0,0,1-3.117-1.09,3.487,3.487,0,0,1-1.207-2.7,3.6,3.6,0,0,1,1.506-3.111,7.3,7.3,0,0,1,4.307-1.084h1.746v-.832a2.221,2.221,0,0,0-.551-1.576,2.183,2.183,0,0,0-1.676-.592,2.508,2.508,0,0,0-1.594.486,1.505,1.505,0,0,0-.621,1.236h-2.848a3.16,3.16,0,0,1,.691-1.951,4.606,4.606,0,0,1,1.881-1.424,6.607,6.607,0,0,1,2.654-.516,5.32,5.32,0,0,1,3.551,1.119,3.991,3.991,0,0,1,1.359,3.146V-2.93A6.481,6.481,0,0,0,193.3-.2V0Zm-3.129-2.051a3.239,3.239,0,0,0,1.588-.41,2.74,2.74,0,0,0,1.119-1.1V-5.953h-1.535a4.2,4.2,0,0,0-2.379.551,1.784,1.784,0,0,0-.8,1.559,1.664,1.664,0,0,0,.545,1.307A2.11,2.11,0,0,0,187.266-2.051ZM202.91-3.445a1.291,1.291,0,0,0-.627-1.16,6.668,6.668,0,0,0-2.08-.7,10.693,10.693,0,0,1-2.426-.773,3.237,3.237,0,0,1-2.133-2.988,3.375,3.375,0,0,1,1.383-2.742,5.467,5.467,0,0,1,3.516-1.1,5.688,5.688,0,0,1,3.674,1.125,3.57,3.57,0,0,1,1.4,2.918H202.77a1.755,1.755,0,0,0-.609-1.365,2.335,2.335,0,0,0-1.617-.545,2.523,2.523,0,0,0-1.529.434,1.367,1.367,0,0,0-.592,1.16,1.154,1.154,0,0,0,.551,1.02,7.574,7.574,0,0,0,2.227.732,10.54,10.54,0,0,1,2.631.879,3.725,3.725,0,0,1,1.418,1.225,3.123,3.123,0,0,1,.463,1.734,3.3,3.3,0,0,1-1.418,2.771A6.046,6.046,0,0,1,200.578.234,6.556,6.556,0,0,1,197.8-.328a4.571,4.571,0,0,1-1.9-1.547A3.662,3.662,0,0,1,195.223-4h2.766a2.007,2.007,0,0,0,.762,1.553,2.96,2.96,0,0,0,1.863.545,2.88,2.88,0,0,0,1.711-.428A1.324,1.324,0,0,0,202.91-3.445ZM211.219,0h-2.848V-12.68h2.848ZM208.2-15.973a1.511,1.511,0,0,1,.416-1.09A1.571,1.571,0,0,1,209.8-17.5a1.591,1.591,0,0,1,1.2.434,1.5,1.5,0,0,1,.422,1.09A1.465,1.465,0,0,1,211-14.9a1.6,1.6,0,0,1-1.2.428,1.584,1.584,0,0,1-1.189-.428A1.476,1.476,0,0,1,208.2-15.973ZM218.789-3.609l2.684-9.07h2.941L220.02,0h-2.473l-4.43-12.68h2.953Zm6.691-2.848a7.477,7.477,0,0,1,.738-3.357,5.392,5.392,0,0,1,2.074-2.3,5.844,5.844,0,0,1,3.07-.8,5.539,5.539,0,0,1,4.166,1.652,6.5,6.5,0,0,1,1.729,4.383l.012.668a7.543,7.543,0,0,1-.721,3.352,5.327,5.327,0,0,1-2.062,2.285,5.887,5.887,0,0,1-3.1.809,5.5,5.5,0,0,1-4.295-1.787,6.845,6.845,0,0,1-1.611-4.764Zm2.848.246a5.109,5.109,0,0,0,.809,3.064,2.629,2.629,0,0,0,2.25,1.107,2.6,2.6,0,0,0,2.244-1.125,5.643,5.643,0,0,0,.8-3.293,5.043,5.043,0,0,0-.826-3.047,2.638,2.638,0,0,0-2.244-1.125,2.614,2.614,0,0,0-2.215,1.107A5.537,5.537,0,0,0,228.328-6.211Zm18.457,2.766a1.291,1.291,0,0,0-.627-1.16,6.668,6.668,0,0,0-2.08-.7,10.693,10.693,0,0,1-2.426-.773A3.237,3.237,0,0,1,239.52-9.07a3.375,3.375,0,0,1,1.383-2.742,5.467,5.467,0,0,1,3.516-1.1,5.688,5.688,0,0,1,3.674,1.125,3.57,3.57,0,0,1,1.4,2.918h-2.848a1.755,1.755,0,0,0-.609-1.365,2.335,2.335,0,0,0-1.617-.545,2.523,2.523,0,0,0-1.529.434,1.367,1.367,0,0,0-.592,1.16,1.154,1.154,0,0,0,.551,1.02,7.574,7.574,0,0,0,2.227.732,10.54,10.54,0,0,1,2.631.879,3.725,3.725,0,0,1,1.418,1.225,3.123,3.123,0,0,1,.463,1.734,3.3,3.3,0,0,1-1.418,2.771A6.046,6.046,0,0,1,244.453.234a6.556,6.556,0,0,1-2.777-.562,4.571,4.571,0,0,1-1.9-1.547A3.662,3.662,0,0,1,239.1-4h2.766a2.007,2.007,0,0,0,.762,1.553,2.96,2.96,0,0,0,1.863.545,2.88,2.88,0,0,0,1.711-.428A1.324,1.324,0,0,0,246.785-3.445ZM4.488,30H1.641V17.32H4.488ZM1.465,14.027a1.511,1.511,0,0,1,.416-1.09A1.571,1.571,0,0,1,3.07,12.5a1.591,1.591,0,0,1,1.2.434,1.5,1.5,0,0,1,.422,1.09A1.465,1.465,0,0,1,4.266,15.1a1.6,1.6,0,0,1-1.2.428A1.584,1.584,0,0,1,1.881,15.1,1.476,1.476,0,0,1,1.465,14.027ZM10.23,17.32l.082,1.465A4.559,4.559,0,0,1,14,17.086q3.961,0,4.031,4.535V30H15.188V21.785A2.611,2.611,0,0,0,14.666,20a2.194,2.194,0,0,0-1.705-.58,2.744,2.744,0,0,0-2.566,1.559V30H7.547V17.32ZM26.52,30.234a5.891,5.891,0,0,1-4.389-1.705,6.185,6.185,0,0,1-1.682-4.541v-.352a7.608,7.608,0,0,1,.732-3.393,5.575,5.575,0,0,1,2.057-2.326,5.437,5.437,0,0,1,2.953-.832,4.977,4.977,0,0,1,4,1.652,6.987,6.987,0,0,1,1.412,4.676v1.148H23.32a3.808,3.808,0,0,0,1.049,2.484,3.149,3.149,0,0,0,2.314.914,3.856,3.856,0,0,0,3.188-1.582l1.535,1.465a5.127,5.127,0,0,1-2.033,1.764A6.365,6.365,0,0,1,26.52,30.234Zm-.34-10.863a2.4,2.4,0,0,0-1.893.82,4.252,4.252,0,0,0-.92,2.285h5.426v-.211a3.461,3.461,0,0,0-.762-2.162A2.38,2.38,0,0,0,26.18,19.371Zm12.188,2.121,2.414-4.172h3.164l-3.879,6.246L44.074,30H40.934L38.4,25.664,35.883,30H32.719l4.008-6.434L32.859,17.32H36ZM48.914,30H46.066V17.32h2.848ZM45.891,14.027a1.511,1.511,0,0,1,.416-1.09A1.571,1.571,0,0,1,47.5,12.5a1.591,1.591,0,0,1,1.2.434,1.5,1.5,0,0,1,.422,1.09,1.465,1.465,0,0,1-.422,1.072,1.6,1.6,0,0,1-1.2.428,1.584,1.584,0,0,1-1.189-.428A1.476,1.476,0,0,1,45.891,14.027Zm13.23,12.527a1.291,1.291,0,0,0-.627-1.16,6.668,6.668,0,0,0-2.08-.7,10.693,10.693,0,0,1-2.426-.773,3.237,3.237,0,0,1-2.133-2.988,3.375,3.375,0,0,1,1.383-2.742,5.467,5.467,0,0,1,3.516-1.1,5.688,5.688,0,0,1,3.674,1.125,3.57,3.57,0,0,1,1.4,2.918H58.98a1.755,1.755,0,0,0-.609-1.365,2.335,2.335,0,0,0-1.617-.545,2.523,2.523,0,0,0-1.529.434,1.367,1.367,0,0,0-.592,1.16,1.154,1.154,0,0,0,.551,1.02,7.574,7.574,0,0,0,2.227.732,10.54,10.54,0,0,1,2.631.879,3.725,3.725,0,0,1,1.418,1.225,3.123,3.123,0,0,1,.463,1.734A3.3,3.3,0,0,1,60.5,29.174a6.046,6.046,0,0,1-3.715,1.061,6.556,6.556,0,0,1-2.777-.562,4.571,4.571,0,0,1-1.9-1.547A3.662,3.662,0,0,1,51.434,26H54.2a2.007,2.007,0,0,0,.762,1.553,2.96,2.96,0,0,0,1.863.545,2.88,2.88,0,0,0,1.711-.428A1.324,1.324,0,0,0,59.121,26.555Zm8.848-12.316V17.32h2.238V19.43H67.969v7.078a1.559,1.559,0,0,0,.287,1.049,1.331,1.331,0,0,0,1.025.322,4.387,4.387,0,0,0,1-.117v2.2a7.013,7.013,0,0,1-1.875.27q-3.281,0-3.281-3.621V19.43H63.035V17.32h2.086V14.238Zm10,16a5.891,5.891,0,0,1-4.389-1.705,6.185,6.185,0,0,1-1.682-4.541v-.352a7.608,7.608,0,0,1,.732-3.393,5.575,5.575,0,0,1,2.057-2.326,5.437,5.437,0,0,1,2.953-.832,4.977,4.977,0,0,1,4,1.652,6.987,6.987,0,0,1,1.412,4.676v1.148H74.766a3.808,3.808,0,0,0,1.049,2.484,3.149,3.149,0,0,0,2.314.914,3.856,3.856,0,0,0,3.188-1.582l1.535,1.465a5.127,5.127,0,0,1-2.033,1.764A6.365,6.365,0,0,1,77.965,30.234Zm-.34-10.863a2.4,2.4,0,0,0-1.893.82,4.252,4.252,0,0,0-.92,2.285h5.426v-.211a3.461,3.461,0,0,0-.762-2.162A2.38,2.38,0,0,0,77.625,19.371ZM87.9,17.32l.082,1.465a4.559,4.559,0,0,1,3.691-1.7q3.961,0,4.031,4.535V30H92.859V21.785A2.611,2.611,0,0,0,92.338,20a2.194,2.194,0,0,0-1.705-.58,2.744,2.744,0,0,0-2.566,1.559V30H85.219V17.32Zm14.273-3.082V17.32h2.238V19.43h-2.238v7.078a1.559,1.559,0,0,0,.287,1.049,1.331,1.331,0,0,0,1.025.322,4.387,4.387,0,0,0,1-.117v2.2a7.013,7.013,0,0,1-1.875.27q-3.281,0-3.281-3.621V19.43H97.242V17.32h2.086V14.238Zm10,16a5.891,5.891,0,0,1-4.389-1.705,6.185,6.185,0,0,1-1.682-4.541v-.352a7.608,7.608,0,0,1,.732-3.393,5.575,5.575,0,0,1,2.057-2.326,5.437,5.437,0,0,1,2.953-.832,4.977,4.977,0,0,1,4,1.652,6.987,6.987,0,0,1,1.412,4.676v1.148h-8.285a3.808,3.808,0,0,0,1.049,2.484,3.149,3.149,0,0,0,2.314.914,3.856,3.856,0,0,0,3.188-1.582l1.535,1.465a5.127,5.127,0,0,1-2.033,1.764A6.365,6.365,0,0,1,112.172,30.234Zm-.34-10.863a2.4,2.4,0,0,0-1.893.82,4.252,4.252,0,0,0-.92,2.285h5.426v-.211a3.461,3.461,0,0,0-.762-2.162A2.38,2.38,0,0,0,111.832,19.371Zm14.742,7.184a1.291,1.291,0,0,0-.627-1.16,6.668,6.668,0,0,0-2.08-.7,10.693,10.693,0,0,1-2.426-.773,3.237,3.237,0,0,1-2.133-2.988,3.375,3.375,0,0,1,1.383-2.742,5.467,5.467,0,0,1,3.516-1.1,5.688,5.688,0,0,1,3.674,1.125,3.57,3.57,0,0,1,1.4,2.918h-2.848a1.755,1.755,0,0,0-.609-1.365,2.335,2.335,0,0,0-1.617-.545,2.523,2.523,0,0,0-1.529.434,1.367,1.367,0,0,0-.592,1.16,1.154,1.154,0,0,0,.551,1.02,7.574,7.574,0,0,0,2.227.732,10.54,10.54,0,0,1,2.631.879,3.725,3.725,0,0,1,1.418,1.225,3.123,3.123,0,0,1,.463,1.734,3.3,3.3,0,0,1-1.418,2.771,6.046,6.046,0,0,1-3.715,1.061,6.556,6.556,0,0,1-2.777-.562,4.571,4.571,0,0,1-1.9-1.547,3.662,3.662,0,0,1-.68-2.121h2.766a2.007,2.007,0,0,0,.762,1.553,2.96,2.96,0,0,0,1.863.545,2.88,2.88,0,0,0,1.711-.428A1.324,1.324,0,0,0,126.574,26.555Z" transform="translate(-10165 -7261)" fill="#12263f"/>
      <path id="Trazado_195727" data-name="Trazado 195727" d="M-9160.254-7641.37v185.859L-8963-7575.941" transform="translate(-1258.746 -43)" fill="none" stroke="#ef9f14" stroke-width="2"/>
      <path id="Trazado_195728" data-name="Trazado 195728" d="M-9171.414-7455.51V-7641.37L-8963-7525.578" transform="translate(-1247.586 245)" fill="none" stroke="#ef9f14" stroke-width="2"/>
      <path id="Trazado_195729" data-name="Trazado 195729" d="M-9049-7401.5h-120.613" transform="translate(-1456 -43)" fill="none" stroke="#ef9f14" stroke-width="2"/>
      <path id="Trazado_195730" data-name="Trazado 195730" d="M-9049-7401.5h-120.613" transform="translate(-1167.387 -43)" fill="none" stroke="#ef9f14" stroke-width="2"/>
      <path id="Polígono_19" data-name="Polígono 19" d="M8,0l8,14H0Z" transform="translate(-10427 -7691)" fill="#ef9f14"/>
      <path id="Polígono_20" data-name="Polígono 20" d="M8,0l8,14H0Z" transform="translate(-10411 -7208) rotate(180)" fill="#ef9f14"/>
      <path id="Polígono_21" data-name="Polígono 21" d="M8,0l8,14H0Z" transform="translate(-10635 -7436) rotate(-90)" fill="#ef9f14"/>
      <path id="Polígono_22" data-name="Polígono 22" d="M8,0l8,14H0Z" transform="translate(-10210 -7452) rotate(90)" fill="#ef9f14"/>
      <path id="Polígono_23" data-name="Polígono 23" d="M8,0l8,14H0Z" transform="matrix(0.616, 0.788, -0.788, 0.616, -10216.409, -7633.614)" fill="#ef9f14"/>
      <path id="Polígono_24" data-name="Polígono 24" d="M8,0l8,14H0Z" transform="matrix(0.616, -0.788, 0.788, 0.616, -10631.441, -7621.005)" fill="#ef9f14"/>
      <path id="Polígono_25" data-name="Polígono 25" d="M8,0l8,14H0Z" transform="translate(-10628.492 -7271.958) rotate(-114)" fill="#ef9f14"/>
      <path id="Polígono_26" data-name="Polígono 26" d="M8,0l8,14H0Z" transform="matrix(-0.407, 0.914, -0.914, -0.407, -10204.702, -7286.575)" fill="#ef9f14"/>
    </g>
  </g>
</svg>
