<svg xmlns="http://www.w3.org/2000/svg" width="71" height="71" viewBox="0 0 71 71">
  <g id="Grupo_146184" data-name="Grupo 146184" transform="translate(-562 -6269)">
    <g id="impuesto_2_" data-name="impuesto (2)" transform="translate(556.017 6276)">
      <g id="Grupo_146182" data-name="Grupo 146182" transform="translate(15.807 0.866)">
        <g id="Grupo_146177" data-name="Grupo 146177" transform="translate(14.285)">
          <path id="Trazado_194787" data-name="Trazado 194787" d="M18.569,0A18.617,18.617,0,1,1,0,18.617,18.593,18.593,0,0,1,18.569,0Z" fill="#79dae1"/>
          <path id="Trazado_194758" data-name="Trazado 194758" d="M303.6,7.882a18.7,18.7,0,0,0-2.2.13,18.623,18.623,0,0,1,0,36.973,18.614,18.614,0,1,0,2.2-37.1Z" transform="translate(-285.029 -7.882)" fill="#d9fcff"/>
        </g>
        <g id="Grupo_146181" data-name="Grupo 146181" transform="translate(0 27.481)">
          <path id="Trazado_194759" data-name="Trazado 194759" d="M35.57,453.455c0,1.29-2.93,2.336-6.544,2.336s-6.544-1.046-6.544-2.336v-3.726H35.57S35.57,452.164,35.57,453.455Z" transform="translate(-22.482 -428.646)" fill="#ffe563"/>
          <path id="Trazado_194760" data-name="Trazado 194760" d="M66.369,449.729v3.726c0,1.015-1.813,1.878-4.346,2.2a17.488,17.488,0,0,0,2.2.135c3.614,0,6.544-1.046,6.544-2.336v-3.726h-4.4Z" transform="translate(-57.677 -428.646)" fill="#ffdc2e"/>
          <path id="Trazado_194761" data-name="Trazado 194761" d="M35.57,419.558c0,1.29-2.93,2.336-6.544,2.336s-6.544-1.046-6.544-2.336v-3.726H35.57S35.57,418.267,35.57,419.558Z" transform="translate(-22.482 -398.475)" fill="#ffb700"/>
          <path id="Trazado_194762" data-name="Trazado 194762" d="M66.369,415.831v3.726c0,1.015-1.813,1.878-4.346,2.2a17.482,17.482,0,0,0,2.2.136c3.614,0,6.544-1.046,6.544-2.336v-3.726h-4.4Z" transform="translate(-57.677 -398.474)" fill="#f5b000"/>
          <path id="Trazado_194763" data-name="Trazado 194763" d="M35.57,385.66c0,1.29-2.93,2.336-6.544,2.336s-6.544-1.046-6.544-2.336v-3.726H35.57S35.57,384.369,35.57,385.66Z" transform="translate(-22.482 -368.302)" fill="#ffe563"/>
          <path id="Trazado_194764" data-name="Trazado 194764" d="M66.369,381.934v3.726c0,1.015-1.813,1.878-4.346,2.2a17.488,17.488,0,0,0,2.2.135c3.614,0,6.544-1.046,6.544-2.336v-3.726h-4.4Z" transform="translate(-57.677 -368.302)" fill="#ffdc2e"/>
          <g id="Grupo_146178" data-name="Grupo 146178" transform="translate(0 7.57)">
            <path id="Trazado_194765" data-name="Trazado 194765" d="M35.57,351.763c0,1.29-2.93,2.336-6.544,2.336s-6.544-1.046-6.544-2.336v-3.726H35.57S35.57,350.472,35.57,351.763Z" transform="translate(-22.482 -345.701)" fill="#ffb700"/>
            <path id="Trazado_194766" data-name="Trazado 194766" d="M66.369,348.037v3.726c0,1.015-1.813,1.878-4.346,2.2a17.488,17.488,0,0,0,2.2.135c3.614,0,6.544-1.046,6.544-2.336v-3.726Z" transform="translate(-57.677 -345.701)" fill="#f5b000"/>
            <ellipse id="Elipse_1303" data-name="Elipse 1303" cx="6.544" cy="2.336" rx="6.544" ry="2.336" transform="translate(0)" fill="#ffe563"/>
          </g>
          <path id="Trazado_194767" data-name="Trazado 194767" d="M154.652,453.455c0,1.29-2.93,2.336-6.544,2.336s-6.544-1.046-6.544-2.336v-3.726h13.088S154.652,452.164,154.652,453.455Z" transform="translate(-128.476 -428.646)" fill="#ffb700"/>
          <path id="Trazado_194768" data-name="Trazado 194768" d="M185.451,449.729v3.726c0,1.015-1.813,1.878-4.346,2.2a17.488,17.488,0,0,0,2.2.135c3.614,0,6.544-1.046,6.544-2.336v-3.726h-4.4Z" transform="translate(-163.671 -428.646)" fill="#f5b000"/>
          <path id="Trazado_194769" data-name="Trazado 194769" d="M154.652,419.558c0,1.29-2.93,2.336-6.544,2.336s-6.544-1.046-6.544-2.336v-3.726h13.088S154.652,418.267,154.652,419.558Z" transform="translate(-128.476 -398.475)" fill="#ffe563"/>
          <path id="Trazado_194770" data-name="Trazado 194770" d="M185.451,415.831v3.726c0,1.015-1.813,1.878-4.346,2.2a17.482,17.482,0,0,0,2.2.136c3.614,0,6.544-1.046,6.544-2.336v-3.726h-4.4Z" transform="translate(-163.671 -398.474)" fill="#ffdc2e"/>
          <path id="Trazado_194771" data-name="Trazado 194771" d="M154.652,385.66c0,1.29-2.93,2.336-6.544,2.336s-6.544-1.046-6.544-2.336v-3.726h13.088S154.652,384.369,154.652,385.66Z" transform="translate(-128.476 -368.302)" fill="#ffb700"/>
          <path id="Trazado_194772" data-name="Trazado 194772" d="M185.451,381.934v3.726c0,1.015-1.813,1.878-4.346,2.2a17.488,17.488,0,0,0,2.2.135c3.614,0,6.544-1.046,6.544-2.336v-3.726h-4.4Z" transform="translate(-163.671 -368.302)" fill="#f5b000"/>
          <path id="Trazado_194773" data-name="Trazado 194773" d="M154.652,351.763c0,1.29-2.93,2.336-6.544,2.336s-6.544-1.046-6.544-2.336v-3.726h13.088S154.652,350.472,154.652,351.763Z" transform="translate(-128.476 -338.131)" fill="#ffe563"/>
          <path id="Trazado_194774" data-name="Trazado 194774" d="M185.451,348.037v3.726c0,1.015-1.813,1.878-4.346,2.2a17.488,17.488,0,0,0,2.2.135c3.614,0,6.544-1.046,6.544-2.336v-3.726Z" transform="translate(-163.671 -338.131)" fill="#ffdc2e"/>
          <path id="Trazado_194775" data-name="Trazado 194775" d="M154.652,317.327c0,1.29-2.93,2.336-6.544,2.336s-6.544-1.046-6.544-2.336V313.6h13.088S154.652,316.036,154.652,317.327Z" transform="translate(-128.476 -307.48)" fill="#ffb700"/>
          <path id="Trazado_194776" data-name="Trazado 194776" d="M185.451,313.6v3.726c0,1.015-1.813,1.878-4.346,2.2a17.482,17.482,0,0,0,2.2.136c3.614,0,6.544-1.046,6.544-2.336V313.6h-4.4Z" transform="translate(-163.671 -307.48)" fill="#f5b000"/>
          <g id="Grupo_146179" data-name="Grupo 146179" transform="translate(13.088)">
            <path id="Trazado_194777" data-name="Trazado 194777" d="M154.652,282.892c0,1.29-2.93,2.336-6.544,2.336s-6.544-1.046-6.544-2.336v-3.726h13.088S154.652,281.6,154.652,282.892Z" transform="translate(-141.564 -276.83)" fill="#ffe563"/>
            <path id="Trazado_194778" data-name="Trazado 194778" d="M185.451,279.165v3.726c0,1.015-1.813,1.878-4.346,2.2a17.482,17.482,0,0,0,2.2.136c3.614,0,6.544-1.046,6.544-2.336v-3.726h-4.4Z" transform="translate(-176.759 -276.829)" fill="#ffdc2e"/>
            <ellipse id="Elipse_1304" data-name="Elipse 1304" cx="6.544" cy="2.336" rx="6.544" ry="2.336" fill="#ffb700"/>
          </g>
          <path id="Trazado_194779" data-name="Trazado 194779" d="M273.735,449.729v3.726c0,1.29-2.93,2.336-6.544,2.336s-6.544-1.046-6.544-2.336v-3.726Z" transform="translate(-234.47 -428.646)" fill="#ffe563"/>
          <path id="Trazado_194780" data-name="Trazado 194780" d="M304.534,449.729v3.726c0,1.015-1.813,1.878-4.346,2.2a17.489,17.489,0,0,0,2.2.135c3.614,0,6.544-1.046,6.544-2.336v-3.726h-4.4Z" transform="translate(-269.665 -428.646)" fill="#ffdc2e"/>
          <g id="Grupo_146180" data-name="Grupo 146180" transform="translate(26.177 15.021)">
            <path id="Trazado_194781" data-name="Trazado 194781" d="M273.735,419.558c0,1.29-2.93,2.336-6.544,2.336s-6.544-1.046-6.544-2.336v-3.726h13.088S273.735,418.267,273.735,419.558Z" transform="translate(-260.647 -413.496)" fill="#ffb700"/>
            <path id="Trazado_194782" data-name="Trazado 194782" d="M304.534,415.831v3.726c0,1.015-1.813,1.878-4.346,2.2a17.483,17.483,0,0,0,2.2.136c3.614,0,6.544-1.046,6.544-2.336v-3.726h-4.4Z" transform="translate(-295.842 -413.495)" fill="#f5b000"/>
            <ellipse id="Elipse_1305" data-name="Elipse 1305" cx="6.544" cy="2.336" rx="6.544" ry="2.336" transform="translate(0)" fill="#ffe563"/>
          </g>
        </g>
      </g>
      <g id="Grupo_146183" data-name="Grupo 146183" transform="translate(14.983 0)">
        <path id="Trazado_194783" data-name="Trazado 194783" d="M269.774,119.48a.849.849,0,0,0,1.145-.219l9.9-14.592a.824.824,0,1,0-1.364-.926l-9.9,14.592A.824.824,0,0,0,269.774,119.48Z" transform="translate(-241.448 -92.019)" fill="#104469"/>
        <path id="Trazado_194784" data-name="Trazado 194784" d="M345.583,189.355c1.715,0,3.111-1.715,3.111-3.824-.176-5.075-6.047-5.074-6.222,0C342.472,187.639,343.868,189.355,345.583,189.355Zm0-6c.793,0,1.462,1,1.462,2.175s-.67,2.175-1.462,2.175-1.463-1-1.463-2.175S344.79,183.355,345.583,183.355Z" transform="translate(-306.478 -161.751)" fill="#104469"/>
        <path id="Trazado_194785" data-name="Trazado 194785" d="M250.078,107.207c0-2.109-1.4-3.824-3.111-3.824-4.126.2-4.124,7.445,0,7.648C248.682,111.031,250.078,109.316,250.078,107.207Zm-4.574,0c0-1.179.67-2.175,1.463-2.175s1.462,1,1.462,2.175-.67,2.175-1.462,2.175S245.5,108.386,245.5,107.207Z" transform="translate(-218.715 -92.02)" fill="#104469"/>
        <path id="Trazado_194786" data-name="Trazado 194786" d="M42.808,38.022C63.04,44.053,77.047,18.723,61.293,4.73A.824.824,0,1,0,60.217,5.98c14.624,13.028,1.209,36.437-17.408,30.305v-5.6c0-.707-.428-1.7-2.464-2.428a15.946,15.946,0,0,0-7.429-.56C25.142,12.521,41.051-3.914,56.426,3.48A.824.824,0,0,0,57.15,2C40.565-6,23.239,11.48,31.242,28.034c-.246.068-.483.141-.707.221-2.036.727-2.464,1.722-2.464,2.428V36.17a13.338,13.338,0,0,0-5.71-1.078.824.824,0,0,0,0,1.649,13.444,13.444,0,0,1,4.344.637c1.129.4,1.367.811,1.367.875s-.238.472-1.37.876a13.821,13.821,0,0,1-8.7,0c-1.132-.4-1.37-.812-1.37-.876s.289-.544,1.664-.973a.824.824,0,0,0-.491-1.574c-2.333.727-2.822,1.786-2.822,2.547v14.9c0,.707.428,1.7,2.464,2.428a15.474,15.474,0,0,0,9.809,0,5.378,5.378,0,0,0,1.64-.873,5.378,5.378,0,0,0,1.64.873,15.474,15.474,0,0,0,9.809,0,5.378,5.378,0,0,0,1.64-.873,5.378,5.378,0,0,0,1.64.873,15.474,15.474,0,0,0,9.809,0c2.036-.727,2.464-1.722,2.464-2.428V45.7c0-.707-.428-1.7-2.464-2.428a15.474,15.474,0,0,0-9.809,0,7.151,7.151,0,0,0-.815.346c0-1.075,0-4.264,0-5.385,0-.03,0-.182,0-.214ZM54.248,49.43c0,.064-.238.472-1.37.876a13.821,13.821,0,0,1-8.7,0c-1.132-.4-1.37-.812-1.37-.876V47.787a7.17,7.17,0,0,0,.815.346,15.474,15.474,0,0,0,9.809,0,7.151,7.151,0,0,0,.815-.346ZM41.16,34.409c0,.064-.238.472-1.37.876a13.821,13.821,0,0,1-8.7,0c-1.132-.4-1.37-.812-1.37-.876V32.766a7.172,7.172,0,0,0,.815.346,15.474,15.474,0,0,0,9.809,0,7.151,7.151,0,0,0,.815-.346ZM30.535,36.837a15.03,15.03,0,0,0,10.624-.345v1.7c0,.064-.238.472-1.37.876a13.822,13.822,0,0,1-8.7,0c-1.132-.4-1.37-.812-1.37-.876v-1.7A7.164,7.164,0,0,0,30.535,36.837ZM28.071,45.7c0,.064-.238.472-1.37.876a13.821,13.821,0,0,1-8.7,0c-1.132-.4-1.37-.812-1.37-.876V44.061a7.172,7.172,0,0,0,.815.346,15.474,15.474,0,0,0,9.809,0,7.151,7.151,0,0,0,.815-.346Zm-11.44,2.083a7.172,7.172,0,0,0,.815.346,15.474,15.474,0,0,0,9.809,0,7.15,7.15,0,0,0,.815-.346V49.43c0,.064-.238.472-1.37.876a13.821,13.821,0,0,1-8.7,0c-1.132-.4-1.37-.812-1.37-.876Zm13.088,0a7.172,7.172,0,0,0,.815.346,15.474,15.474,0,0,0,9.809,0,7.15,7.15,0,0,0,.815-.346V49.43c0,.064-.238.472-1.37.876a13.821,13.821,0,0,1-8.7,0c-1.132-.4-1.37-.812-1.37-.876ZM39.79,46.58a13.822,13.822,0,0,1-8.7,0c-1.132-.4-1.37-.812-1.37-.876V44.061a7.172,7.172,0,0,0,.815.346,15.474,15.474,0,0,0,9.809,0,7.151,7.151,0,0,0,.815-.346V45.7C41.16,45.768,40.922,46.176,39.79,46.58Zm1.37-4.6c0,.064-.238.472-1.37.876a13.822,13.822,0,0,1-8.7,0c-1.132-.4-1.37-.812-1.37-.876v-1.7a7.172,7.172,0,0,0,.815.346,15.474,15.474,0,0,0,9.809,0,7.151,7.151,0,0,0,.815-.346ZM31.089,29.807a13.826,13.826,0,0,1,8.7,0c1.132.4,1.37.812,1.37.876s-.238.472-1.37.876a13.822,13.822,0,0,1-8.7,0c-1.132-.4-1.37-.812-1.37-.876S29.958,30.211,31.089,29.807ZM17.447,40.681a15.031,15.031,0,0,0,10.624-.345v1.643c0,.064-.238.472-1.37.876a13.821,13.821,0,0,1-8.7,0c-1.132-.4-1.37-.812-1.37-.876V40.336A7.155,7.155,0,0,0,17.447,40.681ZM26.7,54.031a13.821,13.821,0,0,1-8.7,0c-1.132-.4-1.37-.812-1.37-.876V51.513a14.735,14.735,0,0,0,11.44,0v1.643C28.071,53.219,27.833,53.627,26.7,54.031Zm13.088,0a13.822,13.822,0,0,1-8.7,0c-1.132-.4-1.37-.812-1.37-.876V51.513a14.735,14.735,0,0,0,11.44,0v1.643C41.16,53.219,40.922,53.627,39.79,54.031Zm13.088,0a13.821,13.821,0,0,1-8.7,0c-1.132-.4-1.37-.812-1.37-.876V51.513a14.735,14.735,0,0,0,11.44,0v1.643C54.248,53.219,54.01,53.627,52.878,54.031Zm-8.7-9.2a13.821,13.821,0,0,1,8.7,0c1.132.4,1.37.812,1.37.876s-.238.472-1.37.876a13.821,13.821,0,0,1-8.7,0c-1.132-.4-1.37-.812-1.37-.876S43.046,45.232,44.178,44.828Z" transform="translate(-14.983 0)" fill="#104469"/>
      </g>
    </g>
    <rect id="Rectángulo_44671" data-name="Rectángulo 44671" width="71" height="71" transform="translate(562 6269)" fill="none"/>
  </g>
</svg>
