<svg xmlns="http://www.w3.org/2000/svg" width="189" height="189" viewBox="0 0 189 189">
  <g id="Grupo_146376" data-name="Grupo 146376" transform="translate(-391 -8049)">
    <rect id="Rect치ngulo_44680" data-name="Rect치ngulo 44680" width="189" height="189" rx="6" transform="translate(391 8049)" fill="#d9fcff"/>
    <g id="files-document-protection-insurance-pen" transform="translate(417 8079)">
      <path id="Trazado_194791" data-name="Trazado 194791" d="M53,23h8.4V86H53Z" transform="translate(56.1 23.1)" fill="#ef9f14"/>
      <rect id="Rect치ngulo_44679" data-name="Rect치ngulo 44679" width="76" height="122" rx="2" transform="translate(25 4)" fill="#79dae1"/>
      <path id="Trazado_194797" data-name="Trazado 194797" d="M59.8,15.4V28.861a16.821,16.821,0,0,1-5.649,12.558L40.9,53.2,27.649,41.419A16.821,16.821,0,0,1,22,28.861V15.4L40.9,7Z" transform="translate(22 5.5)" fill="#ef9f14"/>
      <path id="Trazado_194798" data-name="Trazado 194798" d="M45,33.3a6.3,6.3,0,0,1-6.3,6.3H24V64.8H9.321L3,60.6V31.2L13.5,27H38.7A6.3,6.3,0,0,1,45,33.3Z" transform="translate(1.1 27.5)" fill="#fff8eb"/>
      <path id="Trazado_194801" data-name="Trazado 194801" d="M55.6,7.2V120.6a4.213,4.213,0,0,1-4.2,4.2H43a4.213,4.213,0,0,0,4.2-4.2V7.2A4.213,4.213,0,0,0,43,3h8.4a4.213,4.213,0,0,1,4.2,4.2Z" transform="translate(45.1 1.1)" fill="#d9fcff"/>
      <path id="Trazado_194802" data-name="Trazado 194802" d="M96.5,2H29.3A6.319,6.319,0,0,0,23,8.3V52.4H14.6a1.968,1.968,0,0,0-.777.147l-10.5,4.2A2.1,2.1,0,0,0,2,58.7V88.1a2.1,2.1,0,0,0,.945,1.743l6.321,4.2a2.031,2.031,0,0,0,1.155.357H23v27.3a6.319,6.319,0,0,0,6.3,6.3H96.5a6.319,6.319,0,0,0,6.3-6.3V8.3A6.319,6.319,0,0,0,96.5,2ZM22.79,69.2H23v21H11.051L6.2,86.966V60.128L15,56.6H39.8a4.2,4.2,0,0,1,0,8.4H20.9a2.1,2.1,0,0,0-2.1,2.1,6.319,6.319,0,0,1-6.3,6.3v4.2a10.519,10.519,0,0,0,10.29-8.4ZM98.6,121.7a2.1,2.1,0,0,1-2.1,2.1H29.3a2.1,2.1,0,0,1-2.1-2.1V69.2H39.8a8.4,8.4,0,0,0,0-16.8H27.2V8.3a2.1,2.1,0,0,1,2.1-2.1H96.5a2.1,2.1,0,0,1,2.1,2.1Z" transform="translate(0 0)" fill="#104469"/>
      <path id="Trazado_194803" data-name="Trazado 194803" d="M34.89,28.1a2.1,2.1,0,0,0,1.484-.615l11.88-11.88-2.969-2.969-10.4,10.4-4.456-4.456-2.969,2.969L33.4,27.485a2.1,2.1,0,0,0,1.485.615Z" transform="translate(28.01 11.7)" fill="#104469"/>
      <path id="Trazado_194804" data-name="Trazado 194804" d="M61.761,14.589l-18.9-8.4a2.056,2.056,0,0,0-1.722,0l-18.9,8.4A2.073,2.073,0,0,0,21,16.5V29.961a18.856,18.856,0,0,0,6.342,14.112l13.272,11.8a2.1,2.1,0,0,0,2.772,0l13.272-11.8A18.856,18.856,0,0,0,63,29.961V16.5a2.073,2.073,0,0,0-1.239-1.911ZM58.8,29.961a14.729,14.729,0,0,1-4.935,10.983L42,51.486,30.135,40.944A14.729,14.729,0,0,1,25.2,29.961v-12.1L42,10.389l16.8,7.476Z" transform="translate(20.9 4.4)" fill="#104469"/>
      <path id="Trazado_194805" data-name="Trazado 194805" d="M70.9,28.6H64.6V22.3a6.3,6.3,0,0,0-12.6,0V93.7a2.07,2.07,0,0,0,.063.5l4.2,16.8a2.1,2.1,0,0,0,4.074,0l4.2-16.8a2.07,2.07,0,0,0,.063-.5V32.8h4.2V51.7H73v-21A2.1,2.1,0,0,0,70.9,28.6ZM58.3,101.848,56.788,95.8h3.024ZM60.4,91.6H56.2V32.8h4.2Zm0-63H56.2V22.3a2.1,2.1,0,0,1,4.2,0Z" transform="translate(55 15.4)" fill="#104469"/>
      <path id="Trazado_194806" data-name="Trazado 194806" d="M18,38h8.4v4.2H18Z" transform="translate(17.6 39.6)"/>
      <path id="Trazado_194807" data-name="Trazado 194807" d="M24,38H66v4.2H24Z" transform="translate(24.2 39.6)"/>
      <path id="Trazado_194808" data-name="Trazado 194808" d="M18,44h8.4v4.2H18Z" transform="translate(17.6 46.2)"/>
      <path id="Trazado_194809" data-name="Trazado 194809" d="M24,44H66v4.2H24Z" transform="translate(24.2 46.2)"/>
      <path id="Trazado_194810" data-name="Trazado 194810" d="M18,50h8.4v4.2H18Z" transform="translate(17.6 52.8)"/>
      <path id="Trazado_194811" data-name="Trazado 194811" d="M24,50H66v4.2H24Z" transform="translate(24.2 52.8)"/>
    </g>
  </g>
</svg>
