<svg xmlns="http://www.w3.org/2000/svg" xmlns:xlink="http://www.w3.org/1999/xlink" width="1030" height="527" viewBox="0 0 1030 527">
  <defs>
    <clipPath id="clip-path">
      <rect id="Rectángulo_44541" data-name="Rectángulo 44541" width="1030" height="527" rx="20" transform="translate(0 0)" fill="#ef9f14"/>
    </clipPath>
    <linearGradient id="linear-gradient" x1="0.044" y1="0.022" x2="0.45" y2="0.483" gradientUnits="objectBoundingBox">
      <stop offset="0" stop-color="#104469"/>
      <stop offset="1" stop-color="#edf8ff" stop-opacity="0"/>
    </linearGradient>
    <linearGradient id="linear-gradient-2" x1="0.044" y1="0.022" x2="0.45" y2="0.483" gradientUnits="objectBoundingBox">
      <stop offset="0" stop-color="#f0bf69"/>
      <stop offset="1" stop-color="#edf8ff" stop-opacity="0"/>
    </linearGradient>
  </defs>
  <g id="Grupo_146193" data-name="Grupo 146193" transform="translate(-285 -8955.706)">
    <rect id="Rectángulo_44244" data-name="Rectángulo 44244" width="1030" height="527" rx="20" transform="translate(285 8955.706)" fill="#d9e9f4"/>
    <g id="Enmascarar_grupo_143950" data-name="Enmascarar grupo 143950" transform="translate(285 8955.706)" clip-path="url(#clip-path)">
      <path id="Trazado_194129" data-name="Trazado 194129" d="M393.273,0c217.2,0,393.273,169.227,393.273,377.98s-176.074,377.98-393.273,377.98S0,586.733,0,377.98,176.074,0,393.273,0Z" transform="translate(-121.727 -121.974)" fill="#edf8ff"/>
    </g>
    <rect id="Rectángulo_44547" data-name="Rectángulo 44547" width="38" height="4" transform="translate(1277 8990.706)" fill="#ef9f14"/>
    <rect id="Rectángulo_44548" data-name="Rectángulo 44548" width="83" height="2" transform="translate(1232 8999.706)" fill="#104469"/>
    <rect id="Rectángulo_44549" data-name="Rectángulo 44549" width="247" height="244" rx="20" transform="translate(285 8955.706)" fill="url(#linear-gradient)"/>
    <rect id="Rectángulo_44550" data-name="Rectángulo 44550" width="247" height="244" rx="20" transform="translate(1315 9482.706) rotate(180)" fill="url(#linear-gradient-2)"/>
  </g>
</svg>
