<svg xmlns="http://www.w3.org/2000/svg" width="71" height="71" viewBox="0 0 71 71">
  <g id="Grupo_146433" data-name="Grupo 146433" transform="translate(-535 -1420)">
    <g id="Rectángulo_44855" data-name="Rectángulo 44855" transform="translate(535 1420)" fill="#d9fcff" stroke="#707070" stroke-width="1">
      <rect width="71" height="71" rx="6" stroke="none"/>
      <rect x="0.5" y="0.5" width="70" height="70" rx="5.5" fill="none"/>
    </g>
    <g id="economia" transform="translate(508.825 1431.94)">
      <path id="Trazado_195333" data-name="Trazado 195333" d="M55.332,50.469H49.018V9.853A2.353,2.353,0,0,1,51.371,7.5h1.608a2.353,2.353,0,0,1,2.353,2.353Z" transform="translate(-6.795 -6.795)" fill="#d9fcff"/>
      <path id="Trazado_195334" data-name="Trazado 195334" d="M149.011,50.689H116.42V9.3A1.577,1.577,0,0,1,118,7.72h26.676a4.338,4.338,0,0,1,4.338,4.338V50.689Z" transform="translate(-67.863 -6.994)" fill="#79dae1"/>
      <path id="Trazado_195335" data-name="Trazado 195335" d="M394.811,7.5h-2.284a4.338,4.338,0,0,1,4.338,4.338V50.469h2.284V11.837A4.337,4.337,0,0,0,394.811,7.5Z" transform="translate(-318.021 -6.795)" fill="#d9fcff"/>
      <path id="Trazado_195336" data-name="Trazado 195336" d="M55.665,424.713a.428.428,0,0,1-.662,0l-.148-.182a1.854,1.854,0,0,0-1.439-.685h-2a2.4,2.4,0,0,0-2.4,2.4v2.79a2.4,2.4,0,0,0,2.4,2.4h2a1.855,1.855,0,0,0,1.439-.685l.148-.182a.428.428,0,0,1,.662,0,2.393,2.393,0,0,0,1.846.87H85.358a2.565,2.565,0,0,0,2.565-2.565v-2.451a2.565,2.565,0,0,0-2.565-2.565H57.51A2.393,2.393,0,0,0,55.665,424.713Z" transform="translate(-6.795 -384.011)" fill="#d9fcff"/>
      <g id="Grupo_146274" data-name="Grupo 146274" transform="translate(76.279 39.833)">
        <path id="Trazado_195337" data-name="Trazado 195337" d="M413.674,423.844H411.39a2.565,2.565,0,0,1,2.565,2.565v2.451a2.565,2.565,0,0,1-2.565,2.565h2.284a2.565,2.565,0,0,0,2.565-2.565v-2.451A2.565,2.565,0,0,0,413.674,423.844Z" transform="translate(-411.39 -423.844)" fill="#dddaec"/>
      </g>
      <path id="Trazado_195338" data-name="Trazado 195338" d="M219.077,63.23H207.218a.444.444,0,0,1-.444-.444V60.653a.444.444,0,0,1,.444-.444h11.858a.444.444,0,0,1,.444.444v2.132A.445.445,0,0,1,219.077,63.23Z" transform="translate(-149.725 -54.55)" fill="#f9f6f9"/>
      <path id="Trazado_195339" data-name="Trazado 195339" d="M318.528,60.21h-1.987a.444.444,0,0,1,.444.444v2.132a.444.444,0,0,1-.444.444h1.987a.444.444,0,0,0,.444-.444V60.654A.445.445,0,0,0,318.528,60.21Z" transform="translate(-249.176 -54.551)" fill="#dddaec"/>
      <g id="Grupo_146280" data-name="Grupo 146280" transform="translate(54.685 11.865)">
        <g id="Grupo_146275" data-name="Grupo 146275" transform="translate(5.742 12.66)">
          <path id="Trazado_195340" data-name="Trazado 195340" d="M253.569,264.118H243.6a.881.881,0,0,1-.881-.881v-1.4a.881.881,0,0,1,.881-.881h9.97a.881.881,0,0,1,.881.881v1.4A.881.881,0,0,1,253.569,264.118Z" transform="translate(-242.717 -260.953)" fill="#fff"/>
        </g>
        <g id="Grupo_146276" data-name="Grupo 146276" transform="translate(5.742 9.495)">
          <path id="Trazado_195341" data-name="Trazado 195341" d="M253.569,230.441H243.6a.881.881,0,0,1-.881-.881v-1.4a.881.881,0,0,1,.881-.881h9.97a.881.881,0,0,1,.881.881v1.4A.881.881,0,0,1,253.569,230.441Z" transform="translate(-242.717 -227.276)" fill="#fff"/>
        </g>
        <g id="Grupo_146277" data-name="Grupo 146277" transform="translate(5.742 6.33)">
          <path id="Trazado_195342" data-name="Trazado 195342" d="M253.569,196.765H243.6a.881.881,0,0,1-.881-.881v-1.4a.881.881,0,0,1,.881-.881h9.97a.881.881,0,0,1,.881.881v1.4A.881.881,0,0,1,253.569,196.765Z" transform="translate(-242.717 -193.6)" fill="#fff"/>
        </g>
        <g id="Grupo_146278" data-name="Grupo 146278" transform="translate(5.742 3.165)">
          <path id="Trazado_195343" data-name="Trazado 195343" d="M253.569,163.088H243.6a.881.881,0,0,1-.881-.881v-1.4a.881.881,0,0,1,.881-.881h9.97a.881.881,0,0,1,.881.881v1.4A.881.881,0,0,1,253.569,163.088Z" transform="translate(-242.717 -159.923)" fill="#fff"/>
        </g>
        <g id="Grupo_146279" data-name="Grupo 146279" transform="translate(5.742)">
          <path id="Trazado_195344" data-name="Trazado 195344" d="M253.569,129.412H243.6a.881.881,0,0,1-.881-.881v-1.4a.881.881,0,0,1,.881-.881h9.97a.881.881,0,0,1,.881.881v1.4A.881.881,0,0,1,253.569,129.412Z" transform="translate(-242.717 -126.247)" fill="#fff"/>
        </g>
        <circle id="Elipse_1339" data-name="Elipse 1339" cx="6.149" cy="6.149" r="6.149" transform="translate(0 3.526)" fill="#ef9f14"/>
        <path id="Trazado_195345" data-name="Trazado 195345" d="M234.314,163.77a6.165,6.165,0,0,0-1.321.144,6.149,6.149,0,0,1,0,12.011,6.149,6.149,0,1,0,1.321-12.154Z" transform="translate(-228.165 -160.244)" fill="#e7a52e"/>
      </g>
      <g id="Grupo_146281" data-name="Grupo 146281" transform="translate(41.518)">
        <path id="Trazado_195346" data-name="Trazado 195346" d="M76.79,0H50.114A2.279,2.279,0,0,0,48.32.872,3.048,3.048,0,0,0,46.184,0H44.576a3.061,3.061,0,0,0-3.058,3.058V5.236a.7.7,0,0,0,1.41,0V3.058A1.65,1.65,0,0,1,44.576,1.41h1.608a1.65,1.65,0,0,1,1.648,1.634V39.432a2.554,2.554,0,0,0-1.212-.3h-2a3.082,3.082,0,0,0-1.69.5V7.961a.7.7,0,1,0-1.41,0V45.018a3.1,3.1,0,0,0,3.1,3.1h2a2.548,2.548,0,0,0,1.931-.88,3.087,3.087,0,0,0,2.163.88H58.95a.7.7,0,1,0,0-1.41H50.715a1.683,1.683,0,0,1-1.3-.614,1.133,1.133,0,0,0-1.752.007l-.148.182a1.145,1.145,0,0,1-.892.425h-2a1.692,1.692,0,0,1-1.69-1.69v-2.79a1.692,1.692,0,0,1,1.69-1.69h2a1.145,1.145,0,0,1,.892.425l.148.182a1.133,1.133,0,0,0,1.753.007,1.683,1.683,0,0,1,1.3-.613H78.563a1.862,1.862,0,0,1,1.86,1.86v2.451a1.862,1.862,0,0,1-1.86,1.86H61.675a.7.7,0,0,0,0,1.41H78.563a3.273,3.273,0,0,0,3.27-3.27V5.042A5.048,5.048,0,0,0,76.79,0Zm1.773,39.128H50.715a3.094,3.094,0,0,0-1.473.372V2.282a.873.873,0,0,1,.872-.872H76.79a3.637,3.637,0,0,1,3.633,3.633V39.71A3.251,3.251,0,0,0,78.563,39.128Z" transform="translate(-41.518)" fill="#104469"/>
        <path id="Trazado_195347" data-name="Trazado 195347" d="M142.067,445.531h26.452a.7.7,0,1,0,0-1.41H142.067a.7.7,0,0,0,0,1.41Z" transform="translate(-131.979 -402.382)" fill="#104469"/>
        <path id="Trazado_195348" data-name="Trazado 195348" d="M142.067,470.632h26.452a.7.7,0,1,0,0-1.41H142.067a.7.7,0,0,0,0,1.41Z" transform="translate(-131.979 -425.124)" fill="#104469"/>
        <path id="Trazado_195349" data-name="Trazado 195349" d="M237.756,329.662a.7.7,0,1,0,0-1.41H230.8a.7.7,0,1,0,0,1.41Z" transform="translate(-212.375 -297.403)" fill="#104469"/>
        <path id="Trazado_195350" data-name="Trazado 195350" d="M220.945,358.346H210.1a.7.7,0,0,0,0,1.41h10.845a.7.7,0,1,0,0-1.41Z" transform="translate(-193.618 -324.668)" fill="#104469"/>
        <path id="Trazado_195351" data-name="Trazado 195351" d="M191.42,118.747h-9.97a1.588,1.588,0,0,0-1.586,1.586v1.4a1.577,1.577,0,0,0,.122.609,6.854,6.854,0,0,0,.991,13.637H191.42a1.588,1.588,0,0,0,1.586-1.586v-1.4a1.577,1.577,0,0,0-.268-.881,1.577,1.577,0,0,0,.268-.881v-1.4a1.577,1.577,0,0,0-.268-.881,1.577,1.577,0,0,0,.268-.881v-1.4a1.577,1.577,0,0,0-.268-.881,1.577,1.577,0,0,0,.268-.881v-1.4a1.577,1.577,0,0,0-.268-.881,1.577,1.577,0,0,0,.268-.881v-1.4a1.588,1.588,0,0,0-1.586-1.586Zm-10.147,1.586a.177.177,0,0,1,.176-.176h9.97a.177.177,0,0,1,.176.176v1.4a.177.177,0,0,1-.176.176h-9.97a.177.177,0,0,1-.176-.176ZM191.6,124.9a.177.177,0,0,1-.176.176H186.5a6.909,6.909,0,0,0-1.886-1.755h6.8a.177.177,0,0,1,.176.176Zm0,1.762v1.4a.177.177,0,0,1-.176.176h-3.647a6.8,6.8,0,0,0-.472-1.755h4.119A.177.177,0,0,1,191.6,126.663Zm0,3.165v1.4a.177.177,0,0,1-.176.176h-3.98a6.805,6.805,0,0,0,.37-1.755h3.61A.177.177,0,0,1,191.6,129.828Zm-16.065-.7a5.444,5.444,0,1,1,5.444,5.444A5.451,5.451,0,0,1,175.532,129.127ZM191.6,134.4a.177.177,0,0,1-.176.176h-6.285a6.91,6.91,0,0,0,1.615-1.755h4.67a.177.177,0,0,1,.176.176Z" transform="translate(-161.66 -107.587)" fill="#104469"/>
        <path id="Trazado_195352" data-name="Trazado 195352" d="M228.841,196.618V196.5a2,2,0,0,0,1.235-1.406,1.8,1.8,0,0,0-1.2-2.156,5.692,5.692,0,0,1-1.005-.436.247.247,0,0,1-.107-.281v0a.3.3,0,0,1,.187-.2,1.37,1.37,0,0,1,.667.025.69.69,0,0,0,.677-.206l.028-.031a.684.684,0,0,0-.327-1.12q-.078-.02-.16-.038v0a.7.7,0,0,0-1.41,0v.062a1.72,1.72,0,0,0-1.06,1.3,1.553,1.553,0,0,0,.523,1.527,5.483,5.483,0,0,0,1.516.733.393.393,0,0,1,.3.472.578.578,0,0,1-.578.491,1.122,1.122,0,0,1-.836-.215.705.705,0,0,0-1.018.277.721.721,0,0,0,.269.918,2.427,2.427,0,0,0,.885.38v.023a.7.7,0,0,0,1.41,0Z" transform="translate(-208.849 -172.093)" fill="#104469"/>
        <path id="Trazado_195353" data-name="Trazado 195353" d="M200.422,57.141h6.4a.7.7,0,1,0,0-1.41h-6.139V54.12H212.02v1.611h-2.473a.7.7,0,1,0,0,1.41h2.734a1.151,1.151,0,0,0,1.149-1.149V53.859a1.151,1.151,0,0,0-1.149-1.149H200.422a1.151,1.151,0,0,0-1.149,1.149v2.132A1.151,1.151,0,0,0,200.422,57.141Z" transform="translate(-184.447 -47.756)" fill="#104469"/>
      </g>
    </g>
  </g>
</svg>
