<svg xmlns="http://www.w3.org/2000/svg" width="295" height="139" viewBox="0 0 295 139">
  <g id="Grupo_146381" data-name="Grupo 146381" transform="translate(-1125 -964)">
    <rect id="Rect치ngulo_44773" data-name="Rect치ngulo 44773" width="295" height="139" transform="translate(1125 964)" fill="#fff0d6"/>
    <g id="Grupo_146258" data-name="Grupo 146258" transform="translate(648 -5295.281)">
      <g id="impuesto_2_" data-name="impuesto (2)" transform="translate(576.993 6280.661)">
        <g id="Grupo_146182" data-name="Grupo 146182" transform="translate(1.373 1.443)">
          <g id="Grupo_146177" data-name="Grupo 146177" transform="translate(23.798)">
            <path id="Trazado_194787" data-name="Trazado 194787" d="M30.935,0A31.015,31.015,0,1,1,0,31.014,30.975,30.975,0,0,1,30.935,0Z" fill="#79dae1"/>
            <path id="Trazado_194758" data-name="Trazado 194758" d="M305.062,7.882A31.157,31.157,0,0,0,301.4,8.1a31.025,31.025,0,0,1,0,61.594,31.01,31.01,0,1,0,3.662-61.811Z" transform="translate(-274.127 -7.882)" fill="#d9fcff"/>
          </g>
          <g id="Grupo_146181" data-name="Grupo 146181" transform="translate(0 45.781)">
            <path id="Trazado_194759" data-name="Trazado 194759" d="M44.286,455.936c0,2.149-4.881,3.892-10.9,3.892s-10.9-1.742-10.9-3.892v-6.207h21.8S44.286,453.786,44.286,455.936Z" transform="translate(-22.482 -414.606)" fill="#ffe563"/>
            <path id="Trazado_194760" data-name="Trazado 194760" d="M69.263,449.729v6.207c0,1.691-3.021,3.129-7.24,3.666a29.138,29.138,0,0,0,3.662.226c6.021,0,10.9-1.742,10.9-3.892v-6.207H69.263Z" transform="translate(-54.783 -414.606)" fill="#ffdc2e"/>
            <path id="Trazado_194761" data-name="Trazado 194761" d="M44.286,422.039c0,2.149-4.881,3.892-10.9,3.892s-10.9-1.742-10.9-3.892v-6.207h21.8S44.286,419.889,44.286,422.039Z" transform="translate(-22.482 -386.916)" fill="#ffb700"/>
            <path id="Trazado_194762" data-name="Trazado 194762" d="M69.263,415.831v6.207c0,1.691-3.021,3.129-7.24,3.666a29.114,29.114,0,0,0,3.662.226c6.021,0,10.9-1.742,10.9-3.892v-6.207H69.263Z" transform="translate(-54.783 -386.915)" fill="#f5b000"/>
            <path id="Trazado_194763" data-name="Trazado 194763" d="M44.286,388.141c0,2.149-4.881,3.892-10.9,3.892s-10.9-1.742-10.9-3.892v-6.207h21.8S44.286,385.991,44.286,388.141Z" transform="translate(-22.482 -359.225)" fill="#ffe563"/>
            <path id="Trazado_194764" data-name="Trazado 194764" d="M69.263,381.934v6.207c0,1.691-3.021,3.129-7.24,3.666a29.138,29.138,0,0,0,3.662.226c6.021,0,10.9-1.742,10.9-3.892v-6.207H69.263Z" transform="translate(-54.783 -359.225)" fill="#ffdc2e"/>
            <g id="Grupo_146178" data-name="Grupo 146178" transform="translate(0 12.611)">
              <path id="Trazado_194765" data-name="Trazado 194765" d="M44.286,354.244c0,2.149-4.881,3.892-10.9,3.892s-10.9-1.742-10.9-3.892v-6.207h21.8S44.286,352.094,44.286,354.244Z" transform="translate(-22.482 -344.145)" fill="#ffb700"/>
              <path id="Trazado_194766" data-name="Trazado 194766" d="M69.263,348.037v6.207c0,1.691-3.021,3.129-7.24,3.666a29.138,29.138,0,0,0,3.662.226c6.021,0,10.9-1.742,10.9-3.892v-6.207Z" transform="translate(-54.783 -344.145)" fill="#f5b000"/>
              <ellipse id="Elipse_1303" data-name="Elipse 1303" cx="10.902" cy="3.892" rx="10.902" ry="3.892" transform="translate(0)" fill="#ffe563"/>
            </g>
            <path id="Trazado_194767" data-name="Trazado 194767" d="M163.368,455.936c0,2.149-4.881,3.892-10.9,3.892s-10.9-1.742-10.9-3.892v-6.207h21.8S163.368,453.786,163.368,455.936Z" transform="translate(-119.76 -414.606)" fill="#ffb700"/>
            <path id="Trazado_194768" data-name="Trazado 194768" d="M188.345,449.729v6.207c0,1.691-3.021,3.129-7.24,3.666a29.137,29.137,0,0,0,3.662.226c6.021,0,10.9-1.742,10.9-3.892v-6.207h-7.324Z" transform="translate(-152.061 -414.606)" fill="#f5b000"/>
            <path id="Trazado_194769" data-name="Trazado 194769" d="M163.368,422.039c0,2.149-4.881,3.892-10.9,3.892s-10.9-1.742-10.9-3.892v-6.207h21.8S163.368,419.889,163.368,422.039Z" transform="translate(-119.76 -386.916)" fill="#ffe563"/>
            <path id="Trazado_194770" data-name="Trazado 194770" d="M188.345,415.831v6.207c0,1.691-3.021,3.129-7.24,3.666a29.113,29.113,0,0,0,3.662.226c6.021,0,10.9-1.742,10.9-3.892v-6.207h-7.324Z" transform="translate(-152.061 -386.915)" fill="#ffdc2e"/>
            <path id="Trazado_194771" data-name="Trazado 194771" d="M163.368,388.141c0,2.149-4.881,3.892-10.9,3.892s-10.9-1.742-10.9-3.892v-6.207h21.8S163.368,385.991,163.368,388.141Z" transform="translate(-119.76 -359.225)" fill="#ffb700"/>
            <path id="Trazado_194772" data-name="Trazado 194772" d="M188.345,381.934v6.207c0,1.691-3.021,3.129-7.24,3.666a29.137,29.137,0,0,0,3.662.226c6.021,0,10.9-1.742,10.9-3.892v-6.207h-7.324Z" transform="translate(-152.061 -359.225)" fill="#f5b000"/>
            <path id="Trazado_194773" data-name="Trazado 194773" d="M163.368,354.244c0,2.149-4.881,3.892-10.9,3.892s-10.9-1.742-10.9-3.892v-6.207h21.8S163.368,352.094,163.368,354.244Z" transform="translate(-119.76 -331.534)" fill="#ffe563"/>
            <path id="Trazado_194774" data-name="Trazado 194774" d="M188.345,348.037v6.207c0,1.691-3.021,3.129-7.24,3.666a29.137,29.137,0,0,0,3.662.226c6.021,0,10.9-1.742,10.9-3.892v-6.207Z" transform="translate(-152.061 -331.534)" fill="#ffdc2e"/>
            <path id="Trazado_194775" data-name="Trazado 194775" d="M163.368,319.808c0,2.149-4.881,3.892-10.9,3.892s-10.9-1.742-10.9-3.892V313.6h21.8S163.368,317.658,163.368,319.808Z" transform="translate(-119.76 -303.404)" fill="#ffb700"/>
            <path id="Trazado_194776" data-name="Trazado 194776" d="M188.345,313.6v6.207c0,1.691-3.021,3.129-7.24,3.666a29.119,29.119,0,0,0,3.662.226c6.021,0,10.9-1.742,10.9-3.892V313.6h-7.324Z" transform="translate(-152.061 -303.404)" fill="#f5b000"/>
            <g id="Grupo_146179" data-name="Grupo 146179" transform="translate(21.804)">
              <path id="Trazado_194777" data-name="Trazado 194777" d="M163.368,285.373c0,2.149-4.881,3.892-10.9,3.892s-10.9-1.742-10.9-3.892v-6.207h21.8S163.368,283.223,163.368,285.373Z" transform="translate(-141.564 -275.274)" fill="#ffe563"/>
              <path id="Trazado_194778" data-name="Trazado 194778" d="M188.345,279.165v6.207c0,1.691-3.021,3.129-7.24,3.666a29.131,29.131,0,0,0,3.662.226c6.021,0,10.9-1.742,10.9-3.892v-6.207h-7.324Z" transform="translate(-173.865 -275.273)" fill="#ffdc2e"/>
              <ellipse id="Elipse_1304" data-name="Elipse 1304" cx="10.902" cy="3.892" rx="10.902" ry="3.892" fill="#ffb700"/>
            </g>
            <path id="Trazado_194779" data-name="Trazado 194779" d="M282.451,449.729v6.207c0,2.149-4.881,3.892-10.9,3.892s-10.9-1.742-10.9-3.892v-6.207Z" transform="translate(-217.038 -414.606)" fill="#ffe563"/>
            <path id="Trazado_194780" data-name="Trazado 194780" d="M307.428,449.729v6.207c0,1.691-3.021,3.129-7.24,3.666a29.138,29.138,0,0,0,3.662.226c6.021,0,10.9-1.742,10.9-3.892v-6.207h-7.324Z" transform="translate(-249.339 -414.606)" fill="#ffdc2e"/>
            <g id="Grupo_146180" data-name="Grupo 146180" transform="translate(43.609 25.024)">
              <path id="Trazado_194781" data-name="Trazado 194781" d="M282.451,422.039c0,2.149-4.881,3.892-10.9,3.892s-10.9-1.742-10.9-3.892v-6.207h21.8S282.451,419.889,282.451,422.039Z" transform="translate(-260.647 -411.94)" fill="#ffb700"/>
              <path id="Trazado_194782" data-name="Trazado 194782" d="M307.428,415.831v6.207c0,1.691-3.021,3.129-7.24,3.666a29.115,29.115,0,0,0,3.662.226c6.021,0,10.9-1.742,10.9-3.892v-6.207h-7.324Z" transform="translate(-292.948 -411.939)" fill="#f5b000"/>
              <ellipse id="Elipse_1305" data-name="Elipse 1305" cx="10.902" cy="3.892" rx="10.902" ry="3.892" transform="translate(0)" fill="#ffe563"/>
            </g>
          </g>
        </g>
        <g id="Grupo_146183" data-name="Grupo 146183" transform="translate(0 0)">
          <path id="Trazado_194783" data-name="Trazado 194783" d="M270.015,130.2a1.414,1.414,0,0,0,1.907-.365l16.5-24.309a1.373,1.373,0,1,0-2.272-1.542l-16.5,24.309A1.373,1.373,0,0,0,270.015,130.2Z" transform="translate(-222.826 -84.452)" fill="#104469"/>
          <path id="Trazado_194784" data-name="Trazado 194784" d="M347.655,194.436c2.858,0,5.183-2.858,5.183-6.371-.293-8.455-10.074-8.453-10.366,0C342.472,191.578,344.8,194.436,347.655,194.436Zm0-9.995c1.321,0,2.436,1.659,2.436,3.624s-1.116,3.624-2.436,3.624-2.437-1.659-2.437-3.624S346.334,184.441,347.655,184.441Z" transform="translate(-282.508 -148.45)" fill="#104469"/>
          <path id="Trazado_194785" data-name="Trazado 194785" d="M254.21,109.754c0-3.513-2.325-6.371-5.183-6.371-6.873.34-6.871,12.4,0,12.741C251.885,116.124,254.21,113.266,254.21,109.754Zm-7.619,0c0-1.965,1.116-3.624,2.437-3.624s2.436,1.659,2.436,3.624-1.116,3.624-2.436,3.624S246.59,111.718,246.59,109.754Z" transform="translate(-201.962 -84.453)" fill="#104469"/>
          <path id="Trazado_194786" data-name="Trazado 194786" d="M61.338,63.342C95.043,73.389,118.377,31.192,92.132,7.88a1.373,1.373,0,1,0-1.792,2.081c24.363,21.7,2.014,60.7-29,50.486V51.116c0-1.177-.712-2.834-4.1-4.045a26.565,26.565,0,0,0-12.376-.933C31.908,20.859,58.41-6.521,84.024,5.8A1.373,1.373,0,0,0,85.23,3.329C57.6-9.987,28.737,19.126,42.07,46.7c-.411.113-.805.235-1.178.368-3.393,1.211-4.1,2.868-4.1,4.045v9.141a22.22,22.22,0,0,0-9.512-1.8,1.373,1.373,0,0,0,0,2.747A22.4,22.4,0,0,1,34.51,62.27c1.881.672,2.277,1.351,2.277,1.457s-.4.786-2.282,1.459a23.025,23.025,0,0,1-14.494,0c-1.885-.673-2.282-1.353-2.282-1.459,0-.125.482-.907,2.772-1.621a1.373,1.373,0,0,0-.817-2.622c-3.886,1.211-4.7,2.976-4.7,4.243V88.553c0,1.177.712,2.834,4.1,4.045a25.778,25.778,0,0,0,16.341,0,8.959,8.959,0,0,0,2.732-1.454A8.959,8.959,0,0,0,40.892,92.6a25.779,25.779,0,0,0,16.341,0,8.96,8.96,0,0,0,2.732-1.454A8.959,8.959,0,0,0,62.7,92.6a25.778,25.778,0,0,0,16.341,0c3.393-1.211,4.1-2.868,4.1-4.045V76.14c0-1.177-.712-2.834-4.1-4.045a25.778,25.778,0,0,0-16.341,0,11.913,11.913,0,0,0-1.358.576c0-1.79,0-7.1,0-8.971,0-.05,0-.3,0-.357Zm19.058,19c0,.106-.4.786-2.282,1.459a23.025,23.025,0,0,1-14.494,0c-1.885-.673-2.282-1.353-2.282-1.459V79.61a11.944,11.944,0,0,0,1.358.576,25.778,25.778,0,0,0,16.341,0A11.912,11.912,0,0,0,80.4,79.61Zm-21.8-25.024c0,.106-.4.786-2.282,1.459a23.024,23.024,0,0,1-14.495,0c-1.885-.673-2.282-1.353-2.282-1.459V54.586a11.947,11.947,0,0,0,1.358.576,25.779,25.779,0,0,0,16.341,0,11.913,11.913,0,0,0,1.358-.576Zm-17.7,4.045a25.04,25.04,0,0,0,17.7-.575v2.836c0,.106-.4.786-2.282,1.459a23.027,23.027,0,0,1-14.495,0c-1.885-.673-2.282-1.353-2.282-1.459V60.793A11.935,11.935,0,0,0,40.892,61.368Zm-4.1,14.772c0,.106-.4.786-2.282,1.459a23.025,23.025,0,0,1-14.494,0c-1.885-.673-2.282-1.353-2.282-1.459V73.4a11.947,11.947,0,0,0,1.358.576,25.778,25.778,0,0,0,16.341,0,11.912,11.912,0,0,0,1.358-.576ZM17.729,79.61a11.948,11.948,0,0,0,1.358.576,25.778,25.778,0,0,0,16.341,0,11.912,11.912,0,0,0,1.358-.576v2.737c0,.106-.4.786-2.282,1.459a23.025,23.025,0,0,1-14.494,0c-1.885-.673-2.282-1.353-2.282-1.459Zm21.8,0a11.948,11.948,0,0,0,1.358.576,25.779,25.779,0,0,0,16.341,0,11.911,11.911,0,0,0,1.358-.576v2.737c0,.106-.4.786-2.282,1.459a23.024,23.024,0,0,1-14.495,0c-1.885-.673-2.282-1.353-2.282-1.459ZM56.31,77.6a23.027,23.027,0,0,1-14.495,0c-1.885-.673-2.282-1.353-2.282-1.459V73.4a11.947,11.947,0,0,0,1.358.576,25.779,25.779,0,0,0,16.341,0,11.911,11.911,0,0,0,1.358-.576V76.14C58.592,76.246,58.2,76.926,56.31,77.6Zm2.282-7.665c0,.106-.4.786-2.282,1.459a23.027,23.027,0,0,1-14.495,0c-1.885-.673-2.282-1.353-2.282-1.459V67.1a11.948,11.948,0,0,0,1.358.576,25.779,25.779,0,0,0,16.341,0,11.914,11.914,0,0,0,1.358-.576ZM41.815,49.657a23.033,23.033,0,0,1,14.495,0c1.885.673,2.282,1.353,2.282,1.459s-.4.786-2.282,1.459a23.027,23.027,0,0,1-14.495,0c-1.885-.673-2.282-1.353-2.282-1.459S39.93,50.33,41.815,49.657ZM19.088,67.772a25.04,25.04,0,0,0,17.7-.575v2.737c0,.106-.4.786-2.282,1.459a23.025,23.025,0,0,1-14.494,0c-1.885-.673-2.282-1.353-2.282-1.459V67.2A11.92,11.92,0,0,0,19.088,67.772Zm15.418,22.24a23.025,23.025,0,0,1-14.494,0c-1.885-.673-2.282-1.353-2.282-1.459V85.817a24.547,24.547,0,0,0,19.058,0v2.737C36.787,88.659,36.391,89.339,34.505,90.012Zm21.8,0a23.027,23.027,0,0,1-14.495,0c-1.885-.673-2.282-1.353-2.282-1.459V85.817a24.547,24.547,0,0,0,19.058,0v2.737C58.592,88.659,58.2,89.339,56.31,90.012Zm21.8,0a23.025,23.025,0,0,1-14.494,0c-1.885-.673-2.282-1.353-2.282-1.459V85.817a24.547,24.547,0,0,0,19.058,0v2.737C80.4,88.659,80,89.339,78.114,90.012ZM63.62,74.681a23.025,23.025,0,0,1,14.494,0C80,75.354,80.4,76.034,80.4,76.14s-.4.786-2.282,1.459a23.025,23.025,0,0,1-14.494,0c-1.885-.673-2.282-1.353-2.282-1.459S61.735,75.354,63.62,74.681Z" transform="translate(-14.983 0)" fill="#104469"/>
        </g>
      </g>
      <rect id="Rect치ngulo_44671" data-name="Rect치ngulo 44671" width="118" height="118" transform="translate(562 6269.281)" fill="none"/>
    </g>
  </g>
</svg>
