<svg xmlns="http://www.w3.org/2000/svg" width="295" height="139" viewBox="0 0 295 139">
  <g id="Grupo_146384" data-name="Grupo 146384" transform="translate(-1125 -2867)">
    <rect id="Rect치ngulo_44777" data-name="Rect치ngulo 44777" width="295" height="139" transform="translate(1125 2867)" fill="#fff0d6"/>
    <g id="Grupo_146273" data-name="Grupo 146273" transform="translate(675 731.008)">
      <g id="Page-1" transform="translate(544.295 2163.295)">
        <g id="_024---Auction" data-name="024---Auction" transform="translate(0 0)">
          <path id="Shape" d="M77.418,7.2c0,4.648,1.549,6.2,1.549,6.2h-9.3V7.2H54.18v6.2H23.2A6.2,6.2,0,1,1,23.2,1H78.967S77.418,2.549,77.418,7.2Z" transform="translate(9.336 0.549)" fill="#d9fcff"/>
          <path id="Shape-2" data-name="Shape" d="M59.2,1H54.549S53,2.549,53,7.2s1.549,6.2,1.549,6.2H59.2s-1.549-1.549-1.549-6.2S59.2,1,59.2,1Z" transform="translate(29.107 0.549)" fill="#d9fcff"/>
          <path id="Shape-3" data-name="Shape" d="M78.967,11.2V70.066a1.549,1.549,0,0,1-1.549,1.549H24.746V66.967a3.108,3.108,0,0,0-3.1-3.1V45.279H32.492v1.549a1.549,1.549,0,0,0,1.549,1.549h3.1a4.648,4.648,0,0,0,4.648-4.648V22.041a4.648,4.648,0,0,0-4.648-4.648h-3.1a1.549,1.549,0,0,0-1.549,1.549v1.549H17V5a6.2,6.2,0,0,0,6.2,6.2H54.18V43.73l7.746-7.746,7.746,7.746V11.2Z" transform="translate(9.336 2.746)" fill="#79dae1"/>
          <path id="Shape-4" data-name="Shape" d="M54.549,9V67.869A1.549,1.549,0,0,1,53,69.418h4.648A1.549,1.549,0,0,0,59.2,67.869V9Z" transform="translate(29.107 4.943)" fill="#d9fcff"/>
          <path id="Shape-5" data-name="Shape" d="M56.492,5V43.73l-7.746-7.746L41,43.73V5Z" transform="translate(22.517 2.746)" fill="#ef9f14"/>
          <path id="Shape-6" data-name="Shape" d="M48,5V39.082l4.648,4.648V5Z" transform="translate(26.361 2.746)" fill="#fec108"/>
          <path id="Shape-7" data-name="Shape" d="M10.3,14.549V42.435a1.549,1.549,0,0,1-1.549,1.549h-3.1A4.648,4.648,0,0,1,1,39.336V17.648A4.648,4.648,0,0,1,5.648,13h3.1A1.549,1.549,0,0,1,10.3,14.549Z" transform="translate(0.549 7.139)" fill="#79dae1"/>
          <path id="Shape-8" data-name="Shape" d="M36.3,17.648V39.336a4.648,4.648,0,0,1-4.648,4.648h-3.1A1.549,1.549,0,0,1,27,42.435V14.549A1.549,1.549,0,0,1,28.549,13h3.1A4.648,4.648,0,0,1,36.3,17.648Z" transform="translate(14.828 7.139)" fill="#79dae1"/>
          <path id="Rectangle-path" d="M7,15H37.984V39.787H7Z" transform="translate(3.844 8.238)" fill="#1a878e"/>
          <path id="Rectangle-path-2" data-name="Rectangle-path" d="M14,31h9.3V49.59H14Z" transform="translate(7.689 17.025)" fill="#79dae1"/>
          <path id="Shape-9" data-name="Shape" d="M27.492,46.1V60.041a7.746,7.746,0,1,1-15.492,0V46.1A3.108,3.108,0,0,1,15.1,43h9.3A3.108,3.108,0,0,1,27.492,46.1Z" transform="translate(6.59 23.615)" fill="#79dae1"/>
          <g id="Grupo_146263" data-name="Grupo 146263" transform="translate(51.123 55.771)">
            <rect id="Rectangle-path-3" data-name="Rectangle-path" width="19" height="6" rx="1" transform="translate(-0.418 -0.073)" fill="#ef9f14"/>
          </g>
          <path id="Shape-10" data-name="Shape" d="M89.436,12.886c-.011-.012-1.132-1.352-1.132-5.14a8.6,8.6,0,0,1,1.1-5.1A1.549,1.549,0,0,0,88.3,0H32.533a7.746,7.746,0,0,0-7.746,7.746V21.689H12.393a3.1,3.1,0,0,0-3.1-3.1H6.2a6.2,6.2,0,0,0-6.2,6.2V46.476a6.2,6.2,0,0,0,6.2,6.2H9.3a3.1,3.1,0,0,0,3.1-3.1h7.746V65.351a4.648,4.648,0,0,0-3.1,4.363V83.656a9.3,9.3,0,0,0,18.59,0V75.91H86.754a3.1,3.1,0,0,0,3.1-3.1V13.943h-.04A1.6,1.6,0,0,0,89.436,12.886ZM32.533,3.1H85.816a15.78,15.78,0,0,0-.61,4.648,15.78,15.78,0,0,0,.61,4.648H80.558V7.746A1.549,1.549,0,0,0,79.008,6.2H63.517a1.549,1.549,0,0,0-1.549,1.549v4.648H32.533a4.648,4.648,0,1,1,0-9.3ZM77.459,9.3V42.736l-5.1-5.1a1.549,1.549,0,0,0-2.191,0l-5.1,5.1V9.3ZM6.2,49.574a3.1,3.1,0,0,1-3.1-3.1V24.787a3.1,3.1,0,0,1,3.1-3.1H9.3V49.574Zm6.2-24.787H40.279V46.476H12.393ZM43.377,48.025V21.689h3.1a3.1,3.1,0,0,1,3.1,3.1V46.476a3.1,3.1,0,0,1-3.1,3.1h-3.1ZM29.435,49.574V65.066h-6.2V49.574Zm3.1,34.082a6.2,6.2,0,1,1-12.393,0V69.713a1.549,1.549,0,0,1,1.549-1.549h9.3a1.549,1.549,0,0,1,1.549,1.549Zm3.1-10.844v-3.1a4.648,4.648,0,0,0-3.1-4.363V49.574h7.746a3.1,3.1,0,0,0,3.1,3.1h3.1a6.2,6.2,0,0,0,6.2-6.2V24.787a6.2,6.2,0,0,0-6.2-6.2h-3.1a3.1,3.1,0,0,0-3.1,3.1H27.885V13.9a7.665,7.665,0,0,0,4.648,1.589H61.967V46.476a1.549,1.549,0,0,0,2.644,1.1l6.651-6.651,6.651,6.651a1.549,1.549,0,0,0,2.644-1.1V15.492h6.2v57.32Z" transform="translate(0 0)" fill="#104469"/>
          <path id="Shape-11" data-name="Shape" d="M50.59,35H35.1A3.1,3.1,0,0,0,32,38.1v3.1a3.1,3.1,0,0,0,3.1,3.1H50.59a3.1,3.1,0,0,0,3.1-3.1V38.1A3.1,3.1,0,0,0,50.59,35ZM35.1,41.2V38.1H50.59v3.1Z" transform="translate(17.574 19.222)"/>
          <path id="Shape-12" data-name="Shape" d="M47.943,43H35.549a1.549,1.549,0,1,0,0,3.1H47.943a1.549,1.549,0,0,0,0-3.1Z" transform="translate(18.672 23.615)"/>
        </g>
      </g>
      <rect id="Rect치ngulo_44785" data-name="Rect치ngulo 44785" width="110" height="110" transform="translate(535 2153.992)" fill="none"/>
    </g>
  </g>
</svg>
