<svg xmlns="http://www.w3.org/2000/svg" width="400" height="292" viewBox="0 0 400 292">
  <g id="Grupo_146289" data-name="Grupo 146289" transform="translate(-181 -3645.722)">
    <circle id="Elipse_1340" data-name="Elipse 1340" cx="85" cy="85" r="85" transform="translate(299 3645.722)" fill="#ef9f14"/>
    <path id="Trazado_195533" data-name="Trazado 195533" d="M4.963,0H1.374V-14.93H4.963Zm5.609-11.095.113,1.3A3.815,3.815,0,0,1,13.853-11.3a2.808,2.808,0,0,1,2.84,1.671A3.692,3.692,0,0,1,19.954-11.3q3.374,0,3.466,4.081V0H19.954V-7a2.115,2.115,0,0,0-.287-1.241,1.222,1.222,0,0,0-1.046-.39,1.637,1.637,0,0,0-1.528.913l.01.144V0H13.638V-6.983a2.223,2.223,0,0,0-.277-1.261,1.219,1.219,0,0,0-1.056-.39,1.657,1.657,0,0,0-1.518.913V0H7.332V-11.095ZM35.694-5.465A6.691,6.691,0,0,1,34.53-1.338,3.731,3.731,0,0,1,31.387.205,3.2,3.2,0,0,1,28.875-.913V4.266H25.419v-15.36h3.23l.1,1.025a3.2,3.2,0,0,1,2.615-1.23,3.761,3.761,0,0,1,3.189,1.512,6.773,6.773,0,0,1,1.138,4.158Zm-3.456-.215q0-2.953-1.723-2.953a1.626,1.626,0,0,0-1.641.882v4.368a1.679,1.679,0,0,0,1.661.923q1.651,0,1.7-2.851ZM43.825-1.2a3.563,3.563,0,0,1-2.963,1.4A3.494,3.494,0,0,1,38.1-.856a4.463,4.463,0,0,1-.938-3.051v-7.188h3.456v7.208A1.242,1.242,0,0,0,42-2.461a1.806,1.806,0,0,0,1.692-.851v-7.783h3.476V0h-3.24Zm10.6,1.4A5.7,5.7,0,0,1,50.3-1.318a5.258,5.258,0,0,1-1.579-3.963v-.287a6.814,6.814,0,0,1,.631-3,4.614,4.614,0,0,1,1.841-2.015,5.556,5.556,0,0,1,2.871-.713A4.8,4.8,0,0,1,57.75-9.849,5.7,5.7,0,0,1,59.1-5.8V-4.46h-6.87a2.491,2.491,0,0,0,.81,1.466,2.41,2.41,0,0,0,1.62.533,3.106,3.106,0,0,0,2.563-1.148l1.579,1.866a4.414,4.414,0,0,1-1.83,1.42A6.185,6.185,0,0,1,54.428.205Zm-.39-8.839q-1.518,0-1.8,2.01H55.72v-.267a1.712,1.712,0,0,0-.42-1.287A1.673,1.673,0,0,0,54.038-8.634ZM66.3-3.117a.8.8,0,0,0-.461-.708,7.019,7.019,0,0,0-1.753-.554,8,8,0,0,1-2.133-.754,3.573,3.573,0,0,1-1.282-1.133,2.706,2.706,0,0,1-.441-1.528,3.066,3.066,0,0,1,1.261-2.517,5.2,5.2,0,0,1,3.3-.99,5.756,5.756,0,0,1,3.527.995A3.11,3.11,0,0,1,69.655-7.69H66.189q0-1.333-1.4-1.333a1.393,1.393,0,0,0-.913.3.937.937,0,0,0-.369.754.86.86,0,0,0,.451.749,4.263,4.263,0,0,0,1.441.472,12.45,12.45,0,0,1,1.738.441q2.5.861,2.5,3.086A2.906,2.906,0,0,1,68.286-.749a5.913,5.913,0,0,1-3.491.954,6.034,6.034,0,0,1-2.543-.513A4.252,4.252,0,0,1,60.508-1.7a3.158,3.158,0,0,1-.625-1.856h3.23a1.335,1.335,0,0,0,.513,1.123,2.109,2.109,0,0,0,1.261.354,1.659,1.659,0,0,0,1.061-.287A.918.918,0,0,0,66.3-3.117Zm8.972-10.736v2.758H77.1v2.4H75.274V-3.62a1.3,1.3,0,0,0,.226.872,1.21,1.21,0,0,0,.892.246,5.069,5.069,0,0,0,.861-.062V-.092a6.377,6.377,0,0,1-1.948.3,3.62,3.62,0,0,1-2.635-.841,3.446,3.446,0,0,1-.851-2.553V-8.7H70.4v-2.4h1.415v-2.758Zm2.44,8.2a6.548,6.548,0,0,1,.646-2.958A4.62,4.62,0,0,1,80.216-10.6a5.59,5.59,0,0,1,2.84-.7,5.1,5.1,0,0,1,3.927,1.543,5.922,5.922,0,0,1,1.436,4.2v.123a5.746,5.746,0,0,1-1.441,4.117,5.115,5.115,0,0,1-3.9,1.523,5.173,5.173,0,0,1-3.8-1.42,5.555,5.555,0,0,1-1.548-3.85Zm3.456.215a4.128,4.128,0,0,0,.482,2.256,1.606,1.606,0,0,0,1.425.718q1.846,0,1.887-2.84V-5.65q0-2.984-1.907-2.984-1.733,0-1.876,2.574ZM95.751-3.117a.8.8,0,0,0-.461-.708,7.019,7.019,0,0,0-1.753-.554A8,8,0,0,1,91.4-5.132a3.573,3.573,0,0,1-1.282-1.133,2.706,2.706,0,0,1-.441-1.528,3.066,3.066,0,0,1,1.261-2.517,5.2,5.2,0,0,1,3.3-.99,5.756,5.756,0,0,1,3.527.995A3.11,3.11,0,0,1,99.1-7.69H95.638q0-1.333-1.4-1.333a1.393,1.393,0,0,0-.913.3.937.937,0,0,0-.369.754.86.86,0,0,0,.451.749,4.263,4.263,0,0,0,1.441.472,12.45,12.45,0,0,1,1.738.441q2.5.861,2.5,3.086A2.906,2.906,0,0,1,97.735-.749a5.913,5.913,0,0,1-3.491.954A6.034,6.034,0,0,1,91.7-.308,4.252,4.252,0,0,1,89.958-1.7a3.158,3.158,0,0,1-.625-1.856h3.23a1.335,1.335,0,0,0,.513,1.123,2.109,2.109,0,0,0,1.261.354A1.659,1.659,0,0,0,95.4-2.369.918.918,0,0,0,95.751-3.117Z" transform="translate(333 3737.723)" fill="#fff"/>
    <path id="Trazado_195356" data-name="Trazado 195356" d="M-7159.293-7820.006l60.889-60.889" transform="translate(7419.673 11669.271)" fill="none" stroke="#79dae1" stroke-width="2"/>
    <path id="Trazado_195357" data-name="Trazado 195357" d="M-7096.826-7818.428l-62.468-62.467" transform="translate(7607.855 11667.481)" fill="none" stroke="#79dae1" stroke-width="2"/>
    <circle id="Elipse_1341" data-name="Elipse 1341" cx="63" cy="63" r="63" transform="translate(181 3811.722)" fill="#79dae1"/>
    <path id="Trazado_195534" data-name="Trazado 195534" d="M.859,0V-11.375H4.523a5.39,5.39,0,0,1,2.711.684,4.805,4.805,0,0,1,1.879,1.93A5.826,5.826,0,0,1,9.8-5.969v.523a5.86,5.86,0,0,1-.66,2.8A4.826,4.826,0,0,1,7.277-.707,5.271,5.271,0,0,1,4.6,0ZM3.6-9.258v7.148h.953a2.133,2.133,0,0,0,1.813-.84A4.116,4.116,0,0,0,7-5.445v-.492a4.082,4.082,0,0,0-.633-2.484,2.17,2.17,0,0,0-1.844-.836ZM15.172.156A4.345,4.345,0,0,1,12.023-1a4.006,4.006,0,0,1-1.2-3.02v-.219a5.191,5.191,0,0,1,.48-2.289,3.516,3.516,0,0,1,1.4-1.535,4.233,4.233,0,0,1,2.188-.543A3.659,3.659,0,0,1,17.7-7.5a4.344,4.344,0,0,1,1.031,3.082V-3.4H13.5a1.9,1.9,0,0,0,.617,1.117,1.836,1.836,0,0,0,1.234.406A2.366,2.366,0,0,0,17.3-2.75l1.2,1.422A3.363,3.363,0,0,1,17.113-.246,4.713,4.713,0,0,1,15.172.156Zm-.3-6.734q-1.156,0-1.375,1.531h2.656v-.2a1.3,1.3,0,0,0-.32-.98A1.275,1.275,0,0,0,14.875-6.578ZM27.641-4.164a5.1,5.1,0,0,1-.887,3.145A2.843,2.843,0,0,1,24.359.156,2.437,2.437,0,0,1,22.445-.7V3.25H19.813v-11.7h2.461l.078.781a2.437,2.437,0,0,1,1.992-.937,2.866,2.866,0,0,1,2.43,1.152,5.16,5.16,0,0,1,.867,3.168Zm-2.633-.164q0-2.25-1.312-2.25a1.239,1.239,0,0,0-1.25.672v3.328a1.279,1.279,0,0,0,1.266.7q1.258,0,1.3-2.172ZM33.563,0a2.973,2.973,0,0,1-.25-.758,2.448,2.448,0,0,1-2.031.914A3,3,0,0,1,29.25-.566a2.3,2.3,0,0,1-.836-1.816A2.364,2.364,0,0,1,29.43-4.461a5.174,5.174,0,0,1,2.953-.7H33.2v-.448q0-1.17-1.008-1.17a.824.824,0,0,0-.937.926H28.617a2.36,2.36,0,0,1,1.043-1.99,4.383,4.383,0,0,1,2.66-.765,3.843,3.843,0,0,1,2.555.789,2.743,2.743,0,0,1,.961,2.164v3.742A3.832,3.832,0,0,0,36.2-.133V0ZM31.914-1.719a1.469,1.469,0,0,0,.816-.211,1.322,1.322,0,0,0,.465-.477V-3.758H32.43q-1.375,0-1.375,1.234a.754.754,0,0,0,.242.582A.876.876,0,0,0,31.914-1.719ZM42.406-6.07l-.867-.062a1.558,1.558,0,0,0-1.594.781V0H37.313V-8.453h2.469l.086,1.086a2.039,2.039,0,0,1,1.852-1.242,2.567,2.567,0,0,1,.734.094Zm4.406-4.484v2.1H48.2v1.828H46.813v3.867a.987.987,0,0,0,.172.664.922.922,0,0,0,.68.188,3.862,3.862,0,0,0,.656-.047V-.07a4.859,4.859,0,0,1-1.484.227,2.758,2.758,0,0,1-2.008-.641A2.626,2.626,0,0,1,44.18-2.43v-4.2H43.1V-8.453H44.18v-2.1ZM54,0a2.973,2.973,0,0,1-.25-.758,2.448,2.448,0,0,1-2.031.914,3,3,0,0,1-2.031-.723,2.3,2.3,0,0,1-.836-1.816,2.364,2.364,0,0,1,1.016-2.078,5.174,5.174,0,0,1,2.953-.7h.813v-.448q0-1.17-1.008-1.17a.824.824,0,0,0-.937.926H49.055A2.36,2.36,0,0,1,50.1-7.845a4.383,4.383,0,0,1,2.66-.765,3.843,3.843,0,0,1,2.555.789,2.743,2.743,0,0,1,.961,2.164v3.742a3.832,3.832,0,0,0,.359,1.781V0ZM52.352-1.719a1.469,1.469,0,0,0,.816-.211,1.322,1.322,0,0,0,.465-.477V-3.758h-.766q-1.375,0-1.375,1.234a.754.754,0,0,0,.242.582A.876.876,0,0,0,52.352-1.719Zm7.867-6.734.086.992a2.906,2.906,0,0,1,2.414-1.148,2.14,2.14,0,0,1,2.164,1.273,2.813,2.813,0,0,1,2.484-1.273q2.57,0,2.641,3.109V0H67.367V-5.336a1.611,1.611,0,0,0-.219-.945.931.931,0,0,0-.8-.3,1.247,1.247,0,0,0-1.164.7l.008.109V0H62.555V-5.32a1.694,1.694,0,0,0-.211-.961.929.929,0,0,0-.8-.3,1.263,1.263,0,0,0-1.156.7V0H57.75V-8.453ZM75.6.156A4.345,4.345,0,0,1,72.453-1a4.006,4.006,0,0,1-1.2-3.02v-.219a5.191,5.191,0,0,1,.48-2.289,3.516,3.516,0,0,1,1.4-1.535,4.233,4.233,0,0,1,2.188-.543A3.659,3.659,0,0,1,78.133-7.5a4.344,4.344,0,0,1,1.031,3.082V-3.4H73.93a1.9,1.9,0,0,0,.617,1.117,1.836,1.836,0,0,0,1.234.406,2.366,2.366,0,0,0,1.953-.875l1.2,1.422A3.363,3.363,0,0,1,77.543-.246,4.713,4.713,0,0,1,75.6.156Zm-.3-6.734q-1.156,0-1.375,1.531h2.656v-.2a1.3,1.3,0,0,0-.32-.98A1.275,1.275,0,0,0,75.3-6.578Zm7.336-1.875.086.992a2.867,2.867,0,0,1,2.414-1.148,2.412,2.412,0,0,1,1.973.789,3.757,3.757,0,0,1,.676,2.375V0H85.148V-5.336a1.426,1.426,0,0,0-.258-.941,1.193,1.193,0,0,0-.937-.3,1.256,1.256,0,0,0-1.148.609V0H80.172V-8.453Zm9.672-2.1v2.1H93.7v1.828H92.313v3.867a.987.987,0,0,0,.172.664.922.922,0,0,0,.68.188,3.862,3.862,0,0,0,.656-.047V-.07a4.859,4.859,0,0,1-1.484.227,2.758,2.758,0,0,1-2.008-.641A2.626,2.626,0,0,1,89.68-2.43v-4.2H88.6V-8.453H89.68v-2.1ZM99.5,0a2.973,2.973,0,0,1-.25-.758,2.448,2.448,0,0,1-2.031.914,3,3,0,0,1-2.031-.723,2.3,2.3,0,0,1-.836-1.816,2.364,2.364,0,0,1,1.016-2.078,5.174,5.174,0,0,1,2.953-.7h.813v-.448q0-1.17-1.008-1.17a.824.824,0,0,0-.937.926H94.555A2.36,2.36,0,0,1,95.6-7.845a4.383,4.383,0,0,1,2.66-.765,3.843,3.843,0,0,1,2.555.789,2.743,2.743,0,0,1,.961,2.164v3.742a3.832,3.832,0,0,0,.359,1.781V0ZM97.852-1.719a1.469,1.469,0,0,0,.816-.211,1.322,1.322,0,0,0,.465-.477V-3.758h-.766q-1.375,0-1.375,1.234a.754.754,0,0,0,.242.582A.876.876,0,0,0,97.852-1.719ZM106.008,0h-2.641V-12h2.641Z" transform="translate(190 3879.723)" fill="#12263f"/>
    <circle id="Elipse_1342" data-name="Elipse 1342" cx="63" cy="63" r="63" transform="translate(455 3811.722)" fill="#79dae1"/>
    <path id="Trazado_195535" data-name="Trazado 195535" d="M4.461-11.375,7-3.461l2.531-7.914h3.609V0h-2.75V-2.656l.266-5.437L7.906,0H6.094L3.336-8.1,3.6-2.656V0H.859V-11.375ZM19.8-.914A2.714,2.714,0,0,1,17.539.156a2.662,2.662,0,0,1-2.105-.809,3.4,3.4,0,0,1-.715-2.324V-8.453h2.633v5.492a.946.946,0,0,0,1.055,1.086A1.376,1.376,0,0,0,19.7-2.523v-5.93h2.648V0H19.875ZM26.2-8.453l.086.992A2.867,2.867,0,0,1,28.7-8.609a2.412,2.412,0,0,1,1.973.789,3.757,3.757,0,0,1,.676,2.375V0H28.711V-5.336a1.426,1.426,0,0,0-.258-.941,1.193,1.193,0,0,0-.937-.3,1.256,1.256,0,0,0-1.148.609V0H23.734V-8.453ZM35.586,0H32.945V-8.453h2.641Zm-2.8-10.641a1.186,1.186,0,0,1,.406-.927,1.527,1.527,0,0,1,1.055-.362,1.527,1.527,0,0,1,1.055.362,1.186,1.186,0,0,1,.406.927,1.186,1.186,0,0,1-.406.927,1.527,1.527,0,0,1-1.055.362A1.527,1.527,0,0,1,33.2-9.713,1.186,1.186,0,0,1,32.789-10.641Zm7.992,8.766a1.171,1.171,0,0,0,.859-.3,1.1,1.1,0,0,0,.3-.84h2.469a2.922,2.922,0,0,1-1,2.281,3.705,3.705,0,0,1-2.566.891A3.751,3.751,0,0,1,37.938-1a4.556,4.556,0,0,1-1.062-3.2v-.109a5.149,5.149,0,0,1,.473-2.262,3.441,3.441,0,0,1,1.363-1.508,4.065,4.065,0,0,1,2.109-.527,3.658,3.658,0,0,1,2.617.914,3.242,3.242,0,0,1,.969,2.477H41.938a1.445,1.445,0,0,0-.32-1.008,1.106,1.106,0,0,0-.859-.352q-1.023,0-1.2,1.3a9.206,9.206,0,0,0-.055,1.141,3.616,3.616,0,0,0,.3,1.766A1.055,1.055,0,0,0,40.781-1.875ZM48.3,0H45.656V-8.453H48.3ZM45.5-10.641a1.186,1.186,0,0,1,.406-.927,1.527,1.527,0,0,1,1.055-.362,1.527,1.527,0,0,1,1.055.362,1.186,1.186,0,0,1,.406.927,1.186,1.186,0,0,1-.406.927,1.527,1.527,0,0,1-1.055.362,1.527,1.527,0,0,1-1.055-.362A1.186,1.186,0,0,1,45.5-10.641ZM57.766-4.164a5.1,5.1,0,0,1-.887,3.145A2.843,2.843,0,0,1,54.484.156,2.437,2.437,0,0,1,52.57-.7V3.25H49.938v-11.7H52.4l.078.781a2.437,2.437,0,0,1,1.992-.937A2.866,2.866,0,0,1,56.9-7.457a5.16,5.16,0,0,1,.867,3.168Zm-2.633-.164q0-2.25-1.312-2.25a1.239,1.239,0,0,0-1.25.672v3.328a1.279,1.279,0,0,0,1.266.7q1.258,0,1.3-2.172ZM63.688,0a2.973,2.973,0,0,1-.25-.758,2.448,2.448,0,0,1-2.031.914,3,3,0,0,1-2.031-.723,2.3,2.3,0,0,1-.836-1.816,2.364,2.364,0,0,1,1.016-2.078,5.174,5.174,0,0,1,2.953-.7h.813v-.448q0-1.17-1.008-1.17a.824.824,0,0,0-.937.926H58.742a2.36,2.36,0,0,1,1.043-1.99,4.383,4.383,0,0,1,2.66-.765A3.843,3.843,0,0,1,65-7.82a2.743,2.743,0,0,1,.961,2.164v3.742A3.832,3.832,0,0,0,66.32-.133V0ZM62.039-1.719a1.469,1.469,0,0,0,.816-.211,1.322,1.322,0,0,0,.465-.477V-3.758h-.766q-1.375,0-1.375,1.234a.754.754,0,0,0,.242.582A.876.876,0,0,0,62.039-1.719ZM70.2,0H67.555V-12H70.2Z" transform="translate(485 3879.723)" fill="#12263f"/>
  </g>
</svg>
