<svg xmlns="http://www.w3.org/2000/svg" width="71" height="71" viewBox="0 0 71 71">
  <g id="Grupo_146299" data-name="Grupo 146299" transform="translate(-558 -5147)">
    <rect id="Rectángulo_44671" data-name="Rectángulo 44671" width="71" height="71" transform="translate(558 5147)" fill="none"/>
    <g id="documentos" transform="translate(536.5 5153.351)">
      <g id="Grupo_146297" data-name="Grupo 146297" transform="translate(31.354 0.854)">
        <path id="Trazado_195361" data-name="Trazado 195361" d="M163.569,92.5h34.273a.569.569,0,0,1,.569.569v45.773a.569.569,0,0,1-.569.569H163.569a.569.569,0,0,1-.569-.569V93.069A.569.569,0,0,1,163.569,92.5Z" transform="translate(-148.767 -82.822)" fill="#79dae1"/>
        <path id="Trazado_195363" data-name="Trazado 195363" d="M155.342,50H121.069a.569.569,0,0,0-.569.569V96.343a.569.569,0,0,0,.569.569h34.273a.569.569,0,0,0,.569-.569V50.569A.569.569,0,0,0,155.342,50Z" transform="translate(-111.106 -45.161)" fill="#d9fcff"/>
        <path id="Trazado_195365" data-name="Trazado 195365" d="M77.966,8.069V53.843a.57.57,0,0,1-.569.569h-33.7A5.694,5.694,0,0,1,38,48.719v-1.48a.57.57,0,0,1,.569-.569H42a.568.568,0,0,0,.55-.568V8.069a.57.57,0,0,1,.569-.569H77.4A.57.57,0,0,1,77.966,8.069Z" transform="translate(-38 -7.5)" fill="#d9fcff"/>
        <path id="Trazado_195366" data-name="Trazado 195366" d="M123.362,67.431h-9.792a.569.569,0,0,1-.569-.569V57.069a.569.569,0,0,1,.569-.569h9.792a.569.569,0,0,1,.569.569v9.792A.569.569,0,0,1,123.362,67.431Z" transform="translate(-104.46 -50.921)" fill="#faa515"/>
        <g id="Grupo_146296" data-name="Grupo 146296" transform="translate(0 6.206)">
          <path id="Trazado_195367" data-name="Trazado 195367" d="M249.879,133.708H237.354a.854.854,0,0,1,0-1.708h12.525a.854.854,0,0,1,0,1.708Z" transform="translate(-213.898 -124.03)" fill="#ef9f14"/>
          <path id="Trazado_195368" data-name="Trazado 195368" d="M183.993,201.708H171.354a.854.854,0,0,1,0-1.708h12.639a.854.854,0,1,1,0,1.708Z" transform="translate(-155.413 -184.287)" fill="#ef9f14"/>
          <path id="Trazado_195369" data-name="Trazado 195369" d="M249.879,98.708H237.354a.854.854,0,1,1,0-1.708h12.525a.854.854,0,0,1,0,1.708Z" transform="translate(-213.898 -93.015)" fill="#ef9f14"/>
          <path id="Trazado_195370" data-name="Trazado 195370" d="M249.879,63.708H237.354a.854.854,0,1,1,0-1.708h12.525a.854.854,0,0,1,0,1.708Z" transform="translate(-213.898 -62)" fill="#ef9f14"/>
          <path id="Trazado_195371" data-name="Trazado 195371" d="M133.8,290.708H106.354a.854.854,0,1,1,0-1.708H133.8a.854.854,0,0,1,0,1.708Z" transform="translate(-97.814 -263.153)" fill="#ef9f14"/>
          <path id="Trazado_195372" data-name="Trazado 195372" d="M231.27,245.708H216.354a.854.854,0,0,1,0-1.708H231.27a.854.854,0,0,1,0,1.708Z" transform="translate(-195.289 -223.277)" fill="#ef9f14"/>
          <path id="Trazado_195373" data-name="Trazado 195373" d="M114.451,245.708h-8.6a.854.854,0,1,1,0-1.708h8.6a.854.854,0,1,1,0,1.708Z" transform="translate(-97.371 -223.277)" fill="#ef9f14"/>
          <path id="Trazado_195374" data-name="Trazado 195374" d="M72.362,359.234H43.693A5.693,5.693,0,0,1,38,353.541v-1.48a.569.569,0,0,1,.569-.569H66.156a.569.569,0,0,1,.569.569v1.481A5.694,5.694,0,0,0,72.362,359.234Z" transform="translate(-38 -318.527)" fill="#ef9f14"/>
        </g>
      </g>
      <g id="Grupo_146298" data-name="Grupo 146298" transform="translate(30.5)">
        <path id="Trazado_195375" data-name="Trazado 195375" d="M81,9.678H77.014V5.693a.854.854,0,0,0-.854-.854H72.174V.854A.854.854,0,0,0,71.32,0H35.909a.854.854,0,0,0-.854.854V39.169h-3.7a.854.854,0,0,0-.854.854v2.05a6.555,6.555,0,0,0,6.547,6.547h2.847v3.985a.854.854,0,0,0,.854.854h3.985v3.985a.854.854,0,0,0,.854.854H62.724a.854.854,0,0,0,0-1.708H46.441V53.459H76.16a.854.854,0,0,0,.854-.854V39.169a.854.854,0,1,0-1.708,0V51.751H41.6V48.62H71.32a.854.854,0,0,0,.854-.854V6.547h3.131V35.3a.854.854,0,1,0,1.708,0V11.386h3.131v45.2H66.595a.854.854,0,1,0,0,1.708H81a.854.854,0,0,0,.854-.854V10.532A.854.854,0,0,0,81,9.678ZM70.466,46.912H65.741A4.845,4.845,0,0,1,60.9,42.073v-2.05a.854.854,0,0,0-.854-.854H54.127a.854.854,0,1,0,0,1.708h5.067v1.2a6.532,6.532,0,0,0,2.142,4.839H37.047a4.845,4.845,0,0,1-4.839-4.839v-1.2H50.142a.854.854,0,1,0,0-1.708H36.763V1.708h33.7Z" transform="translate(-30.5)" fill="#104469"/>
        <path id="Trazado_195376" data-name="Trazado 195376" d="M106.354,61.639h10.931a.854.854,0,0,0,.854-.854V49.854a.854.854,0,0,0-.854-.854H106.354a.854.854,0,0,0-.854.854V60.785A.854.854,0,0,0,106.354,61.639Zm.854-10.931h9.223v9.223h-9.223Z" transform="translate(-96.96 -43.421)" fill="#104469"/>
        <path id="Trazado_195377" data-name="Trazado 195377" d="M249.879,132H237.354a.854.854,0,0,0,0,1.708h12.525a.854.854,0,0,0,0-1.708Z" transform="translate(-213.044 -116.97)" fill="#104469"/>
        <path id="Trazado_195378" data-name="Trazado 195378" d="M170.5,200.854a.854.854,0,0,0,.854.854h12.639a.854.854,0,1,0,0-1.708H171.354A.854.854,0,0,0,170.5,200.854Z" transform="translate(-154.559 -177.227)" fill="#104469"/>
        <path id="Trazado_195379" data-name="Trazado 195379" d="M249.879,97H237.354a.854.854,0,1,0,0,1.708h12.525a.854.854,0,0,0,0-1.708Z" transform="translate(-213.044 -85.955)" fill="#104469"/>
        <path id="Trazado_195380" data-name="Trazado 195380" d="M249.879,62H237.354a.854.854,0,1,0,0,1.708h12.525a.854.854,0,0,0,0-1.708Z" transform="translate(-213.044 -54.94)" fill="#104469"/>
        <path id="Trazado_195381" data-name="Trazado 195381" d="M133.8,289H106.354a.854.854,0,1,0,0,1.708H133.8a.854.854,0,0,0,0-1.708Z" transform="translate(-96.96 -256.093)" fill="#104469"/>
        <path id="Trazado_195382" data-name="Trazado 195382" d="M231.27,244H216.354a.854.854,0,0,0,0,1.708H231.27a.854.854,0,0,0,0-1.708Z" transform="translate(-194.435 -216.217)" fill="#104469"/>
        <path id="Trazado_195383" data-name="Trazado 195383" d="M105.854,245.708h8.6a.854.854,0,1,0,0-1.708h-8.6a.854.854,0,1,0,0,1.708Z" transform="translate(-96.517 -216.217)" fill="#104469"/>
      </g>
    </g>
  </g>
</svg>
