<svg xmlns="http://www.w3.org/2000/svg" width="71" height="71" viewBox="0 0 71 71">
  <g id="Grupo_146302" data-name="Grupo 146302" transform="translate(-975 -5147)">
    <g id="Grupo_146301" data-name="Grupo 146301" transform="translate(-3.582 -3.582)">
      <g id="teneduria-de-libros" transform="translate(986 5156.423)">
        <path id="Trazado_195384" data-name="Trazado 195384" d="M47.867,55.67H3V3H47.867Z" transform="translate(-2.025 -2.025)" fill="#d9fcff"/>
        <path id="Trazado_195385" data-name="Trazado 195385" d="M7,8H44.064v5.852H7Z" transform="translate(-2.123 -2.148)" fill="#ef9f14"/>
        <path id="Trazado_195386" data-name="Trazado 195386" d="M16,14H29.655v3.9H16Z" transform="translate(-2.345 -2.296)" fill="#a6e0ea"/>
        <path id="Trazado_195387" data-name="Trazado 195387" d="M30,18H44.631v3.9H30Z" transform="translate(-2.69 -2.394)" fill="#9adce7"/>
        <path id="Trazado_195388" data-name="Trazado 195388" d="M7,22H44.064v3.9H7Z" transform="translate(-2.123 -2.493)" fill="#b4e6ee"/>
        <path id="Trazado_195389" data-name="Trazado 195389" d="M7,14h8.778v3.9H7Z" transform="translate(-2.123 -2.296)" fill="#b4e6ee"/>
        <path id="Trazado_195390" data-name="Trazado 195390" d="M7,18h8.778v3.9H7Z" transform="translate(-2.123 -2.394)" fill="#9adce7"/>
        <path id="Trazado_195391" data-name="Trazado 195391" d="M16,18H29.655v3.9H16Z" transform="translate(-2.345 -2.394)" fill="#b4e6ee"/>
        <path id="Trazado_195392" data-name="Trazado 195392" d="M16,22H29.655v3.9H16Z" transform="translate(-2.345 -2.493)" fill="#a6e0ea"/>
        <path id="Trazado_195393" data-name="Trazado 195393" d="M30,14H44.631v3.9H30Z" transform="translate(-2.69 -2.296)" fill="#b4e6ee"/>
        <ellipse id="Elipse_1344" data-name="Elipse 1344" cx="10.099" cy="9.538" rx="10.099" ry="9.538" transform="translate(5.611 28.225)" fill="#ef9f14"/>
        <rect id="Rect치ngulo_44790" data-name="Rect치ngulo 44790" width="26.931" height="33.663" rx="2" transform="translate(30.297 23.737)" fill="#d9fcff"/>
        <g id="Grupo_146300" data-name="Grupo 146300" transform="translate(34.138 27.31)">
          <path id="Trazado_195394" data-name="Trazado 195394" d="M37,30H56.507v4.877H37Z" transform="translate(-37 -30)" fill="#bce8fe"/>
          <path id="Trazado_195395" data-name="Trazado 195395" d="M37,39h3.9v3.9H37Z" transform="translate(-37 -30.222)" fill="#bce8fe"/>
          <path id="Trazado_195396" data-name="Trazado 195396" d="M37,46h3.9v3.9H37Z" transform="translate(-37 -30.394)" fill="#bce8fe"/>
          <path id="Trazado_195397" data-name="Trazado 195397" d="M37,53h3.9v3.9H37Z" transform="translate(-37 -30.566)" fill="#bce8fe"/>
          <path id="Trazado_195398" data-name="Trazado 195398" d="M45,39h3.9v3.9H45Z" transform="translate(-37.197 -30.222)" fill="#bce8fe"/>
          <path id="Trazado_195399" data-name="Trazado 195399" d="M45,46h3.9v3.9H45Z" transform="translate(-37.197 -30.394)" fill="#bce8fe"/>
          <path id="Trazado_195400" data-name="Trazado 195400" d="M45,53h3.9v3.9H45Z" transform="translate(-37.197 -30.566)" fill="#bce8fe"/>
          <path id="Trazado_195401" data-name="Trazado 195401" d="M53,39h3.9v3.9H53Z" transform="translate(-37.394 -30.222)" fill="#bce8fe"/>
        </g>
        <path id="Trazado_195402" data-name="Trazado 195402" d="M53,46h3.9V56.729H53Z" transform="translate(-3.256 -3.084)" fill="#ef9f14"/>
        <path id="Trazado_195403" data-name="Trazado 195403" d="M17.729,30A10.729,10.729,0,1,0,28.458,40.729,10.729,10.729,0,0,0,17.729,30Zm0,19.507a8.778,8.778,0,1,1,8.778-8.778A8.778,8.778,0,0,1,17.729,49.507Z" transform="translate(-2.123 -2.69)" fill="#104469"/>
        <path id="Trazado_195404" data-name="Trazado 195404" d="M57.6,24.434H48.818V2.975A.975.975,0,0,0,47.843,2H2.975A.975.975,0,0,0,2,2.975v52.67a.975.975,0,0,0,.975.975H31.261V57.6a2.935,2.935,0,0,0,2.926,2.926H57.6A2.935,2.935,0,0,0,60.522,57.6V27.36A2.935,2.935,0,0,0,57.6,24.434ZM31.261,27.36V54.67H3.951V3.951H46.867V24.434H44.916V7.852a.975.975,0,0,0-.975-.975H6.877a.975.975,0,0,0-.975.975V25.409a.975.975,0,0,0,.975.975h24.56a2.926,2.926,0,0,0-.176.975Zm-.975-10.729V14.68h12.68v1.951Zm12.68,1.951v1.951H30.286V18.581Zm-12.68-5.852v-3.9h12.68v3.9Zm-13.655,7.8V18.581h11.7v1.951Zm11.7,1.951v1.951h-11.7V22.483Zm-11.7-5.852V14.68h11.7v1.951Zm0-3.9v-3.9h11.7v3.9Zm-8.778,7.8V18.581H14.68v1.951Zm6.828,1.951v1.951H7.852V22.483ZM7.852,16.631V14.68H14.68v1.951Zm0-3.9v-3.9H14.68v3.9Zm22.434,11.7V22.483h12.68v1.951ZM58.572,57.6a.975.975,0,0,1-.975.975H34.187a.975.975,0,0,1-.975-.975V27.36a.975.975,0,0,1,.975-.975H57.6a.975.975,0,0,1,.975.975Z" transform="translate(-2 -2)" fill="#104469"/>
        <path id="Trazado_195405" data-name="Trazado 195405" d="M19.828,39.852h-.975V37.9h.975a.975.975,0,0,1,.975.975h1.951a2.935,2.935,0,0,0-2.926-2.926h-.975V34H16.9v1.951h-.975a2.926,2.926,0,0,0,0,5.852H16.9v1.951h-.975a.975.975,0,0,1-.975-.975H13A2.935,2.935,0,0,0,15.926,45.7H16.9v1.951h1.951V45.7h.975a2.926,2.926,0,1,0,0-5.852Zm-2.926,0h-.975a.975.975,0,1,1,0-1.951H16.9Zm2.926,3.9h-.975V41.8h.975a.975.975,0,1,1,0,1.951Z" transform="translate(-2.271 -2.788)" fill="#104469"/>
        <path id="Trazado_195406" data-name="Trazado 195406" d="M56.483,29H36.975a.975.975,0,0,0-.975.975v4.877a.975.975,0,0,0,.975.975H56.483a.975.975,0,0,0,.975-.975V29.975A.975.975,0,0,0,56.483,29Zm-.975,4.877H37.951V30.951H55.507Z" transform="translate(-2.837 -2.665)" fill="#104469"/>
        <path id="Trazado_195407" data-name="Trazado 195407" d="M40.877,38h-3.9a.975.975,0,0,0-.975.975v3.9a.975.975,0,0,0,.975.975h3.9a.975.975,0,0,0,.975-.975v-3.9A.975.975,0,0,0,40.877,38ZM39.9,41.9H37.951V39.951H39.9Z" transform="translate(-2.837 -2.887)" fill="#104469"/>
        <path id="Trazado_195408" data-name="Trazado 195408" d="M40.877,45h-3.9a.975.975,0,0,0-.975.975v3.9a.975.975,0,0,0,.975.975h3.9a.975.975,0,0,0,.975-.975v-3.9A.975.975,0,0,0,40.877,45ZM39.9,48.9H37.951V46.951H39.9Z" transform="translate(-2.837 -3.059)" fill="#104469"/>
        <path id="Trazado_195409" data-name="Trazado 195409" d="M40.877,52h-3.9a.975.975,0,0,0-.975.975v3.9a.975.975,0,0,0,.975.975h3.9a.975.975,0,0,0,.975-.975v-3.9A.975.975,0,0,0,40.877,52ZM39.9,55.9H37.951V53.951H39.9Z" transform="translate(-2.837 -3.231)" fill="#104469"/>
        <path id="Trazado_195410" data-name="Trazado 195410" d="M48.877,38h-3.9a.975.975,0,0,0-.975.975v3.9a.975.975,0,0,0,.975.975h3.9a.975.975,0,0,0,.975-.975v-3.9A.975.975,0,0,0,48.877,38ZM47.9,41.9H45.951V39.951H47.9Z" transform="translate(-3.034 -2.887)" fill="#104469"/>
        <path id="Trazado_195411" data-name="Trazado 195411" d="M48.877,45h-3.9a.975.975,0,0,0-.975.975v3.9a.975.975,0,0,0,.975.975h3.9a.975.975,0,0,0,.975-.975v-3.9A.975.975,0,0,0,48.877,45ZM47.9,48.9H45.951V46.951H47.9Z" transform="translate(-3.034 -3.059)" fill="#104469"/>
        <path id="Trazado_195412" data-name="Trazado 195412" d="M48.877,52h-3.9a.975.975,0,0,0-.975.975v3.9a.975.975,0,0,0,.975.975h3.9a.975.975,0,0,0,.975-.975v-3.9A.975.975,0,0,0,48.877,52ZM47.9,55.9H45.951V53.951H47.9Z" transform="translate(-3.034 -3.231)" fill="#104469"/>
        <path id="Trazado_195413" data-name="Trazado 195413" d="M56.877,38h-3.9a.975.975,0,0,0-.975.975v3.9a.975.975,0,0,0,.975.975h3.9a.975.975,0,0,0,.975-.975v-3.9A.975.975,0,0,0,56.877,38ZM55.9,41.9H53.951V39.951H55.9Z" transform="translate(-3.231 -2.887)" fill="#104469"/>
        <path id="Trazado_195414" data-name="Trazado 195414" d="M56.877,45h-3.9a.975.975,0,0,0-.975.975V56.7a.975.975,0,0,0,.975.975h3.9a.975.975,0,0,0,.975-.975V45.975A.975.975,0,0,0,56.877,45ZM55.9,55.729H53.951V46.951H55.9Z" transform="translate(-3.231 -3.059)" fill="#104469"/>
      </g>
    </g>
    <rect id="Rect치ngulo_44671" data-name="Rect치ngulo 44671" width="71" height="71" transform="translate(975 5147)" fill="none"/>
  </g>
</svg>
