<svg xmlns="http://www.w3.org/2000/svg" width="190" height="146" viewBox="0 0 190 146">
  <g id="Grupo_146358" data-name="Grupo 146358" transform="translate(-1125 -575)">
    <rect id="Rectángulo_44822" data-name="Rectángulo 44822" width="190" height="146" transform="translate(1125 575)" fill="#fff"/>
    <g id="proteger" transform="translate(1148.416 595)">
      <path id="Trazado_195487" data-name="Trazado 195487" d="M83.084,107.227,78.5,109.638a2.52,2.52,0,0,1-2.345,0l-4.587-2.411C46.38,93.989,30.871,69.562,30.871,43.13V26.985a2.506,2.506,0,0,1,2.223-2.5c8.681-.916,15.583-7.131,16.683-14.991a2.535,2.535,0,0,1,2.5-2.2h50.1a2.535,2.535,0,0,1,2.5,2.2c1.1,7.86,8,14.075,16.683,14.991a2.506,2.506,0,0,1,2.223,2.5V43.13C123.779,69.562,108.27,93.989,83.084,107.227Z" transform="translate(-5.783 -5.783)" fill="#d9fcff"/>
      <path id="Trazado_195488" data-name="Trazado 195488" d="M297.518,24.482c-8.681-.916-15.583-7.131-16.683-14.991a2.535,2.535,0,0,0-2.5-2.2h-3.411c.491,10.9,8.256,18.626,16.658,19.512a2.506,2.506,0,0,1,2.223,2.5V45.446c0,26.431-15.509,50.859-40.695,64.1l-.529.278a2.516,2.516,0,0,0,1.878-.184l4.587-2.411c25.186-13.238,40.695-37.665,40.695-64.1V26.984A2.507,2.507,0,0,0,297.518,24.482Z" transform="translate(-181.745 -5.783)" fill="#d9fcff"/>
      <path id="Trazado_195489" data-name="Trazado 195489" d="M104.032,127.538A72.162,72.162,0,0,1,76.56,102.589a62.517,62.517,0,0,1-9.9-33.513V59.912A3.235,3.235,0,0,1,68.7,56.9,28.4,28.4,0,0,0,83.973,42.866a3.228,3.228,0,0,1,2.919-1.83h37.679a3.228,3.228,0,0,1,2.919,1.83A28.4,28.4,0,0,0,142.762,56.9a3.236,3.236,0,0,1,2.038,3.011v9.164a62.517,62.517,0,0,1-9.9,33.513,72.164,72.164,0,0,1-27.472,24.949l-.19.1a3.245,3.245,0,0,1-3.02,0Z" transform="translate(-34.191 -32.569)" fill="#79dae1"/>
      <path id="Trazado_195490" data-name="Trazado 195490" d="M293.031,56.9l-.159-.065-.264-.108q-.225-.093-.448-.19l-.257-.112q-.238-.106-.474-.216l-.214-.1q-.339-.161-.674-.33l-.05-.026q-.309-.157-.614-.321l-.215-.118c-.148-.081-.295-.163-.441-.246l-.242-.14q-.207-.121-.411-.245l-.237-.145c-.143-.088-.284-.178-.424-.268l-.206-.132q-.288-.189-.572-.384l-.042-.029q-.3-.21-.6-.428c-.062-.045-.123-.092-.185-.137q-.2-.152-.407-.307l-.215-.168q-.186-.146-.37-.3l-.213-.174q-.188-.156-.373-.315l-.19-.163q-.229-.2-.453-.4l-.093-.084q-.269-.247-.531-.5l-.15-.148q-.186-.183-.37-.369l-.185-.191q-.164-.17-.324-.342l-.187-.2q-.161-.176-.318-.355l-.17-.193c-.123-.142-.244-.286-.364-.43l-.105-.125q-.231-.28-.453-.567l-.112-.148q-.165-.215-.326-.432c-.051-.07-.1-.14-.152-.21q-.138-.191-.273-.385l-.156-.226q-.132-.194-.261-.391c-.048-.073-.1-.145-.143-.219-.1-.149-.189-.3-.282-.45-.034-.055-.069-.11-.1-.166q-.187-.309-.366-.623c-.025-.044-.049-.089-.074-.134q-.14-.249-.275-.5c-.04-.074-.078-.149-.117-.224q-.11-.211-.217-.425-.061-.122-.12-.245c-.03-.062-.062-.124-.091-.186a3.228,3.228,0,0,0-2.919-1.83H256V128.01a3.243,3.243,0,0,0,1.51-.373l.19-.1a72.162,72.162,0,0,0,27.472-24.949,62.517,62.517,0,0,0,9.9-33.513V59.911A3.235,3.235,0,0,0,293.031,56.9Z" transform="translate(-184.459 -32.568)" fill="#d9fcff"/>
      <path id="Trazado_195492" data-name="Trazado 195492" d="M194.819,217.236H160.492a3.278,3.278,0,0,1-3.278-3.278V192.43a3.278,3.278,0,0,1,3.278-3.278h34.327a3.278,3.278,0,0,1,3.278,3.278v21.528A3.278,3.278,0,0,1,194.819,217.236Z" transform="translate(-106.056 -150.122)" fill="#ef9f14"/>
      <path id="Trazado_195494" data-name="Trazado 195494" d="M241.232,238.958v4.281a1.5,1.5,0,0,0,3.007,0v-4.281a3.521,3.521,0,1,0-3.007,0Z" transform="translate(-171.136 -184.331)" fill="#104469"/>
      <path id="Trazado_195495" data-name="Trazado 195495" d="M97.551,123.086h0l.19.1a4.748,4.748,0,0,0,4.418,0l.19-.1a73.668,73.668,0,0,0,28.042-25.474,64.019,64.019,0,0,0,10.13-34.319V54.129a4.712,4.712,0,0,0-2.989-4.409,26.736,26.736,0,0,1-14.466-13.283,4.752,4.752,0,0,0-4.277-2.688H81.111a4.751,4.751,0,0,0-4.277,2.688A26.736,26.736,0,0,1,62.368,49.72a4.712,4.712,0,0,0-2.989,4.409v9.164A64.016,64.016,0,0,0,69.51,97.612,73.666,73.666,0,0,0,97.551,123.086ZM62.386,63.293V54.129a1.721,1.721,0,0,1,1.088-1.613A29.731,29.731,0,0,0,79.549,37.729a1.73,1.73,0,0,1,1.562-.972H118.79a1.73,1.73,0,0,1,1.562.972,29.734,29.734,0,0,0,16.076,14.788,1.721,1.721,0,0,1,1.088,1.613v9.164A61.017,61.017,0,0,1,127.853,96a70.661,70.661,0,0,1-26.9,24.424l-.19.1a1.741,1.741,0,0,1-1.621,0l-.19-.1A70.66,70.66,0,0,1,72.048,96,61.016,61.016,0,0,1,62.386,63.293Z" transform="translate(-28.409 -26.785)" fill="#104469"/>
      <path id="Trazado_195496" data-name="Trazado 195496" d="M122.991,245.609a1.5,1.5,0,0,0-1.8,1.135c-4.579,20.258-18.525,37.827-38.263,48.2l-4.587,2.411a1.017,1.017,0,0,1-.946,0l-4.587-2.411c-19.769-10.391-33.722-27.99-38.282-48.284a1.5,1.5,0,0,0-2.934.659c4.753,21.157,19.266,39.485,39.817,50.287L76,300.018a4.023,4.023,0,0,0,3.744,0l4.587-2.411c20.519-10.785,35.024-29.082,39.8-50.2A1.5,1.5,0,0,0,122.991,245.609Z" transform="translate(-6.328 -194.833)" fill="#104469"/>
      <path id="Trazado_195497" data-name="Trazado 195497" d="M115.931,17.2c-8.029-.847-14.341-6.482-15.352-13.7A4.061,4.061,0,0,0,96.59,0h-50.1A4.061,4.061,0,0,0,42.5,3.5c-1.011,7.222-7.324,12.857-15.352,13.7a4,4,0,0,0-3.568,4V37.347a69.21,69.21,0,0,0,.361,7.05,1.5,1.5,0,0,0,1.494,1.35,1.522,1.522,0,0,0,.156-.008,1.5,1.5,0,0,0,1.342-1.649,66.211,66.211,0,0,1-.346-6.743V21.2a1.009,1.009,0,0,1,.877-1.007c9.4-.992,16.812-7.686,18.015-16.278a1.028,1.028,0,0,1,1.011-.91h50.1a1.028,1.028,0,0,1,1.011.91c1.2,8.592,8.61,15.285,18.014,16.278a1.009,1.009,0,0,1,.877,1.007V37.347a66.234,66.234,0,0,1-.338,6.673,1.5,1.5,0,0,0,2.992.3,69.224,69.224,0,0,0,.354-6.977V21.2A4,4,0,0,0,115.931,17.2Z" transform="translate(0)" fill="#104469"/>
      <path id="Trazado_195498" data-name="Trazado 195498" d="M189.036,128.844a4.787,4.787,0,0,0,4.782-4.782V102.535a4.787,4.787,0,0,0-4.782-4.782h-2.472V90.576a14.691,14.691,0,0,0-29.383,0v7.177h-2.472a4.787,4.787,0,0,0-4.782,4.782v21.528a4.787,4.787,0,0,0,4.782,4.782ZM160.188,90.576a11.684,11.684,0,0,1,23.369,0v7.177H160.188Zm-7.254,33.486V102.535a1.777,1.777,0,0,1,1.775-1.775h34.327a1.777,1.777,0,0,1,1.775,1.775v21.528a1.777,1.777,0,0,1-1.775,1.775H154.709A1.777,1.777,0,0,1,152.934,124.063Z" transform="translate(-100.273 -60.227)" fill="#104469"/>
    </g>
  </g>
</svg>
