<svg xmlns="http://www.w3.org/2000/svg" width="76.181" height="76.202" viewBox="0 0 76.181 76.202">
  <g id="factura" transform="translate(-4.062 -3.989)">
    <path id="Trazado_195709" data-name="Trazado 195709" d="M18.154,50.522H16.642A6.035,6.035,0,0,0,10.6,56.553V77.661H24.2V56.553a6.035,6.035,0,0,0-6.043-6.031Z" transform="translate(-5.565 -39.608)" fill="#79dae1"/>
    <path id="Trazado_195710" data-name="Trazado 195710" d="M120.245,50.522H102.9l-.01.008H61.313a6.034,6.034,0,0,1,6.051,6.023v61.817l8.819-6.039L85,118.369l8.819-6.039,8.8,6.039,8.8-6.039,8.819,6.039V70.22h0l0-.008Z" transform="translate(-48.73 -39.608)" fill="#d9fcff"/>
    <path id="Trazado_195711" data-name="Trazado 195711" d="M172.6,121.437h17.056v7.539H172.6Z" transform="translate(-143.455 -99.969)" fill="#79dae1"/>
    <path id="Trazado_195712" data-name="Trazado 195712" d="M352.454,23.569a13.569,13.569,0,1,1-3.984-9.6A13.6,13.6,0,0,1,352.454,23.569Z" transform="translate(-273.392 -5.116)" fill="#ef9f14"/>
    <g id="Grupo_146459" data-name="Grupo 146459" transform="translate(4.062 3.989)">
      <path id="Trazado_195713" data-name="Trazado 195713" d="M80.243,18.713A14.719,14.719,0,0,0,53.629,10.04H11.247a7.193,7.193,0,0,0-7.185,7.184V38.331a1.154,1.154,0,0,0,1.154,1.154H17.63V79.036a1.156,1.156,0,0,0,1.806.952L27.589,74.4l8.151,5.584a1.154,1.154,0,0,0,1.305,0l8.137-5.583,8.137,5.583a1.154,1.154,0,0,0,1.305,0l8.135-5.583L70.9,79.988a1.156,1.156,0,0,0,1.808-.952V31.569a14.727,14.727,0,0,0,7.538-12.856ZM6.371,37.176V17.224a4.883,4.883,0,0,1,4.877-4.876h1.506a4.883,4.883,0,0,1,4.877,4.876V37.176ZM70.4,76.844l-6.983-4.79a1.155,1.155,0,0,0-1.306,0l-8.136,5.582-8.137-5.582a1.155,1.155,0,0,0-1.3,0l-8.137,5.583-8.151-5.584a1.16,1.16,0,0,0-1.3,0l-7,4.794c0-.016-.005-59.649-.005-59.672a7.249,7.249,0,0,0-1.908-4.822H52.246a15.22,15.22,0,0,0-1.466,6.383A14.759,14.759,0,0,0,70.4,32.622ZM65.958,31.119a12.4,12.4,0,1,1-.44-24.8h.069a12.4,12.4,0,1,1,.371,24.8Z" transform="translate(-4.062 -3.989)" fill="#104469"/>
      <path id="Trazado_195714" data-name="Trazado 195714" d="M167.311,125.4h16.582a1.154,1.154,0,0,0,1.154-1.154V116.7a1.154,1.154,0,0,0-1.154-1.154H167.311a1.154,1.154,0,0,0-1.154,1.154v7.541A1.154,1.154,0,0,0,167.311,125.4Zm1.154-7.541h14.273v5.232H168.465Z" transform="translate(-142.033 -98.947)" fill="#104469"/>
      <path id="Trazado_195715" data-name="Trazado 195715" d="M199.192,230.721H167.068a1.154,1.154,0,1,0,0,2.309h32.124a1.154,1.154,0,1,0,0-2.309Z" transform="translate(-141.826 -196.977)" fill="#104469"/>
      <path id="Trazado_195716" data-name="Trazado 195716" d="M199.192,284.678H167.068a1.154,1.154,0,1,0,0,2.309h32.124a1.154,1.154,0,1,0,0-2.309Z" transform="translate(-141.826 -242.903)" fill="#104469"/>
      <path id="Trazado_195717" data-name="Trazado 195717" d="M199.192,338.626H167.068a1.154,1.154,0,1,0,0,2.309h32.124a1.154,1.154,0,1,0,0-2.309Z" transform="translate(-141.826 -288.822)" fill="#104469"/>
      <path id="Trazado_195718" data-name="Trazado 195718" d="M199.192,392.582H167.068a1.154,1.154,0,1,0,0,2.309h32.124a1.154,1.154,0,1,0,0-2.309Z" transform="translate(-141.826 -334.748)" fill="#104469"/>
      <path id="Trazado_195719" data-name="Trazado 195719" d="M389.371,45.429l2.318-.009a1.165,1.165,0,0,1,1.164,1.164,1.154,1.154,0,1,0,2.309,0,3.477,3.477,0,0,0-3.472-3.472h0V41.947a1.154,1.154,0,1,0-2.309,0V43.12h0a3.476,3.476,0,0,0-3.472,3.472v1.154a3.475,3.475,0,0,0,3.472,3.471h2.318a1.165,1.165,0,0,1,1.164,1.164v1.154a1.164,1.164,0,0,1-1.164,1.164h-2.313a1.165,1.165,0,0,1-1.164-1.164,1.154,1.154,0,1,0-2.309,0,3.477,3.477,0,0,0,3.472,3.472v1.162a1.154,1.154,0,1,0,2.309,0V57.007h0a3.477,3.477,0,0,0,3.472-3.472V52.381a3.477,3.477,0,0,0-3.472-3.472h-2.318a1.164,1.164,0,0,1-1.163-1.162V46.592a1.166,1.166,0,0,1,1.163-1.164Z" transform="translate(-329.072 -35.316)" fill="#104469"/>
    </g>
  </g>
</svg>
