<svg id="impuestos_1_" data-name="impuestos (1)" xmlns="http://www.w3.org/2000/svg" width="135.271" height="135.271" viewBox="0 0 135.271 135.271">
  <path id="Trazado_194720" data-name="Trazado 194720" d="M134.95,7.515H47.593A10.589,10.589,0,0,1,58.182,18.1V138.815h87.357V18.1A10.589,10.589,0,0,0,134.95,7.515Z" transform="translate(-35.019 -5.53)" fill="#79dae1"/>
  <g id="Grupo_146166" data-name="Grupo 146166" transform="translate(1.985 1.985)">
    <rect id="Rectángulo_44611" data-name="Rectángulo 44611" width="87.357" height="5.294" transform="translate(21.177 126.006)" fill="#d9fcff"/>
    <path id="Trazado_194723" data-name="Trazado 194723" d="M18.1,7.515h0A10.589,10.589,0,0,0,7.515,18.1V41.928H28.693V18.1A10.589,10.589,0,0,0,18.1,7.515Z" transform="translate(-7.515 -7.515)" fill="#d9fcff"/>
  </g>
  <rect id="Rectángulo_44612" data-name="Rectángulo 44612" width="55.591" height="76.769" transform="translate(77.695 19.457)" fill="#ef9f14"/>
  <g id="Grupo_146167" data-name="Grupo 146167" transform="translate(85.637 48.576)">
    <rect id="Rectángulo_44613" data-name="Rectángulo 44613" width="7.942" height="7.942" transform="translate(15.883 31.766)" fill="#fff"/>
    <rect id="Rectángulo_44614" data-name="Rectángulo 44614" width="7.942" height="23.825" transform="translate(31.766 15.883)" fill="#fff"/>
    <rect id="Rectángulo_44615" data-name="Rectángulo 44615" width="7.942" height="7.942" transform="translate(0 31.766)" fill="#fff"/>
    <rect id="Rectángulo_44616" data-name="Rectángulo 44616" width="7.942" height="7.942" transform="translate(15.883 15.883)" fill="#fff"/>
    <rect id="Rectángulo_44617" data-name="Rectángulo 44617" width="7.942" height="7.942" transform="translate(0 15.883)" fill="#fff"/>
    <rect id="Rectángulo_44618" data-name="Rectángulo 44618" width="7.942" height="7.942" transform="translate(31.766)" fill="#fff"/>
    <rect id="Rectángulo_44619" data-name="Rectángulo 44619" width="7.942" height="7.942" transform="translate(15.883)" fill="#fff"/>
    <rect id="Rectángulo_44620" data-name="Rectángulo 44620" width="7.942" height="7.942" fill="#fff"/>
  </g>
  <rect id="Rectángulo_44621" data-name="Rectángulo 44621" width="39.708" height="13.236" transform="translate(85.637 27.399)" fill="#fff"/>
  <path id="Trazado_194724" data-name="Trazado 194724" d="M7.515,357.2a9.265,9.265,0,1,0,18.53,0Z" transform="translate(-5.53 -262.826)" fill="#ef9f14"/>
  <path id="Trazado_194725" data-name="Trazado 194725" d="M157.808,357.2a9.265,9.265,0,1,0,18.53,0Z" transform="translate(-116.115 -262.826)" fill="#d9fcff"/>
  <path id="Trazado_194726" data-name="Trazado 194726" d="M91.741,437.28H62.622v-2.647a5.294,5.294,0,0,1,5.294-5.294h18.53a5.294,5.294,0,0,1,5.294,5.294v2.647Z" transform="translate(-46.077 -315.906)" fill="#ef9f14"/>
  <rect id="Rectángulo_44622" data-name="Rectángulo 44622" width="55.591" height="5.294" transform="translate(77.695 90.931)" fill="#fbc02d"/>
  <path id="Trazado_194731" data-name="Trazado 194731" d="M21.178,68.43h3.971V12.574a12.526,12.526,0,0,0-3.416-8.6h78.2a8.613,8.613,0,0,1,8.6,8.6v1.059h3.971V12.574A12.589,12.589,0,0,0,99.931,0H12.574A12.589,12.589,0,0,0,0,12.574v25.81H21.178ZM3.971,34.413V12.574a8.6,8.6,0,0,1,17.207,0V34.413Z" fill="#104469"/>
  <path id="Trazado_194732" data-name="Trazado 194732" d="M167.514,415.506H84.128v-3.839H80.157v7.809h91.328V386.254h-3.971Z" transform="translate(-58.979 -284.205)" fill="#104469"/>
  <path id="Trazado_194733" data-name="Trazado 194733" d="M286.56,66.129v80.739h59.562V66.129ZM342.151,142.9h-51.62V70.1h51.62Z" transform="translate(-210.85 -48.658)" fill="#104469"/>
  <path id="Trazado_194734" data-name="Trazado 194734" d="M376.736,308.491h11.912V296.579H376.736Zm3.971-7.941h3.971v3.971h-3.971Z" transform="translate(-277.202 -218.222)" fill="#104469"/>
  <path id="Trazado_194735" data-name="Trazado 194735" d="M328.53,296.579H316.618v11.912H328.53Zm-3.971,7.942h-3.971V300.55h3.971Z" transform="translate(-232.967 -218.222)" fill="#104469"/>
  <path id="Trazado_194736" data-name="Trazado 194736" d="M436.853,264.257h11.912v-27.8H436.853Zm3.971-23.825h3.971v19.854h-3.971Z" transform="translate(-321.436 -173.988)" fill="#104469"/>
  <path id="Trazado_194737" data-name="Trazado 194737" d="M376.736,248.374h11.912V236.462H376.736Zm3.971-7.942h3.971V244.4h-3.971Z" transform="translate(-277.202 -173.988)" fill="#104469"/>
  <path id="Trazado_194738" data-name="Trazado 194738" d="M328.53,236.462H316.618v11.912H328.53ZM324.56,244.4h-3.971v-3.971h3.971Z" transform="translate(-232.967 -173.988)" fill="#104469"/>
  <path id="Trazado_194739" data-name="Trazado 194739" d="M436.853,188.256h11.912V176.344H436.853Zm3.971-7.941h3.971v3.971h-3.971Z" transform="translate(-321.436 -129.754)" fill="#104469"/>
  <path id="Trazado_194740" data-name="Trazado 194740" d="M376.736,188.256h11.912V176.344H376.736Zm3.971-7.941h3.971v3.971h-3.971Z" transform="translate(-277.202 -129.754)" fill="#104469"/>
  <path id="Trazado_194741" data-name="Trazado 194741" d="M328.53,176.344H316.618v11.912H328.53Zm-3.971,7.942h-3.971v-3.971h3.971Z" transform="translate(-232.967 -129.754)" fill="#104469"/>
  <path id="Trazado_194742" data-name="Trazado 194742" d="M360.3,96.188H316.618v17.207H360.3Zm-3.971,13.236H320.589v-9.265h35.737Z" transform="translate(-232.967 -70.775)" fill="#104469"/>
  <path id="Trazado_194743" data-name="Trazado 194743" d="M21.839,296.863a7.288,7.288,0,0,0-7.28,7.28v4.633h33.09v-4.633a7.288,7.288,0,0,0-7.28-7.28H33.09V261.655H47.858l-8.15,17.7v.435a11.251,11.251,0,0,0,22.5,0v-.435L52.23,257.684H33.09v-5.691H29.119v5.691H9.979L0,279.353v.435a11.251,11.251,0,0,0,22.5,0v-.435l-8.15-17.7H29.119v35.208h-7.28Zm29.119-9.795a7.292,7.292,0,0,1-7-5.294H57.961A7.291,7.291,0,0,1,50.958,287.068Zm6.165-9.265H44.793l6.165-13.387Zm-45.873,9.265a7.292,7.292,0,0,1-7-5.294H18.253A7.29,7.29,0,0,1,11.251,287.068Zm6.165-9.265H5.086l6.165-13.387Zm22.954,23.03a3.312,3.312,0,0,1,3.309,3.309v.662H18.53v-.662a3.313,3.313,0,0,1,3.309-3.309Z" transform="translate(0 -185.416)" fill="#104469"/>
  <path id="Trazado_194744" data-name="Trazado 194744" d="M120.2,43.585v4.709a5.956,5.956,0,0,0,1.985,11.571,1.985,1.985,0,1,1,0,3.971h-5.03v3.971H120.2v4.368h3.971V67.465a5.956,5.956,0,0,0-1.985-11.571,1.985,1.985,0,0,1,0-3.971h5.03V47.953h-3.044V43.585Z" transform="translate(-85.52 -32.07)" fill="#104469"/>
  <rect id="Rectángulo_44624" data-name="Rectángulo 44624" width="40.502" height="3.971" transform="translate(31.104 46.855)" fill="#104469"/>
  <rect id="Rectángulo_44625" data-name="Rectángulo 44625" width="3.971" height="3.971" transform="translate(51.753 57.444)" fill="#104469"/>
  <rect id="Rectángulo_44626" data-name="Rectángulo 44626" width="16.677" height="3.971" transform="translate(31.104 57.444)" fill="#104469"/>
  <rect id="Rectángulo_44627" data-name="Rectángulo 44627" width="3.971" height="3.971" transform="translate(59.694 57.444)" fill="#104469"/>
  <g id="Grupo_146168" data-name="Grupo 146168" transform="translate(8.206 8.206)">
    <rect id="Rectángulo_44628" data-name="Rectángulo 44628" width="3.971" height="13.236" transform="translate(0 1.456)" fill="#104469"/>
    <rect id="Rectángulo_44629" data-name="Rectángulo 44629" width="3.971" height="3.971" transform="translate(0 18.663)" fill="#104469"/>
    <rect id="Rectángulo_44630" data-name="Rectángulo 44630" width="10.589" height="3.971" transform="translate(39.046)" fill="#fff"/>
    <rect id="Rectángulo_44631" data-name="Rectángulo 44631" width="18.53" height="3.971" transform="translate(61.547)" fill="#fff"/>
    <rect id="Rectángulo_44632" data-name="Rectángulo 44632" width="3.971" height="3.971" transform="translate(53.605)" fill="#fff"/>
    <rect id="Rectángulo_44633" data-name="Rectángulo 44633" width="9.794" height="3.971" transform="translate(84.048)" fill="#fff"/>
    <rect id="Rectángulo_44636" data-name="Rectángulo 44636" width="3.971" height="3.971" transform="translate(59.562 28.457)" fill="#fff"/>
    <rect id="Rectángulo_44637" data-name="Rectángulo 44637" width="3.971" height="10.589" transform="translate(59.562 13.898)" fill="#fff"/>
  </g>
</svg>
