<svg xmlns="http://www.w3.org/2000/svg" width="71.911" height="76.201" viewBox="0 0 71.911 76.201">
  <g id="XMLID_447_" transform="translate(-14.411)">
    <g id="XMLID_448_" transform="translate(15.525 1.116)">
      <g id="XMLID_449_">
        <g id="XMLID_450_">
          <g id="XMLID_451_" transform="translate(18.831)">
            <path id="XMLID_2803_" d="M162.1,333.332a10.255,10.255,0,0,0-2.035-.52l1.29-3.494-.8-.3-.352-.13-6.41-2.371-2.032,5.494-.111.3-2.595,7.018a10.152,10.152,0,1,0,13.043-6Zm.972,11.183a4.79,4.79,0,1,1-2.832-6.156A4.789,4.789,0,0,1,163.072,344.516Z" transform="translate(-148.425 -279.044)" fill="#d9fcff"/>
            <path id="XMLID_452_" d="M178.662,328.893l-6.41-2.371-2.032,5.494-.111.3,8.906-3.293Z" transform="translate(-166.882 -279.044)" fill="#0086c0"/>
            <path id="XMLID_457_" d="M200.691,127.529,188.645,160.1l-7.561-2.8,9.773-26.432a7.3,7.3,0,0,1,9.388-4.318A.754.754,0,0,1,200.691,127.529Z" transform="translate(-176.224 -108.451)" fill="#cedbda"/>
            <path id="XMLID_462_" d="M184.734,248.393l-3.65,9.871,5.155,1.907L189.408,259l5.283-14.288Z" transform="translate(-176.224 -209.408)" fill="#afc3c3"/>
            <path id="XMLID_466_" d="M230.265,127.529l-6.11,16.527-2.018,5.456a23.787,23.787,0,0,1-6.308-6.189l4.6-12.446a7.3,7.3,0,0,1,9.388-4.318A.754.754,0,0,1,230.265,127.529Z" transform="translate(-205.798 -108.451)" fill="#afc3c3"/>
            <g id="XMLID_467_" transform="translate(7.656)">
              <path id="XMLID_468_" d="M243.063,29.29A21.6,21.6,0,0,1,222.8,50.654q-.756.046-1.528.039a21.6,21.6,0,1,1,21.788-21.4Z" transform="translate(-199.87 -7.499)" fill="#ef9f14"/>
              <path id="XMLID_469_" d="M267.184,210.031a9,9,0,0,1-5.088,4.711l-2.729,1.01q-.756.046-1.528.039a21.535,21.535,0,0,1-15.012-6.258l21.4-7.913a2.506,2.506,0,0,1,3.223,1.483A9,9,0,0,1,267.184,210.031Z" transform="translate(-236.434 -172.596)" fill="#efae2e"/>
            </g>
          </g>
          <g id="XMLID_470_" transform="translate(0 30.621)">
            <path id="XMLID_2784_" d="M28.53,242.139a10.152,10.152,0,1,0,7.042,19.044l12.811-4.737-2.8-7.561-3.492,1.292a10.157,10.157,0,0,0-13.564-8.037Zm1.86,5.029a4.791,4.791,0,1,1-2.832,6.155A4.791,4.791,0,0,1,30.39,247.168Z" transform="translate(-21.896 -237.301)" fill="#79dae1"/>
            <path id="XMLID_2781_" d="M174.626,232.9l-2.8-7.561L204.405,213.3a.755.755,0,0,1,.97.446h0a7.306,7.306,0,0,1-4.319,9.387Z" transform="translate(-149.516 -213.249)" fill="#e7f2ec"/>
          </g>
        </g>
      </g>
    </g>
    <g id="XMLID_471_" transform="translate(14.411)">
      <path id="XMLID_473_" d="M411.236,320.3a1.116,1.116,0,0,0-1.116,1.116V323.2a1.116,1.116,0,1,0,2.232,0v-1.786A1.116,1.116,0,0,0,411.236,320.3Z" transform="translate(-351.229 -272.63)" fill="#104469"/>
      <path id="XMLID_474_" d="M411.236,368.3a1.116,1.116,0,0,0-1.116,1.116V371.2a1.116,1.116,0,0,0,2.232,0v-1.786A1.116,1.116,0,0,0,411.236,368.3Z" transform="translate(-351.229 -313.486)" fill="#104469"/>
      <path id="XMLID_475_" d="M394.842,410.118h-1.786a1.116,1.116,0,1,0,0,2.232h1.786a1.116,1.116,0,1,0,0-2.232Z" transform="translate(-335.754 -349.082)" fill="#104469"/>
      <path id="XMLID_476_" d="M298.842,410.118h-1.786a1.116,1.116,0,1,0,0,2.232h1.786a1.116,1.116,0,1,0,0-2.232Z" transform="translate(-254.042 -349.082)" fill="#104469"/>
      <path id="XMLID_477_" d="M346.842,410.118h-1.786a1.116,1.116,0,1,0,0,2.232h1.786a1.116,1.116,0,0,0,0-2.232Z" transform="translate(-294.898 -349.082)" fill="#104469"/>
      <path id="XMLID_478_" d="M136.754,89.114h1.786a1.116,1.116,0,1,0,0-2.232h-1.786a1.116,1.116,0,1,0,0,2.232Z" transform="translate(-117.597 -73.952)" fill="#104469"/>
      <path id="XMLID_479_" d="M88.754,89.114H90.54a1.116,1.116,0,1,0,0-2.232H88.754a1.116,1.116,0,1,0,0,2.232Z" transform="translate(-76.74 -73.952)" fill="#104469"/>
      <path id="XMLID_480_" d="M88,126.144a1.116,1.116,0,0,0,1.116-1.116v-1.786a1.116,1.116,0,1,0-2.232,0v1.786A1.116,1.116,0,0,0,88,126.144Z" transform="translate(-76.097 -103.951)" fill="#104469"/>
      <path id="XMLID_481_" d="M88,174.144a1.116,1.116,0,0,0,1.116-1.116v-1.786a1.116,1.116,0,1,0-2.232,0v1.786A1.116,1.116,0,0,0,88,174.144Z" transform="translate(-76.097 -144.807)" fill="#104469"/>
      <path id="XMLID_482_" d="M180.386,397.1a5.907,5.907,0,1,0,4.518-.174A5.87,5.87,0,0,0,180.386,397.1Zm5.807,3.83a3.675,3.675,0,1,1-2.064-1.911A3.65,3.65,0,0,1,186.193,400.929Z" transform="translate(-152.756 -337.538)" fill="#104469"/>
      <path id="XMLID_485_" d="M86.322,22.916A22.713,22.713,0,0,0,63.812,0h-.2A22.673,22.673,0,0,0,52.021,3.175a1.116,1.116,0,1,0,1.141,1.919A20.483,20.483,0,1,1,66.615,42.974l.838-.31a8.422,8.422,0,0,0,4.979-10.821,1.873,1.873,0,0,0-2.4-1.106l-8.569,3.169A1.116,1.116,0,0,0,62.233,36l8.22-3.04a6.191,6.191,0,0,1-3.774,7.611L41.295,49.957l-2.022-5.467,18.2-6.73a1.116,1.116,0,1,0-.774-2.094l-6.6,2.44a20.478,20.478,0,0,1-.8-30.047,1.116,1.116,0,0,0-1.56-1.6,22.717,22.717,0,0,0-4.709,6.606,1.111,1.111,0,0,0-.536-.137H40.713a1.116,1.116,0,1,0,0,2.232h1.464a22.8,22.8,0,0,0,1.741,18.878l-2.7,7.306c-.006.017-.01.033-.016.05l-4.654,1.721q-.129-.47-.3-.928a11.274,11.274,0,0,0-8.819-7.218V33.579a1.116,1.116,0,0,0-2.232,0v1.262a11.267,11.267,0,0,0-6.611,20.01,1.116,1.116,0,0,0,1.4-1.736,9.034,9.034,0,1,1,14.63-8.339,1.116,1.116,0,0,0,1.491.883l1.068-.4L39.2,50.731,28.814,54.572A9.027,9.027,0,0,1,24.135,55a1.116,1.116,0,1,0-.384,2.2,11.254,11.254,0,0,0,5.838-.532L36.5,54.111l-2.554,6.908a11.268,11.268,0,1,0,14.477-6.661q-.457-.169-.928-.3l1.72-4.651,11.337-4.193c.03.007.06.013.092.017a23.055,23.055,0,0,0,2.768.192h.206a22.57,22.57,0,0,0,9.69-2.175v.175a1.116,1.116,0,0,0,2.232,0V42.035A22.716,22.716,0,0,0,86.322,22.916ZM45.444,36.352a22.792,22.792,0,0,0,2.309,2.622l-3.8,1.4Zm2.2,20.1a9.036,9.036,0,1,1-11.609,5.341l3.218-8.7,2.59-.958,3.5,1.294-.4,1.068a1.116,1.116,0,0,0,.882,1.491A9.111,9.111,0,0,1,47.644,56.452Zm-1.526-5.118-1.056-.391,1.391-.514Z" transform="translate(-14.411 0)" fill="#104469"/>
      <path id="XMLID_490_" d="M295.8,99.52h-.03a3.342,3.342,0,0,0-.03,6.684h.031a3.342,3.342,0,0,0,.029-6.684Zm1.08,3.352a1.11,1.11,0,0,1-1.109,1.1h-.01a1.11,1.11,0,0,1,.01-2.219h.01a1.11,1.11,0,0,1,1.1,1.119Z" transform="translate(-251.056 -84.709)" fill="#104469"/>
      <path id="XMLID_493_" d="M337.341,122.176h0Z" transform="translate(-289.281 -103.993)" fill="#104469"/>
      <path id="XMLID_494_" d="M352.633,164.119a3.346,3.346,0,0,0,3.312,3.371h.031a3.342,3.342,0,1,0-3.343-3.372Zm4.451.039a1.1,1.1,0,0,1-.332.782,1.089,1.089,0,0,1-.788.318,1.11,1.11,0,0,1,.01-2.219h.01A1.111,1.111,0,0,1,357.085,164.158Z" transform="translate(-302.297 -136.875)" fill="#104469"/>
      <path id="XMLID_497_" d="M316.156,115.336l-9.183,8.959a1.116,1.116,0,1,0,1.559,1.6l9.183-8.959a1.116,1.116,0,1,0-1.559-1.6Z" transform="translate(-263.145 -97.901)" fill="#104469"/>
      <path id="XMLID_498_" d="M56.325,281.865a5.919,5.919,0,1,0-2.466-.544A5.909,5.909,0,0,0,56.325,281.865Zm-3.443-4.636a3.675,3.675,0,1,1,1.911,2.064A3.65,3.65,0,0,1,52.882,277.229Z" transform="translate(-45.06 -229.858)" fill="#104469"/>
      <path id="XMLID_501_" d="M209.361,302.69a1.119,1.119,0,1,0,1.583.024l-.009-.009A1.111,1.111,0,0,0,209.361,302.69Z" transform="translate(-180.063 -257.371)" fill="#104469"/>
    </g>
  </g>
</svg>
