<svg xmlns="http://www.w3.org/2000/svg" width="190" height="176" viewBox="0 0 190 176">
  <g id="Grupo_146479" data-name="Grupo 146479" transform="translate(-285 -1994)">
    <rect id="Rectángulo_44829" data-name="Rectángulo 44829" width="190" height="176" transform="translate(285 1994)" fill="#fff"/>
    <g id="subasta" transform="translate(319 2017.255)">
      <g id="Grupo_146018" data-name="Grupo 146018" transform="translate(11.04 3.008)">
        <path id="Trazado_194238" data-name="Trazado 194238" d="M94.348,110.427H30.095v4.016a8.032,8.032,0,0,1-16.063,0V10.032A8.032,8.032,0,0,0,6,2H80.293A14.055,14.055,0,0,1,94.348,16.055Z" transform="translate(-6 -2)" fill="#b8f0f5"/>
      </g>
      <g id="Grupo_146019" data-name="Grupo 146019" transform="translate(11.04 3.008)">
        <path id="Trazado_194239" data-name="Trazado 194239" d="M14.032,10.032V92.2A44.463,44.463,0,0,0,42.142,102.4c26.615,0,48.19-24.272,48.19-54.213,0-19.527-9.18-36.638-22.948-46.182H6A8.032,8.032,0,0,1,14.032,10.032Z" transform="translate(-6 -2)" fill="#d9fcff"/>
      </g>
      <g id="Grupo_146021" data-name="Grupo 146021" transform="translate(27.103 111.435)">
        <g id="Grupo_146020" data-name="Grupo 146020">
          <path id="Trazado_194240" data-name="Trazado 194240" d="M86.285,56H22.032v4.016A8.032,8.032,0,0,1,14,68.047H86.285a8.032,8.032,0,0,0,8.032-8.032V56Z" transform="translate(-14 -56)" fill="#79dae1"/>
        </g>
      </g>
      <g id="Grupo_146022" data-name="Grupo 146022" transform="translate(3.008 3.008)">
        <path id="Trazado_194241" data-name="Trazado 194241" d="M18.063,26.095H2V10.032a8.032,8.032,0,0,1,16.063,0Z" transform="translate(-2 -2)" fill="#79dae1"/>
      </g>
      <g id="Grupo_146023" data-name="Grupo 146023" transform="translate(27.278 71.545)">
        <ellipse id="Elipse_1282" data-name="Elipse 1282" cx="15.493" cy="16.047" rx="15.493" ry="16.047" transform="translate(0 0)" fill="#79dae1"/>
      </g>
      <g id="Grupo_146024" data-name="Grupo 146024" transform="translate(35.025 79.292)">
        <ellipse id="Elipse_1283" data-name="Elipse 1283" cx="7.747" cy="8.3" rx="7.747" ry="8.3" transform="translate(0 0)" fill="#d9fcff"/>
      </g>
      <g id="Grupo_146025" data-name="Grupo 146025" transform="translate(93.343 73.288)">
        <path id="Trazado_194242" data-name="Trazado 194242" d="M0,0H7.1V35.5H0Z" transform="translate(0 5.02) rotate(-45)" fill="#ef9f14"/>
      </g>
      <g id="Grupo_146026" data-name="Grupo 146026" transform="translate(79.291 59.234)">
        <path id="Trazado_194243" data-name="Trazado 194243" d="M0,0H19.876V14.2H0Z" transform="translate(0 14.053) rotate(-45)" fill="#ef9f14"/>
      </g>
      <g id="Grupo_146027" data-name="Grupo 146027" transform="translate(71.26 71.277)">
        <path id="Trazado_194244" data-name="Trazado 194244" d="M0,0H8.52V19.876H0Z" transform="translate(0 6.023) rotate(-45)" fill="#ef9f14"/>
      </g>
      <g id="Grupo_146028" data-name="Grupo 146028" transform="translate(91.339 51.202)">
        <path id="Trazado_194245" data-name="Trazado 194245" d="M0,0H8.52V19.876H0Z" transform="translate(0 6.023) rotate(-45)" fill="#ef9f14"/>
      </g>
      <g id="Grupo_146029" data-name="Grupo 146029" transform="translate(1 1)">
        <path id="Trazado_194246" data-name="Trazado 194246" d="M99.387,125.49H27.1a10.051,10.051,0,0,1-10.04-10.04V29.111H3.008A2.007,2.007,0,0,1,1,27.1V11.04a10.04,10.04,0,0,1,20.079,0V115.451a6.024,6.024,0,1,0,12.047,0v-4.016a2.007,2.007,0,0,1,2.008-2.008h72.285a2.007,2.007,0,0,1,2.008,2.008v4.016A10.051,10.051,0,0,1,99.387,125.49ZM35.13,121.474H99.387a6.031,6.031,0,0,0,6.024-6.024v-2.008H37.142v2.008a9.986,9.986,0,0,1-2.012,6.024ZM5.016,25.095H17.063V11.04a6.024,6.024,0,1,0-12.047,0Z" transform="translate(-1 -1)" fill="#104469"/>
      </g>
      <g id="Grupo_146030" data-name="Grupo 146030" transform="translate(97.379 84.328)">
        <path id="Trazado_194247" data-name="Trazado 194247" d="M49,42.5h4.016V69.607H49Z" transform="translate(-49 -42.5)" fill="#104469"/>
      </g>
      <g id="Grupo_146031" data-name="Grupo 146031" transform="translate(11.04 1)">
        <path id="Trazado_194248" data-name="Trazado 194248" d="M96.356,53.206H92.34V15.055A10.051,10.051,0,0,0,82.3,5.016H6V1H82.3A14.072,14.072,0,0,1,96.356,15.055Z" transform="translate(-6 -1)" fill="#104469"/>
      </g>
      <g id="Grupo_146032" data-name="Grupo 146032" transform="translate(69.268 69.268)">
        <path id="Trazado_194249" data-name="Trazado 194249" d="M51.064,59.1a2,2,0,0,1-1.42-.588L35.589,44.451a2.006,2.006,0,0,1,0-2.839l6.024-6.024a2.006,2.006,0,0,1,2.839,0L58.507,49.644a2.006,2.006,0,0,1,0,2.839l-6.024,6.024A2,2,0,0,1,51.064,59.1ZM39.847,43.032,51.064,54.248l3.185-3.185L43.032,39.847Z" transform="translate(-35 -35)" fill="#104469"/>
      </g>
      <g id="Grupo_146033" data-name="Grupo 146033" transform="translate(89.347 49.189)">
        <path id="Trazado_194250" data-name="Trazado 194250" d="M61.063,49.1a2,2,0,0,1-1.42-.588L45.589,34.451a2.006,2.006,0,0,1,0-2.839l6.024-6.024a2.006,2.006,0,0,1,2.839,0L68.507,39.644a2.006,2.006,0,0,1,0,2.839l-6.024,6.024A2,2,0,0,1,61.063,49.1ZM49.847,33.032,61.063,44.248l3.185-3.185L53.032,29.847Z" transform="translate(-45 -25)" fill="#104469"/>
      </g>
      <g id="Grupo_146034" data-name="Grupo 146034" transform="translate(77.873 57.814)">
        <path id="Trazado_194251" data-name="Trazado 194251" d="M0,0H19.876V4.016H0Z" transform="translate(0 14.053) rotate(-45)" fill="#104469"/>
      </g>
      <g id="Grupo_146035" data-name="Grupo 146035" transform="translate(87.911 67.853)">
        <path id="Trazado_194252" data-name="Trazado 194252" d="M0,0H19.876V4.016H0Z" transform="translate(0 14.053) rotate(-45)" fill="#104469"/>
      </g>
      <g id="Grupo_146036" data-name="Grupo 146036" transform="translate(91.944 71.865)">
        <path id="Trazado_194253" data-name="Trazado 194253" d="M72.811,69.839a2,2,0,0,1-1.42-.588l-25.1-25.1,2.839-2.839L72.811,64.992l2.181-2.181L51.313,39.132l2.839-2.839,25.1,25.1a2.006,2.006,0,0,1,0,2.839l-5.02,5.02A2,2,0,0,1,72.811,69.839Z" transform="translate(-46.293 -36.293)" fill="#104469"/>
      </g>
      <g id="Grupo_146037" data-name="Grupo 146037" transform="translate(27.103 37.142)">
        <path id="Trazado_194254" data-name="Trazado 194254" d="M14,19H80.261v4.016H14Z" transform="translate(-14 -19)" fill="#104469"/>
      </g>
      <g id="Grupo_146038" data-name="Grupo 146038" transform="translate(27.103 53.206)">
        <path id="Trazado_194255" data-name="Trazado 194255" d="M14,27H72.229v4.016H14Z" transform="translate(-14 -27)" fill="#104469"/>
      </g>
      <g id="Grupo_146039" data-name="Grupo 146039" transform="translate(27.103 45.174)">
        <path id="Trazado_194256" data-name="Trazado 194256" d="M14,23H80.261v4.016H14Z" transform="translate(-14 -23)" fill="#104469"/>
      </g>
      <g id="Grupo_146040" data-name="Grupo 146040" transform="translate(27.103 21.079)">
        <path id="Trazado_194257" data-name="Trazado 194257" d="M14,11H80.261v4.016H14Z" transform="translate(-14 -11)" fill="#104469"/>
      </g>
      <g id="Grupo_146041" data-name="Grupo 146041" transform="translate(27.103 13.047)">
        <path id="Trazado_194258" data-name="Trazado 194258" d="M14,7H80.261v4.016H14Z" transform="translate(-14 -7)" fill="#104469"/>
      </g>
      <g id="Grupo_146042" data-name="Grupo 146042" transform="translate(27.103 29.111)">
        <path id="Trazado_194259" data-name="Trazado 194259" d="M14,15H80.261v4.016H14Z" transform="translate(-14 -15)" fill="#104469"/>
      </g>
      <g id="Grupo_146043" data-name="Grupo 146043" transform="translate(27.103 61.237)">
        <path id="Trazado_194260" data-name="Trazado 194260" d="M14,31H68.213v4.016H14Z" transform="translate(-14 -31)" fill="#104469"/>
      </g>
      <g id="Grupo_146044" data-name="Grupo 146044" transform="translate(25.095 69.269)">
        <path id="Trazado_194261" data-name="Trazado 194261" d="M31.071,71.142A18.071,18.071,0,1,1,49.142,53.071,18.092,18.092,0,0,1,31.071,71.142Zm0-32.126A14.055,14.055,0,1,0,45.126,53.071,14.072,14.072,0,0,0,31.071,39.016Z" transform="translate(-13 -35)" fill="#104469"/>
      </g>
      <g id="Grupo_146045" data-name="Grupo 146045" transform="translate(33.126 77.3)">
        <path id="Trazado_194262" data-name="Trazado 194262" d="M27.04,59.079a10.04,10.04,0,1,1,10.04-10.04A10.051,10.051,0,0,1,27.04,59.079Zm0-16.063a6.024,6.024,0,1,0,6.024,6.024A6.031,6.031,0,0,0,27.04,43.016Z" transform="translate(-17 -39)" fill="#104469"/>
      </g>
      <g id="Grupo_146046" data-name="Grupo 146046" transform="translate(65.253 95.37)">
        <path id="Trazado_194263" data-name="Trazado 194263" d="M57.095,58.04H49.063a8.034,8.034,0,0,1-6.8-3.765A13.24,13.24,0,0,1,33,58.04V54.024a9.231,9.231,0,0,0,7.694-4.118l.675-1.012a2.008,2.008,0,0,1,3.678,1.114,4.02,4.02,0,0,0,4.016,4.016h8.032Z" transform="translate(-33 -47.999)" fill="#104469"/>
      </g>
    </g>
  </g>
</svg>
