<svg xmlns="http://www.w3.org/2000/svg" width="294" height="294" viewBox="0 0 294 294">
  <g id="Grupo_146481" data-name="Grupo 146481" transform="translate(-285 -3263)">
    <rect id="Rectángulo_44642" data-name="Rectángulo 44642" width="294" height="294" rx="8" transform="translate(285 3263)" fill="#fff0d6"/>
    <g id="Page-1" transform="translate(340.779 3318.022)">
      <g id="_048---Financial-Crisis" data-name="048---Financial-Crisis" transform="translate(0 0.978)">
        <circle id="Oval" cx="40.673" cy="40.673" r="40.673" transform="translate(6.257 3.198)" fill="#ef9f14"/>
        <path id="Shape" d="M18.193,2a40.77,40.77,0,0,0-4.693.294,40.648,40.648,0,0,1,0,80.757A40.673,40.673,0,1,0,18.193,2Z" transform="translate(28.737 1.198)" fill="#fec108"/>
        <path id="Shape-2" data-name="Shape" d="M73.742,46.772H10.386a9.386,9.386,0,0,1,0-18.772H79.217a9.192,9.192,0,0,1,6.414,2.566Z" transform="translate(2.129 56.544)" fill="#d9fcff"/>
        <path id="Shape-3" data-name="Shape" d="M60.132,52.772H10.386a9.386,9.386,0,1,1,0-18.772H73.742Z" transform="translate(2.129 69.316)" fill="#d9fcff"/>
        <path id="Shape-4" data-name="Shape" d="M60.132,40H10.386a9.386,9.386,0,0,0,0,18.772H46.522Z" transform="translate(2.129 82.088)" fill="#d9fcff"/>
        <path id="Shape-5" data-name="Shape" d="M32.912,64.772H10.386a9.386,9.386,0,0,1,0-18.772H46.522Z" transform="translate(2.129 94.86)" fill="#d9fcff"/>
        <circle id="Oval-2" data-name="Oval" cx="40.673" cy="40.673" r="40.673" transform="translate(100.274 3.198)" fill="#79dae1"/>
        <path id="Shape-6" data-name="Shape" d="M48.243,2a40.77,40.77,0,0,0-4.693.294,40.648,40.648,0,0,1,0,80.757A40.673,40.673,0,1,0,48.243,2Z" transform="translate(92.704 1.198)" fill="#d9fcff"/>
        <path id="Shape-7" data-name="Shape" d="M32,30.566A9.167,9.167,0,0,1,38.4,28h68.706a9.386,9.386,0,0,1,0,18.772H43.867Z" transform="translate(68.117 56.544)" fill="#79dae1"/>
        <path id="Shape-8" data-name="Shape" d="M62.392,28H53.006a9.386,9.386,0,1,1,0,18.772h9.386a9.386,9.386,0,0,0,0-18.772Z" transform="translate(112.832 56.544)" fill="#d9fcff"/>
        <path id="Shape-9" data-name="Shape" d="M35.793,34h63.24a9.386,9.386,0,1,1,0,18.772H49.378Z" transform="translate(76.191 69.316)" fill="#79dae1"/>
        <path id="Shape-10" data-name="Shape" d="M62.392,34H53.006a9.386,9.386,0,1,1,0,18.772h9.386a9.386,9.386,0,1,0,0-18.772Z" transform="translate(112.832 69.316)" fill="#d9fcff"/>
        <path id="Shape-11" data-name="Shape" d="M53.72,58.772H89.79A9.386,9.386,0,0,0,89.79,40H40.135Z" transform="translate(85.434 82.088)" fill="#79dae1"/>
        <path id="Shape-12" data-name="Shape" d="M62.392,40H53.006a9.386,9.386,0,0,1,0,18.772h9.386a9.386,9.386,0,0,0,0-18.772Z" transform="translate(112.832 82.088)" fill="#d9fcff"/>
        <path id="Shape-13" data-name="Shape" d="M44.477,46h36.07a9.386,9.386,0,0,1,0,18.772H58.062Z" transform="translate(94.677 94.86)" fill="#79dae1"/>
        <path id="Shape-14" data-name="Shape" d="M62.392,46H53.006a9.386,9.386,0,0,1,0,18.772h9.386a9.386,9.386,0,0,0,0-18.772Z" transform="translate(112.832 94.86)" fill="#d9fcff"/>
        <path id="Shape-15" data-name="Shape" d="M137.077,128.117H16.549a8.491,8.491,0,0,1-6.939-13.453L69.874,31.529a8.588,8.588,0,0,1,13.879,0l60.264,83.135a8.491,8.491,0,0,1-6.939,13.453Z" transform="translate(17.047 56.544)" fill="#ef9f14"/>
        <path id="Shape-16" data-name="Shape" d="M100.4,114.644,40.132,31.509A8.554,8.554,0,0,0,28.5,29.438a8.419,8.419,0,0,1,2.246,2.071l60.264,83.135A8.491,8.491,0,0,1,84.071,128.1h9.386a8.491,8.491,0,0,0,6.939-13.453Z" transform="translate(60.667 56.564)" fill="#fff0d6"/>
        <circle id="Oval-3" data-name="Oval" cx="6.257" cy="6.257" r="6.257" transform="translate(87.603 159.632)" fill="#f5f5f5"/>
        <rect id="Rectangle-path" width="12.515" height="37.544" rx="2" transform="translate(87.603 109.573)" fill="#f5f5f5"/>
        <circle id="Oval-4" data-name="Oval" cx="28.158" cy="28.158" r="28.158" transform="translate(18.772 15.713)" fill="#fff0d6"/>
        <circle id="Oval-5" data-name="Oval" cx="28.158" cy="28.158" r="28.158" transform="translate(112.789 15.713)" fill="#d9fcff"/>
        <g id="Grupo_146421" data-name="Grupo 146421">
          <path id="Shape-17" data-name="Shape" d="M36.287,5A31.287,31.287,0,1,0,67.573,36.287,31.287,31.287,0,0,0,36.287,5Zm0,56.316A25.029,25.029,0,1,1,61.316,36.287,25.029,25.029,0,0,1,36.287,61.316Z" transform="translate(10.643 7.584)" fill="#104469"/>
          <path id="Shape-18" data-name="Shape" d="M21.386,18.386h6.257a3.129,3.129,0,0,0,0-6.257H24.515a3.129,3.129,0,1,0-6.257,0V12.7a9.364,9.364,0,0,0,3.129,18.2,3.129,3.129,0,0,1,0,6.257H15.129a3.129,3.129,0,0,0,0,6.257h3.129a3.129,3.129,0,1,0,6.257,0V42.84a9.364,9.364,0,0,0-3.129-18.2,3.129,3.129,0,0,1,0-6.257Z" transform="translate(25.544 16.099)" fill="#104469"/>
          <path id="Shape-19" data-name="Shape" d="M66.337,5A31.287,31.287,0,1,0,97.623,36.287,31.287,31.287,0,0,0,66.337,5Zm0,56.316A25.029,25.029,0,1,1,91.366,36.287,25.029,25.029,0,0,1,66.337,61.316Z" transform="translate(74.61 7.584)" fill="#104469"/>
          <path id="Shape-20" data-name="Shape" d="M51.436,18.386h6.257a3.129,3.129,0,0,0,0-6.257H54.565a3.129,3.129,0,1,0-6.257,0V12.7a9.364,9.364,0,0,0,3.129,18.2,3.129,3.129,0,1,1,0,6.257H45.179a3.129,3.129,0,1,0,0,6.257h3.129a3.129,3.129,0,1,0,6.257,0V42.84a9.364,9.364,0,0,0-3.129-18.2,3.129,3.129,0,0,1,0-6.257Z" transform="translate(89.511 16.099)" fill="#104469"/>
          <path id="Shape-21" data-name="Shape" d="M187.72,94.907a12.515,12.515,0,0,0-12.5-12.515H163.392a43.8,43.8,0,1,0-44.89,0H106.519a12.289,12.289,0,0,0-6.467,1.84,11.338,11.338,0,0,0-12.314-.044,12.352,12.352,0,0,0-6.392-1.8H69.375a43.8,43.8,0,1,0-44.89,0H12.515A12.515,12.515,0,0,0,3.67,103.752c.2.2.441.354.654.541a12.418,12.418,0,0,0-.654,18.231c.2.2.441.354.654.541A12.418,12.418,0,0,0,3.67,141.3c.2.2.441.354.654.541a12.48,12.48,0,0,0,8.191,21.9h16.4l-4.79,6.608A11.617,11.617,0,0,0,33.6,188.767H154.124a11.617,11.617,0,0,0,9.474-18.422l-4.79-6.608h16.416a12.465,12.465,0,0,0,8.175-21.9c.216-.188.457-.341.66-.544a12.427,12.427,0,0,0-.66-18.228c.216-.188.457-.341.66-.544a12.427,12.427,0,0,0-.66-18.228c.216-.188.457-.341.66-.544A12.443,12.443,0,0,0,187.72,94.907ZM103.4,44.849a37.544,37.544,0,1,1,37.544,37.544A37.544,37.544,0,0,1,103.4,44.849Zm-94.017,0A37.544,37.544,0,1,1,46.93,82.393,37.544,37.544,0,0,1,9.386,44.849ZM8.094,99.328A6.257,6.257,0,0,1,12.515,88.65H81.345a6.145,6.145,0,0,1,1.793.291l-8.864,12.224H12.515A6.214,6.214,0,0,1,8.094,99.328Zm0,18.772a6.257,6.257,0,0,1,4.421-10.678H69.738l-9.073,12.515H12.515A6.214,6.214,0,0,1,8.094,118.1Zm0,18.772a6.257,6.257,0,0,1,4.421-10.678H56.131l-9.073,12.515H12.515A6.214,6.214,0,0,1,8.094,136.872Zm4.421,20.609a6.257,6.257,0,1,1,0-12.515H42.522l-9.073,12.515Zm146.453,22.082a5.341,5.341,0,0,1-4.843,2.947H33.6a5.341,5.341,0,0,1-4.843-2.947,5.237,5.237,0,0,1,.435-5.544L89.455,90.887a5.456,5.456,0,0,1,8.81,0l60.268,83.132a5.237,5.237,0,0,1,.435,5.544Zm22.5-28.339a6.257,6.257,0,0,1-6.239,6.257H154.262l-9.073-12.515h30.035a6.257,6.257,0,0,1,6.239,6.257Zm0-18.772a6.257,6.257,0,0,1-6.239,6.257H140.662l-9.073-12.515h43.636a6.257,6.257,0,0,1,6.239,6.257Zm0-18.772a6.257,6.257,0,0,1-6.239,6.257H127.043l-9.073-12.515h57.255A6.257,6.257,0,0,1,181.463,113.679Zm-68.017-12.515-8.838-12.2a6.114,6.114,0,0,1,1.912-.313h68.706a6.257,6.257,0,0,1,4.405,10.681,6.182,6.182,0,0,1-4.405,1.833Z" transform="translate(0 -0.978)" fill="#104469"/>
          <path id="Shape-22" data-name="Shape" d="M36.386,51a9.386,9.386,0,1,0,9.386,9.386A9.386,9.386,0,0,0,36.386,51Zm0,12.515a3.129,3.129,0,1,1,3.129-3.129A3.129,3.129,0,0,1,36.386,63.515Z" transform="translate(57.474 105.503)" fill="#104469"/>
          <path id="Shape-23" data-name="Shape" d="M36.386,35A9.386,9.386,0,0,0,27,44.386V69.415a9.386,9.386,0,0,0,18.772,0V44.386A9.386,9.386,0,0,0,36.386,35Zm3.129,34.415a3.129,3.129,0,0,1-6.257,0V44.386a3.129,3.129,0,0,1,6.257,0Z" transform="translate(57.474 71.444)" fill="#104469"/>
        </g>
      </g>
    </g>
  </g>
</svg>
