<svg xmlns="http://www.w3.org/2000/svg" width="853" height="614" viewBox="0 0 853 614">
  <g id="Grupo_146474" data-name="Grupo 146474" transform="translate(1092 9882)">
    <circle id="Elipse_1393" data-name="Elipse 1393" cx="133.5" cy="133.5" r="133.5" transform="translate(-792 -9882)" fill="#fff0d6"/>
    <text id="Micro_y_pequeña_empresa_y_el_régimen_sancionatorio._" data-name="Micro y pequeña 
empresa y el régimen 
sancionatorio.
" transform="translate(-659 -9778)" fill="#104469" font-size="24" font-family="Roboto-Black, Roboto" font-weight="800"><tspan x="-92.777" y="0">Micro y pequeña </tspan><tspan x="-120.141" y="30">empresa y el régimen </tspan><tspan x="-77.584" y="60">sancionatorio.</tspan><tspan x="0" y="90"></tspan></text>
    <circle id="Elipse_1394" data-name="Elipse 1394" cx="88" cy="88" r="88" transform="translate(-868 -9591)" fill="#d9fcff"/>
    <text id="Normativa_vigente_en_sanciones._" data-name="Normativa vigente 
en sanciones. " transform="translate(-776 -9486)" fill="#12263f" font-size="18" font-family="Roboto-Black, Roboto" font-weight="800"><tspan x="-76.983" y="0">Normativa vigente </tspan><tspan x="-58.43" y="25">en sanciones. </tspan></text>
    <circle id="Elipse_1395" data-name="Elipse 1395" cx="20.5" cy="20.5" r="20.5" transform="translate(-801 -9564)" fill="#ef9f14"/>
    <text id="_2" data-name="2" transform="translate(-780 -9537)" fill="#12263f" font-size="18" font-family="Roboto-Black, Roboto" font-weight="800"><tspan x="-5.212" y="0">2</tspan></text>
    <circle id="Elipse_1396" data-name="Elipse 1396" cx="88" cy="88" r="88" transform="translate(-632 -9591)" fill="#d9fcff"/>
    <text id="Alivios_y_beneficios_Tributarios." data-name="Alivios y beneficios 
Tributarios." transform="translate(-544 -9486)" fill="#12263f" font-size="18" font-family="Roboto-Black, Roboto" font-weight="800"><tspan x="-81.729" y="0">Alivios y beneficios </tspan><tspan x="-47.549" y="25">Tributarios.</tspan></text>
    <circle id="Elipse_1397" data-name="Elipse 1397" cx="20.5" cy="20.5" r="20.5" transform="translate(-565 -9564)" fill="#ef9f14"/>
    <text id="_3" data-name="3" transform="translate(-544 -9537)" fill="#12263f" font-size="18" font-family="Roboto-Black, Roboto" font-weight="800"><tspan x="-5.212" y="0">3</tspan></text>
    <path id="Trazado_195757" data-name="Trazado 195757" d="M-2321-9368.277v-286.871h676.477v79.793" transform="translate(1315)" fill="none" stroke="#79dae1" stroke-width="2"/>
    <path id="Trazado_195758" data-name="Trazado 195758" d="M-2090-9655.148V-9591" transform="translate(1315)" fill="none" stroke="#79dae1" stroke-width="2"/>
    <path id="Trazado_195759" data-name="Trazado 195759" d="M-2090-9655.148V-9591" transform="translate(1551)" fill="none" stroke="#79dae1" stroke-width="2"/>
    <circle id="Elipse_1398" data-name="Elipse 1398" cx="88" cy="88" r="88" transform="translate(-415 -9591)" fill="#d9fcff"/>
    <text id="Evasión_Tributaria" data-name="Evasión 
Tributaria" transform="translate(-327 -9486)" fill="#12263f" font-size="18" font-family="Roboto-Black, Roboto" font-weight="800"><tspan x="-33.737" y="0">Evasión </tspan><tspan x="-39.942" y="25">Tributaria</tspan></text>
    <circle id="Elipse_1399" data-name="Elipse 1399" cx="20.5" cy="20.5" r="20.5" transform="translate(-348 -9564)" fill="#ef9f14"/>
    <text id="_4" data-name="4" transform="translate(-327 -9537)" fill="#12263f" font-size="18" font-family="Roboto-Black, Roboto" font-weight="800"><tspan x="-5.212" y="0">4</tspan></text>
    <circle id="Elipse_1400" data-name="Elipse 1400" cx="88" cy="88" r="88" transform="translate(-1092 -9591)" fill="#d9fcff"/>
    <text id="Régimen_Sancionatorio" data-name="Régimen 
Sancionatorio" transform="translate(-1006 -9486)" fill="#12263f" font-size="18" font-family="Roboto-Black, Roboto" font-weight="800"><tspan x="-38.391" y="0">Régimen </tspan><tspan x="-56.492" y="25">Sancionatorio</tspan></text>
    <circle id="Elipse_1401" data-name="Elipse 1401" cx="20.5" cy="20.5" r="20.5" transform="translate(-1027 -9564)" fill="#ef9f14"/>
    <text id="_1" data-name="1" transform="translate(-1006 -9537)" fill="#12263f" font-size="18" font-family="Roboto-Black, Roboto" font-weight="800"><tspan x="-5.212" y="0">1</tspan></text>
    <path id="Polígono_27" data-name="Polígono 27" d="M9.5,0,19,16H0Z" transform="translate(-996 -9360) rotate(180)" fill="#79dae1"/>
    <rect id="Rectángulo_44961" data-name="Rectángulo 44961" width="106" height="34" rx="5" transform="translate(-1058 -9344)" fill="#d9fcff"/>
    <text id="Principios" transform="translate(-1006 -9322)" fill="#1a878e" font-size="18" font-family="Roboto-Medium, Roboto" font-weight="500"><tspan x="-40.364" y="0">Principios</tspan></text>
    <rect id="Rectángulo_44962" data-name="Rectángulo 44962" width="106" height="34" rx="5" transform="translate(-1058 -9302)" fill="#d9fcff"/>
    <text id="Sanciones" transform="translate(-1006 -9279)" fill="#1a878e" font-size="18" font-family="Roboto-Medium, Roboto" font-weight="500"><tspan x="-41.919" y="0">Sanciones</tspan></text>
  </g>
</svg>
